<svg width="364" height="449" fill="none" xmlns="http://www.w3.org/2000/svg"><path d="M198.5 34.5c72.063 67.422 50.666 150.632 9.257 220.351-101.96 171.122-214.55 73.232-170.117 1.686C72.302 201.128 210.169 205.248 305.069 282" stroke="url(#paint0_linear)" stroke-width="2" stroke-miterlimit="10" stroke-dasharray="8.16 8.16"/><circle r="5" transform="matrix(-1 0 0 1 305 282)" fill="#CAEAF4"/><g filter="url(#filter0_dd)"><path d="M43.471 350.149l.173.101 2.683-4.703-.166-.097c-.652-.382-2.189-.6-2.517-.024l-1.448 2.538c-.254.446.412 1.681 1.275 2.185z" fill="#fff"/><path d="M43.535 350.138l.173.101 2.683-4.704a30.35 30.35 0 01-.165-.096c-.653-.382-2.19-.6-2.517-.025l-1.449 2.539c-.261.442.413 1.681 1.276 2.185z" fill="url(#paint1_linear)"/><path opacity=".2" d="M46.508 345.543c-.35-.205-1.238.686-1.984 1.99-.745 1.304-1.066 2.527-.716 2.731.35.204 1.239-.687 1.984-1.991.746-1.303 1.066-2.526.716-2.73z" fill="url(#paint2_radial)"/><path d="M47.867 352.61l.118.069c3.463 2.025 6.855 2.628 7.579 1.359.728-1.275-1.494-3.947-4.95-5.968l-.117-.069-4.287-2.507-2.63 4.609 4.287 2.507z" fill="#fff"/><path d="M47.9 352.552l.118.068c3.463 2.026 6.855 2.629 7.579 1.36.728-1.275-1.494-3.947-4.95-5.968l-.117-.069-4.287-2.507-2.63 4.609 4.287 2.507z" fill="url(#paint3_linear)"/><path opacity=".2" d="M46.158 349.239c-.411-1.993-.398-3.67.026-3.736.424-.066 1.098 1.5 1.51 3.493.41 1.993.398 3.67-.026 3.736-.424.066-1.098-1.501-1.51-3.493z" fill="url(#paint4_radial)"/><path d="M63.546 344.037l-25.407-14.893c9.384 8.09 12.289 45.65 12.289 45.65l5.824 3.471c.011-.003-1.42-39.336 7.294-34.228z" fill="#fff"/><path d="M63.67 343.827l-25.41-14.894c9.386 8.091 12.29 45.653 12.29 45.653l5.708 3.469s-1.303-39.336 7.411-34.228z" fill="url(#paint5_linear)"/><mask id="a" maskUnits="userSpaceOnUse" x="38" y="328" width="26" height="51"><path d="M63.759 343.561l-25.158-14.628c9.26 8.005 11.668 45.712 11.668 45.712l5.649 3.41s-.787-39.51 7.841-34.494z" fill="url(#paint6_linear)"/></mask><g mask="url(#a)"><path opacity=".2" d="M52.475 375.403c-1.626-.942-3.077-1.476-3.24-1.192-.163.283 1.022 1.277 2.649 2.22 1.626.942 3.077 1.476 3.24 1.192.163-.284-1.023-1.277-2.649-2.22z" fill="url(#paint7_radial)"/><path opacity=".2" d="M53.025 334.828c-8.882-5.146-16.736-8.184-17.541-6.786-.805 1.398 5.742 6.703 14.624 11.848 8.882 5.146 16.735 8.184 17.54 6.786.806-1.398-5.741-6.703-14.623-11.848z" fill="url(#paint8_radial)"/></g><path d="M61.641 318.151l.173.101-2.683 4.704-.165-.097c-.653-.382-1.607-1.621-1.279-2.196l1.449-2.539c.246-.45 1.643-.478 2.505.027z" fill="#fff"/><path d="M61.664 318.213l.172.101-2.683 4.703a30.35 30.35 0 01-.165-.096c-.652-.382-1.606-1.621-1.278-2.197l1.448-2.538c.247-.451 1.643-.478 2.506.027z" fill="url(#paint9_linear)"/><path opacity=".2" d="M61.924 318.372c-.35-.205-1.238.687-1.984 1.99-.745 1.304-1.066 2.527-.716 2.731.35.205 1.239-.687 1.984-1.99.746-1.304 1.066-2.527.716-2.731z" fill="url(#paint10_radial)"/><path d="M65.976 320.703l.118.069c3.463 2.025 5.677 4.692 4.95 5.968-.728 1.275-4.124.661-7.58-1.36l-.117-.069-4.287-2.507 2.63-4.608 4.286 2.507z" fill="#fff"/><path d="M65.943 320.761l.118.069c3.463 2.025 5.673 4.7 4.95 5.968-.729 1.275-4.124.661-7.58-1.36l-.118-.069-4.286-2.507 2.63-4.608 4.286 2.507z" fill="url(#paint11_linear)"/><path opacity=".2" d="M62.217 320.923c-1.907.634-3.332 1.484-3.176 1.889.156.406 1.83.216 3.736-.418 1.907-.634 3.332-1.483 3.176-1.889-.156-.405-1.83-.215-3.736.418z" fill="url(#paint12_radial)"/><path d="M66.526 338.805L41.12 323.912c11.595 4.208 45.114-12.003 45.114-12.003l5.873 3.386c-.004.007-34.293 18.402-25.58 23.51z" fill="#fff"/><path d="M66.41 339.01l-25.408-14.894c11.596 4.208 45.116-12.003 45.116-12.003l5.813 3.284c-.004.007-34.234 18.505-25.52 23.613z" fill="url(#paint13_linear)"/><mask id="b" maskUnits="userSpaceOnUse" x="41" y="311" width="51" height="29"><path d="M66.16 339.104l-25.158-14.628c11.515 4.074 45.172-12.662 45.172-12.662l5.757 3.222c-.004.008-34.399 19.052-25.771 24.068z" fill="url(#paint14_linear)"/></mask><g mask="url(#b)"><path opacity=".2" d="M56.1 329.03c-8.881-5.145-16.734-8.183-17.54-6.785-.805 1.398 5.742 6.702 14.624 11.848 8.882 5.145 16.736 8.183 17.54 6.785.806-1.398-5.741-6.702-14.623-11.848z" fill="url(#paint15_radial)"/><path opacity=".2" d="M88.64 312.311c-1.627-.942-3.078-1.476-3.241-1.193-.163.284 1.022 1.278 2.649 2.22 1.626.942 3.077 1.476 3.24 1.193.163-.284-1.022-1.278-2.649-2.22z" fill="url(#paint16_radial)"/></g><path d="M49.877 374.843c.064-.111 1.54.616 1.847.793.306.177 4.808 2.906 4.74 3.024-.063.11-4.666-2.427-4.98-2.609-.305-.177-1.675-1.091-1.607-1.208z" fill="#fff"/><path d="M49.944 374.881c.063-.111 1.521.614 1.827.791.306.178 4.765 2.881 4.701 2.992-.064.11-4.626-2.413-4.932-2.59-.306-.178-1.66-1.082-1.596-1.193z" fill="url(#paint17_linear)"/><path d="M86.276 311.362c-.064.111 1.301 1.031 1.607 1.208.306.178 4.912 2.727 4.98 2.609.064-.111-4.428-2.842-4.74-3.024-.314-.181-1.784-.903-1.847-.793z" fill="#fff"/><path d="M86.334 311.396c-.064.111 1.29 1.016 1.597 1.193.306.177 4.868 2.7 4.932 2.59.063-.111-4.395-2.814-4.701-2.991-.306-.178-1.764-.903-1.828-.792z" fill="url(#paint18_linear)"/><path d="M94.634 358.492c-1.476.767-2.9 9.863-4.32 14.124l-2.33-1.354s-2.345-17.66-4.12-19.028l10.77 6.258z" fill="#fff"/><path d="M94.731 358.393c-1.476.767-2.958 9.829-4.372 14.095l-2.27-1.32s-2.346-17.661-4.12-19.029l10.763 6.254z" fill="url(#paint19_linear)"/><mask id="c" maskUnits="userSpaceOnUse" x="83" y="352" width="12" height="21"><path d="M94.733 358.386c-1.477.769-2.965 9.834-4.381 14.102l-2.27-1.319s-2.332-17.663-4.105-19.03l10.756 6.247z" fill="url(#paint20_linear)"/></mask><g mask="url(#c)"><path opacity=".2" d="M89.058 360.126c-2.469-1-4.27-2.313-4.025-2.926.246-.613 2.442-.306 4.91.695 2.47 1 4.272 2.313 4.026 2.926-.239.618-2.443.306-4.911-.695z" fill="url(#paint21_radial)"/></g><path d="M94.487 358.327c-.077-1.67 7.046-7.454 10.005-10.821l-2.329-1.353s-16.382 6.779-18.446 5.916l10.77 6.258z" fill="#fff"/><mask id="d" maskUnits="userSpaceOnUse" x="83" y="346" width="22" height="13"><path d="M94.48 358.329c-.075-1.67 7.051-7.461 10.012-10.831l-2.328-1.352s-16.384 6.793-18.447 5.931l10.763 6.252z" fill="#fff"/></mask><g mask="url(#d)"><path d="M94.45 358.466c-.076-1.67 6.992-7.494 9.961-10.86l-2.27-1.318s-16.385 6.793-18.448 5.931l10.757 6.247z" fill="url(#paint22_linear)"/><path opacity=".2" d="M92.921 352.693c-2.097-1.646-4.13-2.557-4.537-2.037-.406.52.956 2.276 3.053 3.922 2.097 1.646 4.13 2.557 4.537 2.037.406-.52-.956-2.276-3.053-3.922z" fill="url(#paint23_radial)"/></g><path d="M32.603 327.119l46.068 26.65c17.778 10.285 18.109 6.176 18.109 6.176s3.388-2.339-14.39-12.623l-46.067-26.65s-10.585-5.182-12.037-2.664c-1.453 2.517 8.317 9.111 8.317 9.111z" fill="#fff"/><path d="M32.72 326.916l46.068 26.649c17.778 10.285 18.11 6.177 18.11 6.177s3.388-2.339-14.39-12.624l-46.068-26.65s-10.585-5.181-12.037-2.664c-1.453 2.518 8.318 9.112 8.318 9.112z" fill="url(#paint24_radial)"/><path opacity=".2" d="M87.594 352.463c-5.572-3.225-10.446-5.22-10.887-4.455-.44.765 3.718 4 9.29 7.226 5.571 3.226 10.445 5.22 10.887 4.455.44-.765-3.718-4-9.29-7.226z" fill="url(#paint25_radial)"/><path d="M81.805 350.979c.186-.32 3.791 1.422 4.548 1.86.757.438 11.702 7.11 11.516 7.43-.185.321-11.425-5.837-12.182-6.275-.757-.438-4.067-2.694-3.882-3.015z" fill="#fff"/><path d="M81.975 351.058c.18-.314 3.753 1.419 4.495 1.848.75.434 11.582 7.031 11.4 7.344-.18.314-11.307-5.788-12.05-6.217-.738-.437-4.022-2.669-3.845-2.975z" fill="url(#paint26_linear)"/><mask id="e" maskUnits="userSpaceOnUse" x="28" y="319" width="3" height="4"><path d="M28.43 320.164c.622-1.091 1.874-1.134 2.376-.841.501.294-.126.904-.662 1.845-.54.948-.8 1.859-1.302 1.565-.501-.293-1.068-1.401-.412-2.569z" fill="url(#paint27_radial)" opacity=".5"/></mask><g mask="url(#e)"><path opacity=".5" d="M28.445 320.177c.632-1.1 1.874-1.161 2.366-.874.493.286-.137.904-.681 1.852-.55.955-.82 1.87-1.312 1.583-.493-.286-1.039-1.385-.373-2.561z" fill="url(#paint28_radial)"/><path opacity=".5" d="M29.607 323.331l-.864-.502s-1.073-2.842 2.121-3.691l.864.502s-2.368 1.361-2.12 3.691z" fill="#fff"/><path opacity=".5" d="M29.607 323.331l-.864-.502s-1.073-2.842 2.121-3.691l.864.502s-2.372 1.369-2.12 3.691z" fill="url(#paint29_linear)"/></g></g><defs><linearGradient id="paint0_linear" x1="261.056" y1="373.266" x2="86.424" y2="79.584" gradientUnits="userSpaceOnUse"><stop stop-color="#CBEAF4"/><stop offset="1" stop-color="#B0E2F2"/></linearGradient><linearGradient id="paint1_linear" x1="45.049" y1="347.887" x2="42.969" y2="346.701" gradientUnits="userSpaceOnUse"><stop stop-color="#EDF8FE"/><stop offset="1" stop-color="#fff"/></linearGradient><linearGradient id="paint3_linear" x1="55.602" y1="353.978" x2="44.865" y2="347.851" gradientUnits="userSpaceOnUse"><stop stop-color="#fff"/><stop offset="1" stop-color="#EAF7FE"/></linearGradient><linearGradient id="paint5_linear" x1="57.955" y1="359.766" x2="23.241" y2="340.002" gradientUnits="userSpaceOnUse"><stop stop-color="#EFF9FE"/><stop offset="1" stop-color="#E1F4FD"/></linearGradient><linearGradient id="paint6_linear" x1="57.85" y1="359.654" x2="23.615" y2="340.005" gradientUnits="userSpaceOnUse"><stop stop-color="#fff"/><stop offset="1" stop-color="#E1F4FD"/></linearGradient><linearGradient id="paint9_linear" x1="60.494" y1="320.665" x2="58.415" y2="319.479" gradientUnits="userSpaceOnUse"><stop stop-color="#EDF8FE"/><stop offset="1" stop-color="#fff"/></linearGradient><linearGradient id="paint11_linear" x1="71.015" y1="326.796" x2="60.278" y2="320.669" gradientUnits="userSpaceOnUse"><stop stop-color="#fff"/><stop offset="1" stop-color="#EAF7FE"/></linearGradient><linearGradient id="paint13_linear" x1="77.159" y1="326.029" x2="42.445" y2="306.264" gradientUnits="userSpaceOnUse"><stop stop-color="#EFF9FE"/><stop offset="1" stop-color="#E1F4FD"/></linearGradient><linearGradient id="paint14_linear" x1="77.054" y1="325.917" x2="42.819" y2="306.268" gradientUnits="userSpaceOnUse"><stop stop-color="#fff"/><stop offset="1" stop-color="#E1F4FD"/></linearGradient><linearGradient id="paint17_linear" x1="56.476" y1="378.664" x2="49.935" y2="374.897" gradientUnits="userSpaceOnUse"><stop stop-color="#EFF9FE"/><stop offset=".2" stop-color="#fff"/><stop offset=".404" stop-color="#fff"/><stop offset=".607" stop-color="#fff"/><stop offset=".807" stop-color="#EEF8FE"/><stop offset="1" stop-color="#EEF9FE"/></linearGradient><linearGradient id="paint18_linear" x1="92.866" y1="315.179" x2="86.326" y2="311.412" gradientUnits="userSpaceOnUse"><stop stop-color="#EFF9FE"/><stop offset=".2" stop-color="#fff"/><stop offset=".404" stop-color="#fff"/><stop offset=".607" stop-color="#fff"/><stop offset=".807" stop-color="#EEF8FE"/><stop offset="1" stop-color="#EEF9FE"/></linearGradient><linearGradient id="paint19_linear" x1="91.328" y1="364.734" x2="77.736" y2="356.928" gradientUnits="userSpaceOnUse"><stop stop-color="#EFF9FE"/><stop offset="1" stop-color="#E1F4FD"/></linearGradient><linearGradient id="paint20_linear" x1="91.326" y1="364.732" x2="77.744" y2="356.928" gradientUnits="userSpaceOnUse"><stop stop-color="#EFF9FE"/><stop offset="1" stop-color="#E1F4FD"/></linearGradient><linearGradient id="paint22_linear" x1="98.214" y1="352.326" x2="84.632" y2="344.522" gradientUnits="userSpaceOnUse"><stop stop-color="#EFF9FE"/><stop offset="1" stop-color="#E1F4FD"/></linearGradient><linearGradient id="paint26_linear" x1="97.88" y1="360.251" x2="81.97" y2="351.069" gradientUnits="userSpaceOnUse"><stop stop-color="#EFF9FE"/><stop offset=".2" stop-color="#fff"/><stop offset=".404" stop-color="#fff"/><stop offset=".607" stop-color="#fff"/><stop offset=".807" stop-color="#EEF8FE"/><stop offset="1" stop-color="#EEF9FE"/></linearGradient><linearGradient id="paint29_linear" x1="32.843" y1="319.444" x2="28.238" y2="322.391" gradientUnits="userSpaceOnUse"><stop stop-color="#828C93"/><stop offset=".083" stop-color="#89939A"/><stop offset=".222" stop-color="#9DA8AE"/><stop offset=".4" stop-color="#BFCAD0"/><stop offset=".511" stop-color="#D8E2E7"/><stop offset=".623" stop-color="#A8B3B9"/><stop offset=".754" stop-color="#798389"/><stop offset=".865" stop-color="#586066"/><stop offset=".95" stop-color="#41474C"/><stop offset="1" stop-color="#373D42"/></linearGradient><radialGradient id="paint2_radial" cx="0" cy="0" r="1" gradientUnits="userSpaceOnUse" gradientTransform="matrix(-.63412 -.37012 1.36895 -2.3454 45.158 347.903)"><stop stop-color="#7CAEBE"/><stop offset="1" stop-color="#EAF7FE"/></radialGradient><radialGradient id="paint4_radial" cx="0" cy="0" r="1" gradientUnits="userSpaceOnUse" gradientTransform="rotate(-149.62 70.857 168.188) scale(2.50878 2.78328)"><stop stop-color="#7CAEBE"/><stop offset="1" stop-color="#EDF8FE"/></radialGradient><radialGradient id="paint7_radial" cx="0" cy="0" r="1" gradientUnits="userSpaceOnUse" gradientTransform="matrix(-2.94485 -1.70645 .2968 -.51219 52.18 375.917)"><stop stop-color="#7CAEBE"/><stop offset="1" stop-color="#EAF7FE"/></radialGradient><radialGradient id="paint8_radial" cx="0" cy="0" r="1" gradientUnits="userSpaceOnUse" gradientTransform="matrix(-16.08405 -9.31797 1.46254 -2.52454 51.568 337.36)"><stop stop-color="#7CAEBE"/><stop offset="1" stop-color="#EAF7FE"/></radialGradient><radialGradient id="paint10_radial" cx="0" cy="0" r="1" gradientUnits="userSpaceOnUse" gradientTransform="matrix(-.63412 -.37012 1.36895 -2.3454 60.574 320.732)"><stop stop-color="#7CAEBE"/><stop offset="1" stop-color="#EAF7FE"/></radialGradient><radialGradient id="paint12_radial" cx="0" cy="0" r="1" gradientUnits="userSpaceOnUse" gradientTransform="rotate(-149.62 74.915 152.345) scale(2.50878 2.78328)"><stop stop-color="#7CAEBE"/><stop offset="1" stop-color="#EDF8FE"/></radialGradient><radialGradient id="paint15_radial" cx="0" cy="0" r="1" gradientUnits="userSpaceOnUse" gradientTransform="matrix(-16.08405 -9.31797 1.46254 -2.52454 54.644 331.562)"><stop stop-color="#7CAEBE"/><stop offset="1" stop-color="#EAF7FE"/></radialGradient><radialGradient id="paint16_radial" cx="0" cy="0" r="1" gradientUnits="userSpaceOnUse" gradientTransform="matrix(-2.94485 -1.70645 .2968 -.51219 88.344 312.825)"><stop stop-color="#7CAEBE"/><stop offset="1" stop-color="#EAF7FE"/></radialGradient><radialGradient id="paint21_radial" cx="0" cy="0" r="1" gradientUnits="userSpaceOnUse" gradientTransform="rotate(-149.897 93.022 167.471) scale(4.77925 1.36363)"><stop stop-color="#7CAEBE"/><stop offset="1" stop-color="#EAF7FE"/></radialGradient><radialGradient id="paint23_radial" cx="0" cy="0" r="1" gradientUnits="userSpaceOnUse" gradientTransform="matrix(-4.13442 -2.39693 .68394 -1.17971 92.18 353.636)"><stop stop-color="#7CAEBE"/><stop offset="1" stop-color="#EAF7FE"/></radialGradient><radialGradient id="paint24_radial" cx="0" cy="0" r="1" gradientUnits="userSpaceOnUse" gradientTransform="matrix(-52.51459 -30.37922 2.03835 -3.52356 74.998 346.669)"><stop stop-color="#fff"/><stop offset="1" stop-color="#E1F4FD"/></radialGradient><radialGradient id="paint25_radial" cx="0" cy="0" r="1" gradientUnits="userSpaceOnUse" gradientTransform="rotate(-149.931 90.92 165.268) scale(11.6582 1.59704)"><stop stop-color="#7CAEBE"/><stop offset="1" stop-color="#EAF7FE"/></radialGradient><radialGradient id="paint27_radial" cx="0" cy="0" r="1" gradientUnits="userSpaceOnUse" gradientTransform="matrix(-.896 -.52457 .97743 -1.66953 29.412 320.787)"><stop stop-color="#fff"/><stop offset=".12" stop-color="#FBFBFB"/><stop offset=".245" stop-color="#EEE"/><stop offset=".372" stop-color="#DADADA"/><stop offset=".501" stop-color="#BCBCBC"/><stop offset=".63" stop-color="#979797"/><stop offset=".761" stop-color="#696969"/><stop offset=".89" stop-color="#343434"/><stop offset="1"/></radialGradient><radialGradient id="paint28_radial" cx="0" cy="0" r="1" gradientUnits="userSpaceOnUse" gradientTransform="matrix(-.86371 -.50168 .99626 -1.71519 29.288 320.715)"><stop stop-color="#7CAEBE"/><stop offset="1" stop-color="#EAF7FE"/></radialGradient><filter id="filter0_dd" x="19.139" y="305.351" width="100.354" height="87.316" filterUnits="userSpaceOnUse" color-interpolation-filters="sRGB"><feFlood flood-opacity="0" result="BackgroundImageFix"/><feColorMatrix in="SourceAlpha" values="0 0 0 0 0 0 0 0 0 0 0 0 0 0 0 0 0 0 127 0" result="hardAlpha"/><feOffset dx="3"/><feGaussianBlur stdDeviation="1.5"/><feColorMatrix values="0 0 0 0 0.555208 0 0 0 0 0.752283 0 0 0 0 0.8125 0 0 0 0.4 0"/><feBlend in2="BackgroundImageFix" result="effect1_dropShadow"/><feColorMatrix in="SourceAlpha" values="0 0 0 0 0 0 0 0 0 0 0 0 0 0 0 0 0 0 127 0" result="hardAlpha"/><feOffset dx="5" dy="4"/><feGaussianBlur stdDeviation="5"/><feColorMatrix values="0 0 0 0 0.556863 0 0 0 0 0.752941 0 0 0 0 0.811765 0 0 0 0.5 0"/><feBlend in2="effect1_dropShadow" result="effect2_dropShadow"/><feBlend in="SourceGraphic" in2="effect2_dropShadow" result="shape"/></filter></defs></svg>