<svg width="103" height="106" fill="none" xmlns="http://www.w3.org/2000/svg"><g filter="url(#filter0_dd)"><path d="M63.258 65.772l.055-.186-5.261-1.554-.053.178c-.209.704-.036 2.215.607 2.405l2.84.838c.5.147 1.536-.751 1.812-1.681z" fill="#fff"/><path d="M63.233 65.711l.055-.186-5.261-1.553-.053.178c-.21.703-.037 2.214.607 2.404l2.84.839c.496.155 1.536-.752 1.812-1.682z" fill="url(#paint0_linear)"/><path opacity=".2" d="M58.033 63.83c-.112.375.976 1.028 2.43 1.457 1.452.43 2.72.474 2.832.098.112-.376-.976-1.028-2.43-1.458-1.453-.43-2.721-.473-2.832-.097z" fill="url(#paint1_radial)"/><path d="M64.7 60.897l.04-.13c1.129-3.796.861-7.215-.585-7.64-1.454-.43-3.543 2.304-4.67 6.092l-.038.13-1.398 4.698 5.254 1.549 1.398-4.7z" fill="#fff"/><path d="M64.636 60.877l.039-.129c1.13-3.796.862-7.215-.584-7.641-1.454-.429-3.543 2.305-4.67 6.093l-.039.129-1.398 4.699 5.254 1.548 1.398-4.699z" fill="url(#paint2_linear)"/><path opacity=".2" d="M61.746 63.318c-1.854.823-3.505 1.17-3.677.777-.171-.393 1.197-1.377 3.051-2.2 1.854-.823 3.506-1.17 3.677-.777.172.393-1.196 1.377-3.05 2.2z" fill="url(#paint3_radial)"/><path d="M52.147 47.602l-8.236 27.69C49.507 64.506 85.807 53.62 85.807 53.62l1.944-6.36c-.006-.01-38.428 9.838-35.604.342z" fill="#fff"/><path d="M51.915 47.533l-8.236 27.69C49.274 64.436 85.574 53.55 85.574 53.55l1.972-6.246s-38.456 9.725-35.631.229z" fill="url(#paint4_linear)"/><mask id="a" maskUnits="userSpaceOnUse" x="43" y="47" width="45" height="29"><path d="M52.118 47.598c-2.51 8.293-3.822 12.621-8.44 27.874C49.34 64.594 85.53 53.344 85.53 53.344l2.017-6.289s-38.323 10.102-35.428.543z" fill="url(#paint5_linear)"/></mask><g mask="url(#a)"><path opacity=".2" d="M85.708 51.094c-.54 1.8-.726 3.333-.413 3.424.312.091 1.004-1.294 1.545-3.094.54-1.8.726-3.333.413-3.424-.312-.091-1.004 1.294-1.545 3.094z" fill="url(#paint6_radial)"/><path opacity=".2" d="M46.13 60.016c-2.952 9.831-4.098 18.165-2.558 18.615 1.54.45 5.181-7.156 8.134-16.987 2.952-9.831 4.098-18.165 2.558-18.615-1.54-.45-5.181 7.156-8.134 16.987z" fill="url(#paint7_radial)"/></g><path d="M27.847 55.51l.055-.186 5.262 1.553c-.022.073-.04.138-.053.178-.209.704-1.179 1.877-1.822 1.687l-2.84-.838c-.502-.14-.878-1.464-.602-2.394z" fill="#fff"/><path d="M27.902 55.474l.055-.186 5.262 1.553-.053.178c-.209.703-1.179 1.877-1.822 1.687l-2.84-.838c-.502-.14-.878-1.465-.602-2.394z" fill="url(#paint8_linear)"/><path opacity=".2" d="M28.02 55.162c-.111.376.976 1.028 2.43 1.458 1.453.43 2.721.473 2.833.098.111-.376-.977-1.029-2.43-1.459-1.453-.429-2.722-.473-2.833-.097z" fill="url(#paint9_radial)"/><path d="M29.296 50.648l.038-.129c1.13-3.796 3.216-6.522 4.67-6.093 1.454.428 1.71 3.853.584 7.641a59.9 59.9 0 01-.039.13l-1.398 4.698-5.254-1.548 1.399-4.699z" fill="#fff"/><path d="M29.36 50.667l.038-.129c1.13-3.796 3.224-6.52 4.67-6.093 1.454.428 1.711 3.853.584 7.642l-.038.128-1.398 4.7-5.254-1.549 1.398-4.699z" fill="url(#paint10_linear)"/><path opacity=".2" d="M30.453 54.28c1.105 1.696 2.3 2.883 2.659 2.646.359-.237-.25-1.804-1.356-3.5-1.105-1.695-2.3-2.881-2.66-2.645-.358.237.251 1.804 1.357 3.5z" fill="url(#paint11_radial)"/><path d="M47.104 46.278l-8.236 27.69C40.073 61.888 15.58 33.08 15.58 33.08l1.847-6.388c.009.002 26.852 29.081 29.677 19.585z" fill="#fff"/><path d="M47.329 46.345l-8.236 27.69c1.205-12.08-23.288-40.888-23.288-40.888l1.762-6.308c.008.003 26.937 29.002 29.762 19.506z" fill="url(#paint12_linear)"/><mask id="b" maskUnits="userSpaceOnUse" x="16" y="26" width="32" height="49"><path d="M47.256 46.161c-2.51 8.292-3.82 12.621-8.439 27.873 1.308-12.138-22.784-40.846-22.784-40.846l1.81-6.349c.008.003 26.52 28.881 29.413 19.322z" fill="url(#paint13_linear)"/></mask><g mask="url(#b)"><path opacity=".2" d="M39.776 58.374c-2.953 9.831-4.098 18.166-2.559 18.615 1.54.45 5.182-7.156 8.134-16.987 2.953-9.831 4.098-18.165 2.559-18.615-1.54-.45-5.182 7.156-8.134 16.987z" fill="url(#paint14_radial)"/><path opacity=".2" d="M15.93 30.608c-.54 1.8-.725 3.334-.413 3.425.313.091 1.005-1.294 1.546-3.094.54-1.8.726-3.333.413-3.424-.313-.092-1.004 1.293-1.545 3.093z" fill="url(#paint15_radial)"/></g><path d="M85.773 53.74c-.128-.038.226-1.642.327-1.98.1-.338 1.7-5.34 1.836-5.3.128.038-1.252 5.096-1.355 5.442-.1.338-.672 1.878-.808 1.837z" fill="#fff"/><path d="M85.794 53.667c-.128-.038.23-1.623.33-1.961.1-.338 1.686-5.291 1.814-5.254.129.038-1.248 5.053-1.349 5.391-.1.338-.666 1.862-.794 1.824z" fill="url(#paint16_linear)"/><path d="M15.563 33.117c.128.038.707-1.499.808-1.837.1-.338 1.492-5.401 1.355-5.442-.128-.038-1.733 4.954-1.836 5.3-.103.346-.455 1.941-.327 1.98z" fill="#fff"/><path d="M15.583 33.053c.128.037.694-1.486.794-1.824.1-.338 1.478-5.353 1.35-5.39-.129-.038-1.714 4.915-1.815 5.253-.1.338-.458 1.923-.33 1.96z" fill="url(#paint17_linear)"/><path d="M59.523 14.07c1.074 1.248 10.23.412 14.687.753l-.796 2.597s-16.639 6.592-17.572 8.652l3.68-12.002z" fill="#fff"/><path d="M59.404 13.999c1.074 1.248 10.21.477 14.67.81l-.776 2.532s-16.64 6.593-17.573 8.653l3.678-11.995z" fill="url(#paint18_linear)"/><mask id="c" maskUnits="userSpaceOnUse" x="55" y="14" width="20" height="12"><path d="M59.41 14c1.073 1.248 10.206.472 14.664.803l-.777 2.533S56.66 23.939 55.725 26l3.684-12z" fill="url(#paint19_linear)"/></mask><g mask="url(#c)"><path opacity=".2" d="M62.312 19.054c-.42 2.634-1.287 4.7-1.93 4.612-.643-.088-.828-2.29-.407-4.924.421-2.634 1.288-4.7 1.93-4.611.646.08.828 2.29.407 4.923z" fill="url(#paint20_radial)"/></g><path d="M59.316 14.11c-1.606.483-8.814-5.032-12.745-7.089l-.796 2.596s10.239 14.278 9.86 16.496l3.68-12.002z" fill="#fff"/><mask id="d" maskUnits="userSpaceOnUse" x="45" y="7" width="15" height="20"><path d="M59.314 14.106c-1.605.483-8.807-5.03-12.736-7.085l-.797 2.598s10.227 14.275 9.847 16.495l3.686-12.008z" fill="#fff"/></mask><g mask="url(#d)"><path d="M59.456 14.103c-1.605.484-8.828-4.965-12.755-7.028l-.777 2.533s10.227 14.276 9.848 16.495l3.684-12z" fill="url(#paint21_linear)"/><path opacity=".2" d="M54.226 17.057c-1.123 2.432-1.553 4.623-.965 4.89.589.266 1.977-1.482 3.1-3.915 1.122-2.432 1.553-4.623.964-4.89-.588-.266-1.977 1.483-3.1 3.915z" fill="url(#paint22_radial)"/></g><path d="M43.192 81.622l15.342-51.028c5.92-19.691 1.941-19.01 1.941-19.01s-2.96-2.705-8.881 16.986L36.252 79.599s-2.63 11.495.08 12.285c2.71.79 6.86-10.261 6.86-10.261z" fill="#fff"/><path d="M42.966 81.555l15.342-51.028c5.92-19.691 1.941-19.01 1.941-19.01s-2.96-2.705-8.88 16.987L36.025 79.53s-2.629 11.494.081 12.285c2.71.79 6.86-10.261 6.86-10.261z" fill="url(#paint23_radial)"/><path opacity=".2" d="M55.257 22.296c-1.864 6.173-2.705 11.372-1.878 11.612.827.24 3.008-4.57 4.873-10.743 1.864-6.174 2.705-11.373 1.878-11.613-.827-.24-3.009 4.57-4.873 10.744z" fill="url(#paint24_radial)"/><path d="M55.103 28.254c-.345-.101.529-4.01.78-4.849.252-.838 4.214-13.043 4.559-12.942.345.1-3.066 12.466-3.318 13.305-.252.838-1.676 4.586-2.021 4.486z" fill="#fff"/><path d="M55.14 28.072c-.337-.099.535-3.974.781-4.796.25-.83 4.165-12.908 4.502-12.81.337.099-3.045 12.341-3.291 13.163-.255.82-1.662 4.539-1.991 4.442z" fill="url(#paint25_linear)"/><mask id="e" maskUnits="userSpaceOnUse" x="36" y="84" width="5" height="4"><path d="M37.594 87.307c-1.223-.362-1.58-1.547-1.42-2.088.16-.541.915-.073 1.969.239 1.062.314 2.018.368 1.857.909-.16.54-1.1 1.317-2.406.94z" fill="url(#paint26_radial)" opacity=".5"/></mask><g mask="url(#e)"><path opacity=".5" d="M37.58 87.328c-1.214-.348-1.55-1.549-1.382-2.102.17-.552.913-.088 1.96.212 1.053.303 2.005.343 1.836.895-.169.553-1.118 1.358-2.414.995z" fill="url(#paint27_radial)"/><path opacity=".5" d="M40.39 85.421l-.296.97s-2.531 1.75-4.073-1.17l.296-.97s1.856 1.985 4.074 1.17z" fill="#fff"/><path opacity=".5" d="M40.39 85.421l-.296.97s-2.531 1.75-4.073-1.17l.296-.97s1.865 1.987 4.074 1.17z" fill="url(#paint28_linear)"/></g></g><defs><linearGradient id="paint0_linear" x1="60.657" y1="64.749" x2="59.999" y2="66.978" gradientUnits="userSpaceOnUse"><stop stop-color="#EDF8FE"/><stop offset="1" stop-color="#fff"/></linearGradient><linearGradient id="paint2_linear" x1="64.087" y1="53.102" x2="60.637" y2="64.81" gradientUnits="userSpaceOnUse"><stop stop-color="#fff"/><stop offset="1" stop-color="#EAF7FE"/></linearGradient><linearGradient id="paint4_linear" x1="69.082" y1="49.607" x2="58.002" y2="87.193" gradientUnits="userSpaceOnUse"><stop stop-color="#EFF9FE"/><stop offset="1" stop-color="#E1F4FD"/></linearGradient><linearGradient id="paint5_linear" x1="69.167" y1="49.53" x2="58.179" y2="87.47" gradientUnits="userSpaceOnUse"><stop stop-color="#fff"/><stop offset="1" stop-color="#E1F4FD"/></linearGradient><linearGradient id="paint8_linear" x1="30.587" y1="56.065" x2="29.93" y2="58.294" gradientUnits="userSpaceOnUse"><stop stop-color="#EDF8FE"/><stop offset="1" stop-color="#fff"/></linearGradient><linearGradient id="paint10_linear" x1="34.065" y1="44.44" x2="30.614" y2="56.148" gradientUnits="userSpaceOnUse"><stop stop-color="#fff"/><stop offset="1" stop-color="#EAF7FE"/></linearGradient><linearGradient id="paint12_linear" x1="31.801" y1="38.783" x2="20.721" y2="76.369" gradientUnits="userSpaceOnUse"><stop stop-color="#EFF9FE"/><stop offset="1" stop-color="#E1F4FD"/></linearGradient><linearGradient id="paint13_linear" x1="31.886" y1="38.706" x2="20.898" y2="76.647" gradientUnits="userSpaceOnUse"><stop stop-color="#fff"/><stop offset="1" stop-color="#E1F4FD"/></linearGradient><linearGradient id="paint16_linear" x1="87.938" y1="46.449" x2="85.807" y2="53.67" gradientUnits="userSpaceOnUse"><stop stop-color="#EFF9FE"/><stop offset=".2" stop-color="#fff"/><stop offset=".404" stop-color="#fff"/><stop offset=".607" stop-color="#fff"/><stop offset=".807" stop-color="#EEF8FE"/><stop offset="1" stop-color="#EEF9FE"/></linearGradient><linearGradient id="paint17_linear" x1="17.726" y1="25.835" x2="15.596" y2="33.056" gradientUnits="userSpaceOnUse"><stop stop-color="#EFF9FE"/><stop offset=".2" stop-color="#fff"/><stop offset=".404" stop-color="#fff"/><stop offset=".607" stop-color="#fff"/><stop offset=".807" stop-color="#EEF8FE"/><stop offset="1" stop-color="#EEF9FE"/></linearGradient><linearGradient id="paint18_linear" x1="66.324" y1="15.761" x2="61.982" y2="30.948" gradientUnits="userSpaceOnUse"><stop stop-color="#EFF9FE"/><stop offset="1" stop-color="#E1F4FD"/></linearGradient><linearGradient id="paint19_linear" x1="66.326" y1="15.759" x2="61.986" y2="30.955" gradientUnits="userSpaceOnUse"><stop stop-color="#EFF9FE"/><stop offset="1" stop-color="#E1F4FD"/></linearGradient><linearGradient id="paint21_linear" x1="52.658" y1="11.947" x2="48.318" y2="27.144" gradientUnits="userSpaceOnUse"><stop stop-color="#EFF9FE"/><stop offset="1" stop-color="#E1F4FD"/></linearGradient><linearGradient id="paint25_linear" x1="60.422" y1="10.457" x2="55.265" y2="28.106" gradientUnits="userSpaceOnUse"><stop stop-color="#EFF9FE"/><stop offset=".2" stop-color="#fff"/><stop offset=".404" stop-color="#fff"/><stop offset=".607" stop-color="#fff"/><stop offset=".807" stop-color="#EEF8FE"/><stop offset="1" stop-color="#EEF9FE"/></linearGradient><linearGradient id="paint28_linear" x1="35.877" y1="83.208" x2="39.812" y2="86.96" gradientUnits="userSpaceOnUse"><stop stop-color="#828C93"/><stop offset=".083" stop-color="#89939A"/><stop offset=".222" stop-color="#9DA8AE"/><stop offset=".4" stop-color="#BFCAD0"/><stop offset=".511" stop-color="#D8E2E7"/><stop offset=".623" stop-color="#A8B3B9"/><stop offset=".754" stop-color="#798389"/><stop offset=".865" stop-color="#586066"/><stop offset=".95" stop-color="#41474C"/><stop offset="1" stop-color="#373D42"/></linearGradient><radialGradient id="paint1_radial" cx="0" cy="0" r="1" gradientUnits="userSpaceOnUse" gradientTransform="rotate(106.524 6.22 54.944) scale(.70952 2.7403)"><stop stop-color="#7CAEBE"/><stop offset="1" stop-color="#EAF7FE"/></radialGradient><radialGradient id="paint3_radial" cx="0" cy="0" r="1" gradientUnits="userSpaceOnUse" gradientTransform="rotate(106.56 7.367 54.215) scale(2.4532 2.84136)"><stop stop-color="#7CAEBE"/><stop offset="1" stop-color="#EDF8FE"/></radialGradient><radialGradient id="paint6_radial" cx="0" cy="0" r="1" gradientUnits="userSpaceOnUse" gradientTransform="rotate(106.727 24.078 57.708) scale(3.40357 .58872)"><stop stop-color="#7CAEBE"/><stop offset="1" stop-color="#EAF7FE"/></radialGradient><radialGradient id="paint7_radial" cx="0" cy="0" r="1" gradientUnits="userSpaceOnUse" gradientTransform="matrix(-5.34654 17.8029 -2.77773 -.8342 48.918 60.828)"><stop stop-color="#7CAEBE"/><stop offset="1" stop-color="#EAF7FE"/></radialGradient><radialGradient id="paint9_radial" cx="0" cy="0" r="1" gradientUnits="userSpaceOnUse" gradientTransform="rotate(106.522 -5.552 39.41) scale(.70958 2.7403)"><stop stop-color="#7CAEBE"/><stop offset="1" stop-color="#EAF7FE"/></radialGradient><radialGradient id="paint11_radial" cx="0" cy="0" r="1" gradientUnits="userSpaceOnUse" gradientTransform="rotate(106.561 -4.533 38.527) scale(2.45311 2.84135)"><stop stop-color="#7CAEBE"/><stop offset="1" stop-color="#EDF8FE"/></radialGradient><radialGradient id="paint14_radial" cx="0" cy="0" r="1" gradientUnits="userSpaceOnUse" gradientTransform="matrix(-5.34654 17.8029 -2.77773 -.8342 42.564 59.186)"><stop stop-color="#7CAEBE"/><stop offset="1" stop-color="#EAF7FE"/></radialGradient><radialGradient id="paint15_radial" cx="0" cy="0" r="1" gradientUnits="userSpaceOnUse" gradientTransform="rotate(106.727 -3.194 21.52) scale(3.40357 .58872)"><stop stop-color="#7CAEBE"/><stop offset="1" stop-color="#EAF7FE"/></radialGradient><radialGradient id="paint20_radial" cx="0" cy="0" r="1" gradientUnits="userSpaceOnUse" gradientTransform="matrix(-1.39791 4.5884 -1.2779 -.38933 61.144 18.898)"><stop stop-color="#7CAEBE"/><stop offset="1" stop-color="#EAF7FE"/></radialGradient><radialGradient id="paint22_radial" cx="0" cy="0" r="1" gradientUnits="userSpaceOnUse" gradientTransform="matrix(-1.39784 4.58816 -1.27792 -.38933 55.293 17.544)"><stop stop-color="#7CAEBE"/><stop offset="1" stop-color="#EAF7FE"/></radialGradient><radialGradient id="paint23_radial" cx="0" cy="0" r="1" gradientUnits="userSpaceOnUse" gradientTransform="rotate(106.734 12.95 37.481) scale(60.7398 3.95342)"><stop stop-color="#fff"/><stop offset="1" stop-color="#E1F4FD"/></radialGradient><radialGradient id="paint24_radial" cx="0" cy="0" r="1" gradientUnits="userSpaceOnUse" gradientTransform="rotate(106.803 19.938 32.438) scale(11.678 1.55688)"><stop stop-color="#7CAEBE"/><stop offset="1" stop-color="#EAF7FE"/></radialGradient><radialGradient id="paint26_radial" cx="0" cy="0" r="1" gradientUnits="userSpaceOnUse" gradientTransform="matrix(-.2868 .96666 -1.88277 -.5586 37.955 86.237)"><stop stop-color="#fff"/><stop offset=".12" stop-color="#FBFBFB"/><stop offset=".245" stop-color="#EEE"/><stop offset=".372" stop-color="#DADADA"/><stop offset=".501" stop-color="#BCBCBC"/><stop offset=".63" stop-color="#979797"/><stop offset=".761" stop-color="#696969"/><stop offset=".89" stop-color="#343434"/><stop offset="1"/></radialGradient><radialGradient id="paint27_radial" cx="0" cy="0" r="1" gradientUnits="userSpaceOnUse" gradientTransform="matrix(-.29608 .96887 -1.88808 -.577 37.916 86.37)"><stop stop-color="#7CAEBE"/><stop offset="1" stop-color="#EAF7FE"/></radialGradient><filter id="filter0_dd" x="10.535" y="1.021" width="92.412" height="104.902" filterUnits="userSpaceOnUse" color-interpolation-filters="sRGB"><feFlood flood-opacity="0" result="BackgroundImageFix"/><feColorMatrix in="SourceAlpha" values="0 0 0 0 0 0 0 0 0 0 0 0 0 0 0 0 0 0 127 0" result="hardAlpha"/><feOffset dx="3"/><feGaussianBlur stdDeviation="1.5"/><feColorMatrix values="0 0 0 0 0.555208 0 0 0 0 0.752283 0 0 0 0 0.8125 0 0 0 0.4 0"/><feBlend in2="BackgroundImageFix" result="effect1_dropShadow"/><feColorMatrix in="SourceAlpha" values="0 0 0 0 0 0 0 0 0 0 0 0 0 0 0 0 0 0 127 0" result="hardAlpha"/><feOffset dx="5" dy="4"/><feGaussianBlur stdDeviation="5"/><feColorMatrix values="0 0 0 0 0.556863 0 0 0 0 0.752941 0 0 0 0 0.811765 0 0 0 0.5 0"/><feBlend in2="effect1_dropShadow" result="effect2_dropShadow"/><feBlend in="SourceGraphic" in2="effect2_dropShadow" result="shape"/></filter></defs></svg>