<svg width="522" height="706" fill="none" xmlns="http://www.w3.org/2000/svg"><path d="M152.456 77.646c283.391 11.37 279.16 232.612 159.284 264.323-119.876 31.711-128.904-97.085-11.589-99.788 148.718-3.468 295.02 199.163-118.908 454.319" stroke="url(#paint0_linear)" stroke-width="2" stroke-miterlimit="10" stroke-dasharray="8.16 8.16"/><circle r="5" transform="matrix(-1 0 0 1 152 77)" fill="#CAEAF4"/><circle r="5" transform="matrix(-1 0 0 1 181 696.001)" fill="#CAEAF4"/><g filter="url(#filter0_dd)"><path d="M417.15 519.302l.101-.166-4.683-2.836-.096.159c-.383.63-.605 2.138-.032 2.485l2.527 1.531c.444.269 1.677-.341 2.183-1.173z" fill="#fff"/><path d="M417.14 519.238l.101-.167-4.682-2.836-.097.159c-.383.63-.605 2.138-.032 2.485l2.527 1.531c.44.276 1.677-.34 2.183-1.172z" fill="url(#paint1_linear)"/><path opacity=".2" d="M412.596 516.101c-.204.337.679 1.245 1.974 2.029 1.294.785 2.508 1.148 2.712.812.205-.336-.679-1.245-1.973-2.029-1.294-.784-2.508-1.148-2.713-.812z" fill="url(#paint2_radial)"/><path d="M419.775 514.956l.07-.115c2.064-3.39 2.685-6.767 1.402-7.543-1.291-.781-4.006 1.338-6.065 4.721l-.07.115-2.555 4.196 4.663 2.822 2.555-4.196z" fill="#fff"/><path d="M419.717 514.921l.07-.115c2.064-3.39 2.685-6.766 1.402-7.543-1.291-.781-4.005 1.338-6.065 4.721l-.07.115-2.554 4.196 4.663 2.822 2.554-4.196z" fill="url(#paint3_linear)"/><path opacity=".2" d="M416.312 516.551c-2 .33-3.683.25-3.748-.175-.064-.424 1.509-1.032 3.51-1.362 2.001-.33 3.683-.25 3.748.175.064.424-1.509 1.032-3.51 1.362z" fill="url(#paint4_radial)"/><path d="M411.107 498.921l-15.065 24.745c8.17-9.037 45.977-10.432 45.977-10.432l3.51-5.669c-.002-.012-39.589-.158-34.422-8.644z" fill="#fff"/><path d="M410.899 498.795l-15.065 24.745c8.17-9.037 45.977-10.432 45.977-10.432l3.508-5.553s-39.586-.274-34.42-8.76z" fill="url(#paint5_linear)"/><mask id="a" maskUnits="userSpaceOnUse" x="395" y="498" width="51" height="26"><path d="M411.152 498.881l-15.318 24.986c8.251-9.158 45.921-11.031 45.921-11.031l3.564-5.609s-39.42.223-34.167-8.346z" fill="url(#paint6_linear)"/></mask><g mask="url(#a)"><path opacity=".2" d="M442.603 510.829c-.981 1.608-1.553 3.046-1.276 3.213.277.167 1.297-1.001 2.278-2.608.982-1.608 1.554-3.047 1.277-3.214-.277-.167-1.297 1.001-2.279 2.609z" fill="url(#paint7_radial)"/><path opacity=".2" d="M402.074 509.389c-5.359 8.78-8.599 16.564-7.235 17.387 1.363.822 6.812-5.628 12.171-14.407 5.36-8.78 8.599-16.564 7.235-17.387-1.363-.822-6.812 5.628-12.171 14.407z" fill="url(#paint8_radial)"/></g><path d="M385.527 500.371l.101-.166 4.683 2.836-.097.159c-.383.629-1.622 1.522-2.195 1.175l-2.527-1.53c-.448-.262-.471-1.642.035-2.474z" fill="#fff"/><path d="M385.588 500.35l.102-.166 4.682 2.836-.097.159c-.383.629-1.621 1.522-2.194 1.175l-2.528-1.531c-.448-.261-.471-1.641.035-2.473z" fill="url(#paint9_linear)"/><path opacity=".2" d="M385.778 500.08c-.204.337.679 1.245 1.973 2.029 1.294.785 2.509 1.148 2.713.812.204-.336-.679-1.245-1.973-2.029-1.294-.784-2.509-1.148-2.713-.812z" fill="url(#paint10_radial)"/><path d="M388.168 496.046l.07-.115c2.063-3.39 4.774-5.502 6.064-4.721 1.291.781.658 4.16-1.401 7.543a4.057 4.057 0 00-.07.115l-2.555 4.196-4.663-2.822 2.555-4.196z" fill="#fff"/><path d="M388.224 496.081l.07-.115c2.064-3.39 4.782-5.498 6.065-4.721 1.29.781.658 4.16-1.402 7.543l-.07.115-2.554 4.196-4.663-2.822 2.554-4.196z" fill="url(#paint11_linear)"/><path opacity=".2" d="M388.352 499.848c.63 1.922 1.478 3.373 1.885 3.234.407-.138.222-1.811-.408-3.733-.63-1.922-1.478-3.373-1.885-3.234-.407.139-.222 1.811.408 3.733z" fill="url(#paint12_radial)"/><path d="M406.451 496.292l-15.066 24.745c4.271-11.397-11.939-45.475-11.939-45.475l3.425-5.722c.007.004 18.413 34.938 23.58 26.452z" fill="#fff"/><path d="M406.652 496.414l-15.066 24.745c4.27-11.397-11.939-45.476-11.939-45.476l3.322-5.665c.007.004 18.516 34.882 23.683 26.396z" fill="url(#paint13_linear)"/><mask id="b" maskUnits="userSpaceOnUse" x="379" y="470" width="28" height="52"><path d="M406.562 496.172l-15.319 24.987c4.398-11.474-11.312-45.422-11.312-45.422l3.381-5.719c.007.004 17.996 34.723 23.25 26.154z" fill="url(#paint14_linear)"/></mask><g mask="url(#b)"><path opacity=".2" d="M396.346 506.184c-5.359 8.78-8.598 16.564-7.235 17.387 1.363.822 6.813-5.628 12.172-14.407 5.359-8.78 8.598-16.564 7.235-17.387-1.363-.822-6.813 5.628-12.172 14.407z" fill="url(#paint15_radial)"/><path opacity=".2" d="M380.338 473.258c-.982 1.608-1.553 3.047-1.277 3.214.277.167 1.297-1.001 2.279-2.609.981-1.608 1.553-3.046 1.276-3.213-.276-.167-1.297 1.001-2.278 2.608z" fill="url(#paint16_radial)"/></g><path d="M441.987 513.404c-.114-.069.638-1.53.821-1.831.184-.302 3.005-4.733 3.125-4.66.114.069-2.511 4.609-2.698 4.918-.184.302-1.127 1.646-1.248 1.573z" fill="#fff"/><path d="M442.026 513.339c-.113-.069.637-1.511.82-1.812.183-.302 2.978-4.69 3.092-4.621.113.068-2.497 4.569-2.68 4.87-.183.302-1.118 1.632-1.232 1.563z" fill="url(#paint17_linear)"/><path d="M379.338 475.591c.114.068 1.065-1.271 1.248-1.573.184-.302 2.82-4.845 2.699-4.918-.114-.069-2.937 4.351-3.125 4.66-.188.309-.935 1.762-.822 1.831z" fill="#fff"/><path d="M379.374 475.533c.113.069 1.048-1.261 1.232-1.562.183-.302 2.793-4.802 2.679-4.871-.113-.069-2.908 4.319-3.091 4.621-.184.302-.934 1.743-.82 1.812z" fill="url(#paint18_linear)"/><path d="M426.715 468.318c.718 1.488 9.739 3.024 13.941 4.499l-1.422 2.319s-17.676 2.139-19.095 3.901l6.576-10.719z" fill="#fff"/><path d="M426.619 468.218c.718 1.489 9.704 3.083 13.91 4.551l-1.387 2.261s-17.676 2.139-19.095 3.901l6.572-10.713z" fill="url(#paint19_linear)"/><mask id="c" maskUnits="userSpaceOnUse" x="420" y="468" width="21" height="11"><path d="M426.622 468.219c.717 1.489 9.702 3.08 13.907 4.547l-1.387 2.261s-17.676 2.145-19.096 3.908l6.576-10.716z" fill="url(#paint20_linear)"/></mask><g mask="url(#c)"><path opacity=".2" d="M428.13 473.894c-1.071 2.45-2.429 4.233-3.028 3.981-.599-.252-.224-2.438.847-4.888 1.07-2.45 2.428-4.233 3.027-3.981.603.244.224 2.438-.846 4.888z" fill="url(#paint21_radial)"/></g><path d="M426.444 468.35c-1.667.057-7.207-7.152-10.47-10.158l-1.422 2.318s6.241 16.501 5.316 18.559l6.576-10.719z" fill="#fff"/><mask id="d" maskUnits="userSpaceOnUse" x="414" y="458" width="13" height="22"><path d="M426.443 468.347c-1.666.058-7.204-7.15-10.465-10.155l-1.423 2.319s6.235 16.499 5.309 18.558l6.579-10.722z" fill="#fff"/></mask><g mask="url(#d)"><path d="M426.581 468.381c-1.667.057-7.24-7.092-10.497-10.105l-1.388 2.261s6.235 16.5 5.309 18.559l6.576-10.715z" fill="url(#paint22_linear)"/><path opacity=".2" d="M420.816 469.892c-1.698 2.073-2.666 4.09-2.164 4.501.502.411 2.285-.928 3.982-3.001 1.698-2.073 2.665-4.09 2.163-4.501-.501-.411-2.284.928-3.981 3.001z" fill="url(#paint23_radial)"/></g><path d="M393.784 529.598l27.745-45.517c10.707-17.565 6.661-17.943 6.661-17.943s-2.205-3.399-12.912 14.166l-27.745 45.516s-5.445 10.47-3.004 11.945c2.441 1.475 9.255-8.167 9.255-8.167z" fill="#fff"/><path d="M393.584 529.476l27.745-45.517c10.707-17.565 6.661-17.943 6.661-17.943s-2.205-3.399-12.912 14.166l-27.745 45.516s-5.445 10.47-3.004 11.945c2.44 1.475 9.255-8.167 9.255-8.167z" fill="url(#paint24_radial)"/><path opacity=".2" d="M420.473 475.217c-3.362 5.509-5.486 10.337-4.743 10.786.743.448 4.07-3.654 7.432-9.162 3.362-5.509 5.485-10.337 4.742-10.786-.742-.448-4.07 3.654-7.431 9.162z" fill="url(#paint25_radial)"/><path d="M418.827 480.961c-.311-.188 1.521-3.753 1.976-4.501.456-.748 7.38-11.555 7.691-11.367.311.188-6.116 11.296-6.572 12.043-.455.748-2.785 4.013-3.095 3.825z" fill="#fff"/><path d="M418.909 480.794c-.303-.184 1.518-3.716 1.965-4.45.451-.74 7.298-11.436 7.602-11.252.304.184-6.064 11.179-6.511 11.912-.454.729-2.758 3.97-3.056 3.79z" fill="url(#paint26_linear)"/><mask id="e" maskUnits="userSpaceOnUse" x="385" y="531" width="5" height="3"><path d="M386.849 533.605c-1.088-.659-1.127-1.899-.832-2.383.294-.484.901.16 1.839.728.945.573 1.854.866 1.559 1.35-.294.484-1.402 1.001-2.566.305z" fill="url(#paint27_radial)" opacity=".5"/></mask><g mask="url(#e)"><path opacity=".5" d="M386.838 533.621c-1.08-.65-1.102-1.901-.8-2.393.302-.493.901.149 1.831.708.938.564 1.844.847 1.542 1.34-.302.493-1.418 1.029-2.573.345z" fill="url(#paint28_radial)"/><path opacity=".5" d="M390.023 532.495l-.529.864s-2.876 1.047-3.625-2.181l.53-.864s1.286 2.401 3.624 2.181z" fill="#fff"/><path opacity=".5" d="M390.023 532.495l-.529.864s-2.876 1.047-3.625-2.181l.53-.864s1.294 2.406 3.624 2.181z" fill="url(#paint29_linear)"/></g></g><defs><linearGradient id="paint0_linear" x1="472.378" y1="523.967" x2="27.131" y2="444.272" gradientUnits="userSpaceOnUse"><stop stop-color="#CBEAF4"/><stop offset="1" stop-color="#B0E2F2"/></linearGradient><linearGradient id="paint1_linear" x1="414.899" y1="517.654" x2="413.691" y2="519.649" gradientUnits="userSpaceOnUse"><stop stop-color="#EDF8FE"/><stop offset="1" stop-color="#fff"/></linearGradient><linearGradient id="paint3_linear" x1="421.187" y1="507.258" x2="414.855" y2="517.721" gradientUnits="userSpaceOnUse"><stop stop-color="#fff"/><stop offset="1" stop-color="#EAF7FE"/></linearGradient><linearGradient id="paint5_linear" x1="426.921" y1="505.131" x2="406.578" y2="538.752" gradientUnits="userSpaceOnUse"><stop stop-color="#EFF9FE"/><stop offset="1" stop-color="#E1F4FD"/></linearGradient><linearGradient id="paint6_linear" x1="427.027" y1="505.029" x2="406.552" y2="539.104" gradientUnits="userSpaceOnUse"><stop stop-color="#fff"/><stop offset="1" stop-color="#E1F4FD"/></linearGradient><linearGradient id="paint9_linear" x1="388.03" y1="501.602" x2="386.822" y2="503.597" gradientUnits="userSpaceOnUse"><stop stop-color="#EDF8FE"/><stop offset="1" stop-color="#fff"/></linearGradient><linearGradient id="paint11_linear" x1="394.357" y1="491.24" x2="388.025" y2="501.703" gradientUnits="userSpaceOnUse"><stop stop-color="#fff"/><stop offset="1" stop-color="#EAF7FE"/></linearGradient><linearGradient id="paint13_linear" x1="393.623" y1="485.175" x2="373.28" y2="518.796" gradientUnits="userSpaceOnUse"><stop stop-color="#EFF9FE"/><stop offset="1" stop-color="#E1F4FD"/></linearGradient><linearGradient id="paint14_linear" x1="393.729" y1="485.073" x2="373.254" y2="519.148" gradientUnits="userSpaceOnUse"><stop stop-color="#fff"/><stop offset="1" stop-color="#E1F4FD"/></linearGradient><linearGradient id="paint17_linear" x1="445.938" y1="506.902" x2="442.035" y2="513.343" gradientUnits="userSpaceOnUse"><stop stop-color="#EFF9FE"/><stop offset=".2" stop-color="#fff"/><stop offset=".404" stop-color="#fff"/><stop offset=".607" stop-color="#fff"/><stop offset=".807" stop-color="#EEF8FE"/><stop offset="1" stop-color="#EEF9FE"/></linearGradient><linearGradient id="paint18_linear" x1="383.286" y1="469.096" x2="379.383" y2="475.538" gradientUnits="userSpaceOnUse"><stop stop-color="#EFF9FE"/><stop offset=".2" stop-color="#fff"/><stop offset=".404" stop-color="#fff"/><stop offset=".607" stop-color="#fff"/><stop offset=".807" stop-color="#EEF8FE"/><stop offset="1" stop-color="#EEF9FE"/></linearGradient><linearGradient id="paint19_linear" x1="432.832" y1="471.706" x2="424.685" y2="485.273" gradientUnits="userSpaceOnUse"><stop stop-color="#EFF9FE"/><stop offset="1" stop-color="#E1F4FD"/></linearGradient><linearGradient id="paint20_linear" x1="432.833" y1="471.705" x2="424.685" y2="485.278" gradientUnits="userSpaceOnUse"><stop stop-color="#EFF9FE"/><stop offset="1" stop-color="#E1F4FD"/></linearGradient><linearGradient id="paint22_linear" x1="420.585" y1="464.54" x2="412.436" y2="478.113" gradientUnits="userSpaceOnUse"><stop stop-color="#EFF9FE"/><stop offset="1" stop-color="#E1F4FD"/></linearGradient><linearGradient id="paint26_linear" x1="428.477" y1="465.083" x2="418.96" y2="480.822" gradientUnits="userSpaceOnUse"><stop stop-color="#EFF9FE"/><stop offset=".2" stop-color="#fff"/><stop offset=".404" stop-color="#fff"/><stop offset=".607" stop-color="#fff"/><stop offset=".807" stop-color="#EEF8FE"/><stop offset="1" stop-color="#EEF9FE"/></linearGradient><linearGradient id="paint29_linear" x1="386.238" y1="529.19" x2="389.108" y2="533.82" gradientUnits="userSpaceOnUse"><stop stop-color="#828C93"/><stop offset=".083" stop-color="#89939A"/><stop offset=".222" stop-color="#9DA8AE"/><stop offset=".4" stop-color="#BFCAD0"/><stop offset=".511" stop-color="#D8E2E7"/><stop offset=".623" stop-color="#A8B3B9"/><stop offset=".754" stop-color="#798389"/><stop offset=".865" stop-color="#586066"/><stop offset=".95" stop-color="#41474C"/><stop offset="1" stop-color="#373D42"/></linearGradient><radialGradient id="paint2_radial" cx="0" cy="0" r="1" gradientUnits="userSpaceOnUse" gradientTransform="matrix(-.36992 .60865 -2.3383 -1.42115 414.939 517.522)"><stop stop-color="#7CAEBE"/><stop offset="1" stop-color="#EAF7FE"/></radialGradient><radialGradient id="paint4_radial" cx="0" cy="0" r="1" gradientUnits="userSpaceOnUse" gradientTransform="rotate(121.33 63.168 374.837) scale(2.46098 2.83183)"><stop stop-color="#7CAEBE"/><stop offset="1" stop-color="#EDF8FE"/></radialGradient><radialGradient id="paint7_radial" cx="0" cy="0" r="1" gradientUnits="userSpaceOnUse" gradientTransform="matrix(-1.77764 2.91133 -.4987 -.3045 443.105 511.131)"><stop stop-color="#7CAEBE"/><stop offset="1" stop-color="#EAF7FE"/></radialGradient><radialGradient id="paint8_radial" cx="0" cy="0" r="1" gradientUnits="userSpaceOnUse" gradientTransform="matrix(-9.70438 15.89832 -2.45765 -1.50016 404.543 510.877)"><stop stop-color="#7CAEBE"/><stop offset="1" stop-color="#EAF7FE"/></radialGradient><radialGradient id="paint10_radial" cx="0" cy="0" r="1" gradientUnits="userSpaceOnUse" gradientTransform="matrix(-.36992 .60865 -2.3383 -1.42115 388.121 501.501)"><stop stop-color="#7CAEBE"/><stop offset="1" stop-color="#EAF7FE"/></radialGradient><radialGradient id="paint12_radial" cx="0" cy="0" r="1" gradientUnits="userSpaceOnUse" gradientTransform="rotate(121.33 54.164 359.13) scale(2.46098 2.83183)"><stop stop-color="#7CAEBE"/><stop offset="1" stop-color="#EDF8FE"/></radialGradient><radialGradient id="paint15_radial" cx="0" cy="0" r="1" gradientUnits="userSpaceOnUse" gradientTransform="matrix(-9.70438 15.89832 -2.45765 -1.50016 398.815 507.672)"><stop stop-color="#7CAEBE"/><stop offset="1" stop-color="#EAF7FE"/></radialGradient><radialGradient id="paint16_radial" cx="0" cy="0" r="1" gradientUnits="userSpaceOnUse" gradientTransform="matrix(-1.77764 2.91133 -.49871 -.30451 380.839 473.56)"><stop stop-color="#7CAEBE"/><stop offset="1" stop-color="#EAF7FE"/></radialGradient><radialGradient id="paint21_radial" cx="0" cy="0" r="1" gradientUnits="userSpaceOnUse" gradientTransform="matrix(-2.50678 4.09615 -1.143 -.6995 427.039 473.44)"><stop stop-color="#7CAEBE"/><stop offset="1" stop-color="#EAF7FE"/></radialGradient><radialGradient id="paint23_radial" cx="0" cy="0" r="1" gradientUnits="userSpaceOnUse" gradientTransform="matrix(-2.50664 4.09592 -1.143 -.6995 421.725 470.642)"><stop stop-color="#7CAEBE"/><stop offset="1" stop-color="#EAF7FE"/></radialGradient><radialGradient id="paint24_radial" cx="0" cy="0" r="1" gradientUnits="userSpaceOnUse" gradientTransform="matrix(-31.62777 51.88586 -3.4106 -2.07898 414.401 487.648)"><stop stop-color="#fff"/><stop offset="1" stop-color="#E1F4FD"/></radialGradient><radialGradient id="paint25_radial" cx="0" cy="0" r="1" gradientUnits="userSpaceOnUse" gradientTransform="rotate(121.397 77.334 356.378) scale(11.6858 1.56855)"><stop stop-color="#7CAEBE"/><stop offset="1" stop-color="#EAF7FE"/></radialGradient><radialGradient id="paint27_radial" cx="0" cy="0" r="1" gradientUnits="userSpaceOnUse" gradientTransform="matrix(-.52633 .86525 -1.6734 -1.01793 387.474 532.659)"><stop stop-color="#fff"/><stop offset=".12" stop-color="#FBFBFB"/><stop offset=".245" stop-color="#EEE"/><stop offset=".372" stop-color="#DADADA"/><stop offset=".501" stop-color="#BCBCBC"/><stop offset=".63" stop-color="#979797"/><stop offset=".761" stop-color="#696969"/><stop offset=".89" stop-color="#343434"/><stop offset="1"/></radialGradient><radialGradient id="paint28_radial" cx="0" cy="0" r="1" gradientUnits="userSpaceOnUse" gradientTransform="matrix(-.529 .86354 -1.68038 -1.02938 387.402 532.778)"><stop stop-color="#7CAEBE"/><stop offset="1" stop-color="#EAF7FE"/></radialGradient><filter id="filter0_dd" x="374.327" y="452.192" width="86.614" height="99.727" filterUnits="userSpaceOnUse" color-interpolation-filters="sRGB"><feFlood flood-opacity="0" result="BackgroundImageFix"/><feColorMatrix in="SourceAlpha" values="0 0 0 0 0 0 0 0 0 0 0 0 0 0 0 0 0 0 127 0" result="hardAlpha"/><feOffset dx="3"/><feGaussianBlur stdDeviation="1.5"/><feColorMatrix values="0 0 0 0 0.555208 0 0 0 0 0.752283 0 0 0 0 0.8125 0 0 0 0.4 0"/><feBlend in2="BackgroundImageFix" result="effect1_dropShadow"/><feColorMatrix in="SourceAlpha" values="0 0 0 0 0 0 0 0 0 0 0 0 0 0 0 0 0 0 127 0" result="hardAlpha"/><feOffset dx="5" dy="4"/><feGaussianBlur stdDeviation="5"/><feColorMatrix values="0 0 0 0 0.556863 0 0 0 0 0.752941 0 0 0 0 0.811765 0 0 0 0.5 0"/><feBlend in2="effect1_dropShadow" result="effect2_dropShadow"/><feBlend in="SourceGraphic" in2="effect2_dropShadow" result="shape"/></filter></defs></svg>