<svg width="121" height="1011" fill="none" xmlns="http://www.w3.org/2000/svg"><g filter="url(#filter0_d)"><path d="M82.192 169.653v-4.648H63.704v4.648a3.728 3.728 0 003.718 3.718h11.052a3.729 3.729 0 003.718-3.718z" fill="url(#paint0_linear)"/><path d="M18.913 44.404S28.277 27 48.934 27a29.774 29.774 0 0121.153 8.707c14.503 12.931 14.378 38.34 14.378 38.34v89.009a2.244 2.244 0 01-2.244 2.245H63.827a2.293 2.293 0 01-2.292-2.293V81.499c-3.547 2.02-7.73 3.342-12.6 3.342-20.658 0-30.022-17.404-30.022-17.404V44.404z" fill="url(#paint1_radial)"/><path d="M18.914 44.432c2.476-3.103 7.452-1.341 7.452 2.723v17.531c0 4.066-4.977 5.824-7.452 2.723l-.001.028" fill="#EFEFEF"/><path d="M22.183 68.986A4.183 4.183 0 0118 64.803V47.038a4.183 4.183 0 018.366 0v17.765a4.183 4.183 0 01-4.183 4.183z" fill="url(#paint2_linear)"/><path d="M56.483 70.804c5.168 2.924 5.025 10.622 5.048 10.697a25.786 25.786 0 01-4.427 1.998v-2c0-1.364-.514-5.548-2.801-6.842a2.213 2.213 0 112.18-3.853z" fill="#D7EEF5"/><path d="M73.329 53.75a2.213 2.213 0 001.092-2.934c-2.467-5.393-5.947-10.045-10.963-13.773a2.213 2.213 0 10-2.64 3.552c.9.67 1.754 1.407 2.54 2.192 2.601 2.59 4.696 4.752 7.037 9.87.372.814 1.826 1.6 2.934 1.092z" fill="url(#paint3_linear)"/><path d="M38.916 60.104a4.183 4.183 0 110-8.366 4.183 4.183 0 010 8.366z" fill="url(#paint4_linear)"/><path d="M78.416 72.73c0-1.925-2.333-2.976-3.78-1.566a2.219 2.219 0 000 3.13c.99.993 3.78.45 3.78-1.563z" fill="#C4E0E8"/><path d="M68.964 159.904h7.968a2.213 2.213 0 000-4.427h-7.968a2.213 2.213 0 000 4.427z" fill="#D7EEF5"/></g><defs><linearGradient id="paint0_linear" x1="72.948" y1="165.005" x2="72.948" y2="173.371" gradientUnits="userSpaceOnUse"><stop stop-color="#B0D7E2"/><stop offset="1" stop-color="#D4EBF1"/></linearGradient><linearGradient id="paint2_linear" x1="22.183" y1="42.855" x2="22.183" y2="68.986" gradientUnits="userSpaceOnUse"><stop stop-color="#B0D7E2"/><stop offset="1" stop-color="#D4EBF1"/></linearGradient><linearGradient id="paint3_linear" x1="67.273" y1="36.605" x2="67.273" y2="53.91" gradientUnits="userSpaceOnUse"><stop stop-color="#B0D7E2"/><stop offset="1" stop-color="#D4EBF1"/></linearGradient><linearGradient id="paint4_linear" x1="38.916" y1="51.738" x2="38.916" y2="60.104" gradientUnits="userSpaceOnUse"><stop stop-color="#B0D7E2"/><stop offset="1" stop-color="#D4EBF1"/></linearGradient><radialGradient id="paint1_radial" cx="0" cy="0" r="1" gradientUnits="userSpaceOnUse" gradientTransform="matrix(-69.50074 -215.49987 343.40931 -110.75274 67.965 160.872)"><stop stop-color="#fff"/><stop offset="1" stop-color="#E1F4FD"/></radialGradient><filter id="filter0_d" x="0" y="0" width="120.465" height="200.371" filterUnits="userSpaceOnUse" color-interpolation-filters="sRGB"><feFlood flood-opacity="0" result="BackgroundImageFix"/><feColorMatrix in="SourceAlpha" values="0 0 0 0 0 0 0 0 0 0 0 0 0 0 0 0 0 0 127 0" result="hardAlpha"/><feOffset dx="9"/><feGaussianBlur stdDeviation="13.5"/><feColorMatrix values="0 0 0 0 0.555208 0 0 0 0 0.752283 0 0 0 0 0.8125 0 0 0 0.5 0"/><feBlend in2="BackgroundImageFix" result="effect1_dropShadow"/><feBlend in="SourceGraphic" in2="effect1_dropShadow" result="shape"/></filter></defs></svg>