<svg width="121" height="981" fill="none" xmlns="http://www.w3.org/2000/svg"><g filter="url(#filter0_d)"><path d="M20.273 169.653v-4.647H38.76v4.647a3.73 3.73 0 01-3.719 3.719H23.991a3.73 3.73 0 01-3.718-3.719z" fill="url(#paint0_linear)"/><path d="M83.552 44.404S74.188 27 53.53 27a29.774 29.774 0 00-21.152 8.707C17.875 48.638 18 74.047 18 74.047v89.009a2.244 2.244 0 002.244 2.245h18.393a2.293 2.293 0 002.293-2.293V81.499c3.547 2.02 7.729 3.342 12.6 3.342 20.658 0 30.022-17.404 30.022-17.404V44.404z" fill="url(#paint1_radial)"/><path d="M83.551 44.432c-2.477-3.103-7.452-1.341-7.452 2.723v17.531c0 4.066 4.977 5.824 7.452 2.723l.001.028" fill="#EFEFEF"/><path d="M80.282 68.986a4.183 4.183 0 004.183-4.183V47.038a4.183 4.183 0 10-8.366 0v17.765a4.183 4.183 0 004.183 4.183z" fill="url(#paint2_linear)"/><path d="M45.982 70.804c-5.168 2.924-5.026 10.622-5.048 10.697a25.789 25.789 0 004.427 1.998v-2c0-1.364.514-5.548 2.801-6.842a2.213 2.213 0 10-2.18-3.853z" fill="#D7EEF5"/><path d="M29.136 53.75a2.213 2.213 0 01-1.092-2.934c2.467-5.393 5.946-10.045 10.963-13.773a2.213 2.213 0 112.64 3.552c-.9.67-1.754 1.407-2.54 2.192-2.601 2.59-4.696 4.752-7.037 9.87-.372.814-1.826 1.6-2.934 1.092z" fill="url(#paint3_linear)"/><path d="M63.55 60.104a4.183 4.183 0 100-8.366 4.183 4.183 0 000 8.366z" fill="url(#paint4_linear)"/><path d="M24.049 72.73c0-1.925 2.333-2.976 3.78-1.566.904.93.82 2.312 0 3.13-.99.993-3.78.45-3.78-1.563z" fill="#C4E0E8"/><path d="M33.5 159.904h-7.968a2.213 2.213 0 010-4.427h7.969a2.213 2.213 0 010 4.427z" fill="#D7EEF5"/></g><defs><linearGradient id="paint0_linear" x1="29.517" y1="165.006" x2="29.517" y2="173.372" gradientUnits="userSpaceOnUse"><stop stop-color="#B0D7E2"/><stop offset="1" stop-color="#D4EBF1"/></linearGradient><linearGradient id="paint2_linear" x1="80.282" y1="42.855" x2="80.282" y2="68.986" gradientUnits="userSpaceOnUse"><stop stop-color="#B0D7E2"/><stop offset="1" stop-color="#D4EBF1"/></linearGradient><linearGradient id="paint3_linear" x1="35.192" y1="36.605" x2="35.192" y2="53.91" gradientUnits="userSpaceOnUse"><stop stop-color="#B0D7E2"/><stop offset="1" stop-color="#D4EBF1"/></linearGradient><linearGradient id="paint4_linear" x1="63.549" y1="51.738" x2="63.549" y2="60.104" gradientUnits="userSpaceOnUse"><stop stop-color="#B0D7E2"/><stop offset="1" stop-color="#D4EBF1"/></linearGradient><radialGradient id="paint1_radial" cx="0" cy="0" r="1" gradientUnits="userSpaceOnUse" gradientTransform="matrix(69.49998 -215.5001 343.4097 110.75154 34.5 160.872)"><stop stop-color="#fff"/><stop offset="1" stop-color="#E1F4FD"/></radialGradient><filter id="filter0_d" x="0" y="0" width="120.465" height="200.372" filterUnits="userSpaceOnUse" color-interpolation-filters="sRGB"><feFlood flood-opacity="0" result="BackgroundImageFix"/><feColorMatrix in="SourceAlpha" values="0 0 0 0 0 0 0 0 0 0 0 0 0 0 0 0 0 0 127 0" result="hardAlpha"/><feOffset dx="9"/><feGaussianBlur stdDeviation="13.5"/><feColorMatrix values="0 0 0 0 0.555208 0 0 0 0 0.752283 0 0 0 0 0.8125 0 0 0 0.5 0"/><feBlend in2="BackgroundImageFix" result="effect1_dropShadow"/><feBlend in="SourceGraphic" in2="effect1_dropShadow" result="shape"/></filter></defs></svg>