<svg width="128" height="151" fill="none" xmlns="http://www.w3.org/2000/svg"><path d="M127.841 38.867c-.181-3.972-.181-7.764-.181-11.556 0-3.07-2.346-5.417-5.413-5.417-22.556 0-39.7-6.5-53.955-20.404a5.565 5.565 0 00-7.578 0C46.458 15.393 29.315 21.894 6.759 21.894c-3.068 0-5.413 2.347-5.413 5.417 0 3.792 0 7.584-.18 11.556C.442 76.787-.64 128.79 62.697 150.64l1.805.361 1.804-.361c63.158-21.849 62.256-73.672 61.534-111.772z" fill="url(#paint0_linear)"/><path d="M60.14 91.412c-1.082.903-2.345 1.445-3.789 1.445h-.18c-1.444 0-2.887-.722-3.79-1.806L35.6 72.453l8.12-7.223 13.173 14.626L86.126 52.05l7.398 7.945L60.14 91.412z" fill="#4CD964"/><defs><linearGradient id="paint0_linear" x1="25.081" y1="75.49" x2="152.088" y2="75.49" gradientUnits="userSpaceOnUse"><stop stop-color="#fff"/><stop offset="1" stop-color="#E1F4FD"/></linearGradient></defs></svg>