<svg width="345" height="403" fill="none" xmlns="http://www.w3.org/2000/svg"><path d="M151 55.002C22 155.003 107.151 329.773 251.473 294.973 350 271.215 301 158.91 218.54 200.885c-56.761 28.892-87.749 103.117-66.198 174.117" stroke="url(#paint0_linear)" stroke-width="2" stroke-miterlimit="10" stroke-dasharray="8.16 8.16"/><circle r="5" transform="matrix(-1 0 0 1 151 55)" fill="#CAEAF4"/><g filter="url(#filter0_dd)"><path d="M114.398 195.3l-.066-.182-5.158 1.868.063.175c.249.69 1.284 1.805 1.915 1.576l2.784-1.008c.489-.178.791-1.516.462-2.429z" fill="#fff"/><path d="M114.341 195.267l-.066-.183-5.158 1.869.063.175c.249.69 1.284 1.805 1.915 1.576l2.784-1.009c.492-.169.791-1.515.462-2.428z" fill="url(#paint1_linear)"/><path opacity=".2" d="M109.039 196.835c.133.368 1.396.249 2.821-.267 1.424-.515 2.472-1.232 2.339-1.601-.133-.368-1.396-.249-2.821.267-1.425.515-2.472 1.232-2.339 1.601z" fill="url(#paint2_radial)"/><path d="M112.669 190.519l-.045-.126c-1.342-3.727-3.584-6.322-5.001-5.808-1.425.518-1.487 3.957-.148 7.676l.046.127 1.66 4.613 5.149-1.869-1.661-4.613z" fill="#fff"/><path d="M112.606 190.542a7.191 7.191 0 00-.046-.127c-1.341-3.727-3.584-6.321-5.001-5.807-1.425.517-1.486 3.957-.148 7.675l.046.127 1.66 4.613 5.149-1.868-1.66-4.613z" fill="url(#paint3_linear)"/><path opacity=".2" d="M111.725 194.221c-1.005 1.762-2.129 3.02-2.5 2.806-.372-.215.147-1.819 1.152-3.581s2.129-3.02 2.5-2.806c.372.215-.147 1.819-1.152 3.581z" fill="url(#paint4_radial)"/><path d="M94.678 187.257l9.785 27.18c-1.889-12.002 20.888-42.292 20.888-42.292l-2.205-6.273c-.011-.005-25.112 30.707-28.468 21.385z" fill="#fff"/><path d="M94.449 187.339l9.785 27.181c-1.889-12.003 20.888-42.292 20.888-42.292l-2.116-6.199s-25.201 30.632-28.557 21.31z" fill="url(#paint5_linear)"/><mask id="a" maskUnits="userSpaceOnUse" x="94" y="165" width="31" height="50"><path d="M94.651 187.272c2.895 8.166 4.407 12.428 9.731 27.449-1.891-12.116 20.581-42.633 20.581-42.633l-2.105-6.26s-24.87 30.857-28.207 21.444z" fill="url(#paint6_linear)"/></mask><g mask="url(#a)"><path opacity=".2" d="M123.773 170.17c.631 1.77 1.391 3.115 1.697 3.003.306-.112.042-1.638-.59-3.408s-1.392-3.115-1.697-3.003c-.306.112-.042 1.638.59 3.408z" fill="url(#paint7_radial)"/><path opacity=".2" d="M97.192 200.821c3.452 9.668 7.471 17.058 8.977 16.507 1.506-.551-.07-8.834-3.522-18.502-3.452-9.667-7.47-17.057-8.977-16.506-1.506.551.07 8.834 3.522 18.501z" fill="url(#paint8_radial)"/></g><path d="M79.798 208.033l-.065-.183 5.158-1.869.063.175c.248.69.163 2.211-.468 2.439l-2.784 1.009c-.486.185-1.575-.659-1.904-1.571z" fill="#fff"/><path d="M79.82 207.971l-.065-.182 5.158-1.869.063.175c.249.69.164 2.21-.467 2.439l-2.784 1.008c-.486.186-1.575-.658-1.904-1.571z" fill="url(#paint9_linear)"/><path opacity=".2" d="M79.731 207.65c.133.369 1.396.25 2.82-.266 1.426-.516 2.473-1.233 2.34-1.601-.133-.369-1.396-.25-2.82.266-1.426.516-2.473 1.233-2.34 1.601z" fill="url(#paint10_radial)"/><path d="M78.081 203.259l-.046-.126c-1.34-3.727-1.277-7.159.148-7.676 1.425-.517 3.663 2.089 5.001 5.807l.046.127 1.66 4.613-5.148 1.868-1.66-4.613z" fill="#fff"/><path d="M78.144 203.236c-.014-.039-.03-.087-.045-.126-1.342-3.727-1.27-7.162.148-7.676 1.425-.517 3.662 2.089 5 5.807l.046.127 1.66 4.613-5.148 1.868-1.66-4.613z" fill="url(#paint11_linear)"/><path opacity=".2" d="M81.167 205.498c1.895.71 3.561.957 3.71.554.149-.404-1.271-1.304-3.167-2.014-1.895-.71-3.561-.957-3.71-.554-.149.404 1.272 1.304 3.167 2.014z" fill="url(#paint12_radial)"/><path d="M89.83 189.182l9.786 27.18c-6.191-10.442-42.995-19.117-42.995-19.117l-2.3-6.239c.008-.003 38.866 7.497 35.51-1.824z" fill="#fff"/><path d="M90.052 189.102l9.786 27.181c-6.191-10.442-42.996-19.118-42.996-19.118l-2.32-6.124c.007-.003 38.886 7.382 35.53-1.939z" fill="url(#paint13_linear)"/><mask id="b" maskUnits="userSpaceOnUse" x="54" y="188" width="46" height="29"><path d="M89.885 188.997l9.73 27.449c-6.143-10.551-42.565-19.383-42.565-19.383l-2.307-6.186c.007-.002 38.479 7.533 35.142-1.88z" fill="url(#paint14_linear)"/></mask><g mask="url(#b)"><path opacity=".2" d="M91.101 203.267c3.452 9.668 7.47 17.058 8.977 16.507 1.507-.551-.07-8.834-3.522-18.502-3.451-9.667-7.47-17.057-8.977-16.506-1.506.55.07 8.834 3.522 18.501z" fill="url(#paint15_radial)"/><path opacity=".2" d="M55.437 195.046c.632 1.771 1.391 3.115 1.697 3.003.306-.112.042-1.637-.59-3.408-.632-1.77-1.391-3.114-1.697-3.002-.306.111-.042 1.637.59 3.407z" fill="url(#paint16_radial)"/></g><path d="M125.394 172.262c-.126.046-.791-1.456-.911-1.787-.119-.332-1.797-5.308-1.663-5.357.126-.045 2.012 4.846 2.135 5.186.119.332.572 1.91.439 1.958z" fill="#fff"/><path d="M125.368 172.191c-.126.046-.777-1.443-.897-1.774-.119-.332-1.78-5.261-1.654-5.307.126-.045 1.99 4.809 2.11 5.141.12.332.567 1.895.441 1.94z" fill="url(#paint17_linear)"/><path d="M56.63 197.284c.125-.046-.32-1.626-.44-1.958-.12-.332-2.001-5.234-2.135-5.186-.125.046 1.541 5.017 1.664 5.357.122.339.784 1.833.91 1.787z" fill="#fff"/><path d="M56.606 197.221c.126-.046-.321-1.608-.44-1.94-.12-.332-1.985-5.186-2.11-5.141-.126.046 1.534 4.974 1.653 5.306.12.332.772 1.82.897 1.775z" fill="url(#paint18_linear)"/><path d="M80.736 155.882c1.605.368 8.482-5.734 12.274-8.102l.898 2.563s-9.49 15.174-9.02 17.386l-4.153-11.847z" fill="#fff"/><path d="M80.597 155.895c1.606.368 8.506-5.67 12.295-8.045l.875 2.498s-9.49 15.175-9.02 17.387l-4.15-11.84z" fill="url(#paint19_linear)"/><mask id="c" maskUnits="userSpaceOnUse" x="80" y="147" width="14" height="21"><path d="M80.603 155.892c1.605.369 8.5-5.671 12.286-8.048l.875 2.5s-9.482 15.182-9.012 17.396l-4.149-11.848z" fill="url(#paint20_linear)"/></mask><g mask="url(#c)"><path opacity=".2" d="M85.938 158.241c1.223 2.371 1.75 4.548 1.18 4.858-.57.31-2.024-1.353-3.247-3.723-1.223-2.371-1.75-4.549-1.18-4.859.567-.318 2.024 1.353 3.247 3.724z" fill="url(#paint21_radial)"/></g><path d="M80.593 156.038c-1.007 1.34-10.081 1.172-14.466 1.847l.898 2.563s16.71 5.426 17.72 7.437l-4.152-11.847z" fill="#fff"/><mask id="d" maskUnits="userSpaceOnUse" x="66" y="156" width="19" height="12"><path d="M80.589 156.034c-1.006 1.341-10.075 1.172-14.457 1.846l.898 2.565s16.7 5.432 17.71 7.444l-4.151-11.855z" fill="#fff"/></mask><g mask="url(#d)"><path d="M80.701 155.948c-1.006 1.341-10.052 1.236-14.438 1.903l.876 2.5s16.7 5.432 17.71 7.445l-4.148-11.848z" fill="url(#paint22_linear)"/><path opacity=".2" d="M78.24 161.427c.54 2.624 1.492 4.644 2.124 4.51.631-.135.713-2.366.175-4.99-.539-2.624-1.492-4.644-2.123-4.509-.632.134-.713 2.365-.175 4.989z" fill="url(#paint23_radial)"/></g><path d="M107.637 219.962l-17.901-50.187c-6.908-19.367-9.708-16.459-9.708-16.459s-3.989-.423 2.92 18.944l17.9 50.187s4.698 10.815 7.349 9.845c2.651-.97-.56-12.33-.56-12.33z" fill="#fff"/><path d="M107.416 220.041l-17.9-50.186c-6.909-19.367-9.709-16.459-9.709-16.459s-3.988-.423 2.92 18.944l17.9 50.186s4.698 10.816 7.349 9.845c2.651-.97-.56-12.33-.56-12.33z" fill="url(#paint24_radial)"/><path opacity=".2" d="M82.177 165.035c2.16 6.077 4.565 10.762 5.373 10.465.808-.297-.287-5.464-2.446-11.54-2.16-6.077-4.565-10.762-5.373-10.465-.808.297.287 5.463 2.446 11.54z" fill="url(#paint25_radial)"/><path d="M85.586 169.924c-.337.123-1.952-3.543-2.246-4.367-.295-.824-4.34-13.002-4.003-13.125.337-.123 4.923 11.857 5.217 12.681.294.824 1.37 4.688 1.032 4.811z" fill="#fff"/><path d="M85.508 169.755c-.33.12-1.925-3.517-2.214-4.325-.292-.816-4.3-12.864-3.97-12.984.33-.121 4.865 11.743 5.154 12.551.281.811 1.353 4.64 1.03 4.758z" fill="url(#paint26_linear)"/><mask id="e" maskUnits="userSpaceOnUse" x="104" y="225" width="4" height="3"><path d="M106.501 227.859c-1.199.434-2.19-.309-2.382-.84-.191-.531.694-.601 1.727-.975 1.042-.377 1.843-.9 2.035-.369.191.531-.105 1.713-1.38 2.184z" fill="url(#paint27_radial)" opacity=".5"/></mask><g mask="url(#e)"><path opacity=".5" d="M106.501 227.884c-1.184.439-2.167-.328-2.358-.873-.192-.546.682-.613 1.703-.991 1.028-.381 1.818-.914 2.01-.369.191.546-.096 1.757-1.355 2.233z" fill="url(#paint28_radial)"/><path opacity=".5" d="M107.634 224.682l.336.957s-1.001 2.91-3.974 1.473l-.336-.956s2.672.497 3.974-1.474z" fill="#fff"/><path opacity=".5" d="M107.634 224.682l.336.957s-1.001 2.91-3.974 1.473l-.336-.956s2.68.494 3.974-1.474z" fill="url(#paint29_linear)"/></g></g><defs><linearGradient id="paint0_linear" x1="37.328" y1="210.337" x2="336.475" y2="244.522" gradientUnits="userSpaceOnUse"><stop stop-color="#CBEAF4"/><stop offset="1" stop-color="#B0E2F2"/></linearGradient><linearGradient id="paint1_linear" x1="111.696" y1="196.02" x2="112.488" y2="198.204" gradientUnits="userSpaceOnUse"><stop stop-color="#EDF8FE"/><stop offset="1" stop-color="#fff"/></linearGradient><linearGradient id="paint3_linear" x1="107.554" y1="184.606" x2="111.717" y2="196.08" gradientUnits="userSpaceOnUse"><stop stop-color="#fff"/><stop offset="1" stop-color="#EAF7FE"/></linearGradient><linearGradient id="paint5_linear" x1="109.503" y1="178.831" x2="122.866" y2="215.667" gradientUnits="userSpaceOnUse"><stop stop-color="#EFF9FE"/><stop offset="1" stop-color="#E1F4FD"/></linearGradient><linearGradient id="paint6_linear" x1="109.526" y1="178.718" x2="123.173" y2="215.785" gradientUnits="userSpaceOnUse"><stop stop-color="#fff"/><stop offset="1" stop-color="#E1F4FD"/></linearGradient><linearGradient id="paint9_linear" x1="82.334" y1="206.855" x2="83.126" y2="209.04" gradientUnits="userSpaceOnUse"><stop stop-color="#EDF8FE"/><stop offset="1" stop-color="#fff"/></linearGradient><linearGradient id="paint11_linear" x1="78.241" y1="195.433" x2="82.404" y2="206.906" gradientUnits="userSpaceOnUse"><stop stop-color="#fff"/><stop offset="1" stop-color="#EAF7FE"/></linearGradient><linearGradient id="paint13_linear" x1="73.065" y1="192.219" x2="86.428" y2="229.055" gradientUnits="userSpaceOnUse"><stop stop-color="#EFF9FE"/><stop offset="1" stop-color="#E1F4FD"/></linearGradient><linearGradient id="paint14_linear" x1="73.087" y1="192.106" x2="86.735" y2="229.174" gradientUnits="userSpaceOnUse"><stop stop-color="#fff"/><stop offset="1" stop-color="#E1F4FD"/></linearGradient><linearGradient id="paint17_linear" x1="122.815" y1="165.108" x2="125.38" y2="172.186" gradientUnits="userSpaceOnUse"><stop stop-color="#EFF9FE"/><stop offset=".2" stop-color="#fff"/><stop offset=".404" stop-color="#fff"/><stop offset=".607" stop-color="#fff"/><stop offset=".807" stop-color="#EEF8FE"/><stop offset="1" stop-color="#EEF9FE"/></linearGradient><linearGradient id="paint18_linear" x1="54.053" y1="190.138" x2="56.619" y2="197.215" gradientUnits="userSpaceOnUse"><stop stop-color="#EFF9FE"/><stop offset=".2" stop-color="#fff"/><stop offset=".404" stop-color="#fff"/><stop offset=".607" stop-color="#fff"/><stop offset=".807" stop-color="#EEF8FE"/><stop offset="1" stop-color="#EEF9FE"/></linearGradient><linearGradient id="paint19_linear" x1="87.215" y1="153.21" x2="92.723" y2="168.015" gradientUnits="userSpaceOnUse"><stop stop-color="#EFF9FE"/><stop offset="1" stop-color="#E1F4FD"/></linearGradient><linearGradient id="paint20_linear" x1="87.216" y1="153.207" x2="92.731" y2="168.018" gradientUnits="userSpaceOnUse"><stop stop-color="#EFF9FE"/><stop offset="1" stop-color="#E1F4FD"/></linearGradient><linearGradient id="paint22_linear" x1="73.949" y1="158.242" x2="79.464" y2="173.053" gradientUnits="userSpaceOnUse"><stop stop-color="#EFF9FE"/><stop offset="1" stop-color="#E1F4FD"/></linearGradient><linearGradient id="paint26_linear" x1="79.317" y1="152.439" x2="85.629" y2="169.709" gradientUnits="userSpaceOnUse"><stop stop-color="#EFF9FE"/><stop offset=".2" stop-color="#fff"/><stop offset=".404" stop-color="#fff"/><stop offset=".607" stop-color="#fff"/><stop offset=".807" stop-color="#EEF8FE"/><stop offset="1" stop-color="#EEF9FE"/></linearGradient><linearGradient id="paint29_linear" x1="102.687" y1="225.577" x2="108.08" y2="226.265" gradientUnits="userSpaceOnUse"><stop stop-color="#828C93"/><stop offset=".083" stop-color="#89939A"/><stop offset=".222" stop-color="#9DA8AE"/><stop offset=".4" stop-color="#BFCAD0"/><stop offset=".511" stop-color="#D8E2E7"/><stop offset=".623" stop-color="#A8B3B9"/><stop offset=".754" stop-color="#798389"/><stop offset=".865" stop-color="#586066"/><stop offset=".95" stop-color="#41474C"/><stop offset="1" stop-color="#373D42"/></linearGradient><radialGradient id="paint2_radial" cx="0" cy="0" r="1" gradientUnits="userSpaceOnUse" gradientTransform="rotate(70.159 -83.665 177.42) scale(.70952 2.7403)"><stop stop-color="#7CAEBE"/><stop offset="1" stop-color="#EAF7FE"/></radialGradient><radialGradient id="paint4_radial" cx="0" cy="0" r="1" gradientUnits="userSpaceOnUse" gradientTransform="rotate(70.196 -82.384 175.928) scale(2.4532 2.84136)"><stop stop-color="#7CAEBE"/><stop offset="1" stop-color="#EDF8FE"/></radialGradient><radialGradient id="paint7_radial" cx="0" cy="0" r="1" gradientUnits="userSpaceOnUse" gradientTransform="rotate(70.363 -58.392 173.166) scale(3.40357 .58872)"><stop stop-color="#7CAEBE"/><stop offset="1" stop-color="#EAF7FE"/></radialGradient><radialGradient id="paint8_radial" cx="0" cy="0" r="1" gradientUnits="userSpaceOnUse" gradientTransform="rotate(70.352 -91.8 170.796) scale(18.5884 2.90029)"><stop stop-color="#7CAEBE"/><stop offset="1" stop-color="#EAF7FE"/></radialGradient><radialGradient id="paint10_radial" cx="0" cy="0" r="1" gradientUnits="userSpaceOnUse" gradientTransform="matrix(.24085 .66745 -2.57763 .93014 82.31 206.716)"><stop stop-color="#7CAEBE"/><stop offset="1" stop-color="#EAF7FE"/></radialGradient><radialGradient id="paint12_radial" cx="0" cy="0" r="1" gradientUnits="userSpaceOnUse" gradientTransform="matrix(.83111 2.30803 -2.6733 .96265 81.438 204.768)"><stop stop-color="#7CAEBE"/><stop offset="1" stop-color="#EDF8FE"/></radialGradient><radialGradient id="paint15_radial" cx="0" cy="0" r="1" gradientUnits="userSpaceOnUse" gradientTransform="rotate(70.352 -96.58 167.698) scale(18.5884 2.90029)"><stop stop-color="#7CAEBE"/><stop offset="1" stop-color="#EAF7FE"/></radialGradient><radialGradient id="paint16_radial" cx="0" cy="0" r="1" gradientUnits="userSpaceOnUse" gradientTransform="matrix(1.14383 3.20561 -.55448 .19785 55.99 194.844)"><stop stop-color="#7CAEBE"/><stop offset="1" stop-color="#EAF7FE"/></radialGradient><radialGradient id="paint21_radial" cx="0" cy="0" r="1" gradientUnits="userSpaceOnUse" gradientTransform="matrix(1.59482 4.52373 -1.25989 .44417 84.904 158.807)"><stop stop-color="#7CAEBE"/><stop offset="1" stop-color="#EAF7FE"/></radialGradient><radialGradient id="paint23_radial" cx="0" cy="0" r="1" gradientUnits="userSpaceOnUse" gradientTransform="matrix(1.59473 4.5235 -1.2599 .44417 79.39 161.187)"><stop stop-color="#7CAEBE"/><stop offset="1" stop-color="#EAF7FE"/></radialGradient><radialGradient id="paint24_radial" cx="0" cy="0" r="1" gradientUnits="userSpaceOnUse" gradientTransform="rotate(70.37 -81.891 151.235) scale(60.7398 3.95342)"><stop stop-color="#fff"/><stop offset="1" stop-color="#E1F4FD"/></radialGradient><radialGradient id="paint25_radial" cx="0" cy="0" r="1" gradientUnits="userSpaceOnUse" gradientTransform="matrix(3.91001 11.00398 -1.46702 .52127 83.64 164.496)"><stop stop-color="#7CAEBE"/><stop offset="1" stop-color="#EAF7FE"/></radialGradient><radialGradient id="paint27_radial" cx="0" cy="0" r="1" gradientUnits="userSpaceOnUse" gradientTransform="matrix(.3422 .94847 -1.84733 .6665 106.157 226.783)"><stop stop-color="#fff"/><stop offset=".12" stop-color="#FBFBFB"/><stop offset=".245" stop-color="#EEE"/><stop offset=".372" stop-color="#DADADA"/><stop offset=".501" stop-color="#BCBCBC"/><stop offset=".63" stop-color="#979797"/><stop offset=".761" stop-color="#696969"/><stop offset=".89" stop-color="#343434"/><stop offset="1"/></radialGradient><radialGradient id="paint28_radial" cx="0" cy="0" r="1" gradientUnits="userSpaceOnUse" gradientTransform="matrix(.33603 .95575 -1.86252 .65483 106.204 226.914)"><stop stop-color="#7CAEBE"/><stop offset="1" stop-color="#EAF7FE"/></radialGradient><filter id="filter0_dd" x="49.049" y="141.78" width="91.369" height="104.652" filterUnits="userSpaceOnUse" color-interpolation-filters="sRGB"><feFlood flood-opacity="0" result="BackgroundImageFix"/><feColorMatrix in="SourceAlpha" values="0 0 0 0 0 0 0 0 0 0 0 0 0 0 0 0 0 0 127 0" result="hardAlpha"/><feOffset dx="3"/><feGaussianBlur stdDeviation="1.5"/><feColorMatrix values="0 0 0 0 0.555208 0 0 0 0 0.752283 0 0 0 0 0.8125 0 0 0 0.4 0"/><feBlend in2="BackgroundImageFix" result="effect1_dropShadow"/><feColorMatrix in="SourceAlpha" values="0 0 0 0 0 0 0 0 0 0 0 0 0 0 0 0 0 0 127 0" result="hardAlpha"/><feOffset dx="5" dy="4"/><feGaussianBlur stdDeviation="5"/><feColorMatrix values="0 0 0 0 0.556863 0 0 0 0 0.752941 0 0 0 0 0.811765 0 0 0 0.5 0"/><feBlend in2="effect1_dropShadow" result="effect2_dropShadow"/><feBlend in="SourceGraphic" in2="effect2_dropShadow" result="shape"/></filter></defs></svg>