<svg width="107" height="82" fill="none" xmlns="http://www.w3.org/2000/svg"><g filter="url(#filter0_d)"><path d="M42.52 57.15c-4.624 0-9.017-1.965-12.139-5.433l-.173-.173-.231.173a13.405 13.405 0 01-8.035 2.659c-7.399 0-13.468-6.07-13.468-13.468 0-5.839 3.7-10.925 9.248-12.775l.231-.058v-.231-.694c0-9.826 7.977-17.803 17.804-17.803 5.607 0 10.81 2.601 14.22 7.052l.173.231.231-.173c2.428-2.023 5.55-3.122 8.728-3.122 6.937 0 12.775 5.145 13.7 12.023v.174l.173.058c5.318 2.08 8.787 7.11 8.787 12.89 0 7.63-6.185 13.815-13.816 13.815a13.882 13.882 0 01-10.23-4.509l-.29-.347-.173.405c-2.66 5.607-8.44 9.306-14.74 9.306z" fill="url(#paint0_linear)"/><path d="M35.757 9.578c5.549 0 10.636 2.543 13.988 6.937l.347.462.462-.405c2.428-1.965 5.434-3.063 8.555-3.063 6.763 0 12.544 5.029 13.41 11.734l.058.347.347.115a13.477 13.477 0 018.613 12.601c0 7.457-6.07 13.526-13.526 13.526a13.603 13.603 0 01-10-4.393l-.578-.636-.347.81c-2.601 5.607-8.323 9.19-14.45 9.19-4.51 0-8.845-1.965-11.908-5.317l-.347-.405-.405.289c-2.312 1.676-5.029 2.601-7.861 2.601-7.283 0-13.18-5.896-13.18-13.179 0-5.665 3.643-10.694 9.018-12.486l.405-.115v-.463-.693c-.116-9.596 7.745-17.457 17.399-17.457zm0-.578c-10 0-18.093 8.093-18.093 18.093v.693c-5.491 1.792-9.422 6.994-9.422 13.064 0 7.572 6.185 13.757 13.757 13.757 3.064 0 5.896-1.04 8.209-2.717 3.005 3.41 7.456 5.492 12.312 5.492 6.647 0 12.312-3.873 14.97-9.538 2.602 2.832 6.301 4.624 10.405 4.624C75.7 52.468 82 46.168 82 38.364c0-5.954-3.7-11.098-8.96-13.121-.925-6.937-6.82-12.255-13.989-12.255-3.352 0-6.474 1.214-8.901 3.18C46.855 11.832 41.653 9 35.757 9z" fill="url(#paint1_linear)"/></g><defs><linearGradient id="paint0_linear" x1="22.372" y1="33.245" x2="95.67" y2="33.245" gradientUnits="userSpaceOnUse"><stop stop-color="#fff"/><stop offset="1" stop-color="#E1F4FD"/></linearGradient><linearGradient id="paint1_linear" x1="22.228" y1="33.188" x2="95.989" y2="33.188" gradientUnits="userSpaceOnUse"><stop stop-color="#fff"/><stop offset="1" stop-color="#E1F4FD"/></linearGradient><filter id="filter0_d" x=".234" y=".992" width="105.789" height="80.414" filterUnits="userSpaceOnUse" color-interpolation-filters="sRGB"><feFlood flood-opacity="0" result="BackgroundImageFix"/><feColorMatrix in="SourceAlpha" values="0 0 0 0 0 0 0 0 0 0 0 0 0 0 0 0 0 0 127 0" result="hardAlpha"/><feOffset dx="8.008" dy="8.008"/><feGaussianBlur stdDeviation="8.008"/><feColorMatrix values="0 0 0 0 0.555208 0 0 0 0 0.752283 0 0 0 0 0.8125 0 0 0 0.5 0"/><feBlend in2="BackgroundImageFix" result="effect1_dropShadow"/><feBlend in="SourceGraphic" in2="effect1_dropShadow" result="shape"/></filter></defs></svg>