<svg width="86" height="60" fill="none" xmlns="http://www.w3.org/2000/svg"><g filter="url(#filter0_d)"><path d="M34.224 39.756a13.126 13.126 0 01-9.77-4.373l-.14-.14-.185.14a10.789 10.789 0 01-6.467 2.14c-5.956 0-10.84-4.885-10.84-10.84 0-4.7 2.977-8.794 7.443-10.282l.186-.047v-.186-.558c0-7.91 6.42-14.33 14.33-14.33 4.513 0 8.7 2.094 11.445 5.676l.14.186.186-.14c1.954-1.628 4.466-2.512 7.025-2.512 5.583 0 10.282 4.141 11.027 9.677v.14l.14.046c4.28 1.675 7.07 5.723 7.07 10.376 0 6.14-4.977 11.12-11.118 11.12a11.173 11.173 0 01-8.235-3.63l-.233-.279-.14.326c-2.14 4.513-6.792 7.49-11.864 7.49z" fill="url(#paint0_linear)"/><path d="M28.78 1.465c4.466 0 8.56 2.047 11.259 5.583l.279.372.372-.325c1.954-1.582 4.373-2.466 6.886-2.466 5.443 0 10.096 4.048 10.794 9.444l.046.28.28.093a10.847 10.847 0 016.931 10.142c0 6.002-4.885 10.887-10.886 10.887-3.071 0-6.002-1.303-8.05-3.536l-.465-.512-.279.652c-2.093 4.513-6.7 7.397-11.63 7.397-3.63 0-7.12-1.582-9.585-4.28l-.28-.326-.325.233c-1.86 1.349-4.047 2.093-6.327 2.093A10.603 10.603 0 017.192 26.59c0-4.56 2.931-8.607 7.258-10.05l.326-.093v-.372-.558c-.093-7.723 6.234-14.05 14.004-14.05zm0-.465c-8.05 0-14.563 6.513-14.563 14.562v.559c-4.42 1.442-7.583 5.63-7.583 10.514 0 6.095 4.978 11.073 11.073 11.073 2.465 0 4.745-.837 6.606-2.186 2.42 2.745 6.002 4.42 9.91 4.42 5.35 0 9.91-3.118 12.05-7.677 2.094 2.28 5.071 3.722 8.374 3.722C60.928 35.987 66 30.915 66 24.635c0-4.792-2.978-8.933-7.212-10.562-.744-5.582-5.49-9.863-11.259-9.863-2.698 0-5.21.977-7.165 2.56C37.713 3.28 33.525 1 28.78 1z" fill="url(#paint1_linear)"/></g><defs><linearGradient id="paint0_linear" x1="18.007" y1="20.515" x2="77.004" y2="20.515" gradientUnits="userSpaceOnUse"><stop stop-color="#fff"/><stop offset="1" stop-color="#E1F4FD"/></linearGradient><linearGradient id="paint1_linear" x1="17.89" y1="20.468" x2="77.26" y2="20.468" gradientUnits="userSpaceOnUse"><stop stop-color="#fff"/><stop offset="1" stop-color="#E1F4FD"/></linearGradient><filter id="filter0_d" x=".188" y="-5.446" width="85.148" height="64.723" filterUnits="userSpaceOnUse" color-interpolation-filters="sRGB"><feFlood flood-opacity="0" result="BackgroundImageFix"/><feColorMatrix in="SourceAlpha" values="0 0 0 0 0 0 0 0 0 0 0 0 0 0 0 0 0 0 127 0" result="hardAlpha"/><feOffset dx="6.446" dy="6.446"/><feGaussianBlur stdDeviation="6.446"/><feColorMatrix values="0 0 0 0 0.555208 0 0 0 0 0.752283 0 0 0 0 0.8125 0 0 0 0.2 0"/><feBlend in2="BackgroundImageFix" result="effect1_dropShadow"/><feBlend in="SourceGraphic" in2="effect1_dropShadow" result="shape"/></filter></defs></svg>