<svg width="70" height="70" fill="none" xmlns="http://www.w3.org/2000/svg"><path d="M35 0C15.671 0 0 15.671 0 35s15.671 35 35 35 35-15.671 35-35S54.329 0 35 0z" fill="#fff"/><g clip-path="url(#clip0)"><path d="M49.2 21.748C45.4 18.075 40.4 16 35.075 16c-15.283 0-24.88 16.558-17.248 29.73L15 56l10.558-2.753c4.6 2.485 8.369 2.265 9.527 2.411 17.722 0 26.543-21.44 14.09-33.845l.025-.065z" fill="#4CAF50"/><path d="M35.111 52.252l-.01-.002h-.026c-5.304 0-8.692-2.512-9.025-2.657l-6.25 1.625 1.675-6.075-.399-.625a16.448 16.448 0 01-2.526-8.767c0-14.654 17.908-21.983 28.271-11.624 10.339 10.25 3.08 28.125-11.71 28.125z" fill="#4CAF50"/><path d="M44.179 39.845l-.015.125c-.502-.25-2.945-1.445-3.4-1.61-1.022-.378-.734-.06-2.695 2.187-.292.325-.582.35-1.077.125-.5-.25-2.105-.775-4.005-2.475-1.48-1.325-2.473-2.95-2.767-3.45-.488-.843.534-.964 1.464-2.724.166-.35.081-.625-.042-.873-.125-.25-1.12-2.7-1.537-3.676-.4-.974-.811-.85-1.12-.85-.96-.084-1.661-.07-2.28.573-2.69 2.957-2.011 6.006.29 9.25 4.524 5.92 6.934 7.01 11.34 8.523 1.19.379 2.275.325 3.134.202.956-.152 2.945-1.202 3.36-2.377.425-1.175.425-2.15.3-2.375-.124-.225-.45-.35-.95-.575z" fill="#FAFAFA"/></g><defs><clipPath id="clip0"><path fill="#fff" transform="translate(15 16)" d="M0 0h40v40H0z"/></clipPath></defs></svg>