<svg width="70" height="70" fill="none" xmlns="http://www.w3.org/2000/svg"><path d="M35 0C15.671 0 0 15.671 0 35s15.671 35 35 35 35-15.671 35-35S54.329 0 35 0z" fill="url(#paint0_linear)"/><path d="M35 55c11.046 0 20-8.954 20-20s-8.954-20-20-20-20 8.954-20 20 8.954 20 20 20z" fill="#039BE5"/><path d="M24.152 34.566l19.283-7.435c.895-.323 1.677.219 1.387 1.572l.002-.002L41.54 44.17c-.243 1.096-.895 1.363-1.806.846l-5-3.684-2.412 2.323c-.267.267-.492.492-1.008.492l.355-5.089 9.266-8.372c.404-.355-.09-.555-.621-.201l-11.452 7.21-4.937-1.54c-1.071-.34-1.095-1.072.227-1.589z" fill="#fff"/><defs><linearGradient id="paint0_linear" x1="13.273" y1="34.995" x2="83.277" y2="34.995" gradientUnits="userSpaceOnUse"><stop stop-color="#fff"/><stop offset="1" stop-color="#E1F4FD"/></linearGradient></defs></svg>