<svg width="70" height="70" fill="none" xmlns="http://www.w3.org/2000/svg"><path d="M35 0C15.671 0 0 15.671 0 35s15.671 35 35 35 35-15.671 35-35S54.329 0 35 0z" fill="url(#paint0_linear)"/><g clip-path="url(#clip0)"><path d="M53.557 39.734c1.223-10.296-.588-16.796-3.854-19.736l.001-.002c-5.272-5.02-23.076-5.764-29.383.225-2.832 2.93-3.83 7.23-3.94 12.553-.109 5.325-.239 15.3 9.057 18.006h.008l-.008 4.133s-.064 1.674 1.006 2.01c1.223.397 1.776-.38 5.58-4.925 6.363.552 11.249-.712 11.804-.897 1.284-.43 8.553-1.392 9.729-11.367zm-20.905 9.357s-4.027 5.02-5.279 6.324c-.41.424-.86.384-.852-.456 0-.552.03-6.861.03-6.861-7.88-2.258-7.415-10.752-7.33-15.196.085-4.445.898-8.085 3.297-10.537 5.533-5.188 21.142-4.028 25.12-.29 4.861 4.31 3.13 16.487 3.141 16.902-1 8.327-6.89 8.855-7.973 9.215-.463.154-4.76 1.259-10.154.899z" fill="#7D3DAF"/><path d="M53.557 39.734c1.223-10.296-.588-16.796-3.854-19.736l.001-.002c-5.272-5.02-23.076-5.764-29.383.225-2.832 2.93-3.83 7.23-3.94 12.553-.109 5.325-.239 15.3 9.057 18.006h.008l-.008 4.133s-.064 1.674 1.006 2.01c1.223.397 1.776-.38 5.58-4.925 6.363.552 11.249-.712 11.804-.897 1.284-.43 8.553-1.392 9.729-11.367z" fill="#7D3DAF"/><path d="M34.88 23.34c-.658 0-.658 1.026 0 1.034 5.103.04 9.305 3.596 9.351 10.12 0 .689 1.008.68 1-.008h-.002c-.055-7.03-4.643-11.106-10.349-11.145z" fill="#fff"/><path d="M41.592 33.413c-.016.68.99.713 1 .024.083-3.876-2.307-7.07-6.798-7.406-.658-.047-.726.986-.07 1.034 3.895.295 5.946 2.954 5.868 6.348zM40.515 37.822c-.844-.488-1.703-.184-2.059.296l-.743.962c-.377.488-1.083.423-1.083.423-5.149-1.361-6.526-6.75-6.526-6.75s-.063-.729.409-1.12l.929-.769c.465-.369.758-1.257.285-2.13-1.264-2.284-2.113-3.072-2.545-3.676-.454-.57-1.138-.697-1.848-.313h-.016c-1.478.864-3.095 2.482-2.578 4.148.883 1.756 2.506 7.354 7.68 11.584 2.43 2 6.277 4.05 7.91 4.524l.016.024c1.61.536 3.174-1.145 4.01-2.667v-.012c.37-.736.247-1.433-.295-1.89-.96-.936-2.408-1.97-3.546-2.634z" fill="#fff"/><path d="M36.497 29.845c1.642.095 2.438.953 2.523 2.714.03.689 1.03.64 1-.048-.11-2.299-1.31-3.58-3.469-3.7-.657-.04-.719.994-.054 1.034z" fill="#fff"/></g><defs><linearGradient id="paint0_linear" x1="13.273" y1="34.995" x2="83.277" y2="34.995" gradientUnits="userSpaceOnUse"><stop stop-color="#fff"/><stop offset="1" stop-color="#E1F4FD"/></linearGradient><clipPath id="clip0"><path fill="#fff" transform="translate(14 16)" d="M0 0h41v41H0z"/></clipPath></defs></svg>