<svg width="455" height="494" fill="none" xmlns="http://www.w3.org/2000/svg"><path d="M224.979 44.013c-158.321 166.621-50.695 357.524 84.068 295.245 135.868-62.769 46.374-162.274-50.651-85.859-50.036 39.408-63.417 131.001-28.432 196.435" stroke="url(#paint0_linear)" stroke-width="2" stroke-miterlimit="10" stroke-dasharray="8.16 8.16"/><circle r="5" transform="scale(-1 1) rotate(11.247 -2399.488 -941.137)" fill="#CAEAF4"/><circle r="5" transform="scale(-1 1) rotate(11.247 -341.379 -1117.922)" fill="#CAEAF4"/><g filter="url(#filter0_dd)"><path d="M165.592 198.33l.018-.193-5.463-.497-.017.185c-.068.73.396 2.179 1.064 2.239l2.949.269c.518.047 1.36-1.037 1.449-2.003z" fill="#fff"/><path d="M165.555 198.277l.018-.194-5.463-.497-.017.185c-.068.731.396 2.179 1.064 2.24l2.949.268c.517.056 1.36-1.036 1.449-2.002z" fill="url(#paint1_linear)"/><path opacity=".2" d="M160.088 197.445c-.036.39 1.158.818 2.667.956s2.762-.067 2.798-.457c.036-.39-1.158-.818-2.667-.956s-2.762.067-2.798.457z" fill="url(#paint2_radial)"/><path d="M166.056 193.268l.013-.134c.367-3.944-.562-7.245-2.063-7.381-1.51-.137-3.026 2.952-3.392 6.887l-.013.134-.454 4.881 5.455.494.454-4.881z" fill="#fff"/><path d="M165.99 193.262l.012-.134c.368-3.944-.561-7.245-2.062-7.381-1.51-.137-3.026 2.951-3.393 6.887l-.012.134-.455 4.881 5.455.494.455-4.881z" fill="url(#paint3_linear)"/><path opacity=".2" d="M163.631 196.218c-1.657 1.169-3.209 1.832-3.455 1.48-.245-.352.906-1.584 2.564-2.753 1.657-1.169 3.209-1.831 3.455-1.479.245.352-.906 1.584-2.564 2.752z" fill="url(#paint4_radial)"/><path d="M151.152 182.677l-2.678 28.764c3.384-11.669 36.864-29.427 36.864-29.427l.667-6.616c-.008-.009-35.772 17.144-34.853 7.279z" fill="#fff"/><path d="M150.909 182.655l-2.677 28.764c3.384-11.67 36.864-29.427 36.864-29.427l.716-6.511s-35.821 17.038-34.903 7.174z" fill="url(#paint5_linear)"/><mask id="a" maskUnits="userSpaceOnUse" x="148" y="175" width="38" height="37"><path d="M151.122 182.679l-2.841 28.984c3.43-11.773 36.731-29.865 36.731-29.865l.752-6.561s-35.616 17.382-34.642 7.442z" fill="url(#paint6_linear)"/></mask><g mask="url(#a)"><path opacity=".2" d="M184.749 179.556c-.18 1.871-.063 3.411.262 3.44.324.028.733-1.465.912-3.336.18-1.871.062-3.411-.262-3.44-.325-.028-.733 1.466-.912 3.336z" fill="url(#paint7_radial)"/><path opacity=".2" d="M147.671 196.026c-.978 10.218-.476 18.616 1.121 18.757 1.598.14 3.687-8.029 4.665-18.248.978-10.218.476-18.615-1.121-18.756-1.598-.141-3.687 8.029-4.665 18.247z" fill="url(#paint8_radial)"/></g><path d="M128.86 195.172l.018-.193 5.464.498-.017.184c-.068.731-.79 2.071-1.459 2.011l-2.949-.269c-.518-.039-1.146-1.265-1.057-2.231z" fill="#fff"/><path d="M128.906 195.126l.018-.193 5.464.497-.017.185c-.068.731-.79 2.071-1.459 2.01l-2.949-.268c-.519-.039-1.146-1.265-1.057-2.231z" fill="url(#paint9_linear)"/><path opacity=".2" d="M128.962 194.797c-.036.39 1.158.818 2.667.956s2.762-.066 2.798-.457c.036-.39-1.158-.818-2.667-.956s-2.762.067-2.798.457z" fill="url(#paint10_radial)"/><path d="M129.332 190.121l.012-.134c.368-3.944 1.883-7.024 3.392-6.887 1.51.137 2.43 3.446 2.063 7.381l-.012.134-.455 4.882-5.455-.494.455-4.882z" fill="#fff"/><path d="M129.398 190.127l.013-.134c.367-3.943 1.89-7.022 3.392-6.886 1.509.136 2.429 3.445 2.063 7.38l-.013.134-.454 4.882-5.455-.494.454-4.882z" fill="url(#paint11_linear)"/><path opacity=".2" d="M131.175 193.458c1.415 1.448 2.819 2.378 3.125 2.076.306-.302-.598-1.72-2.013-3.167-1.414-1.448-2.818-2.379-3.124-2.076-.306.302.598 1.72 2.012 3.167z" fill="url(#paint12_radial)"/><path d="M145.946 182.362l-2.678 28.764c-1.173-12.082-30.815-35.56-30.815-35.56l.567-6.625c.008 0 32.007 23.286 32.926 13.421z" fill="#fff"/><path d="M146.181 182.384l-2.678 28.764c-1.173-12.083-30.815-35.56-30.815-35.56l.499-6.531c.008.001 32.075 23.191 32.994 13.327z" fill="url(#paint13_linear)"/><mask id="b" maskUnits="userSpaceOnUse" x="112" y="169" width="35" height="43"><path d="M146.074 182.218l-2.841 28.983c-1.085-12.16-30.313-35.618-30.313-35.618l.536-6.58c.009.001 31.643 23.155 32.618 13.215z" fill="url(#paint14_linear)"/></mask><g mask="url(#b)"><path opacity=".2" d="M141.118 195.655c-.978 10.218-.476 18.616 1.122 18.756 1.597.141 3.686-8.028 4.664-18.247.979-10.218.477-18.615-1.121-18.756-1.598-.141-3.686 8.029-4.665 18.247z" fill="url(#paint15_radial)"/><path opacity=".2" d="M112.316 173.073c-.18 1.871-.062 3.411.262 3.439.324.029.733-1.465.912-3.336.18-1.871.063-3.411-.262-3.439-.324-.028-.733 1.465-.912 3.336z" fill="url(#paint16_radial)"/></g><path d="M185.328 182.138c-.134-.012-.099-1.653-.066-2.005.033-.351.626-5.568.768-5.556.133.013-.235 5.242-.269 5.602-.032.351-.292 1.972-.433 1.959z" fill="#fff"/><path d="M185.334 182.063c-.133-.012-.091-1.636-.058-1.988.032-.351.621-5.518.754-5.506.133.012-.239 5.199-.272 5.55-.032.352-.29 1.956-.424 1.944z" fill="url(#paint17_linear)"/><path d="M112.445 175.605c.133.012.401-1.608.434-1.959.032-.352.409-5.589.268-5.602-.133-.012-.734 5.197-.768 5.556-.033.36-.067 1.993.066 2.005z" fill="#fff"/><path d="M112.451 175.538c.133.012.391-1.592.423-1.943.033-.352.405-5.538.272-5.551-.133-.012-.722 5.156-.754 5.507-.033.351-.075 1.975.059 1.987z" fill="url(#paint18_linear)"/><path d="M151.846 148.35c1.297 1.015 10.114-1.591 14.552-2.125l-.274 2.702s-15.033 9.711-15.547 11.913l1.269-12.49z" fill="#fff"/><path d="M151.715 148.304c1.297 1.015 10.108-1.523 14.547-2.066l-.268 2.634s-15.034 9.712-15.548 11.914l1.269-12.482z" fill="url(#paint19_linear)"/><mask id="c" maskUnits="userSpaceOnUse" x="150" y="146" width="17" height="15"><path d="M151.721 148.304c1.296 1.015 10.103-1.528 14.54-2.072l-.269 2.635s-15.03 9.722-15.544 11.925l1.273-12.488z" fill="url(#paint20_linear)"/></mask><g mask="url(#c)"><path opacity=".2" d="M155.554 152.695c.101 2.665-.347 4.861-.994 4.899-.648.039-1.259-2.083-1.359-4.749-.101-2.666.346-4.861.994-4.9.648-.047 1.258 2.084 1.359 4.75z" fill="url(#paint21_radial)"/></g><path d="M151.65 148.431c-1.48.786-9.625-3.218-13.882-4.468l-.275 2.702s12.827 12.006 12.888 14.256l1.269-12.49z" fill="#fff"/><mask id="d" maskUnits="userSpaceOnUse" x="137" y="143" width="15" height="18"><path d="M151.648 148.426c-1.48.787-9.619-3.215-13.873-4.465l-.275 2.703s12.814 12.007 12.875 14.258l1.273-12.496z" fill="#fff"/></mask><g mask="url(#d)"><path d="M151.786 148.396c-1.48.787-9.627-3.148-13.88-4.406l-.268 2.636s12.815 12.007 12.875 14.258l1.273-12.488z" fill="url(#paint22_linear)"/><path opacity=".2" d="M147.233 152.313c-.626 2.604-.621 4.837.008 4.984.629.146 1.65-1.84 2.277-4.444.626-2.604.621-4.838-.008-4.984-.629-.146-1.65 1.839-2.277 4.444z" fill="url(#paint23_radial)"/></g><path d="M149.002 217.79l5.096-53.039c1.966-20.468-1.804-19.024-1.804-19.024s-3.432-2.076-5.398 18.392l-5.095 53.04s-.337 11.786 2.475 12.033c2.812.247 4.726-11.402 4.726-11.402z" fill="#fff"/><path d="M148.769 217.768l5.095-53.039c1.966-20.468-1.803-19.024-1.803-19.024s-3.432-2.076-5.398 18.392l-5.096 53.039s-.337 11.787 2.475 12.034c2.813.246 4.727-11.402 4.727-11.402z" fill="url(#paint24_radial)"/><path opacity=".2" d="M149.266 157.25c-.624 6.419-.435 11.682.423 11.756.857.075 2.059-5.069 2.683-11.487.625-6.419.436-11.682-.422-11.756-.858-.075-2.06 5.068-2.684 11.487z" fill="url(#paint25_radial)"/><path d="M150.277 163.124c-.358-.032-.264-4.037-.181-4.908.084-.871 1.59-13.614 1.948-13.583.357.032-.577 12.825-.66 13.697-.083.871-.75 4.825-1.107 4.794z" fill="#fff"/><path d="M150.278 162.938c-.35-.031-.251-4.002-.17-4.856.083-.863 1.568-13.472 1.917-13.442.35.031-.579 12.698-.661 13.553-.089.853-.745 4.775-1.086 4.745z" fill="url(#paint26_linear)"/><mask id="e" maskUnits="userSpaceOnUse" x="142" y="222" width="5" height="3"><path d="M144.621 224.458c-1.27-.116-1.851-1.21-1.8-1.772.052-.562.883-.249 1.978-.149 1.103.101 2.051-.033 1.999.529-.052.562-.822 1.507-2.177 1.392z" fill="url(#paint27_radial)" opacity=".5"/></mask><g mask="url(#e)"><path opacity=".5" d="M144.612 224.482c-1.259-.105-1.823-1.217-1.765-1.792.058-.576.878-.265 1.962-.174 1.093.091 2.035-.056 1.977.519-.058.575-.832 1.55-2.174 1.447z" fill="url(#paint28_radial)"/><path opacity=".5" d="M146.996 222.062l-.101 1.009s-2.142 2.211-4.224-.352l.101-1.009s2.208 1.584 4.224.352z" fill="#fff"/><path opacity=".5" d="M146.996 222.062l-.101 1.009s-2.142 2.211-4.224-.352l.101-1.009s2.217 1.585 4.224.352z" fill="url(#paint29_linear)"/></g></g><defs><linearGradient id="paint0_linear" x1="69.437" y1="232.3" x2="369.507" y2="207.485" gradientUnits="userSpaceOnUse"><stop stop-color="#CBEAF4"/><stop offset="1" stop-color="#B0E2F2"/></linearGradient><linearGradient id="paint1_linear" x1="162.841" y1="197.836" x2="162.63" y2="200.15" gradientUnits="userSpaceOnUse"><stop stop-color="#EDF8FE"/><stop offset="1" stop-color="#fff"/></linearGradient><linearGradient id="paint3_linear" x1="163.935" y1="185.743" x2="162.834" y2="197.899" gradientUnits="userSpaceOnUse"><stop stop-color="#fff"/><stop offset="1" stop-color="#EAF7FE"/></linearGradient><linearGradient id="paint5_linear" x1="168.151" y1="181.341" x2="164.614" y2="220.365" gradientUnits="userSpaceOnUse"><stop stop-color="#EFF9FE"/><stop offset="1" stop-color="#E1F4FD"/></linearGradient><linearGradient id="paint6_linear" x1="168.221" y1="181.248" x2="164.843" y2="220.603" gradientUnits="userSpaceOnUse"><stop stop-color="#fff"/><stop offset="1" stop-color="#E1F4FD"/></linearGradient><linearGradient id="paint9_linear" x1="131.656" y1="195.182" x2="131.445" y2="197.496" gradientUnits="userSpaceOnUse"><stop stop-color="#EDF8FE"/><stop offset="1" stop-color="#fff"/></linearGradient><linearGradient id="paint11_linear" x1="132.798" y1="183.103" x2="131.698" y2="195.258" gradientUnits="userSpaceOnUse"><stop stop-color="#fff"/><stop offset="1" stop-color="#EAF7FE"/></linearGradient><linearGradient id="paint13_linear" x1="129.476" y1="177.996" x2="125.94" y2="217.021" gradientUnits="userSpaceOnUse"><stop stop-color="#EFF9FE"/><stop offset="1" stop-color="#E1F4FD"/></linearGradient><linearGradient id="paint14_linear" x1="129.545" y1="177.903" x2="126.167" y2="217.258" gradientUnits="userSpaceOnUse"><stop stop-color="#fff"/><stop offset="1" stop-color="#E1F4FD"/></linearGradient><linearGradient id="paint17_linear" x1="186.029" y1="174.565" x2="185.348" y2="182.063" gradientUnits="userSpaceOnUse"><stop stop-color="#EFF9FE"/><stop offset=".2" stop-color="#fff"/><stop offset=".404" stop-color="#fff"/><stop offset=".607" stop-color="#fff"/><stop offset=".807" stop-color="#EEF8FE"/><stop offset="1" stop-color="#EEF9FE"/></linearGradient><linearGradient id="paint18_linear" x1="113.145" y1="168.041" x2="112.464" y2="175.539" gradientUnits="userSpaceOnUse"><stop stop-color="#EFF9FE"/><stop offset=".2" stop-color="#fff"/><stop offset=".404" stop-color="#fff"/><stop offset=".607" stop-color="#fff"/><stop offset=".807" stop-color="#EEF8FE"/><stop offset="1" stop-color="#EEF9FE"/></linearGradient><linearGradient id="paint19_linear" x1="158.846" y1="148.682" x2="157.549" y2="164.425" gradientUnits="userSpaceOnUse"><stop stop-color="#EFF9FE"/><stop offset="1" stop-color="#E1F4FD"/></linearGradient><linearGradient id="paint20_linear" x1="158.848" y1="148.68" x2="157.555" y2="164.431" gradientUnits="userSpaceOnUse"><stop stop-color="#EFF9FE"/><stop offset="1" stop-color="#E1F4FD"/></linearGradient><linearGradient id="paint22_linear" x1="144.699" y1="147.607" x2="143.406" y2="163.358" gradientUnits="userSpaceOnUse"><stop stop-color="#EFF9FE"/><stop offset="1" stop-color="#E1F4FD"/></linearGradient><linearGradient id="paint26_linear" x1="152.022" y1="144.632" x2="150.406" y2="162.947" gradientUnits="userSpaceOnUse"><stop stop-color="#EFF9FE"/><stop offset=".2" stop-color="#fff"/><stop offset=".404" stop-color="#fff"/><stop offset=".607" stop-color="#fff"/><stop offset=".807" stop-color="#EEF8FE"/><stop offset="1" stop-color="#EEF9FE"/></linearGradient><linearGradient id="paint29_linear" x1="142.138" y1="220.773" x2="146.729" y2="223.685" gradientUnits="userSpaceOnUse"><stop stop-color="#828C93"/><stop offset=".083" stop-color="#89939A"/><stop offset=".222" stop-color="#9DA8AE"/><stop offset=".4" stop-color="#BFCAD0"/><stop offset=".511" stop-color="#D8E2E7"/><stop offset=".623" stop-color="#A8B3B9"/><stop offset=".754" stop-color="#798389"/><stop offset=".865" stop-color="#586066"/><stop offset=".95" stop-color="#41474C"/><stop offset="1" stop-color="#373D42"/></linearGradient><radialGradient id="paint2_radial" cx="0" cy="0" r="1" gradientUnits="userSpaceOnUse" gradientTransform="rotate(95.277 -8.729 173.085) scale(.70952 2.7403)"><stop stop-color="#7CAEBE"/><stop offset="1" stop-color="#EAF7FE"/></radialGradient><radialGradient id="paint4_radial" cx="0" cy="0" r="1" gradientUnits="userSpaceOnUse" gradientTransform="matrix(-.22717 2.44265 -2.82915 -.26312 163.185 195.582)"><stop stop-color="#7CAEBE"/><stop offset="1" stop-color="#EDF8FE"/></radialGradient><radialGradient id="paint7_radial" cx="0" cy="0" r="1" gradientUnits="userSpaceOnUse" gradientTransform="matrix(-.32505 3.38801 -.58603 -.05622 185.336 179.608)"><stop stop-color="#7CAEBE"/><stop offset="1" stop-color="#EAF7FE"/></radialGradient><radialGradient id="paint8_radial" cx="0" cy="0" r="1" gradientUnits="userSpaceOnUse" gradientTransform="matrix(-1.77177 18.50377 -2.88709 -.27644 150.564 196.279)"><stop stop-color="#7CAEBE"/><stop offset="1" stop-color="#EAF7FE"/></radialGradient><radialGradient id="paint10_radial" cx="0" cy="0" r="1" gradientUnits="userSpaceOnUse" gradientTransform="rotate(95.276 -23.087 157.57) scale(.70957 2.74034)"><stop stop-color="#7CAEBE"/><stop offset="1" stop-color="#EAF7FE"/></radialGradient><radialGradient id="paint12_radial" cx="0" cy="0" r="1" gradientUnits="userSpaceOnUse" gradientTransform="matrix(-.2272 2.44257 -2.82914 -.26315 131.731 192.912)"><stop stop-color="#7CAEBE"/><stop offset="1" stop-color="#EDF8FE"/></radialGradient><radialGradient id="paint15_radial" cx="0" cy="0" r="1" gradientUnits="userSpaceOnUse" gradientTransform="matrix(-1.77177 18.50377 -2.88709 -.27644 144.011 195.908)"><stop stop-color="#7CAEBE"/><stop offset="1" stop-color="#EAF7FE"/></radialGradient><radialGradient id="paint16_radial" cx="0" cy="0" r="1" gradientUnits="userSpaceOnUse" gradientTransform="matrix(-.32505 3.38801 -.58603 -.05622 112.903 173.124)"><stop stop-color="#7CAEBE"/><stop offset="1" stop-color="#EAF7FE"/></radialGradient><radialGradient id="paint21_radial" cx="0" cy="0" r="1" gradientUnits="userSpaceOnUse" gradientTransform="matrix(-.47622 4.77292 -1.32929 -.13263 154.377 152.769)"><stop stop-color="#7CAEBE"/><stop offset="1" stop-color="#EAF7FE"/></radialGradient><radialGradient id="paint23_radial" cx="0" cy="0" r="1" gradientUnits="userSpaceOnUse" gradientTransform="matrix(-.4762 4.77267 -1.32931 -.13263 148.375 152.582)"><stop stop-color="#7CAEBE"/><stop offset="1" stop-color="#EAF7FE"/></radialGradient><radialGradient id="paint24_radial" cx="0" cy="0" r="1" gradientUnits="userSpaceOnUse" gradientTransform="rotate(95.487 -3.08 153.358) scale(60.7398 3.95342)"><stop stop-color="#fff"/><stop offset="1" stop-color="#E1F4FD"/></radialGradient><radialGradient id="paint25_radial" cx="0" cy="0" r="1" gradientUnits="userSpaceOnUse" gradientTransform="rotate(95.556 4.002 147.121) scale(11.678 1.55688)"><stop stop-color="#7CAEBE"/><stop offset="1" stop-color="#EAF7FE"/></radialGradient><radialGradient id="paint27_radial" cx="0" cy="0" r="1" gradientUnits="userSpaceOnUse" gradientTransform="rotate(95.279 -29.444 177.673) scale(1.00831 1.96389)"><stop stop-color="#fff"/><stop offset=".12" stop-color="#FBFBFB"/><stop offset=".245" stop-color="#EEE"/><stop offset=".372" stop-color="#DADADA"/><stop offset=".501" stop-color="#BCBCBC"/><stop offset=".63" stop-color="#979797"/><stop offset=".761" stop-color="#696969"/><stop offset=".89" stop-color="#343434"/><stop offset="1"/></radialGradient><radialGradient id="paint28_radial" cx="0" cy="0" r="1" gradientUnits="userSpaceOnUse" gradientTransform="rotate(95.747 -28.68 177.197) scale(1.0131 1.97428)"><stop stop-color="#7CAEBE"/><stop offset="1" stop-color="#EAF7FE"/></radialGradient><filter id="filter0_dd" x="107.349" y="137.963" width="93.71" height="105.233" filterUnits="userSpaceOnUse" color-interpolation-filters="sRGB"><feFlood flood-opacity="0" result="BackgroundImageFix"/><feColorMatrix in="SourceAlpha" values="0 0 0 0 0 0 0 0 0 0 0 0 0 0 0 0 0 0 127 0" result="hardAlpha"/><feOffset dx="3"/><feGaussianBlur stdDeviation="1.5"/><feColorMatrix values="0 0 0 0 0.555208 0 0 0 0 0.752283 0 0 0 0 0.8125 0 0 0 0.4 0"/><feBlend in2="BackgroundImageFix" result="effect1_dropShadow"/><feColorMatrix in="SourceAlpha" values="0 0 0 0 0 0 0 0 0 0 0 0 0 0 0 0 0 0 127 0" result="hardAlpha"/><feOffset dx="5" dy="4"/><feGaussianBlur stdDeviation="5"/><feColorMatrix values="0 0 0 0 0.556863 0 0 0 0 0.752941 0 0 0 0 0.811765 0 0 0 0.5 0"/><feBlend in2="effect1_dropShadow" result="effect2_dropShadow"/><feBlend in="SourceGraphic" in2="effect2_dropShadow" result="shape"/></filter></defs></svg>