<svg width="151" height="200" fill="none" xmlns="http://www.w3.org/2000/svg"><g filter="url(#filter0_d)"><path d="M59.88 169.524v-11.411c-15.586-.804-27.709-4.7-36.367-11.689-8.597-6.927-12.927-16.266-12.989-28.018h32.193c.247 4.02 1.948 7.453 5.102 10.298 3.216 2.845 7.237 4.515 12.06 5.01v-29.317l-11.04-2.319c-23.935-5.319-35.902-18.153-35.902-38.5 0-11.938 4.112-21.493 12.338-28.668 8.165-7.174 19.7-11.287 34.605-12.339V10.047h13.267v12.617c13.668 1.299 24.523 5.535 32.563 12.71 8.102 7.174 12.215 16.235 12.339 27.183H86.877c-.124-3.588-1.484-6.773-4.082-9.556-2.598-2.845-5.814-4.577-9.648-5.195v28.296l11.04 2.04c24.43 4.64 36.645 17.35 36.645 38.13 0 12.123-4.144 21.771-12.432 28.946-8.226 7.236-19.977 11.473-35.254 12.71v11.596H59.88zm29.13-49.448c0-6.989-5.287-11.442-15.864-13.359v26.997c4.948-.433 8.814-1.856 11.597-4.268 2.845-2.412 4.268-5.535 4.268-9.37zM45.594 60.33c0 6.742 4.762 11.102 14.287 13.081V47.713c-4.206.247-7.639 1.546-10.298 3.896-2.66 2.35-3.99 5.258-3.99 8.721z" fill="url(#paint0_linear)"/></g><defs><linearGradient id="paint0_linear" x1="23.788" y1="88.998" x2="159.795" y2="88.998" gradientUnits="userSpaceOnUse"><stop stop-color="#fff"/><stop offset="1" stop-color="#E1F4FD"/></linearGradient><filter id="filter0_d" x=".524" y=".047" width="150.308" height="199.478" filterUnits="userSpaceOnUse" color-interpolation-filters="sRGB"><feFlood flood-opacity="0" result="BackgroundImageFix"/><feColorMatrix in="SourceAlpha" values="0 0 0 0 0 0 0 0 0 0 0 0 0 0 0 0 0 0 127 0" result="hardAlpha"/><feOffset dx="10" dy="10"/><feGaussianBlur stdDeviation="10"/><feColorMatrix values="0 0 0 0 0.555208 0 0 0 0 0.752283 0 0 0 0 0.8125 0 0 0 0.5 0"/><feBlend in2="BackgroundImageFix" result="effect1_dropShadow"/><feBlend in="SourceGraphic" in2="effect1_dropShadow" result="shape"/></filter></defs></svg>