<svg width="99" height="125" fill="none" xmlns="http://www.w3.org/2000/svg"><g filter="url(#filter0_d)"><path d="M36.568 94.592v-6.006c-8.203-.423-14.583-2.474-19.14-6.152-4.525-3.646-6.804-8.562-6.836-14.746h16.943c.13 2.115 1.026 3.922 2.686 5.42 1.692 1.497 3.808 2.376 6.347 2.636v-15.43l-5.81-1.22C18.16 56.294 11.86 49.54 11.86 38.83c0-6.282 2.165-11.312 6.494-15.088 4.297-3.776 10.368-5.94 18.213-6.494v-6.592h6.983v6.64c7.194.684 12.907 2.914 17.139 6.69 4.264 3.776 6.428 8.545 6.494 14.307H50.777c-.065-1.888-.78-3.565-2.148-5.03-1.367-1.497-3.06-2.408-5.078-2.734v14.893l5.81 1.074c12.858 2.441 19.287 9.131 19.287 20.068 0 6.38-2.18 11.459-6.542 15.235-4.33 3.808-10.515 6.038-18.555 6.69v6.103h-6.983zM51.9 68.566c0-3.678-2.783-6.022-8.35-7.03v14.208c2.605-.228 4.64-.976 6.104-2.246 1.498-1.27 2.246-2.913 2.246-4.932zM29.05 37.121c0 3.548 2.506 5.843 7.52 6.885V30.48c-2.214.13-4.02.814-5.42 2.051-1.4 1.237-2.1 2.767-2.1 4.59z" fill="url(#paint0_linear)"/></g><defs><linearGradient id="paint0_linear" x1="17.652" y1="51.998" x2="89.656" y2="51.998" gradientUnits="userSpaceOnUse"><stop stop-color="#fff"/><stop offset="1" stop-color="#E1F4FD"/></linearGradient><filter id="filter0_d" x=".592" y=".656" width="98.057" height="123.936" filterUnits="userSpaceOnUse" color-interpolation-filters="sRGB"><feFlood flood-opacity="0" result="BackgroundImageFix"/><feColorMatrix in="SourceAlpha" values="0 0 0 0 0 0 0 0 0 0 0 0 0 0 0 0 0 0 127 0" result="hardAlpha"/><feOffset dx="10" dy="10"/><feGaussianBlur stdDeviation="10"/><feColorMatrix values="0 0 0 0 0.555208 0 0 0 0 0.752283 0 0 0 0 0.8125 0 0 0 0.5 0"/><feBlend in2="BackgroundImageFix" result="effect1_dropShadow"/><feBlend in="SourceGraphic" in2="effect1_dropShadow" result="shape"/></filter></defs></svg>