<svg width="157" height="209" fill="none" xmlns="http://www.w3.org/2000/svg"><g filter="url(#filter0_d)"><path d="M62.137 178.184v-12.012c-16.407-.846-29.167-4.948-38.282-12.305-9.049-7.291-13.606-17.122-13.671-29.492H44.07c.26 4.232 2.051 7.845 5.371 10.84 3.386 2.995 7.618 4.752 12.696 5.273v-30.859l-11.621-2.441C25.32 101.589 12.723 88.079 12.723 66.66c0-12.565 4.33-22.623 12.988-30.176 8.594-7.552 20.736-11.881 36.426-12.988V10.313h13.965v13.28c14.388 1.368 25.813 5.828 34.277 13.38 8.529 7.552 12.858 17.09 12.988 28.613H90.555c-.13-3.776-1.563-7.129-4.297-10.059-2.735-2.994-6.12-4.817-10.156-5.468v29.785l11.62 2.148c25.717 4.883 38.575 18.262 38.575 40.137 0 12.76-4.362 22.917-13.086 30.469-8.659 7.617-21.029 12.076-37.11 13.379v12.207H62.138zM92.8 126.133c0-7.357-5.567-12.044-16.7-14.063v28.418c5.209-.455 9.278-1.953 12.208-4.492 2.994-2.539 4.492-5.827 4.492-9.863zm-45.703-62.89c0 7.095 5.013 11.685 15.039 13.769V49.96c-4.427.26-8.04 1.628-10.84 4.102-2.8 2.473-4.2 5.533-4.2 9.18z" fill="url(#paint0_linear)"/></g><defs><linearGradient id="paint0_linear" x1="24.115" y1="93.998" x2="167.123" y2="93.998" gradientUnits="userSpaceOnUse"><stop stop-color="#fff"/><stop offset="1" stop-color="#E1F4FD"/></linearGradient><filter id="filter0_d" x=".184" y=".313" width="156.113" height="207.871" filterUnits="userSpaceOnUse" color-interpolation-filters="sRGB"><feFlood flood-opacity="0" result="BackgroundImageFix"/><feColorMatrix in="SourceAlpha" values="0 0 0 0 0 0 0 0 0 0 0 0 0 0 0 0 0 0 127 0" result="hardAlpha"/><feOffset dx="10" dy="10"/><feGaussianBlur stdDeviation="10"/><feColorMatrix values="0 0 0 0 0.555208 0 0 0 0 0.752283 0 0 0 0 0.8125 0 0 0 0.5 0"/><feBlend in2="BackgroundImageFix" result="effect1_dropShadow"/><feBlend in="SourceGraphic" in2="effect1_dropShadow" result="shape"/></filter></defs></svg>