<svg width="1682" height="947" fill="none" xmlns="http://www.w3.org/2000/svg"><path d="M1660.3 404.655s-1.71 1.107-5.27 2.898" stroke="#BCE2EE" stroke-width="2" stroke-miterlimit="10"/><circle cx="1579" cy="321" r="5" fill="#B0E2F2"/><circle r="5" transform="matrix(-1 0 0 1 1579 321)" fill="#B0E2F2"/><path d="M1578.96 320.712c-141.87-151.393-132.73 119.815-220.9 20.656-145.74-147.957-59.77-262.105-3.23-189.892 56.54 72.213-217.85 299.31-406.102 159.508C760.47 171.182 748.962 21.086 493.166 131.273c-69.792 30.118-123.383 70.893-162.666 115.826M226.089 947c-246.719-253.185-8.064-518.178 118.419-488.488 144.814 33.974 69.238 181.668-40.098 126.439-60.986-30.805-80.115-131.755-37.75-235.451" stroke="url(#paint0_linear)" stroke-width="2" stroke-miterlimit="10" stroke-dasharray="8.16 8.16"/><g filter="url(#filter0_dd)"><path d="M137.266 690.564l.026-.171-5.504-1.226-.025.164c-.1.645.307 2.01.981 2.16l2.97.661c.522.116 1.42-.735 1.552-1.588z" fill="#fff"/><path d="M137.233 690.506l.027-.17-5.504-1.226-.026.163c-.099.646.308 2.01.981 2.16l2.971.662c.521.123 1.42-.736 1.551-1.589z" fill="url(#paint1_linear)"/><path opacity=".2" d="M131.819 688.87c-.053.332 1.128.865 2.637 1.191 1.509.326 2.775.322 2.828-.009.053-.332-1.128-.865-2.637-1.191-1.509-.326-2.775-.322-2.828.009z" fill="url(#paint2_radial)"/><path d="M138.442 685.48l.02-.128c.573-3.782-.277-7.14-1.885-7.505-1.617-.367-3.386 2.405-3.958 6.179a30.03 30.03 0 01-.019.128l-.709 4.682 5.842 1.326.709-4.682z" fill="#fff"/><path d="M138.376 685.468l.019-.128c.573-3.782-.277-7.14-1.885-7.505-1.617-.367-3.386 2.405-3.957 6.179a7.533 7.533 0 00-.02.128l-.709 4.682 5.843 1.326.709-4.682z" fill="url(#paint3_linear)"/><path opacity=".2" d="M135.536 688.053c-1.758.85-3.384 1.24-3.621.873-.237-.367 1-1.351 2.757-2.2 1.758-.85 3.384-1.24 3.622-.873.237.367-1.001 1.351-2.758 2.2z" fill="url(#paint4_radial)"/><path d="M123.062 672.944l-4.039 26.964c4.03-10.592 39.645-22.424 39.645-22.424l.981-6.195c-.007-.01-37.972 10.902-36.587 1.655z" fill="#fff"/><path d="M122.822 672.903l-4.039 26.96c4.03-10.59 39.638-22.421 39.638-22.421l1.028-6.085s-38.012 10.792-36.627 1.546z" fill="url(#paint5_linear)"/><mask id="a" maskUnits="userSpaceOnUse" x="118" y="670" width="42" height="31"><path d="M123.239 673.086l-4.456 27.476c4.164-10.85 39.545-23.7 39.545-23.7l1.121-6.205s-37.738 11.852-36.21 2.429z" fill="url(#paint6_linear)"/></mask><g mask="url(#a)"><path opacity=".2" d="M157.946 673.33c-.308 1.829-.267 3.372.093 3.446.359.074.901-1.349 1.209-3.179.308-1.829.266-3.372-.093-3.445-.36-.074-.901 1.349-1.209 3.178z" fill="url(#paint7_radial)"/><path opacity=".2" d="M119.245 686.295c-1.691 10-1.619 18.402.162 18.767 1.781.364 4.596-7.447 6.288-17.448 1.692-10 1.619-18.402-.162-18.766-1.781-.364-4.596 7.447-6.288 17.447z" fill="url(#paint8_radial)"/></g><path d="M100.856 683.887l.027-.171 5.504 1.226-.025.163c-.1.645-.888 1.744-1.561 1.594l-2.971-.661c-.523-.109-1.106-1.298-.974-2.151z" fill="#fff"/><path d="M100.907 683.845l.026-.171 5.505 1.226-.026.163c-.099.645-.887 1.744-1.56 1.594l-2.971-.661c-.523-.109-1.106-1.298-.974-2.151z" fill="url(#paint9_linear)"/><path opacity=".2" d="M101.054 683.445c-.052.331 1.128.865 2.637 1.191 1.509.326 2.776.322 2.829-.009.052-.332-1.128-.865-2.637-1.191-1.509-.327-2.776-.322-2.829.009z" fill="url(#paint10_radial)"/><path d="M101.693 678.711l.02-.128c.573-3.782 2.34-6.546 3.957-6.179s2.457 3.731 1.886 7.505a7.533 7.533 0 00-.02.128l-.709 4.682-5.843-1.326.709-4.682z" fill="#fff"/><path d="M101.76 678.724l.019-.129c.573-3.782 2.35-6.543 3.958-6.178 1.617.367 2.457 3.73 1.885 7.504a32.06 32.06 0 01-.019.129l-.709 4.681-5.843-1.326.709-4.681z" fill="url(#paint11_linear)"/><path opacity=".2" d="M103.42 682.342c1.394 1.57 2.8 2.652 3.128 2.414.328-.237-.542-1.703-1.936-3.272-1.394-1.569-2.799-2.652-3.127-2.414-.328.238.541 1.703 1.935 3.272z" fill="url(#paint12_radial)"/><path d="M119.561 674.118l-4.039 26.965c-.695-11.675-30.519-38.498-30.519-38.498l.878-6.219c.009.002 32.295 26.999 33.68 17.752z" fill="#fff"/><path d="M119.788 674.165l-4.038 26.96c-.695-11.672-30.514-38.491-30.514-38.491l.803-6.137c.009.002 32.364 26.914 33.749 17.668z" fill="url(#paint13_linear)"/><mask id="b" maskUnits="userSpaceOnUse" x="85" y="656" width="35" height="46"><path d="M119.64 673.65l-4.457 27.475c-.484-11.838-29.477-38.376-29.477-38.376l.9-6.252c.008.002 31.505 26.575 33.034 17.153z" fill="url(#paint14_linear)"/></mask><g mask="url(#b)"><path opacity=".2" d="M112.753 685.339c-1.691 10-1.619 18.402.162 18.766 1.781.365 4.596-7.447 6.288-17.447 1.691-10 1.619-18.402-.162-18.767-1.781-.364-4.596 7.448-6.288 17.448z" fill="url(#paint15_radial)"/><path opacity=".2" d="M86.385 660.385c-.308 1.829-.266 3.372.093 3.446.36.074.901-1.349 1.21-3.179.307-1.829.266-3.372-.094-3.446-.36-.074-.9 1.35-1.209 3.179z" fill="url(#paint16_radial)"/></g><path d="M158.42 675.965c-.162-.033-.033-1.665.026-2.011.058-.345 1.061-5.456 1.234-5.42.163.033-.564 5.192-.624 5.546-.059.345-.463 1.921-.636 1.885z" fill="#fff"/><path d="M158.433 675.892c-.163-.034-.027-1.648.032-1.993.059-.345 1.055-5.408 1.218-5.374.163.033-.568 5.15-.627 5.495-.059.345-.46 1.905-.623 1.872z" fill="url(#paint17_linear)"/><path d="M86.415 662.93c.163.033.577-1.541.636-1.886.058-.345.797-5.51.624-5.546-.162-.033-1.174 5.067-1.234 5.421-.06.353-.188 1.978-.026 2.011z" fill="#fff"/><path d="M86.426 662.864c.163.034.564-1.526.623-1.871.059-.346.79-5.462.627-5.495-.163-.034-1.16 5.028-1.218 5.374-.058.345-.195 1.959-.032 1.992z" fill="url(#paint18_linear)"/><path d="M127.87 639.305c1.234 1.132 10.349-.511 14.877-.574l-.483 2.626s-15.942 7.978-16.629 10.088l2.235-12.14z" fill="#fff"/><path d="M127.745 639.248c1.234 1.132 10.336-.445 14.866-.516l-.471 2.56s-15.942 7.977-16.629 10.088l2.234-12.132z" fill="url(#paint19_linear)"/><mask id="c" maskUnits="userSpaceOnUse" x="125" y="638" width="18" height="14"><path d="M127.745 639.248c1.234 1.132 10.336-.445 14.866-.516l-.471 2.56s-15.942 7.977-16.629 10.088l2.234-12.132z" fill="url(#paint20_linear)"/></mask><g mask="url(#c)"><path opacity=".2" d="M131.383 644.009c-.104 2.654-.735 4.783-1.404 4.754-.67-.03-1.133-2.198-1.028-4.852.104-2.653.735-4.782 1.404-4.753.671.021 1.132 2.198 1.028 4.851z" fill="url(#paint21_radial)"/></g><path d="M127.9 639.558c-1.557.619-9.488-4.163-13.697-5.835l-.484 2.627s12.055 13.131 11.946 15.348l2.235-12.14z" fill="#fff"/><mask id="d" maskUnits="userSpaceOnUse" x="113" y="633" width="15" height="19"><path d="M127.9 639.558c-1.557.619-9.488-4.163-13.697-5.835l-.484 2.627s12.055 13.131 11.946 15.348l2.235-12.14z" fill="#fff"/></mask><g mask="url(#d)"><path d="M128.04 639.541c-1.557.619-9.501-4.097-13.708-5.777l-.472 2.56s12.055 13.132 11.946 15.349l2.234-12.132z" fill="url(#paint22_linear)"/><path opacity=".2" d="M123.051 642.849c-.847 2.517-1.016 4.731-.38 4.942.635.211 1.84-1.65 2.688-4.167.848-2.516 1.016-4.731.381-4.942-.636-.211-1.841 1.651-2.689 4.167z" fill="url(#paint23_radial)"/></g><path d="M119.279 708.226l9.622-52.26c3.713-20.168-.339-19.121-.339-19.121s-3.414-2.421-7.127 17.746l-9.622 52.26s-1.308 11.697 1.607 12.233c2.916.537 5.859-10.858 5.859-10.858z" fill="#fff"/><path d="M119.047 708.183l9.623-52.26c3.713-20.167-.339-19.12-.339-19.12s-3.414-2.422-7.127 17.746l-9.622 52.26s-1.309 11.696 1.607 12.233c2.915.536 5.858-10.859 5.858-10.859z" fill="url(#paint24_radial)"/><path opacity=".2" d="M124.607 647.943c-1.163 6.317-1.389 11.57-.504 11.733.885.163 2.545-4.826 3.708-11.143 1.163-6.317 1.389-11.57.504-11.733-.885-.163-2.545 4.826-3.708 11.143z" fill="url(#paint25_radial)"/><path d="M125.185 653.89c-.372-.069.053-4.046.212-4.905.158-.859 2.772-13.39 3.144-13.322.372.068-1.648 12.709-1.807 13.568-.158.859-1.177 4.727-1.549 4.659z" fill="#fff"/><path d="M125.202 653.705c-.363-.067.064-4.01.219-4.852.157-.851 2.739-13.252 3.102-13.185.364.067-1.642 12.583-1.797 13.425-.163.841-1.168 4.677-1.524 4.612z" fill="url(#paint26_linear)"/><mask id="e" maskUnits="userSpaceOnUse" x="112" y="712" width="5" height="3"><path d="M114.071 714.392c-1.283-.288-1.825-1.364-1.748-1.866.077-.503.906-.1 2.012.148 1.114.25 2.081.266 2.004.768-.077.503-.899 1.25-2.268.95z" fill="url(#paint27_radial)" opacity=".5"/></mask><g mask="url(#e)"><path opacity=".5" d="M114.029 714.483c-1.256-.231-1.738-1.37-1.636-1.923.102-.554.902-.167 1.984.032 1.09.201 2.046.155 1.944.708-.101.553-.953 1.421-2.292 1.183z" fill="url(#paint28_radial)"/><path opacity=".5" d="M116.613 712.363l-.178.97s-2.318 1.928-4.212-.776l.178-.969s2.096 1.765 4.212.775z" fill="#fff"/><path opacity=".5" d="M116.613 712.363l-.178.97s-2.318 1.928-4.212-.776l.178-.969s2.105 1.767 4.212.775z" fill="url(#paint29_linear)"/></g></g><defs><linearGradient id="paint0_linear" x1="152.485" y1="726.023" x2="1418.53" y2="553.379" gradientUnits="userSpaceOnUse"><stop stop-color="#CBEAF4"/><stop offset="1" stop-color="#B0E2F2"/></linearGradient><linearGradient id="paint1_linear" x1="134.507" y1="689.724" x2="134.059" y2="691.738" gradientUnits="userSpaceOnUse"><stop stop-color="#EDF8FE"/><stop offset="1" stop-color="#fff"/></linearGradient><linearGradient id="paint3_linear" x1="136.506" y1="677.831" x2="133.904" y2="689.296" gradientUnits="userSpaceOnUse"><stop stop-color="#fff"/><stop offset="1" stop-color="#EAF7FE"/></linearGradient><linearGradient id="paint5_linear" x1="140.819" y1="674.26" x2="132.586" y2="710.198" gradientUnits="userSpaceOnUse"><stop stop-color="#EFF9FE"/><stop offset="1" stop-color="#E1F4FD"/></linearGradient><linearGradient id="paint6_linear" x1="140.995" y1="674.043" x2="133.152" y2="710.929" gradientUnits="userSpaceOnUse"><stop stop-color="#fff"/><stop offset="1" stop-color="#E1F4FD"/></linearGradient><linearGradient id="paint9_linear" x1="103.685" y1="684.288" x2="103.237" y2="686.302" gradientUnits="userSpaceOnUse"><stop stop-color="#EDF8FE"/><stop offset="1" stop-color="#fff"/></linearGradient><linearGradient id="paint11_linear" x1="105.732" y1="672.412" x2="103.13" y2="683.877" gradientUnits="userSpaceOnUse"><stop stop-color="#fff"/><stop offset="1" stop-color="#EAF7FE"/></linearGradient><linearGradient id="paint13_linear" x1="102.599" y1="667.464" x2="94.366" y2="703.402" gradientUnits="userSpaceOnUse"><stop stop-color="#EFF9FE"/><stop offset="1" stop-color="#E1F4FD"/></linearGradient><linearGradient id="paint14_linear" x1="102.775" y1="667.247" x2="94.932" y2="704.133" gradientUnits="userSpaceOnUse"><stop stop-color="#fff"/><stop offset="1" stop-color="#E1F4FD"/></linearGradient><linearGradient id="paint17_linear" x1="159.682" y1="668.521" x2="158.182" y2="675.839" gradientUnits="userSpaceOnUse"><stop stop-color="#EFF9FE"/><stop offset=".2" stop-color="#fff"/><stop offset=".404" stop-color="#fff"/><stop offset=".607" stop-color="#fff"/><stop offset=".807" stop-color="#EEF8FE"/><stop offset="1" stop-color="#EEF9FE"/></linearGradient><linearGradient id="paint18_linear" x1="87.675" y1="655.494" x2="86.175" y2="662.812" gradientUnits="userSpaceOnUse"><stop stop-color="#EFF9FE"/><stop offset=".2" stop-color="#fff"/><stop offset=".404" stop-color="#fff"/><stop offset=".607" stop-color="#fff"/><stop offset=".807" stop-color="#EEF8FE"/><stop offset="1" stop-color="#EEF9FE"/></linearGradient><linearGradient id="paint19_linear" x1="134.927" y1="640.362" x2="132.114" y2="655.639" gradientUnits="userSpaceOnUse"><stop stop-color="#EFF9FE"/><stop offset="1" stop-color="#E1F4FD"/></linearGradient><linearGradient id="paint20_linear" x1="134.927" y1="640.362" x2="132.114" y2="655.639" gradientUnits="userSpaceOnUse"><stop stop-color="#EFF9FE"/><stop offset="1" stop-color="#E1F4FD"/></linearGradient><linearGradient id="paint22_linear" x1="120.93" y1="638.026" x2="118.117" y2="653.303" gradientUnits="userSpaceOnUse"><stop stop-color="#EFF9FE"/><stop offset="1" stop-color="#E1F4FD"/></linearGradient><linearGradient id="paint26_linear" x1="128.521" y1="635.659" x2="125.199" y2="653.702" gradientUnits="userSpaceOnUse"><stop stop-color="#EFF9FE"/><stop offset=".2" stop-color="#fff"/><stop offset=".404" stop-color="#fff"/><stop offset=".607" stop-color="#fff"/><stop offset=".807" stop-color="#EEF8FE"/><stop offset="1" stop-color="#EEF9FE"/></linearGradient><linearGradient id="paint29_linear" x1="111.836" y1="710.612" x2="116.15" y2="714.003" gradientUnits="userSpaceOnUse"><stop stop-color="#828C93"/><stop offset=".083" stop-color="#89939A"/><stop offset=".222" stop-color="#9DA8AE"/><stop offset=".4" stop-color="#BFCAD0"/><stop offset=".511" stop-color="#D8E2E7"/><stop offset=".623" stop-color="#A8B3B9"/><stop offset=".754" stop-color="#798389"/><stop offset=".865" stop-color="#586066"/><stop offset=".95" stop-color="#41474C"/><stop offset="1" stop-color="#373D42"/></linearGradient><radialGradient id="paint2_radial" cx="0" cy="0" r="1" gradientUnits="userSpaceOnUse" gradientTransform="rotate(99.063 -226.825 402.127) scale(.60779 2.78786)"><stop stop-color="#7CAEBE"/><stop offset="1" stop-color="#EAF7FE"/></radialGradient><radialGradient id="paint4_radial" cx="0" cy="0" r="1" gradientUnits="userSpaceOnUse" gradientTransform="matrix(-.33928 2.25788 -2.93573 -.44114 135.104 687.389)"><stop stop-color="#7CAEBE"/><stop offset="1" stop-color="#EDF8FE"/></radialGradient><radialGradient id="paint7_radial" cx="0" cy="0" r="1" gradientUnits="userSpaceOnUse" gradientTransform="rotate(99.561 -205.456 403.79) scale(3.35933 .66327)"><stop stop-color="#7CAEBE"/><stop offset="1" stop-color="#EAF7FE"/></radialGradient><radialGradient id="paint8_radial" cx="0" cy="0" r="1" gradientUnits="userSpaceOnUse" gradientTransform="rotate(99.601 -229.021 395.223) scale(18.3662 3.2854)"><stop stop-color="#7CAEBE"/><stop offset="1" stop-color="#EAF7FE"/></radialGradient><radialGradient id="paint10_radial" cx="0" cy="0" r="1" gradientUnits="userSpaceOnUse" gradientTransform="rotate(99.063 -239.893 386.292) scale(.60779 2.78786)"><stop stop-color="#7CAEBE"/><stop offset="1" stop-color="#EAF7FE"/></radialGradient><radialGradient id="paint12_radial" cx="0" cy="0" r="1" gradientUnits="userSpaceOnUse" gradientTransform="matrix(-.33928 2.25788 -2.93573 -.44114 104.016 681.913)"><stop stop-color="#7CAEBE"/><stop offset="1" stop-color="#EDF8FE"/></radialGradient><radialGradient id="paint15_radial" cx="0" cy="0" r="1" gradientUnits="userSpaceOnUse" gradientTransform="rotate(99.601 -231.863 392.002) scale(18.3662 3.2854)"><stop stop-color="#7CAEBE"/><stop offset="1" stop-color="#EAF7FE"/></radialGradient><radialGradient id="paint16_radial" cx="0" cy="0" r="1" gradientUnits="userSpaceOnUse" gradientTransform="rotate(99.562 -235.762 367.06) scale(3.3593 .66327)"><stop stop-color="#7CAEBE"/><stop offset="1" stop-color="#EAF7FE"/></radialGradient><radialGradient id="paint21_radial" cx="0" cy="0" r="1" gradientUnits="userSpaceOnUse" gradientTransform="matrix(-.86205 4.68223 -1.36088 -.25055 130.167 643.96)"><stop stop-color="#7CAEBE"/><stop offset="1" stop-color="#EAF7FE"/></radialGradient><radialGradient id="paint23_radial" cx="0" cy="0" r="1" gradientUnits="userSpaceOnUse" gradientTransform="matrix(-.862 4.68197 -1.36088 -.25055 124.205 643.236)"><stop stop-color="#7CAEBE"/><stop offset="1" stop-color="#EAF7FE"/></radialGradient><radialGradient id="paint24_radial" cx="0" cy="0" r="1" gradientUnits="userSpaceOnUse" gradientTransform="matrix(-10.9682 59.57363 -4.083 -.75173 123.369 661.779)"><stop stop-color="#fff"/><stop offset="1" stop-color="#E1F4FD"/></radialGradient><radialGradient id="paint25_radial" cx="0" cy="0" r="1" gradientUnits="userSpaceOnUse" gradientTransform="rotate(100.432 -206.788 376.665) scale(11.6317 1.62697)"><stop stop-color="#7CAEBE"/><stop offset="1" stop-color="#EAF7FE"/></radialGradient><radialGradient id="paint27_radial" cx="0" cy="0" r="1" gradientUnits="userSpaceOnUse" gradientTransform="rotate(98.709 -249.088 405.746) scale(.9085 2.02003)"><stop stop-color="#fff"/><stop offset=".12" stop-color="#FBFBFB"/><stop offset=".245" stop-color="#EEE"/><stop offset=".372" stop-color="#DADADA"/><stop offset=".501" stop-color="#BCBCBC"/><stop offset=".63" stop-color="#979797"/><stop offset=".761" stop-color="#696969"/><stop offset=".89" stop-color="#343434"/><stop offset="1"/></radialGradient><radialGradient id="paint28_radial" cx="0" cy="0" r="1" gradientUnits="userSpaceOnUse" gradientTransform="rotate(100.432 -239.949 404.327) scale(.98598 1.99597)"><stop stop-color="#7CAEBE"/><stop offset="1" stop-color="#EAF7FE"/></radialGradient><filter id="filter0_dd" x="80.003" y="627.723" width="94.704" height="105.379" filterUnits="userSpaceOnUse" color-interpolation-filters="sRGB"><feFlood flood-opacity="0" result="BackgroundImageFix"/><feColorMatrix in="SourceAlpha" values="0 0 0 0 0 0 0 0 0 0 0 0 0 0 0 0 0 0 127 0" result="hardAlpha"/><feOffset dx="3"/><feGaussianBlur stdDeviation="1.5"/><feColorMatrix values="0 0 0 0 0.555208 0 0 0 0 0.752283 0 0 0 0 0.8125 0 0 0 0.4 0"/><feBlend in2="BackgroundImageFix" result="effect1_dropShadow"/><feColorMatrix in="SourceAlpha" values="0 0 0 0 0 0 0 0 0 0 0 0 0 0 0 0 0 0 127 0" result="hardAlpha"/><feOffset dx="5" dy="4"/><feGaussianBlur stdDeviation="5"/><feColorMatrix values="0 0 0 0 0.556863 0 0 0 0 0.752941 0 0 0 0 0.811765 0 0 0 0.5 0"/><feBlend in2="effect1_dropShadow" result="effect2_dropShadow"/><feBlend in="SourceGraphic" in2="effect2_dropShadow" result="shape"/></filter></defs></svg>