<svg width="312" height="557" fill="none" xmlns="http://www.w3.org/2000/svg"><g filter="url(#filter0_d)" fill-rule="evenodd" clip-rule="evenodd"><path d="M25.003 279.03c0-68.944-.014-137.887.015-206.83.005-11.039 4.336-20.25 12.402-27.697 4.115-3.799 8.955-6.285 14.543-7.133a29.437 29.437 0 014.393-.316c44.298-.016 88.596-.013 132.894-.013 13.949 0 27.9.111 41.847-.039 9.075-.098 16.465 3.337 22.504 9.89 5.772 6.262 9.064 13.685 9.881 22.175.106 1.106.069 2.227.069 3.34.003 84.988.003 169.975.003 254.962 0 52.855-.068 105.71.048 158.565.029 13.077-8.726 26.744-20.728 32.216-3.788 1.727-7.749 2.556-11.919 2.555-47.596-.016-95.192-.01-142.789-.011-9.938 0-19.877-.095-29.814.031-7.84.1-14.583-2.562-20.424-7.608-6.625-5.722-10.922-12.867-12.456-21.542-.347-1.961-.45-3.987-.451-5.983-.027-33.023-.02-66.046-.02-99.07 0-35.831 0-71.661.002-107.492z" fill="#000"/><path d="M250.025 69.88v416.633c-.087.654-.177 1.307-.259 1.961-.065.526-.06 1.07-.189 1.579-2.174 8.548-7.382 14.177-15.982 16.488-1.363.367-2.773.558-4.161.831H60.427c-.433-.079-.864-.176-1.3-.232-9.094-1.176-15.333-6-18.567-14.605-1.144-3.043-1.34-6.237-1.34-9.465.011-130.788.01-261.575.008-392.363 0-2.54-.02-5.08-.047-7.62-.004-.391-.096-.782-.147-1.173v-4.546c.06-.614.135-1.226.174-1.841.158-2.487.076-5.014.495-7.455 1.709-9.955 9.908-17.454 19.98-17.907 7.648-.344 15.321-.138 22.983-.117 1.881.005 2.856 1.162 2.953 3.09.065 1.288.078 2.593.304 3.857 1.044 5.844 5.918 9.887 11.88 9.895 11.361.015 22.721.016 34.082.017 19.736.001 39.472 0 59.209-.007.666 0 1.341-.007 1.996-.11 6.228-.977 10.348-5.775 10.449-12.113.013-.798.094-1.599.2-2.39.107-.793.51-1.494 1.24-1.795a5.946 5.946 0 012.186-.448c6.37-.033 12.741-.03 19.112-.013 2.315.006 4.623.084 6.906.578 8.847 1.917 15.691 9.523 16.632 18.52.027.255.138.501.21.751z" fill="#F0FBFD"/><path d="M39.325 278.739c0-63.103 0-126.206.003-189.308 0-6.194-.086-12.391.066-18.582.24-9.686 7.519-18.275 16.983-20.29 1.699-.365 3.432-.55 5.17-.552 6.907.001 13.814 0 20.72-.005 1.024-.003 1.95.172 2.662.975.528.598.719 1.308.734 2.094.03 1.471.056 2.949.374 4.389 1.206 5.454 5.892 9.354 11.495 9.398 8.509.068 17.021.024 25.531.025 22.458.002 44.915.002 67.373 0 1.156 0 2.31.008 3.459-.232a12.03 12.03 0 009.612-11.214c.044-.845.035-1.694.096-2.538.131-1.797 1.225-2.876 3.034-2.88 7.397-.016 14.796-.13 22.19.041 9.758.228 17.743 6.533 20.491 15.9.513 1.754.772 3.574.766 5.403-.009 14.886-.008 29.77.002 44.654 0 122.639.004 245.282.013 367.927 0 3.089-.158 6.137-1.324 9.052-3.138 7.835-8.858 12.506-17.161 14.013-1.455.267-2.927.267-4.396.267H66.406c-1.96 0-3.923.027-5.882-.04-10.501-.334-19.112-7.849-20.907-18.211-.261-1.511-.287-3.022-.287-4.533-.004-46.129-.005-92.254-.002-138.374v-67.379h-.003z" fill="#ECF1F3" fill-opacity=".01" stroke="#C4D1D7" stroke-opacity=".38" stroke-width="1.206" stroke-linejoin="round"/></g><g filter="url(#filter1_dd)"><path d="M144 107c-35.896 0-65 29.104-65 65s29.104 65 65 65 65-29.104 65-65-29.104-65-65-65z" fill="url(#paint0_linear)"/></g><path d="M144 127c-24.851 0-45 20.149-45 45s20.149 45 45 45 45-20.149 45-45-20.149-45-45-45z" fill="#007AFF"/><path d="M125.619 163.129c-4.169 7.236-1.519 18.215 3.092 24.873 2.301 3.328 4.631 6.316 7.823 6.316.06 0 .12-.001.182-.004 1.499-.06 2.583-.521 3.631-.967 1.176-.502 2.392-1.02 4.3-1.02 1.815 0 2.974.502 4.094.986 1.104.478 2.241.972 3.922.941 3.595-.067 5.802-3.291 7.749-6.135 2.032-2.97 3.052-5.853 3.395-6.955l.014-.044a.405.405 0 00-.214-.496l-.03-.012c-.633-.259-6.186-2.722-6.244-9.437-.055-5.455 4.165-8.344 5.012-8.867l.039-.025a.403.403 0 00.115-.567c-2.913-4.263-7.377-4.906-9.175-4.983a8.087 8.087 0 00-.8-.039c-2.111 0-4.134.797-5.758 1.438-1.122.442-2.091.824-2.759.824-.751 0-1.725-.386-2.853-.834-1.509-.599-3.218-1.277-5.029-1.277l-.127.001c-4.209.062-8.186 2.47-10.379 6.283z" fill="#fff"/><path d="M153.328 145c-2.549.104-5.607 1.673-7.434 3.814-1.554 1.799-3.071 4.799-2.671 7.822.025.19.179.336.369.35.172.014.348.021.523.021 2.492 0 5.181-1.379 7.017-3.599 1.932-2.344 2.909-5.353 2.614-8.048a.407.407 0 00-.418-.36z" fill="#fff"/><g filter="url(#filter2_d)"><path d="M144 282c-8.284 0-15 6.716-15 15 0 8.284 6.716 15 15 15 8.284 0 15-6.716 15-15 0-8.284-6.716-15-15-15z" fill="url(#paint1_linear)"/></g><path fill="#CAEAF4" d="M144 247h1v25h-1z"/><g filter="url(#filter3_d)"><path d="M144 357c-8.284 0-15 6.716-15 15 0 8.284 6.716 15 15 15 8.284 0 15-6.716 15-15 0-8.284-6.716-15-15-15z" fill="url(#paint2_linear)"/></g><path fill="#CAEAF4" d="M144 322h1v25h-1z"/><path d="M98.91 471.437v-14.356h-5.133v-2.554h13.289v2.554h-5.132v14.356H98.91zm13.828.187c-1.89 0-3.39-.589-4.5-1.769-1.109-1.18-1.664-2.789-1.664-4.828 0-2.016.559-3.617 1.676-4.805 1.109-1.18 2.605-1.769 4.488-1.769 1.891 0 3.391.589 4.5 1.769 1.117 1.18 1.676 2.781 1.676 4.805 0 2.039-.555 3.648-1.664 4.828-1.109 1.18-2.613 1.769-4.512 1.769zm0-2.332c1.008 0 1.797-.375 2.367-1.125.563-.742.844-1.785.844-3.129 0-1.335-.285-2.378-.855-3.128-.563-.75-1.348-1.125-2.356-1.125-1 0-1.781.375-2.343 1.125-.571.75-.856 1.793-.856 3.128 0 1.336.285 2.379.856 3.129.562.75 1.343 1.125 2.343 1.125zm14.016 2.332c-1.891 0-3.391-.589-4.5-1.769s-1.664-2.789-1.664-4.828c0-2.016.558-3.617 1.676-4.805 1.109-1.18 2.605-1.769 4.488-1.769 1.891 0 3.391.589 4.5 1.769 1.117 1.18 1.676 2.781 1.676 4.805 0 2.039-.555 3.648-1.664 4.828-1.11 1.18-2.614 1.769-4.512 1.769zm0-2.332c1.008 0 1.797-.375 2.367-1.125.563-.742.844-1.785.844-3.129 0-1.335-.285-2.378-.856-3.128-.562-.75-1.347-1.125-2.355-1.125-1 0-1.781.375-2.344 1.125-.57.75-.855 1.793-.855 3.128 0 1.336.285 2.379.855 3.129.563.75 1.344 1.125 2.344 1.125zm19.816 2.145h-3.597l-4.828-5.766h-.094v5.766h-2.906v-12.809h2.906v5.367h.094l4.769-5.367h3.41l-5.472 5.989 5.718 6.82zm5.45 0v-14.356h-5.133v-2.554h13.289v2.554h-5.133v14.356h-3.023zm13.828.187c-1.891 0-3.391-.589-4.5-1.769-1.11-1.18-1.664-2.789-1.664-4.828 0-2.016.558-3.617 1.675-4.805 1.11-1.18 2.606-1.769 4.489-1.769 1.89 0 3.39.589 4.5 1.769 1.117 1.18 1.675 2.781 1.675 4.805 0 2.039-.554 3.648-1.664 4.828-1.109 1.18-2.613 1.769-4.511 1.769zm0-2.332c1.007 0 1.797-.375 2.367-1.125.562-.742.844-1.785.844-3.129 0-1.335-.286-2.378-.856-3.128-.562-.75-1.348-1.125-2.355-1.125-1 0-1.782.375-2.344 1.125-.57.75-.856 1.793-.856 3.128 0 1.336.286 2.379.856 3.129.562.75 1.344 1.125 2.344 1.125zm14.015 2.332c-1.89 0-3.39-.589-4.5-1.769-1.109-1.18-1.664-2.789-1.664-4.828 0-2.016.559-3.617 1.676-4.805 1.109-1.18 2.605-1.769 4.488-1.769 1.891 0 3.391.589 4.5 1.769 1.117 1.18 1.676 2.781 1.676 4.805 0 2.039-.555 3.648-1.664 4.828-1.109 1.18-2.613 1.769-4.512 1.769zm0-2.332c1.008 0 1.797-.375 2.367-1.125.563-.742.844-1.785.844-3.129 0-1.335-.285-2.378-.855-3.128-.563-.75-1.348-1.125-2.356-1.125-1 0-1.781.375-2.343 1.125-.571.75-.856 1.793-.856 3.128 0 1.336.285 2.379.856 3.129.562.75 1.343 1.125 2.343 1.125zm19.817 2.145h-3.598l-4.828-5.766h-.094v5.766h-2.906v-12.809h2.906v5.367h.094l4.769-5.367h3.411l-5.473 5.989 5.719 6.82zM78.728 434.053c-.062 1.051-.275 1.771-.638 2.162v.058h4.494v-7.002h-3.563l-.293 4.782zm-1.523 4.617h-.75v-2.397h.598c.539-.281.844-1.031.914-2.25l.334-5.478h5.08v7.728h1.072v2.397h-.744V437h-6.504v1.67zm11.273-2.262c.649 0 1.157-.228 1.524-.685.367-.453.55-1.08.55-1.881 0-.801-.183-1.428-.55-1.881-.367-.457-.875-.686-1.523-.686-.649 0-1.157.229-1.524.686-.367.453-.55 1.08-.55 1.881 0 .801.183 1.428.55 1.881.367.457.875.685 1.523.685zm0 .697c-.882 0-1.58-.293-2.091-.878-.516-.582-.774-1.377-.774-2.385 0-1.008.258-1.803.774-2.385.511-.582 1.209-.873 2.091-.873.883 0 1.583.291 2.098.873.516.582.774 1.377.774 2.385 0 1.008-.258 1.803-.774 2.385-.515.585-1.215.878-2.097.878zm8.983-4.558a1.634 1.634 0 00-.615-.908c-.328-.243-.727-.364-1.196-.364-.629 0-1.127.231-1.494.692-.37.461-.556 1.08-.556 1.857 0 .789.185 1.416.556 1.881.371.469.87.703 1.494.703.47 0 .862-.107 1.178-.322.32-.215.53-.516.627-.902h.78a2.118 2.118 0 01-.82 1.382c-.466.36-1.052.539-1.759.539-.87 0-1.562-.296-2.074-.89-.516-.59-.773-1.387-.773-2.391 0-.988.255-1.775.767-2.361.516-.586 1.207-.879 2.074-.879.703 0 1.293.189 1.77.568.45.36.723.825.82 1.395h-.78zm6.732-1.207h-2.156V437h-.767v-5.66h-2.157v-.651h5.08v.651zm3.317 5.086c.566 0 1.039-.17 1.418-.51.383-.344.574-.766.574-1.266v-.738l-1.869.135c-1.059.074-1.588.473-1.588 1.195 0 .36.139.647.416.862.269.214.619.322 1.049.322zm-.129.679c-.625 0-1.135-.167-1.529-.503-.399-.34-.598-.79-.598-1.348 0-.547.197-.979.592-1.295.386-.313.947-.494 1.681-.545l1.975-.129v-.609c0-.453-.133-.801-.398-1.043-.27-.242-.661-.363-1.172-.363-.434 0-.797.085-1.09.257-.297.176-.483.416-.557.721h-.779c.074-.5.336-.902.785-1.207.445-.305 1-.457 1.664-.457.738 0 1.311.184 1.717.551.402.363.603.875.603 1.535V437h-.738v-1.084h-.07a2.058 2.058 0 01-.838.873 2.458 2.458 0 01-1.248.316zm5.818-5.765v2.074h1.576c.438 0 .774-.094 1.008-.281.227-.184.34-.445.34-.785 0-.313-.103-.557-.311-.733-.214-.183-.519-.275-.914-.275h-1.699zm0 2.724v2.286h1.793c.953 0 1.43-.385 1.43-1.155 0-.754-.527-1.131-1.582-1.131h-1.641zm-.767-3.375h2.554c.59 0 1.055.143 1.395.428.332.285.498.672.498 1.16 0 .34-.104.641-.311.903a1.304 1.304 0 01-.797.48v.076c.415.047.75.203 1.008.469.27.27.405.604.405 1.002 0 .563-.19 1.002-.569 1.318-.383.317-.918.475-1.605.475h-2.578v-6.311zm7.834 3.598c-.071.906-.215 1.57-.434 1.992-.27.516-.686.774-1.248.774-.129 0-.246-.02-.352-.059v-.709c.094.031.2.047.317.047.312 0 .547-.191.703-.574.137-.324.23-.824.281-1.5.09-.938.172-2.127.246-3.569h4.037V437h-.767v-5.66h-2.572a61.867 61.867 0 01-.211 2.947zm8.144-3.023c-.574 0-1.045.195-1.412.586-.367.394-.568.916-.603 1.564h3.931c-.008-.652-.185-1.174-.533-1.564-.352-.391-.813-.586-1.383-.586zm2.619 4.177a2.154 2.154 0 01-.925 1.219c-.461.297-1.022.445-1.682.445-.867 0-1.555-.294-2.063-.884-.507-.586-.761-1.377-.761-2.373 0-.993.256-1.784.767-2.373.508-.594 1.192-.891 2.051-.891.84 0 1.502.279 1.986.838.485.558.727 1.32.727 2.285v.34h-4.74v.035c.019.715.215 1.283.586 1.705.367.422.855.633 1.464.633.926 0 1.53-.326 1.811-.979h.779zm1.875-4.752h.768v2.707h3.545v-2.707h.767V437h-.767v-2.953h-3.545V437h-.768v-6.311zm9.727 5.719c.648 0 1.156-.228 1.523-.685.367-.453.551-1.08.551-1.881 0-.801-.184-1.428-.551-1.881-.367-.457-.875-.686-1.523-.686-.649 0-1.156.229-1.524.686-.367.453-.55 1.08-.55 1.881 0 .801.183 1.428.55 1.881.368.457.875.685 1.524.685zm0 .697c-.883 0-1.58-.293-2.092-.878-.516-.582-.773-1.377-.773-2.385 0-1.008.257-1.803.773-2.385.512-.582 1.209-.873 2.092-.873s1.582.291 2.098.873c.515.582.773 1.377.773 2.385 0 1.008-.258 1.803-.773 2.385-.516.585-1.215.878-2.098.878zm12.228-4.558a1.629 1.629 0 00-.615-.908c-.328-.243-.726-.364-1.195-.364-.629 0-1.127.231-1.494.692-.371.461-.557 1.08-.557 1.857 0 .789.186 1.416.557 1.881.371.469.869.703 1.494.703.469 0 .861-.107 1.178-.322a1.49 1.49 0 00.627-.902h.779a2.117 2.117 0 01-.821 1.382c-.464.36-1.05.539-1.757.539-.871 0-1.563-.296-2.075-.89-.515-.59-.773-1.387-.773-2.391 0-.988.256-1.775.768-2.361.515-.586 1.207-.879 2.074-.879.703 0 1.293.189 1.769.568.45.36.723.825.821 1.395h-.78zm9.991-1.207h-3.487V437h-.767v-6.311h5.021V437h-.767v-5.66zm5.414 5.068c.648 0 1.156-.228 1.523-.685.367-.453.551-1.08.551-1.881 0-.801-.184-1.428-.551-1.881-.367-.457-.875-.686-1.523-.686-.649 0-1.157.229-1.524.686-.367.453-.551 1.08-.551 1.881 0 .801.184 1.428.551 1.881.367.457.875.685 1.524.685zm0 .697c-.883 0-1.58-.293-2.092-.878-.516-.582-.774-1.377-.774-2.385 0-1.008.258-1.803.774-2.385.512-.582 1.209-.873 2.092-.873.882 0 1.582.291 2.097.873.516.582.774 1.377.774 2.385 0 1.008-.258 1.803-.774 2.385-.515.585-1.215.878-2.097.878zm4.64-.105v-6.311h.926l2.479 5.245h.07l2.467-5.245h.89V437h-.767v-4.904h-.088l-2.25 4.781h-.604l-2.273-4.781h-.082V437h-.768zm11.473-.592c.648 0 1.156-.228 1.523-.685.368-.453.551-1.08.551-1.881 0-.801-.183-1.428-.551-1.881-.367-.457-.875-.686-1.523-.686-.648 0-1.156.229-1.523.686-.368.453-.551 1.08-.551 1.881 0 .801.183 1.428.551 1.881.367.457.875.685 1.523.685zm0 .697c-.883 0-1.58-.293-2.092-.878-.515-.582-.773-1.377-.773-2.385 0-1.008.258-1.803.773-2.385.512-.582 1.209-.873 2.092-.873s1.582.291 2.098.873c.515.582.773 1.377.773 2.385 0 1.008-.258 1.803-.773 2.385-.516.585-1.215.878-2.098.878zm12.685 1.565V437h-8.044v-6.311h.767v5.661h2.725v-5.661h.767v5.661h2.719v-5.661h.768v5.661h1.025v2.32h-.727zm2.907-5.18v2.86h1.371c.461 0 .83-.131 1.107-.393.274-.258.41-.603.41-1.037 0-.438-.138-.785-.416-1.043-.273-.258-.64-.387-1.101-.387h-1.371zm-.768-2.801h.768v2.145h1.371c.699 0 1.254.187 1.664.562.414.379.621.887.621 1.524s-.207 1.142-.621 1.518c-.41.374-.965.562-1.664.562h-2.139v-6.311zm11.028 6.422c-.836 0-1.504-.273-2.004-.82-.5-.543-.768-1.291-.803-2.244h-1.348V437h-.767v-6.311h.767v2.707h1.365c.079-.875.364-1.562.856-2.062.496-.5 1.141-.75 1.934-.75.863 0 1.546.291 2.05.873.504.586.756 1.385.756 2.397 0 1.007-.252 1.802-.756 2.384-.504.582-1.187.873-2.05.873zm0-.691c.628 0 1.121-.229 1.476-.686.359-.453.539-1.08.539-1.88 0-.805-.18-1.436-.539-1.893-.355-.453-.848-.68-1.476-.68-.629 0-1.124.227-1.483.68-.355.457-.533 1.088-.533 1.893 0 .8.178 1.427.533 1.88.359.457.854.686 1.483.686z" fill="#000"/><defs><filter id="filter0_d" x=".879" y=".818" width="310.966" height="556.092" filterUnits="userSpaceOnUse" color-interpolation-filters="sRGB"><feFlood flood-opacity="0" result="BackgroundImageFix"/><feColorMatrix in="SourceAlpha" values="0 0 0 0 0 0 0 0 0 0 0 0 0 0 0 0 0 0 127 0" result="hardAlpha"/><feOffset dx="12.061"/><feGaussianBlur stdDeviation="18.091"/><feColorMatrix values="0 0 0 0 0.555208 0 0 0 0 0.752283 0 0 0 0 0.8125 0 0 0 0.5 0"/><feBlend in2="BackgroundImageFix" result="effect1_dropShadow"/><feBlend in="SourceGraphic" in2="effect1_dropShadow" result="shape"/></filter><filter id="filter1_dd" x="69" y="97" width="170" height="170" filterUnits="userSpaceOnUse" color-interpolation-filters="sRGB"><feFlood flood-opacity="0" result="BackgroundImageFix"/><feColorMatrix in="SourceAlpha" values="0 0 0 0 0 0 0 0 0 0 0 0 0 0 0 0 0 0 127 0" result="hardAlpha"/><feOffset dx="10" dy="10"/><feGaussianBlur stdDeviation="10"/><feColorMatrix values="0 0 0 0 0.555208 0 0 0 0 0.752283 0 0 0 0 0.8125 0 0 0 0.5 0"/><feBlend in2="BackgroundImageFix" result="effect1_dropShadow"/><feColorMatrix in="SourceAlpha" values="0 0 0 0 0 0 0 0 0 0 0 0 0 0 0 0 0 0 127 0" result="hardAlpha"/><feOffset dx="5" dy="5"/><feGaussianBlur stdDeviation="7.5"/><feColorMatrix values="0 0 0 0 0.555208 0 0 0 0 0.752283 0 0 0 0 0.8125 0 0 0 0.2 0"/><feBlend in2="effect1_dropShadow" result="effect2_dropShadow"/><feBlend in="SourceGraphic" in2="effect2_dropShadow" result="shape"/></filter><filter id="filter2_d" x="119" y="272" width="70" height="70" filterUnits="userSpaceOnUse" color-interpolation-filters="sRGB"><feFlood flood-opacity="0" result="BackgroundImageFix"/><feColorMatrix in="SourceAlpha" values="0 0 0 0 0 0 0 0 0 0 0 0 0 0 0 0 0 0 127 0" result="hardAlpha"/><feOffset dx="10" dy="10"/><feGaussianBlur stdDeviation="10"/><feColorMatrix values="0 0 0 0 0.555208 0 0 0 0 0.752283 0 0 0 0 0.8125 0 0 0 0.5 0"/><feBlend in2="BackgroundImageFix" result="effect1_dropShadow"/><feBlend in="SourceGraphic" in2="effect1_dropShadow" result="shape"/></filter><filter id="filter3_d" x="119" y="347" width="70" height="70" filterUnits="userSpaceOnUse" color-interpolation-filters="sRGB"><feFlood flood-opacity="0" result="BackgroundImageFix"/><feColorMatrix in="SourceAlpha" values="0 0 0 0 0 0 0 0 0 0 0 0 0 0 0 0 0 0 127 0" result="hardAlpha"/><feOffset dx="10" dy="10"/><feGaussianBlur stdDeviation="10"/><feColorMatrix values="0 0 0 0 0.555208 0 0 0 0 0.752283 0 0 0 0 0.8125 0 0 0 0.5 0"/><feBlend in2="BackgroundImageFix" result="effect1_dropShadow"/><feBlend in="SourceGraphic" in2="effect1_dropShadow" result="shape"/></filter><linearGradient id="paint0_linear" x1="103.65" y1="171.991" x2="233.657" y2="171.991" gradientUnits="userSpaceOnUse"><stop stop-color="#fff"/><stop offset="1" stop-color="#E1F4FD"/></linearGradient><linearGradient id="paint1_linear" x1="134.688" y1="296.998" x2="164.69" y2="296.998" gradientUnits="userSpaceOnUse"><stop stop-color="#fff"/><stop offset="1" stop-color="#E1F4FD"/></linearGradient><linearGradient id="paint2_linear" x1="134.688" y1="371.998" x2="164.69" y2="371.998" gradientUnits="userSpaceOnUse"><stop stop-color="#fff"/><stop offset="1" stop-color="#E1F4FD"/></linearGradient></defs></svg>