<svg width="77" height="70" fill="none" xmlns="http://www.w3.org/2000/svg"><g filter="url(#filter0_dd)"><path d="M40.038 18.668h-.127l-.027 3.706.121-.001c.48-.004 1.398-.412 1.401-.866l.015-2c.002-.35-.75-.844-1.383-.84z" fill="#fff"/><path d="M40.005 18.696h-.127l-.027 3.706.121-.001c.48-.004 1.398-.412 1.401-.865l.015-2c.008-.351-.75-.844-1.383-.84z" fill="url(#paint0_linear)"/><path opacity=".2" d="M39.74 22.416c.254-.002.465-.831.472-1.852.006-1.021-.195-1.848-.449-1.846-.253.001-.464.83-.47 1.851-.007 1.021.194 1.848.447 1.847z" fill="url(#paint1_radial)"/><path d="M36.607 18.632h-.09c-2.635.02-4.773.88-4.781 1.913-.008 1.04 2.123 1.863 4.753 1.844h.09l3.262-.024.028-3.757-3.262.024z" fill="#fff"/><path d="M36.607 18.677h-.09c-2.635.02-4.773.88-4.781 1.913-.008 1.04 2.123 1.863 4.753 1.844h.09l3.262-.024.028-3.757-3.262.024z" fill="url(#paint2_linear)"/><path opacity=".2" d="M38.714 20.11c.858 1.04 1.378 2.043 1.16 2.232-.219.19-1.091-.504-1.95-1.544-.858-1.04-1.378-2.042-1.16-2.232.218-.19 1.091.504 1.95 1.544z" fill="url(#paint3_radial)"/><path d="M30.409 29.504l19.123-.149c-7.883-1.495-21.415-22.95-21.415-22.95h-4.402c-.006.006 13.252 23.048 6.694 23.1z" fill="#fff"/><path d="M30.41 29.667l19.122-.148c-7.882-1.496-21.414-22.95-21.414-22.95l-4.335-.04s13.185 23.087 6.627 23.138z" fill="url(#paint4_linear)"/><mask id="a" maskUnits="userSpaceOnUse" x="23" y="6" width="27" height="24"><path d="M30.42 29.6l19.196-.097C41.698 27.993 28.05 6.597 28.05 6.597l-4.35-.052s13.304 23.022 6.72 23.055z" fill="url(#paint5_linear)"/></mask><g mask="url(#a)"><path opacity=".2" d="M26.28 7.065c1.254-.004 2.27-.193 2.272-.422 0-.229-1.016-.41-2.27-.407-1.254.005-2.27.194-2.272.422 0 .23 1.015.411 2.27.407z" fill="url(#paint6_radial)"/><path opacity=".2" d="M39.559 30.884c6.852-.022 12.41-.956 12.413-2.085.004-1.13-5.548-2.027-12.4-2.005-6.852.023-12.409.956-12.413 2.086-.003 1.129 5.548 2.027 12.4 2.004z" fill="url(#paint7_radial)"/></g><path d="M40.168 43.418h-.127l.027-3.704h.122c.48-.004 1.391.392 1.388.845l-.015 2c.003.35-.76.855-1.395.859z" fill="#fff"/><path d="M40.135 43.39h-.127l.027-3.704h.121c.48-.004 1.392.392 1.389.845l-.015 2c.003.35-.761.854-1.395.859z" fill="url(#paint8_linear)"/><path opacity=".2" d="M39.899 43.365c.254-.002.464-.83.47-1.852.007-1.02-.194-1.847-.447-1.846-.254.002-.465.83-.472 1.852-.006 1.021.195 1.848.449 1.846z" fill="url(#paint9_radial)"/><path d="M36.743 43.434h-.09c-2.635.02-4.76-.804-4.753-1.844.008-1.04 2.151-1.893 4.781-1.912h.09s2.535-.02 3.262-.024l-.028 3.756-3.262.024z" fill="#fff"/><path d="M36.743 43.389h-.09c-2.635.02-4.76-.81-4.753-1.844.008-1.04 2.151-1.893 4.781-1.912h.09l3.262-.025-.028 3.757-3.262.024z" fill="url(#paint10_linear)"/><path opacity=".2" d="M38.871 41.961c.876-1.053 1.412-2.064 1.197-2.25-.216-.186-1.1.52-1.975 1.574-.876 1.053-1.412 2.064-1.196 2.25.215.186 1.099-.52 1.974-1.574z" fill="url(#paint11_radial)"/><path d="M30.755 32.668l19.123-.148c-7.908 1.618-21.79 23.286-21.79 23.286l-4.403.068c0-.006 13.628-23.257 7.07-23.206z" fill="#fff"/><path d="M30.755 32.511l19.122-.149c-7.908 1.618-21.79 23.285-21.79 23.285l-4.335.108c0-.006 13.56-23.295 7.003-23.244z" fill="url(#paint12_linear)"/><mask id="b" maskUnits="userSpaceOnUse" x="23" y="32" width="27" height="24"><path d="M30.697 32.545l19.197-.096c-7.934 1.59-21.805 23.125-21.805 23.125l-4.352.095c0-.005 13.544-23.157 6.96-23.124z" fill="url(#paint13_linear)"/></mask><g mask="url(#b)"><path opacity=".2" d="M39.717 35.283c6.852-.023 12.41-.956 12.413-2.086.004-1.129-5.548-2.027-12.4-2.004-6.851.022-12.409.956-12.412 2.085-.004 1.13 5.547 2.027 12.399 2.005z" fill="url(#paint14_radial)"/><path opacity=".2" d="M26.432 55.835c1.254-.004 2.271-.193 2.272-.422 0-.229-1.015-.41-2.27-.407-1.253.005-2.27.194-2.271.422-.001.23 1.015.411 2.269.407z" fill="url(#paint15_radial)"/></g><path d="M27.967 6.491c0 .095-1.097.18-1.333.181-.236.001-3.751-.065-3.75-.166 0-.094 3.51-.187 3.751-.188.236 0 1.333.073 1.332.173z" fill="#fff"/><path d="M27.917 6.492c0 .094-1.086.174-1.323.175-.236 0-3.717-.066-3.717-.16 0-.095 3.482-.182 3.719-.183.236 0 1.32.073 1.32.168z" fill="url(#paint16_linear)"/><path d="M28.114 55.565c0-.094-1.096-.174-1.332-.173-.237 0-3.752.088-3.752.188 0 .095 3.509.167 3.75.166.242 0 1.333-.087 1.334-.181z" fill="#fff"/><path d="M28.069 55.565c0-.094-1.085-.168-1.321-.167-.236 0-3.718.087-3.718.182s3.48.161 3.717.16c.236 0 1.322-.08 1.322-.175z" fill="url(#paint17_linear)"/><path d="M7.484 31.064c.597-.952-1.594-6.764-2.185-9.743h1.79s7.198 9.546 8.673 9.743H7.484z" fill="#fff"/><path d="M7.461 31.154c.597-.952-1.549-6.764-2.146-9.743h1.746s7.197 9.546 8.673 9.743H7.46z" fill="url(#paint18_linear)"/><mask id="c" maskUnits="userSpaceOnUse" x="5" y="21" width="11" height="11"><path d="M7.461 31.154c.597-.952-1.549-6.764-2.146-9.743h1.746s7.197 9.546 8.673 9.743H7.46z" fill="url(#paint19_linear)"/></mask><g mask="url(#c)"><path opacity=".2" d="M10.16 28.176c1.763-.253 3.244-.096 3.306.35.062.444-1.312 1.013-3.075 1.266-1.763.254-3.244.096-3.306-.349-.067-.445 1.313-1.014 3.075-1.267z" fill="url(#paint20_radial)"/></g><path d="M7.647 31.013c.597.952-1.594 6.764-2.185 9.743h1.79s7.198-9.546 8.673-9.743H7.647z" fill="#fff"/><mask id="d" maskUnits="userSpaceOnUse" x="5" y="31" width="11" height="10"><path d="M7.647 31.013c.597.952-1.594 6.764-2.185 9.743h1.79s7.198-9.546 8.673-9.743H7.647z" fill="#fff"/></mask><g mask="url(#d)"><path d="M7.618 30.923c.597.952-1.548 6.764-2.145 9.743h1.745s7.198-9.546 8.673-9.743H7.618z" fill="url(#paint21_linear)"/><path opacity=".2" d="M10.406 33.812c1.763.254 3.244.096 3.306-.349.062-.445-1.312-1.014-3.075-1.267-1.763-.253-3.244-.096-3.306.35-.062.444 1.312 1.013 3.075 1.266z" fill="url(#paint22_radial)"/></g><path d="M53.984 28.36H18.347c-13.752 0-12.57 2.546-12.57 2.546s-1.182 2.546 12.57 2.546h35.637s7.873-.558 7.873-2.546c0-1.988-7.873-2.545-7.873-2.545z" fill="#fff"/><path d="M53.984 28.518H18.347c-13.752 0-12.57 2.546-12.57 2.546s-1.182 2.545 12.57 2.545h35.637s7.873-.557 7.873-2.545-7.873-2.546-7.873-2.546z" fill="url(#paint23_radial)"/><path opacity=".2" d="M13.577 32.168c4.308 0 7.8-.49 7.8-1.093s-3.492-1.092-7.8-1.092-7.8.489-7.8 1.092c0 .604 3.492 1.093 7.8 1.093z" fill="url(#paint24_radial)"/><path d="M17.429 31.064c0 .253-2.675.456-3.26.456-.586 0-9.169-.203-9.169-.456s8.583-.456 9.168-.456c.586 0 3.26.203 3.26.456z" fill="#fff"/><path d="M17.304 31.075c0 .248-2.652.445-3.227.445-.58 0-9.072-.197-9.072-.445s8.498-.445 9.072-.445c.575.006 3.227.203 3.227.445z" fill="url(#paint25_linear)"/><mask id="e" maskUnits="userSpaceOnUse" x="57" y="29" width="2" height="4"><path d="M58.735 31.06c-.007.861-.69 1.325-1.06 1.328-.37.003-.21-.577-.205-1.32.006-.748-.133-1.376.237-1.379.37-.002 1.03.452 1.028 1.37z" fill="url(#paint26_radial)" opacity=".5"/></mask><g mask="url(#e)"><path opacity=".5" d="M58.748 31.064c0 .856-.693 1.312-1.07 1.312-.377 0-.22-.574-.22-1.312 0-.743-.146-1.368.231-1.368.378 0 1.053.456 1.06 1.368z" fill="url(#paint27_radial)"/><path opacity=".5" d="M57.036 29.617h.661s1.554 1.294 0 2.872h-.66s.91-1.597 0-2.872z" fill="#fff"/><path opacity=".5" d="M57.036 29.617h.661s1.554 1.294 0 2.872h-.66s.91-1.603 0-2.872z" fill="url(#paint28_linear)"/></g></g><defs><linearGradient id="paint0_linear" x1="39.865" y1="20.549" x2="41.383" y2="20.561" gradientUnits="userSpaceOnUse"><stop stop-color="#EDF8FE"/><stop offset="1" stop-color="#fff"/></linearGradient><linearGradient id="paint2_linear" x1="31.734" y1="20.593" x2="39.854" y2="20.654" gradientUnits="userSpaceOnUse"><stop stop-color="#fff"/><stop offset="1" stop-color="#EAF7FE"/></linearGradient><linearGradient id="paint4_linear" x1="28.607" y1="18.085" x2="54.542" y2="18.295" gradientUnits="userSpaceOnUse"><stop stop-color="#EFF9FE"/><stop offset="1" stop-color="#E1F4FD"/></linearGradient><linearGradient id="paint5_linear" x1="28.576" y1="18.063" x2="54.613" y2="18.198" gradientUnits="userSpaceOnUse"><stop stop-color="#fff"/><stop offset="1" stop-color="#E1F4FD"/></linearGradient><linearGradient id="paint8_linear" x1="40.022" y1="41.538" x2="41.54" y2="41.55" gradientUnits="userSpaceOnUse"><stop stop-color="#EDF8FE"/><stop offset="1" stop-color="#fff"/></linearGradient><linearGradient id="paint10_linear" x1="31.898" y1="41.549" x2="40.018" y2="41.609" gradientUnits="userSpaceOnUse"><stop stop-color="#fff"/><stop offset="1" stop-color="#EAF7FE"/></linearGradient><linearGradient id="paint12_linear" x1="28.766" y1="44.118" x2="54.701" y2="44.329" gradientUnits="userSpaceOnUse"><stop stop-color="#EFF9FE"/><stop offset="1" stop-color="#E1F4FD"/></linearGradient><linearGradient id="paint13_linear" x1="28.735" y1="44.097" x2="54.773" y2="44.231" gradientUnits="userSpaceOnUse"><stop stop-color="#fff"/><stop offset="1" stop-color="#E1F4FD"/></linearGradient><linearGradient id="paint16_linear" x1="22.875" y1="6.507" x2="27.916" y2="6.522" gradientUnits="userSpaceOnUse"><stop stop-color="#EFF9FE"/><stop offset=".2" stop-color="#fff"/><stop offset=".404" stop-color="#fff"/><stop offset=".607" stop-color="#fff"/><stop offset=".807" stop-color="#EEF8FE"/><stop offset="1" stop-color="#EEF9FE"/></linearGradient><linearGradient id="paint17_linear" x1="23.027" y1="55.581" x2="28.068" y2="55.596" gradientUnits="userSpaceOnUse"><stop stop-color="#EFF9FE"/><stop offset=".2" stop-color="#fff"/><stop offset=".404" stop-color="#fff"/><stop offset=".607" stop-color="#fff"/><stop offset=".807" stop-color="#EEF8FE"/><stop offset="1" stop-color="#EEF9FE"/></linearGradient><linearGradient id="paint18_linear" x1="7.324" y1="26.282" x2="17.741" y2="26.282" gradientUnits="userSpaceOnUse"><stop stop-color="#EFF9FE"/><stop offset="1" stop-color="#E1F4FD"/></linearGradient><linearGradient id="paint19_linear" x1="7.324" y1="26.282" x2="17.741" y2="26.282" gradientUnits="userSpaceOnUse"><stop stop-color="#EFF9FE"/><stop offset="1" stop-color="#E1F4FD"/></linearGradient><linearGradient id="paint21_linear" x1="7.482" y1="35.797" x2="17.9" y2="35.797" gradientUnits="userSpaceOnUse"><stop stop-color="#EFF9FE"/><stop offset="1" stop-color="#E1F4FD"/></linearGradient><linearGradient id="paint25_linear" x1="4.999" y1="31.078" x2="17.303" y2="31.078" gradientUnits="userSpaceOnUse"><stop stop-color="#EFF9FE"/><stop offset=".2" stop-color="#fff"/><stop offset=".404" stop-color="#fff"/><stop offset=".607" stop-color="#fff"/><stop offset=".807" stop-color="#EEF8FE"/><stop offset="1" stop-color="#EEF9FE"/></linearGradient><linearGradient id="paint28_linear" x1="56.461" y1="32.98" x2="58.174" y2="29.723" gradientUnits="userSpaceOnUse"><stop stop-color="#828C93"/><stop offset=".083" stop-color="#89939A"/><stop offset=".222" stop-color="#9DA8AE"/><stop offset=".4" stop-color="#BFCAD0"/><stop offset=".511" stop-color="#D8E2E7"/><stop offset=".623" stop-color="#A8B3B9"/><stop offset=".754" stop-color="#798389"/><stop offset=".865" stop-color="#586066"/><stop offset=".95" stop-color="#41474C"/><stop offset="1" stop-color="#373D42"/></linearGradient><radialGradient id="paint1_radial" cx="0" cy="0" r="1" gradientUnits="userSpaceOnUse" gradientTransform="matrix(.45973 -.00277 .01113 1.84634 39.752 20.567)"><stop stop-color="#7CAEBE"/><stop offset="1" stop-color="#EAF7FE"/></radialGradient><radialGradient id="paint3_radial" cx="0" cy="0" r="1" gradientUnits="userSpaceOnUse" gradientTransform="matrix(1.61892 -.01255 .01495 1.92772 38.319 20.454)"><stop stop-color="#7CAEBE"/><stop offset="1" stop-color="#EDF8FE"/></radialGradient><radialGradient id="paint6_radial" cx="0" cy="0" r="1" gradientUnits="userSpaceOnUse" gradientTransform="matrix(2.27092 -.00775 .00141 .41377 26.28 6.65)"><stop stop-color="#7CAEBE"/><stop offset="1" stop-color="#EAF7FE"/></radialGradient><radialGradient id="paint7_radial" cx="0" cy="0" r="1" gradientUnits="userSpaceOnUse" gradientTransform="matrix(12.40773 -.04034 .00664 2.04224 39.564 28.84)"><stop stop-color="#7CAEBE"/><stop offset="1" stop-color="#EAF7FE"/></radialGradient><radialGradient id="paint9_radial" cx="0" cy="0" r="1" gradientUnits="userSpaceOnUse" gradientTransform="matrix(.45973 -.00277 .01113 1.84634 39.91 41.516)"><stop stop-color="#7CAEBE"/><stop offset="1" stop-color="#EAF7FE"/></radialGradient><radialGradient id="paint11_radial" cx="0" cy="0" r="1" gradientUnits="userSpaceOnUse" gradientTransform="matrix(1.61892 -.01255 .01495 1.92772 38.482 41.623)"><stop stop-color="#7CAEBE"/><stop offset="1" stop-color="#EDF8FE"/></radialGradient><radialGradient id="paint14_radial" cx="0" cy="0" r="1" gradientUnits="userSpaceOnUse" gradientTransform="matrix(12.40773 -.04034 .00664 2.04224 39.722 33.238)"><stop stop-color="#7CAEBE"/><stop offset="1" stop-color="#EAF7FE"/></radialGradient><radialGradient id="paint15_radial" cx="0" cy="0" r="1" gradientUnits="userSpaceOnUse" gradientTransform="matrix(2.2709 -.00775 .00141 .41377 26.433 55.42)"><stop stop-color="#7CAEBE"/><stop offset="1" stop-color="#EAF7FE"/></radialGradient><radialGradient id="paint20_radial" cx="0" cy="0" r="1" gradientUnits="userSpaceOnUse" gradientTransform="matrix(3.19285 0 0 .928 10.275 28.984)"><stop stop-color="#7CAEBE"/><stop offset="1" stop-color="#EAF7FE"/></radialGradient><radialGradient id="paint22_radial" cx="0" cy="0" r="1" gradientUnits="userSpaceOnUse" gradientTransform="matrix(3.19267 0 0 .928 10.521 33.004)"><stop stop-color="#7CAEBE"/><stop offset="1" stop-color="#EAF7FE"/></radialGradient><radialGradient id="paint23_radial" cx="0" cy="0" r="1" gradientUnits="userSpaceOnUse" gradientTransform="matrix(40.6237 0 0 2.78422 22.853 31.303)"><stop stop-color="#fff"/><stop offset="1" stop-color="#E1F4FD"/></radialGradient><radialGradient id="paint24_radial" cx="0" cy="0" r="1" gradientUnits="userSpaceOnUse" gradientTransform="matrix(7.80063 0 0 1.0911 13.576 31.075)"><stop stop-color="#7CAEBE"/><stop offset="1" stop-color="#EAF7FE"/></radialGradient><radialGradient id="paint26_radial" cx="0" cy="0" r="1" gradientUnits="userSpaceOnUse" gradientTransform="matrix(.66125 -.0048 .00963 1.32662 57.995 31.037)"><stop stop-color="#fff"/><stop offset=".12" stop-color="#FBFBFB"/><stop offset=".245" stop-color="#EEE"/><stop offset=".372" stop-color="#DADADA"/><stop offset=".501" stop-color="#BCBCBC"/><stop offset=".63" stop-color="#979797"/><stop offset=".761" stop-color="#696969"/><stop offset=".89" stop-color="#343434"/><stop offset="1"/></radialGradient><radialGradient id="paint27_radial" cx="0" cy="0" r="1" gradientUnits="userSpaceOnUse" gradientTransform="matrix(.66123 0 0 1.33857 58.087 31.036)"><stop stop-color="#7CAEBE"/><stop offset="1" stop-color="#EAF7FE"/></radialGradient><filter id="filter0_dd" x="0" y=".318" width="76.857" height="69.556" filterUnits="userSpaceOnUse" color-interpolation-filters="sRGB"><feFlood flood-opacity="0" result="BackgroundImageFix"/><feColorMatrix in="SourceAlpha" values="0 0 0 0 0 0 0 0 0 0 0 0 0 0 0 0 0 0 127 0" result="hardAlpha"/><feOffset dx="3"/><feGaussianBlur stdDeviation="1.5"/><feColorMatrix values="0 0 0 0 0.555208 0 0 0 0 0.752283 0 0 0 0 0.8125 0 0 0 0.4 0"/><feBlend in2="BackgroundImageFix" result="effect1_dropShadow"/><feColorMatrix in="SourceAlpha" values="0 0 0 0 0 0 0 0 0 0 0 0 0 0 0 0 0 0 127 0" result="hardAlpha"/><feOffset dx="5" dy="4"/><feGaussianBlur stdDeviation="5"/><feColorMatrix values="0 0 0 0 0.556863 0 0 0 0 0.752941 0 0 0 0 0.811765 0 0 0 0.5 0"/><feBlend in2="effect1_dropShadow" result="effect2_dropShadow"/><feBlend in="SourceGraphic" in2="effect2_dropShadow" result="shape"/></filter></defs></svg>