<svg width="519" height="785" fill="none" xmlns="http://www.w3.org/2000/svg"><g filter="url(#filter0_d)"><path d="M254.202 365.186l.728.728 20.705-20.705-.697-.697c-2.754-2.754-10.257-5.761-12.79-3.229l-11.176 11.176c-1.963 1.963-.411 9.086 3.23 12.727z" fill="#fff"/><path d="M254.55 365.218l.728.728 20.705-20.705-.696-.697c-2.755-2.754-10.258-5.762-12.79-3.229l-11.176 11.176c-1.995 1.931-.412 9.086 3.229 12.727z" fill="url(#paint0_linear)"/><path opacity=".2" d="M276.648 345.652c-1.469-1.468-7.294 1.976-13.012 7.693-5.717 5.718-9.162 11.544-7.693 13.012 1.469 1.469 7.295-1.975 13.012-7.693 5.718-5.717 9.162-11.543 7.693-13.012z" fill="url(#paint1_radial)"/><path d="M273.387 384.371l.507.507c14.911 14.911 31.627 22.319 37.326 16.621 5.73-5.731-1.742-22.447-16.621-37.326l-.507-.507-18.457-18.457-20.705 20.705 18.457 18.457z" fill="#fff"/><path d="M273.64 384.118l.507.506c14.911 14.912 31.627 22.32 37.326 16.621 5.73-5.73-1.742-22.446-16.621-37.326l-.507-.506-18.457-18.457-20.705 20.705 18.457 18.457z" fill="url(#paint2_linear)"/><path opacity=".2" d="M269.588 364.363c.886-10.764 3.482-19.376 5.762-19.186 2.279.19 3.387 9.086 2.501 19.851-.887 10.764-3.483 19.375-5.762 19.185-2.28-.19-3.388-9.086-2.501-19.85z" fill="url(#paint3_radial)"/><path d="M367.825 359.202L259.172 250.548c36.218 53.504-5.604 251.088-5.604 251.088l24.821 25.201c.063 0 52.174-204.897 89.436-167.635z" fill="#fff"/><path d="M368.743 358.284L260.09 249.63c36.217 53.504-5.604 251.088-5.604 251.088l24.219 25.042s52.776-204.739 90.038-167.476z" fill="url(#paint4_linear)"/><mask id="a" maskUnits="userSpaceOnUse" x="254" y="249" width="115" height="277"><path d="M368.743 358.284L260.09 249.63c36.217 53.504-5.604 251.088-5.604 251.088l24.219 25.042s52.776-204.739 90.038-167.476z" fill="url(#paint5_linear)"/></mask><g mask="url(#a)"><path opacity=".2" d="M266.073 507.683c-7.064-7.064-13.81-11.77-15.069-10.511-1.259 1.259 3.447 8.006 10.51 15.07 7.064 7.064 13.811 11.77 15.07 10.511 1.259-1.259-3.447-8.006-10.511-15.07z" fill="url(#paint6_radial)"/><path opacity=".2" d="M325.086 299.303c-38.589-38.588-74.903-64.839-81.11-58.632-6.208 6.207 20.043 42.521 58.632 81.11s74.903 64.84 81.11 58.633c6.208-6.207-20.043-42.522-58.632-81.111z" fill="url(#paint7_radial)"/></g><path d="M392.329 225.285l.729.728-20.705 20.705-.697-.697c-2.754-2.754-5.762-10.257-3.229-12.79l11.175-11.176c1.932-1.994 9.087-.411 12.727 3.23z" fill="#fff"/><path d="M392.362 225.633l.728.728-20.705 20.705-.697-.697c-2.754-2.754-5.762-10.257-3.229-12.79l11.176-11.175c1.931-1.995 9.086-.412 12.727 3.229z" fill="url(#paint8_linear)"/><path opacity=".2" d="M393.533 226.994c-1.469-1.469-7.294 1.976-13.012 7.693-5.717 5.718-9.162 11.543-7.693 13.012 1.469 1.469 7.294-1.975 13.012-7.693 5.717-5.717 9.162-11.543 7.693-13.012z" fill="url(#paint9_radial)"/><path d="M411.483 244.438l.506.507c14.912 14.911 22.352 31.596 16.621 37.326-5.73 5.73-22.446-1.741-37.326-16.621l-.506-.507-18.457-18.457 20.705-20.705 18.457 18.457z" fill="#fff"/><path d="M411.23 244.692l.506.506c14.912 14.912 22.32 31.628 16.621 37.326-5.73 5.73-22.446-1.741-37.326-16.621l-.506-.506-18.457-18.458 20.705-20.705 18.457 18.458z" fill="url(#paint10_linear)"/><path opacity=".2" d="M391.475 240.639c-10.764.887-19.376 3.483-19.186 5.762.19 2.28 9.086 3.388 19.85 2.501 10.764-.886 19.376-3.482 19.186-5.762-.19-2.279-9.086-3.387-19.85-2.501z" fill="url(#paint11_radial)"/><path d="M386.346 338.909L277.693 230.255c53.503 36.218 251.087-5.604 251.087-5.604l25.201 24.821c-.032.032-204.897 52.174-167.635 89.437z" fill="#fff"/><path d="M385.46 339.795L276.806 231.142c53.504 36.217 251.088-5.604 251.088-5.604l25.042 24.219c-.032.032-204.739 52.776-167.476 90.038z" fill="url(#paint12_linear)"/><mask id="b" maskUnits="userSpaceOnUse" x="276" y="225" width="277" height="115"><path d="M385.46 339.795L276.806 231.142c53.504 36.217 251.088-5.604 251.088-5.604l25.042 24.219c-.032.032-204.739 52.776-167.476 90.038z" fill="url(#paint13_linear)"/></mask><g mask="url(#b)"><path opacity=".2" d="M348.925 273.691c-38.589-38.589-74.903-64.839-81.111-58.632-6.207 6.207 20.044 42.521 58.633 81.11s74.903 64.84 81.11 58.633c6.207-6.207-20.043-42.522-58.632-81.111z" fill="url(#paint14_radial)"/></g><path d="M253.441 501.32c.507-.507 7.124 5.223 8.453 6.553 1.33 1.33 20.705 21.528 20.167 22.066-.506.507-20.705-18.805-22.066-20.166-1.33-1.33-7.092-7.915-6.554-8.453z" fill="#fff"/><path d="M253.726 501.605c.507-.507 7.029 5.192 8.358 6.521 1.33 1.33 20.515 21.338 20.009 21.845-.507.507-20.515-18.679-21.845-20.009-1.329-1.329-7.028-7.851-6.522-8.357z" fill="url(#paint15_linear)"/><path d="M506.714 478.399c-8.706 1.994-29.063 46.982-42.486 67.053l-10.068-10.067s13.202-94.122 6.015-103.525l46.539 46.539z" fill="#fff"/><path d="M507.347 478.019c-8.707 1.994-29.317 46.728-42.708 66.832l-9.815-9.814s13.202-94.123 6.016-103.525l46.507 46.507z" fill="url(#paint16_linear)"/><mask id="c" maskUnits="userSpaceOnUse" x="454" y="431" width="54" height="114"><path d="M507.347 478.019c-8.707 1.994-29.317 46.728-42.708 66.832l-9.815-9.814s13.202-94.123 6.016-103.525l46.507 46.507z" fill="url(#paint17_linear)"/></mask><g mask="url(#c)"><path opacity=".2" d="M475.435 479.588c-11.334-8.484-18.774-17.697-16.621-20.546 2.153-2.85 13.075 1.678 24.409 10.162 11.334 8.485 18.774 17.698 16.621 20.547-2.121 2.881-13.075-1.678-24.409-10.163z" fill="url(#paint18_radial)"/></g><path d="M505.51 477.765c1.995-8.706 46.982-29.063 67.054-42.486l-10.068-10.068s-94.122 13.202-103.525 6.016l46.539 46.538z" fill="#fff"/><mask id="d" maskUnits="userSpaceOnUse" x="458" y="425" width="115" height="53"><path d="M505.51 477.765c1.995-8.706 46.982-29.063 67.054-42.486l-10.068-10.068s-94.122 13.202-103.525 6.016l46.539 46.538z" fill="#fff"/></mask><g mask="url(#d)"><path d="M505.163 478.43c1.994-8.706 46.728-29.316 66.832-42.708l-9.815-9.814s-94.122 13.202-103.525 6.015l46.508 46.507z" fill="url(#paint19_linear)"/><path opacity=".2" d="M505.731 446.518c-8.484-11.334-17.697-18.774-20.546-16.621-2.85 2.153 1.678 13.075 10.162 24.409 8.485 11.334 17.698 18.774 20.547 16.621 2.849-2.153-1.678-13.075-10.163-24.409z" fill="url(#paint20_radial)"/></g><path d="M230.109 232.186l200.338 200.339c77.311 77.311 84.973 56.353 84.973 56.353s20.958-7.662-56.353-84.973L258.728 203.567s-47.393-41.125-58.569-29.95c-11.175 11.176 29.95 58.569 29.95 58.569z" fill="#fff"/><path d="M230.995 231.3l200.339 200.338c77.311 77.311 84.972 56.353 84.972 56.353s20.959-7.661-56.353-84.973L259.615 202.68s-47.393-41.125-58.569-29.949c-11.176 11.175 29.949 58.569 29.949 58.569z" fill="url(#paint21_radial)"/><path opacity=".2" d="M478.663 437.938c-24.216-24.216-46.597-41.098-49.989-37.706-3.392 3.392 13.489 25.774 37.706 49.99 24.216 24.216 46.597 41.098 49.989 37.706 3.392-3.392-13.489-25.773-37.706-49.99z" fill="url(#paint22_radial)"/><path d="M450.803 422.489c1.425-1.425 17.603 12.473 20.895 15.766 3.293 3.292 50.401 52.68 48.977 54.105-1.425 1.425-50.813-45.684-54.106-48.976-3.292-3.293-17.19-19.471-15.766-20.895z" fill="#fff"/><path d="M451.564 423.122c1.393-1.393 17.412 12.41 20.642 15.64 3.26 3.26 49.894 52.11 48.501 53.503-1.393 1.393-50.274-45.272-53.504-48.501-3.197-3.261-17.001-19.281-15.639-20.642z" fill="url(#paint23_linear)"/><mask id="e" maskUnits="userSpaceOnUse" x="214" y="186" width="19" height="19"><path d="M218.521 190.206c4.812-4.812 11.271-3.482 13.392-1.361 2.121 2.121-1.995 4.464-6.142 8.611-4.179 4.179-6.87 8.517-8.991 6.395-2.121-2.121-3.356-8.484 1.741-13.645z" fill="url(#paint24_radial)" opacity=".5"/></mask><g mask="url(#e)"><path opacity=".5" d="M218.521 190.206c4.812-4.812 11.271-3.482 13.392-1.361 2.121 2.121-1.995 4.464-6.142 8.611-4.179 4.179-6.87 8.517-8.991 6.396-2.121-2.122-3.356-8.485 1.741-13.646z" fill="url(#paint25_radial)"/><path opacity=".5" d="M220.01 207.967l-3.718-3.717s-1.455-16.008 16.146-16.147l3.718 3.718s-14.09 3.858-16.146 16.146z" fill="#fff"/><path opacity=".5" d="M220.01 207.967l-3.718-3.717s-1.455-16.008 16.146-16.147l3.718 3.718s-14.125 3.893-16.146 16.146z" fill="url(#paint26_linear)"/></g></g><defs><linearGradient id="paint0_linear" x1="265.629" y1="355.589" x2="256.908" y2="346.869" gradientUnits="userSpaceOnUse"><stop stop-color="#EDF8FE"/><stop offset="1" stop-color="#fff"/></linearGradient><linearGradient id="paint2_linear" x1="311.503" y1="401.24" x2="265.553" y2="355.29" gradientUnits="userSpaceOnUse"><stop stop-color="#fff"/><stop offset="1" stop-color="#EAF7FE"/></linearGradient><linearGradient id="paint4_linear" x1="315.131" y1="433.446" x2="167.75" y2="286.066" gradientUnits="userSpaceOnUse"><stop stop-color="#EFF9FE"/><stop offset="1" stop-color="#E1F4FD"/></linearGradient><linearGradient id="paint5_linear" x1="315.131" y1="433.446" x2="167.75" y2="286.066" gradientUnits="userSpaceOnUse"><stop stop-color="#EFF9FE"/><stop offset="1" stop-color="#E1F4FD"/></linearGradient><linearGradient id="paint8_linear" x1="382.735" y1="236.709" x2="374.015" y2="227.989" gradientUnits="userSpaceOnUse"><stop stop-color="#EDF8FE"/><stop offset="1" stop-color="#fff"/></linearGradient><linearGradient id="paint10_linear" x1="428.387" y1="282.519" x2="382.438" y2="236.569" gradientUnits="userSpaceOnUse"><stop stop-color="#fff"/><stop offset="1" stop-color="#EAF7FE"/></linearGradient><linearGradient id="paint12_linear" x1="460.589" y1="286.2" x2="313.208" y2="138.819" gradientUnits="userSpaceOnUse"><stop stop-color="#EFF9FE"/><stop offset="1" stop-color="#E1F4FD"/></linearGradient><linearGradient id="paint13_linear" x1="460.589" y1="286.2" x2="313.208" y2="138.819" gradientUnits="userSpaceOnUse"><stop stop-color="#EFF9FE"/><stop offset="1" stop-color="#E1F4FD"/></linearGradient><linearGradient id="paint15_linear" x1="282.111" y1="529.978" x2="253.735" y2="501.602" gradientUnits="userSpaceOnUse"><stop stop-color="#EFF9FE"/><stop offset=".2" stop-color="#fff"/><stop offset=".404" stop-color="#fff"/><stop offset=".607" stop-color="#fff"/><stop offset=".807" stop-color="#EEF8FE"/><stop offset="1" stop-color="#EEF9FE"/></linearGradient><linearGradient id="paint16_linear" x1="480.729" y1="506.182" x2="422.166" y2="447.618" gradientUnits="userSpaceOnUse"><stop stop-color="#EFF9FE"/><stop offset="1" stop-color="#E1F4FD"/></linearGradient><linearGradient id="paint17_linear" x1="480.729" y1="506.182" x2="422.166" y2="447.618" gradientUnits="userSpaceOnUse"><stop stop-color="#EFF9FE"/><stop offset="1" stop-color="#E1F4FD"/></linearGradient><linearGradient id="paint19_linear" x1="533.325" y1="451.798" x2="474.761" y2="393.234" gradientUnits="userSpaceOnUse"><stop stop-color="#EFF9FE"/><stop offset="1" stop-color="#E1F4FD"/></linearGradient><linearGradient id="paint23_linear" x1="520.753" y1="492.281" x2="451.586" y2="423.114" gradientUnits="userSpaceOnUse"><stop stop-color="#EFF9FE"/><stop offset=".2" stop-color="#fff"/><stop offset=".404" stop-color="#fff"/><stop offset=".607" stop-color="#fff"/><stop offset=".807" stop-color="#EEF8FE"/><stop offset="1" stop-color="#EEF9FE"/></linearGradient><linearGradient id="paint26_linear" x1="242.153" y1="192.289" x2="214.212" y2="200.97" gradientUnits="userSpaceOnUse"><stop stop-color="#828C93"/><stop offset=".083" stop-color="#89939A"/><stop offset=".222" stop-color="#9DA8AE"/><stop offset=".4" stop-color="#BFCAD0"/><stop offset=".511" stop-color="#D8E2E7"/><stop offset=".623" stop-color="#A8B3B9"/><stop offset=".754" stop-color="#798389"/><stop offset=".865" stop-color="#586066"/><stop offset=".95" stop-color="#41474C"/><stop offset="1" stop-color="#373D42"/></linearGradient><radialGradient id="paint1_radial" cx="0" cy="0" r="1" gradientUnits="userSpaceOnUse" gradientTransform="rotate(-135 206.88 122.85) scale(3.76131 14.6215)"><stop stop-color="#7CAEBE"/><stop offset="1" stop-color="#EAF7FE"/></radialGradient><radialGradient id="paint3_radial" cx="0" cy="0" r="1" gradientUnits="userSpaceOnUse" gradientTransform="rotate(-135 212.391 125.658) scale(13.0416 15.1739)"><stop stop-color="#7CAEBE"/><stop offset="1" stop-color="#EDF8FE"/></radialGradient><radialGradient id="paint6_radial" cx="0" cy="0" r="1" gradientUnits="userSpaceOnUse" gradientTransform="matrix(-12.79163 -12.79163 2.27647 -2.27647 263.795 509.964)"><stop stop-color="#7CAEBE"/><stop offset="1" stop-color="#EAF7FE"/></radialGradient><radialGradient id="paint7_radial" cx="0" cy="0" r="1" gradientUnits="userSpaceOnUse" gradientTransform="matrix(-69.87912 -69.87912 11.22426 -11.22426 313.855 310.549)"><stop stop-color="#7CAEBE"/><stop offset="1" stop-color="#EAF7FE"/></radialGradient><radialGradient id="paint9_radial" cx="0" cy="0" r="1" gradientUnits="userSpaceOnUse" gradientTransform="rotate(-135 240.746 39.314) scale(3.76131 14.6215)"><stop stop-color="#7CAEBE"/><stop offset="1" stop-color="#EAF7FE"/></radialGradient><radialGradient id="paint11_radial" cx="0" cy="0" r="1" gradientUnits="userSpaceOnUse" gradientTransform="rotate(-135 246.598 41.24) scale(13.0416 15.1739)"><stop stop-color="#7CAEBE"/><stop offset="1" stop-color="#EDF8FE"/></radialGradient><radialGradient id="paint14_radial" cx="0" cy="0" r="1" gradientUnits="userSpaceOnUse" gradientTransform="matrix(-69.87912 -69.87912 11.22426 -11.22426 337.694 284.937)"><stop stop-color="#7CAEBE"/><stop offset="1" stop-color="#EAF7FE"/></radialGradient><radialGradient id="paint18_radial" cx="0" cy="0" r="1" gradientUnits="userSpaceOnUse" gradientTransform="rotate(-135 337.918 137.926) scale(25.3839 7.37777)"><stop stop-color="#7CAEBE"/><stop offset="1" stop-color="#EAF7FE"/></radialGradient><radialGradient id="paint20_radial" cx="0" cy="0" r="1" gradientUnits="userSpaceOnUse" gradientTransform="matrix(-17.94814 -17.94814 5.21687 -5.21687 500.542 450.414)"><stop stop-color="#7CAEBE"/><stop offset="1" stop-color="#EAF7FE"/></radialGradient><radialGradient id="paint21_radial" cx="0" cy="0" r="1" gradientUnits="userSpaceOnUse" gradientTransform="rotate(-135 291.736 107.998) scale(322.968 22.1353)"><stop stop-color="#EFF9FE"/><stop offset="1" stop-color="#E1F4FD"/></radialGradient><radialGradient id="paint22_radial" cx="0" cy="0" r="1" gradientUnits="userSpaceOnUse" gradientTransform="rotate(-135 328.237 124.179) scale(62.0169 8.67454)"><stop stop-color="#7CAEBE"/><stop offset="1" stop-color="#EAF7FE"/></radialGradient><radialGradient id="paint24_radial" cx="0" cy="0" r="1" gradientUnits="userSpaceOnUse" gradientTransform="matrix(-3.78999 -3.78999 7.40935 -7.40935 222.605 194.604)"><stop stop-color="#fff"/><stop offset=".12" stop-color="#FBFBFB"/><stop offset=".245" stop-color="#EEE"/><stop offset=".372" stop-color="#DADADA"/><stop offset=".501" stop-color="#BCBCBC"/><stop offset=".63" stop-color="#979797"/><stop offset=".761" stop-color="#696969"/><stop offset=".89" stop-color="#343434"/><stop offset="1"/></radialGradient><radialGradient id="paint25_radial" cx="0" cy="0" r="1" gradientUnits="userSpaceOnUse" gradientTransform="rotate(-135 151.236 51.047) scale(5.25697 10.642)"><stop stop-color="#7CAEBE"/><stop offset="1" stop-color="#EAF7FE"/></radialGradient><filter id="filter0_d" x="178.233" y="160.805" width="434.331" height="434.647" filterUnits="userSpaceOnUse" color-interpolation-filters="sRGB"><feFlood flood-opacity="0" result="BackgroundImageFix"/><feColorMatrix in="SourceAlpha" values="0 0 0 0 0 0 0 0 0 0 0 0 0 0 0 0 0 0 127 0" result="hardAlpha"/><feOffset dx="10" dy="20"/><feGaussianBlur stdDeviation="15"/><feColorMatrix values="0 0 0 0 0.555208 0 0 0 0 0.752283 0 0 0 0 0.8125 0 0 0 0.5 0"/><feBlend in2="BackgroundImageFix" result="effect1_dropShadow"/><feBlend in="SourceGraphic" in2="effect1_dropShadow" result="shape"/></filter></defs></svg>