<svg width="448" height="478" fill="none" xmlns="http://www.w3.org/2000/svg"><path d="M245.088 43c123.488 181.673-26.806 345.306-128.54 278.83-92.329-56.189 5.009-177.889 85.861-91.732 41.696 44.431 66.739 101.383 36.604 174.794" stroke="url(#paint0_linear)" stroke-width="2" stroke-miterlimit="10" stroke-dasharray="8.16 8.16"/><circle r="5" transform="matrix(-1 0 0 1 239.001 406)" fill="#CAEAF4"/><circle r="5" transform="matrix(-1 0 0 1 245 43)" fill="#CAEAF4"/><g filter="url(#filter0_dd)"><path d="M305.818 209.484l.026-.196-5.426-.611-.024.188c-.097.744.307 2.228.971 2.303l2.928.329c.514.058 1.397-1.03 1.525-2.013z" fill="#fff"/><path d="M305.783 209.429l.026-.196-5.426-.61-.024.188c-.097.743.307 2.227.97 2.302l2.929.329c.513.067 1.397-1.03 1.525-2.013z" fill="url(#paint1_linear)"/><path opacity=".2" d="M300.349 208.502c-.052.401 1.123.864 2.624 1.034 1.501.171 2.759-.016 2.811-.417.052-.401-1.123-.864-2.624-1.034-1.5-.17-2.759.017-2.811.417z" fill="url(#paint2_radial)"/><path d="M306.373 204.458l.017-.134c.517-3.948-.265-7.276-1.735-7.441-1.478-.166-3.089 2.903-3.605 6.842l-.017.135-.64 4.887 5.34.598.64-4.887z" fill="#fff"/><path d="M306.305 204.45l.018-.134c.517-3.948-.265-7.276-1.735-7.441-1.478-.166-3.089 2.903-3.605 6.843l-.018.134-.639 4.887 5.34.598.639-4.887z" fill="url(#paint3_linear)"/><path opacity=".2" d="M303.911 207.361c-1.693 1.148-3.26 1.787-3.49 1.427-.229-.36.962-1.581 2.655-2.729 1.693-1.149 3.26-1.788 3.489-1.428.229.36-.962 1.581-2.654 2.73z" fill="url(#paint4_radial)"/><path d="M292.106 193.547l-3.799 28.907c3.817-11.684 37.68-28.926 37.68-28.926l.924-6.649c-.007-.009-36.108 16.582-34.805 6.668z" fill="#fff"/><path d="M291.864 193.517l-3.798 28.909c3.817-11.685 37.682-28.928 37.682-28.928l.968-6.541s-36.154 16.474-34.852 6.56z" fill="url(#paint5_linear)"/><mask id="a" maskUnits="userSpaceOnUse" x="288" y="186" width="39" height="37"><path d="M291.956 193.542l-3.89 28.977c3.846-11.719 37.661-29.098 37.661-29.098l.989-6.557s-36.094 16.615-34.76 6.678z" fill="url(#paint6_linear)"/></mask><g mask="url(#a)"><path opacity=".2" d="M325.534 191.331c-.244 1.865-.186 3.406.129 3.441.315.035.768-1.448 1.012-3.313.244-1.865.187-3.406-.128-3.441-.315-.035-.769 1.448-1.013 3.313z" fill="url(#paint7_radial)"/><path opacity=".2" d="M288.052 206.721c-1.329 10.186-1.152 18.584.397 18.758 1.548.174 3.881-7.942 5.211-18.127 1.33-10.186 1.152-18.584-.396-18.758-1.549-.175-3.882 7.942-5.212 18.127z" fill="url(#paint8_radial)"/></g><path d="M269.216 205.294l.026-.197 5.425.611-.025.187c-.097.744-.871 2.096-1.534 2.021l-2.929-.329c-.515-.05-1.091-1.311-.963-2.293z" fill="#fff"/><path d="M269.264 205.249l.026-.197 5.425.611-.025.188c-.097.743-.871 2.095-1.534 2.02l-2.929-.329c-.515-.05-1.091-1.311-.963-2.293z" fill="url(#paint9_linear)"/><path opacity=".2" d="M269.314 204.939c-.052.401 1.123.864 2.624 1.034 1.501.171 2.759-.016 2.811-.417.052-.401-1.123-.864-2.624-1.034-1.501-.17-2.759.017-2.811.417z" fill="url(#paint10_radial)"/><path d="M269.854 200.288l.018-.134c.516-3.949 2.127-7.009 3.604-6.843 1.478.166 2.251 3.501 1.736 7.441l-.018.134-.639 4.887-5.341-.598.64-4.887z" fill="#fff"/><path d="M269.922 200.296l.017-.134c.517-3.949 2.135-7.008 3.605-6.843 1.478.166 2.251 3.501 1.735 7.441l-.017.134-.64 4.888-5.34-.599.64-4.887z" fill="url(#paint11_linear)"/><path opacity=".2" d="M271.558 203.655c1.347 1.488 2.703 2.454 3.019 2.155.316-.299-.525-1.747-1.871-3.235-1.347-1.488-2.703-2.454-3.019-2.155-.316.299.525 1.747 1.871 3.235z" fill="url(#paint12_radial)"/><path d="M286.566 192.747l-3.798 28.907c-.681-12.186-29.099-36.384-29.099-36.384l.825-6.66c.008.001 30.769 24.05 32.072 14.137z" fill="#fff"/><path d="M286.801 192.774l-3.799 28.908c-.68-12.187-29.1-36.386-29.1-36.386l.754-6.565c.009.001 30.842 23.957 32.145 14.043z" fill="url(#paint13_linear)"/><mask id="b" maskUnits="userSpaceOnUse" x="254" y="178" width="33" height="44"><path d="M286.768 192.705l-3.89 28.977c-.634-12.209-28.873-36.37-28.873-36.37l.776-6.581c.008.001 30.653 23.912 31.987 13.974z" fill="url(#paint14_linear)"/></mask><g mask="url(#b)"><path opacity=".2" d="M281.514 206.158c-1.329 10.186-1.152 18.584.396 18.758 1.549.174 3.882-7.942 5.212-18.128 1.329-10.186 1.152-18.584-.396-18.758-1.549-.174-3.882 7.942-5.212 18.128z" fill="url(#paint15_radial)"/><path opacity=".2" d="M253.324 182.718c-.244 1.865-.186 3.405.129 3.441.315.035.768-1.448 1.012-3.313.244-1.865.187-3.406-.128-3.441-.315-.035-.768 1.448-1.013 3.313z" fill="url(#paint16_radial)"/></g><path d="M326.009 193.926c-.126-.014-.03-1.654.014-2.004.044-.351.805-5.553.938-5.537.126.014-.422 5.233-.467 5.591-.045.351-.352 1.966-.485 1.95z" fill="#fff"/><path d="M326.018 193.851c-.126-.015-.024-1.637.02-1.987.044-.35.798-5.502.923-5.488.126.015-.424 5.191-.469 5.541-.044.35-.349 1.948-.474 1.934z" fill="url(#paint17_linear)"/><path d="M253.35 185.25c.125.015.44-1.599.484-1.95.045-.35.601-5.576.468-5.591-.126-.015-.893 5.178-.938 5.537-.045.358-.14 1.989-.014 2.004z" fill="#fff"/><path d="M253.358 185.183c.125.015.43-1.584.474-1.934.045-.35.594-5.526.469-5.541-.125-.014-.879 5.138-.923 5.488-.044.351-.146 1.972-.02 1.987z" fill="url(#paint18_linear)"/><path d="M293.583 159.199c1.26 1.046 10.159-1.343 14.611-1.768l-.368 2.693s-15.357 9.336-15.948 11.524l1.705-12.449z" fill="#fff"/><path d="M293.453 159.15c1.261 1.046 10.151-1.276 14.605-1.71l-.36 2.626s-15.358 9.336-15.948 11.525l1.703-12.441z" fill="url(#paint19_linear)"/><mask id="c" maskUnits="userSpaceOnUse" x="291" y="157" width="18" height="15"><path d="M293.475 159.154c1.257 1.045 10.136-1.293 14.583-1.734l-.365 2.629s-15.349 9.37-15.943 11.562l1.725-12.457z" fill="url(#paint20_linear)"/></mask><g mask="url(#c)"><path opacity=".2" d="M297.111 163.607c0 2.663-.521 4.844-1.16 4.868-.639.025-1.161-2.107-1.161-4.77 0-2.662.521-4.843 1.16-4.867.64-.033 1.161 2.107 1.161 4.769z" fill="url(#paint21_radial)"/></g><path d="M293.369 159.203c-1.506.749-9.503-3.45-13.711-4.804l-.369 2.693s12.393 12.31 12.376 14.56l1.704-12.449z" fill="#fff"/><mask id="d" maskUnits="userSpaceOnUse" x="279" y="154" width="15" height="18"><path d="M293.364 159.187c-1.506.752-9.48-3.44-13.678-4.788l-.374 2.697s12.347 12.304 12.325 14.556l1.727-12.465z" fill="#fff"/></mask><g mask="url(#d)"><path d="M293.503 159.161c-1.506.752-9.49-3.372-13.688-4.729l-.364 2.629s12.348 12.305 12.326 14.557l1.726-12.457z" fill="url(#paint22_linear)"/><path opacity=".2" d="M288.842 162.998c-.713 2.586-.791 4.815-.177 4.974.614.16 1.692-1.799 2.405-4.384.714-2.586.792-4.815.178-4.974-.614-.16-1.692 1.799-2.406 4.384z" fill="url(#paint23_radial)"/></g><path d="M288.417 228.441l6.854-52.834c2.645-20.389-1.038-19.027-1.038-19.027s-3.229-2.144-5.874 18.245l-6.854 52.835s-.757 11.758 1.942 12.063c2.699.305 4.97-11.282 4.97-11.282z" fill="#fff"/><path d="M288.184 228.413l6.854-52.834c2.645-20.389-1.039-19.027-1.039-19.027s-3.228-2.144-5.873 18.245l-6.854 52.834s-.757 11.758 1.942 12.063c2.699.306 4.97-11.281 4.97-11.281z" fill="url(#paint24_radial)"/><path opacity=".2" d="M290.751 167.996c-.842 6.393-.849 11.65-.017 11.742.832.093 2.189-5.014 3.03-11.406.842-6.392.85-11.649.017-11.742-.832-.093-2.189 5.014-3.03 11.406z" fill="url(#paint25_radial)"/><path d="M291.515 173.88c-.341-.039-.104-4.034.008-4.902.112-.869 2.024-13.558 2.365-13.519.342.039-1.024 12.791-1.136 13.659-.111.868-.895 4.801-1.237 4.762z" fill="#fff"/><path d="M291.522 173.695c-.334-.039-.093-4 .017-4.851.11-.86 1.997-13.416 2.33-13.378.334.038-1.022 12.663-1.132 13.514-.117.851-.888 4.752-1.215 4.715z" fill="url(#paint26_linear)"/><mask id="e" maskUnits="userSpaceOnUse" x="282" y="232" width="5" height="4"><path d="M284.078 235.044c-1.26-.142-1.795-1.265-1.721-1.835.074-.57.889-.236 1.975-.114 1.095.124 2.044.006 1.97.576-.075.57-.879 1.516-2.224 1.373z" fill="url(#paint27_radial)" opacity=".5"/></mask><g mask="url(#e)"><path opacity=".5" d="M284.071 235.054c-1.256-.135-1.781-1.265-1.702-1.841.078-.576.888-.244 1.97-.128 1.091.118 2.038-.007 1.96.569-.079.576-.888 1.536-2.228 1.4z" fill="url(#paint28_radial)"/><path opacity=".5" d="M286.541 232.686l-.137 1.01s-2.223 2.17-4.215-.454l.137-1.011s2.154 1.644 4.215.455z" fill="#fff"/><path opacity=".5" d="M286.541 232.686l-.137 1.01s-2.223 2.17-4.215-.454l.137-1.011s2.163 1.645 4.215.455z" fill="url(#paint29_linear)"/></g></g><defs><linearGradient id="paint0_linear" x1="379.216" y1="259.963" x2="82.507" y2="205.966" gradientUnits="userSpaceOnUse"><stop stop-color="#CBEAF4"/><stop offset="1" stop-color="#B0E2F2"/></linearGradient><linearGradient id="paint1_linear" x1="303.096" y1="208.929" x2="302.83" y2="211.287" gradientUnits="userSpaceOnUse"><stop stop-color="#EDF8FE"/><stop offset="1" stop-color="#fff"/></linearGradient><linearGradient id="paint3_linear" x1="304.584" y1="196.871" x2="303.217" y2="209.063" gradientUnits="userSpaceOnUse"><stop stop-color="#fff"/><stop offset="1" stop-color="#EAF7FE"/></linearGradient><linearGradient id="paint5_linear" x1="308.992" y1="192.521" x2="304.604" y2="231.819" gradientUnits="userSpaceOnUse"><stop stop-color="#EFF9FE"/><stop offset="1" stop-color="#E1F4FD"/></linearGradient><linearGradient id="paint6_linear" x1="309.031" y1="192.492" x2="304.723" y2="231.904" gradientUnits="userSpaceOnUse"><stop stop-color="#fff"/><stop offset="1" stop-color="#E1F4FD"/></linearGradient><linearGradient id="paint9_linear" x1="272.002" y1="205.358" x2="271.737" y2="207.716" gradientUnits="userSpaceOnUse"><stop stop-color="#EDF8FE"/><stop offset="1" stop-color="#fff"/></linearGradient><linearGradient id="paint11_linear" x1="273.54" y1="193.315" x2="272.173" y2="205.507" gradientUnits="userSpaceOnUse"><stop stop-color="#fff"/><stop offset="1" stop-color="#EAF7FE"/></linearGradient><linearGradient id="paint13_linear" x1="270.433" y1="188.039" x2="266.044" y2="227.336" gradientUnits="userSpaceOnUse"><stop stop-color="#EFF9FE"/><stop offset="1" stop-color="#E1F4FD"/></linearGradient><linearGradient id="paint14_linear" x1="270.471" y1="188.01" x2="266.163" y2="227.421" gradientUnits="userSpaceOnUse"><stop stop-color="#fff"/><stop offset="1" stop-color="#E1F4FD"/></linearGradient><linearGradient id="paint17_linear" x1="326.96" y1="186.373" x2="326.09" y2="193.859" gradientUnits="userSpaceOnUse"><stop stop-color="#EFF9FE"/><stop offset=".2" stop-color="#fff"/><stop offset=".404" stop-color="#fff"/><stop offset=".607" stop-color="#fff"/><stop offset=".807" stop-color="#EEF8FE"/><stop offset="1" stop-color="#EEF9FE"/></linearGradient><linearGradient id="paint18_linear" x1="254.3" y1="177.705" x2="253.43" y2="185.191" gradientUnits="userSpaceOnUse"><stop stop-color="#EFF9FE"/><stop offset=".2" stop-color="#fff"/><stop offset=".404" stop-color="#fff"/><stop offset=".607" stop-color="#fff"/><stop offset=".807" stop-color="#EEF8FE"/><stop offset="1" stop-color="#EEF9FE"/></linearGradient><linearGradient id="paint19_linear" x1="300.564" y1="159.702" x2="298.88" y2="175.418" gradientUnits="userSpaceOnUse"><stop stop-color="#EFF9FE"/><stop offset="1" stop-color="#E1F4FD"/></linearGradient><linearGradient id="paint20_linear" x1="300.573" y1="159.695" x2="298.905" y2="175.436" gradientUnits="userSpaceOnUse"><stop stop-color="#EFF9FE"/><stop offset="1" stop-color="#E1F4FD"/></linearGradient><linearGradient id="paint22_linear" x1="286.461" y1="158.207" x2="284.793" y2="173.947" gradientUnits="userSpaceOnUse"><stop stop-color="#EFF9FE"/><stop offset="1" stop-color="#E1F4FD"/></linearGradient><linearGradient id="paint26_linear" x1="293.867" y1="155.457" x2="291.785" y2="173.723" gradientUnits="userSpaceOnUse"><stop stop-color="#EFF9FE"/><stop offset=".2" stop-color="#fff"/><stop offset=".404" stop-color="#fff"/><stop offset=".607" stop-color="#fff"/><stop offset=".807" stop-color="#EEF8FE"/><stop offset="1" stop-color="#EEF9FE"/></linearGradient><linearGradient id="paint29_linear" x1="281.724" y1="231.274" x2="286.211" y2="234.315" gradientUnits="userSpaceOnUse"><stop stop-color="#828C93"/><stop offset=".083" stop-color="#89939A"/><stop offset=".222" stop-color="#9DA8AE"/><stop offset=".4" stop-color="#BFCAD0"/><stop offset=".511" stop-color="#D8E2E7"/><stop offset=".623" stop-color="#A8B3B9"/><stop offset=".754" stop-color="#798389"/><stop offset=".865" stop-color="#586066"/><stop offset=".95" stop-color="#41474C"/><stop offset="1" stop-color="#373D42"/></linearGradient><radialGradient id="paint2_radial" cx="0" cy="0" r="1" gradientUnits="userSpaceOnUse" gradientTransform="rotate(97.367 59.758 237.608) scale(.73164 2.73107)"><stop stop-color="#7CAEBE"/><stop offset="1" stop-color="#EAF7FE"/></radialGradient><radialGradient id="paint4_radial" cx="0" cy="0" r="1" gradientUnits="userSpaceOnUse" gradientTransform="matrix(-.32324 2.4611 -2.79186 -.36669 303.493 206.709)"><stop stop-color="#7CAEBE"/><stop offset="1" stop-color="#EDF8FE"/></radialGradient><radialGradient id="paint7_radial" cx="0" cy="0" r="1" gradientUnits="userSpaceOnUse" gradientTransform="matrix(-.4421 3.37735 -.56828 -.07439 326.105 191.395)"><stop stop-color="#7CAEBE"/><stop offset="1" stop-color="#EAF7FE"/></radialGradient><radialGradient id="paint8_radial" cx="0" cy="0" r="1" gradientUnits="userSpaceOnUse" gradientTransform="rotate(97.437 54.546 231.195) scale(18.6014 2.81732)"><stop stop-color="#7CAEBE"/><stop offset="1" stop-color="#EAF7FE"/></radialGradient><radialGradient id="paint10_radial" cx="0" cy="0" r="1" gradientUnits="userSpaceOnUse" gradientTransform="matrix(-.09381 .7256 -2.7085 -.35018 272.031 205.248)"><stop stop-color="#7CAEBE"/><stop offset="1" stop-color="#EAF7FE"/></radialGradient><radialGradient id="paint12_radial" cx="0" cy="0" r="1" gradientUnits="userSpaceOnUse" gradientTransform="matrix(-.32324 2.4611 -2.79186 -.36669 272.132 203.115)"><stop stop-color="#7CAEBE"/><stop offset="1" stop-color="#EDF8FE"/></radialGradient><radialGradient id="paint15_radial" cx="0" cy="0" r="1" gradientUnits="userSpaceOnUse" gradientTransform="matrix(-2.40779 18.4449 -2.7936 -.36468 284.318 206.471)"><stop stop-color="#7CAEBE"/><stop offset="1" stop-color="#EAF7FE"/></radialGradient><radialGradient id="paint16_radial" cx="0" cy="0" r="1" gradientUnits="userSpaceOnUse" gradientTransform="rotate(97.458 46.74 202.803) scale(3.40617 .57312)"><stop stop-color="#7CAEBE"/><stop offset="1" stop-color="#EAF7FE"/></radialGradient><radialGradient id="paint21_radial" cx="0" cy="0" r="1" gradientUnits="userSpaceOnUse" gradientTransform="matrix(-.64607 4.7529 -1.30124 -.17688 295.95 163.656)"><stop stop-color="#7CAEBE"/><stop offset="1" stop-color="#EAF7FE"/></radialGradient><radialGradient id="paint23_radial" cx="0" cy="0" r="1" gradientUnits="userSpaceOnUse" gradientTransform="matrix(-.64602 4.75265 -1.30123 -.17688 289.956 163.293)"><stop stop-color="#7CAEBE"/><stop offset="1" stop-color="#EAF7FE"/></radialGradient><radialGradient id="paint24_radial" cx="0" cy="0" r="1" gradientUnits="userSpaceOnUse" gradientTransform="rotate(97.391 65.312 218.492) scale(60.7325 3.80362)"><stop stop-color="#fff"/><stop offset="1" stop-color="#E1F4FD"/></radialGradient><radialGradient id="paint25_radial" cx="0" cy="0" r="1" gradientUnits="userSpaceOnUse" gradientTransform="rotate(97.5 72.392 212.233) scale(11.6754 1.51376)"><stop stop-color="#7CAEBE"/><stop offset="1" stop-color="#EAF7FE"/></radialGradient><radialGradient id="paint27_radial" cx="0" cy="0" r="1" gradientUnits="userSpaceOnUse" gradientTransform="rotate(97.418 39.42 241.783) scale(1.02727 1.95266)"><stop stop-color="#fff"/><stop offset=".12" stop-color="#FBFBFB"/><stop offset=".245" stop-color="#EEE"/><stop offset=".372" stop-color="#DADADA"/><stop offset=".501" stop-color="#BCBCBC"/><stop offset=".63" stop-color="#979797"/><stop offset=".761" stop-color="#696969"/><stop offset=".89" stop-color="#343434"/><stop offset="1"/></radialGradient><radialGradient id="paint28_radial" cx="0" cy="0" r="1" gradientUnits="userSpaceOnUse" gradientTransform="rotate(97.751 39.95 241.116) scale(1.01888 1.97425)"><stop stop-color="#7CAEBE"/><stop offset="1" stop-color="#EAF7FE"/></radialGradient><filter id="filter0_dd" x="248.287" y="148.399" width="93.692" height="105.329" filterUnits="userSpaceOnUse" color-interpolation-filters="sRGB"><feFlood flood-opacity="0" result="BackgroundImageFix"/><feColorMatrix in="SourceAlpha" values="0 0 0 0 0 0 0 0 0 0 0 0 0 0 0 0 0 0 127 0" result="hardAlpha"/><feOffset dx="3"/><feGaussianBlur stdDeviation="1.5"/><feColorMatrix values="0 0 0 0 0.555208 0 0 0 0 0.752283 0 0 0 0 0.8125 0 0 0 0.4 0"/><feBlend in2="BackgroundImageFix" result="effect1_dropShadow"/><feColorMatrix in="SourceAlpha" values="0 0 0 0 0 0 0 0 0 0 0 0 0 0 0 0 0 0 127 0" result="hardAlpha"/><feOffset dx="5" dy="4"/><feGaussianBlur stdDeviation="5"/><feColorMatrix values="0 0 0 0 0.556863 0 0 0 0 0.752941 0 0 0 0 0.811765 0 0 0 0.5 0"/><feBlend in2="effect1_dropShadow" result="effect2_dropShadow"/><feBlend in="SourceGraphic" in2="effect2_dropShadow" result="shape"/></filter></defs></svg>