<svg width="140" height="187" fill="none" xmlns="http://www.w3.org/2000/svg"><g filter="url(#filter0_d)"><path d="M10.324 53.098c.13-12.891 4.623-23.145 13.477-30.762 8.92-7.682 21.126-11.523 36.62-11.523 14.845 0 26.726 3.58 35.645 10.742 8.92 7.161 13.379 16.601 13.379 28.32 0 13.672-7.031 24.577-21.093 32.715-6.706 3.906-11.23 7.259-13.575 10.058-2.343 2.93-3.515 6.674-3.515 11.231v4.59H40.793l-.293-3.907c-.911-8.268-.065-14.94 2.54-20.019 2.473-4.883 7.16-9.31 14.062-13.281 6.64-3.906 11.1-7.227 13.379-9.961 2.213-2.735 3.32-6.25 3.32-10.547 0-3.971-1.465-7.194-4.395-9.668-2.864-2.474-6.608-3.711-11.23-3.711-4.688 0-8.496 1.432-11.426 4.297-2.995 2.864-4.557 6.673-4.688 11.426H10.325zm46.582 103.32c-6.315 0-11.23-1.563-14.746-4.688-3.515-3.125-5.273-7.487-5.273-13.085 0-5.665 1.758-10.059 5.273-13.184 3.516-3.125 8.431-4.688 14.746-4.688 6.315 0 11.198 1.563 14.649 4.688 3.515 3.125 5.273 7.519 5.273 13.184 0 5.598-1.758 9.96-5.273 13.085-3.45 3.125-8.334 4.688-14.649 4.688z" fill="url(#paint0_linear)"/></g><defs><linearGradient id="paint0_linear" x1="25.185" y1="81.998" x2="142.191" y2="81.998" gradientUnits="userSpaceOnUse"><stop stop-color="#fff"/><stop offset="1" stop-color="#E1F4FD"/></linearGradient><filter id="filter0_d" x=".324" y=".813" width="139.121" height="185.605" filterUnits="userSpaceOnUse" color-interpolation-filters="sRGB"><feFlood flood-opacity="0" result="BackgroundImageFix"/><feColorMatrix in="SourceAlpha" values="0 0 0 0 0 0 0 0 0 0 0 0 0 0 0 0 0 0 127 0" result="hardAlpha"/><feOffset dx="10" dy="10"/><feGaussianBlur stdDeviation="10"/><feColorMatrix values="0 0 0 0 0.555208 0 0 0 0 0.752283 0 0 0 0 0.8125 0 0 0 0.5 0"/><feBlend in2="BackgroundImageFix" result="effect1_dropShadow"/><feBlend in="SourceGraphic" in2="effect1_dropShadow" result="shape"/></filter></defs></svg>