<svg width="448" height="477" fill="none" xmlns="http://www.w3.org/2000/svg"><path d="M245.088 42.308c123.488 181.672-26.806 345.305-128.54 278.829-92.329-56.189 5.009-177.889 85.861-91.732 41.696 44.431 66.739 101.384 36.604 174.794" stroke="url(#paint0_linear)" stroke-width="2" stroke-miterlimit="10" stroke-dasharray="8.16 8.16"/><circle r="5" transform="matrix(-1 0 0 1 239.001 405.308)" fill="#CAEAF4"/><circle r="5" transform="matrix(-1 0 0 1 245 42.308)" fill="#CAEAF4"/><g filter="url(#filter0_dd)"><path d="M305.818 208.792l.026-.197-5.426-.61-.024.188c-.097.744.307 2.228.971 2.303l2.928.329c.514.058 1.397-1.03 1.525-2.013z" fill="#fff"/><path d="M305.783 208.737l.026-.196-5.426-.611-.024.188c-.097.744.307 2.228.97 2.303l2.929.329c.513.066 1.397-1.031 1.525-2.013z" fill="url(#paint1_linear)"/><path opacity=".2" d="M300.349 207.81c-.052.401 1.123.863 2.624 1.034 1.501.17 2.759-.017 2.811-.417.052-.401-1.123-.864-2.624-1.034-1.5-.171-2.759.016-2.811.417z" fill="url(#paint2_radial)"/><path d="M306.373 203.766l.017-.135c.517-3.948-.265-7.276-1.735-7.441-1.478-.166-3.089 2.903-3.605 6.843l-.017.134-.64 4.887 5.34.599.64-4.887z" fill="#fff"/><path d="M306.305 203.758l.018-.134c.517-3.949-.265-7.277-1.735-7.442-1.478-.165-3.089 2.903-3.605 6.843l-.018.134-.639 4.887 5.34.599.639-4.887z" fill="url(#paint3_linear)"/><path opacity=".2" d="M303.911 206.668c-1.693 1.149-3.26 1.788-3.49 1.428-.229-.36.962-1.581 2.655-2.73 1.693-1.148 3.26-1.787 3.489-1.427.229.36-.962 1.581-2.654 2.729z" fill="url(#paint4_radial)"/><path d="M292.106 192.855l-3.799 28.907c3.817-11.684 37.68-28.926 37.68-28.926l.924-6.649c-.007-.009-36.108 16.582-34.805 6.668z" fill="#fff"/><path d="M291.864 192.825l-3.798 28.909c3.817-11.685 37.682-28.929 37.682-28.929l.968-6.541s-36.154 16.475-34.852 6.561z" fill="url(#paint5_linear)"/><mask id="a" maskUnits="userSpaceOnUse" x="288" y="186" width="39" height="36"><path d="M291.956 192.849l-3.89 28.977c3.846-11.719 37.661-29.097 37.661-29.097l.989-6.558s-36.094 16.616-34.76 6.678z" fill="url(#paint6_linear)"/></mask><g mask="url(#a)"><path opacity=".2" d="M325.534 190.639c-.244 1.865-.186 3.405.129 3.44.315.036.768-1.448 1.012-3.313.244-1.865.187-3.405-.128-3.441-.315-.035-.769 1.448-1.013 3.314z" fill="url(#paint7_radial)"/><path opacity=".2" d="M288.052 206.029c-1.329 10.185-1.152 18.584.397 18.758 1.548.174 3.881-7.942 5.211-18.128 1.33-10.186 1.152-18.584-.396-18.758-1.549-.174-3.882 7.942-5.212 18.128z" fill="url(#paint8_radial)"/></g><path d="M269.216 204.602l.026-.197 5.425.61-.025.188c-.097.743-.871 2.095-1.534 2.021l-2.929-.33c-.515-.049-1.091-1.31-.963-2.292z" fill="#fff"/><path d="M269.264 204.557l.026-.197 5.425.61-.025.188c-.097.743-.871 2.095-1.534 2.021l-2.929-.33c-.515-.049-1.091-1.31-.963-2.292z" fill="url(#paint9_linear)"/><path opacity=".2" d="M269.314 204.247c-.052.401 1.123.863 2.624 1.034 1.501.17 2.759-.017 2.811-.417.052-.401-1.123-.864-2.624-1.034-1.501-.171-2.759.016-2.811.417z" fill="url(#paint10_radial)"/><path d="M269.854 199.595l.018-.134c.516-3.948 2.127-7.008 3.604-6.843 1.478.166 2.251 3.502 1.736 7.442l-.018.134-.639 4.887-5.341-.599.64-4.887z" fill="#fff"/><path d="M269.922 199.603l.017-.134c.517-3.948 2.135-7.008 3.605-6.843 1.478.166 2.251 3.502 1.735 7.442l-.017.134-.64 4.887-5.34-.599.64-4.887z" fill="url(#paint11_linear)"/><path opacity=".2" d="M271.558 202.963c1.347 1.488 2.703 2.454 3.019 2.155.316-.299-.525-1.748-1.871-3.236-1.347-1.488-2.703-2.453-3.019-2.154-.316.299.525 1.747 1.871 3.235z" fill="url(#paint12_radial)"/><path d="M286.566 192.054l-3.798 28.907c-.681-12.186-29.099-36.384-29.099-36.384l.825-6.66c.008.001 30.769 24.051 32.072 14.137z" fill="#fff"/><path d="M286.801 192.081l-3.799 28.909c-.68-12.187-29.1-36.386-29.1-36.386l.754-6.565c.009.001 30.842 23.956 32.145 14.042z" fill="url(#paint13_linear)"/><mask id="b" maskUnits="userSpaceOnUse" x="254" y="178" width="33" height="43"><path d="M286.768 192.013l-3.89 28.976c-.634-12.208-28.873-36.37-28.873-36.37l.776-6.58c.008.001 30.653 23.911 31.987 13.974z" fill="url(#paint14_linear)"/></mask><g mask="url(#b)"><path opacity=".2" d="M281.514 205.465c-1.329 10.186-1.152 18.584.396 18.758 1.549.174 3.882-7.942 5.212-18.128 1.329-10.185 1.152-18.584-.396-18.758-1.549-.174-3.882 7.942-5.212 18.128z" fill="url(#paint15_radial)"/><path opacity=".2" d="M253.324 182.025c-.244 1.865-.186 3.406.129 3.441.315.035.768-1.448 1.012-3.313.244-1.865.187-3.406-.128-3.441-.315-.035-.768 1.448-1.013 3.313z" fill="url(#paint16_radial)"/></g><path d="M326.009 193.234c-.126-.015-.03-1.654.014-2.005.044-.35.805-5.552.938-5.537.126.015-.422 5.233-.467 5.592-.045.35-.352 1.965-.485 1.95z" fill="#fff"/><path d="M326.018 193.159c-.126-.015-.024-1.637.02-1.987.044-.351.798-5.503.923-5.488.126.015-.424 5.19-.469 5.541-.044.35-.349 1.948-.474 1.934z" fill="url(#paint17_linear)"/><path d="M253.35 184.557c.125.015.44-1.599.484-1.949.045-.351.601-5.577.468-5.592-.126-.015-.893 5.178-.938 5.537-.045.359-.14 1.99-.014 2.004z" fill="#fff"/><path d="M253.358 184.491c.125.014.43-1.584.474-1.934.045-.351.594-5.526.469-5.541-.125-.015-.879 5.137-.923 5.488-.044.35-.146 1.972-.02 1.987z" fill="url(#paint18_linear)"/><path d="M293.583 158.507c1.26 1.046 10.159-1.343 14.611-1.768l-.368 2.693s-15.357 9.336-15.948 11.524l1.705-12.449z" fill="#fff"/><path d="M293.453 158.457c1.261 1.046 10.151-1.276 14.605-1.709l-.36 2.625s-15.358 9.337-15.948 11.525l1.703-12.441z" fill="url(#paint19_linear)"/><mask id="c" maskUnits="userSpaceOnUse" x="291" y="156" width="18" height="15"><path d="M293.475 158.461c1.257 1.045 10.136-1.292 14.583-1.733l-.365 2.628s-15.349 9.371-15.943 11.562l1.725-12.457z" fill="url(#paint20_linear)"/></mask><g mask="url(#c)"><path opacity=".2" d="M297.111 162.915c0 2.662-.521 4.843-1.16 4.868-.639.024-1.161-2.107-1.161-4.77 0-2.662.521-4.843 1.16-4.868.64-.033 1.161 2.107 1.161 4.77z" fill="url(#paint21_radial)"/></g><path d="M293.369 158.51c-1.506.75-9.503-3.45-13.711-4.803l-.369 2.693s12.393 12.31 12.376 14.559l1.704-12.449z" fill="#fff"/><mask id="d" maskUnits="userSpaceOnUse" x="279" y="153" width="15" height="18"><path d="M293.364 158.494c-1.506.753-9.48-3.439-13.678-4.787l-.374 2.696s12.347 12.304 12.325 14.556l1.727-12.465z" fill="#fff"/></mask><g mask="url(#d)"><path d="M293.503 158.468c-1.506.753-9.49-3.371-13.688-4.728l-.364 2.629s12.348 12.304 12.326 14.557l1.726-12.458z" fill="url(#paint22_linear)"/><path opacity=".2" d="M288.842 162.306c-.713 2.586-.791 4.814-.177 4.974.614.16 1.692-1.799 2.405-4.385.714-2.585.792-4.814.178-4.974-.614-.16-1.692 1.8-2.406 4.385z" fill="url(#paint23_radial)"/></g><path d="M288.417 227.749l6.854-52.835c2.645-20.389-1.038-19.026-1.038-19.026s-3.229-2.144-5.874 18.245l-6.854 52.834s-.757 11.758 1.942 12.063c2.699.305 4.97-11.281 4.97-11.281z" fill="#fff"/><path d="M288.184 227.72l6.854-52.834c2.645-20.389-1.039-19.026-1.039-19.026s-3.228-2.145-5.873 18.244l-6.854 52.835s-.757 11.758 1.942 12.063c2.699.305 4.97-11.282 4.97-11.282z" fill="url(#paint24_radial)"/><path opacity=".2" d="M290.751 167.304c-.842 6.392-.849 11.65-.017 11.742.832.093 2.189-5.014 3.03-11.406.842-6.392.85-11.65.017-11.742-.832-.093-2.189 5.014-3.03 11.406z" fill="url(#paint25_radial)"/><path d="M291.515 173.188c-.341-.039-.104-4.035.008-4.903.112-.868 2.024-13.557 2.365-13.518.342.039-1.024 12.79-1.136 13.658-.111.868-.895 4.802-1.237 4.763z" fill="#fff"/><path d="M291.522 173.002c-.334-.038-.093-3.999.017-4.85.11-.86 1.997-13.416 2.33-13.378.334.038-1.022 12.663-1.132 13.514-.117.851-.888 4.752-1.215 4.714z" fill="url(#paint26_linear)"/><mask id="e" maskUnits="userSpaceOnUse" x="282" y="232" width="5" height="3"><path d="M284.078 234.351c-1.26-.142-1.795-1.264-1.721-1.834.074-.57.889-.237 1.975-.114 1.095.123 2.044.005 1.97.576-.075.57-.879 1.515-2.224 1.372z" fill="url(#paint27_radial)" opacity=".5"/></mask><g mask="url(#e)"><path opacity=".5" d="M284.071 234.362c-1.256-.135-1.781-1.265-1.702-1.841.078-.576.888-.245 1.97-.128 1.091.118 2.038-.007 1.96.569-.079.576-.888 1.536-2.228 1.4z" fill="url(#paint28_radial)"/><path opacity=".5" d="M286.541 231.993l-.137 1.011s-2.223 2.169-4.215-.455l.137-1.011s2.154 1.644 4.215.455z" fill="#fff"/><path opacity=".5" d="M286.541 231.993l-.137 1.011s-2.223 2.169-4.215-.455l.137-1.011s2.163 1.645 4.215.455z" fill="url(#paint29_linear)"/></g></g><defs><linearGradient id="paint0_linear" x1="379.216" y1="259.27" x2="82.507" y2="205.274" gradientUnits="userSpaceOnUse"><stop stop-color="#CBEAF4"/><stop offset="1" stop-color="#B0E2F2"/></linearGradient><linearGradient id="paint1_linear" x1="303.096" y1="208.236" x2="302.83" y2="210.594" gradientUnits="userSpaceOnUse"><stop stop-color="#EDF8FE"/><stop offset="1" stop-color="#fff"/></linearGradient><linearGradient id="paint3_linear" x1="304.584" y1="196.179" x2="303.217" y2="208.37" gradientUnits="userSpaceOnUse"><stop stop-color="#fff"/><stop offset="1" stop-color="#EAF7FE"/></linearGradient><linearGradient id="paint5_linear" x1="308.992" y1="191.829" x2="304.604" y2="231.126" gradientUnits="userSpaceOnUse"><stop stop-color="#EFF9FE"/><stop offset="1" stop-color="#E1F4FD"/></linearGradient><linearGradient id="paint6_linear" x1="309.031" y1="191.8" x2="304.723" y2="231.211" gradientUnits="userSpaceOnUse"><stop stop-color="#fff"/><stop offset="1" stop-color="#E1F4FD"/></linearGradient><linearGradient id="paint9_linear" x1="272.002" y1="204.666" x2="271.737" y2="207.024" gradientUnits="userSpaceOnUse"><stop stop-color="#EDF8FE"/><stop offset="1" stop-color="#fff"/></linearGradient><linearGradient id="paint11_linear" x1="273.54" y1="192.622" x2="272.173" y2="204.815" gradientUnits="userSpaceOnUse"><stop stop-color="#fff"/><stop offset="1" stop-color="#EAF7FE"/></linearGradient><linearGradient id="paint13_linear" x1="270.433" y1="187.347" x2="266.044" y2="226.644" gradientUnits="userSpaceOnUse"><stop stop-color="#EFF9FE"/><stop offset="1" stop-color="#E1F4FD"/></linearGradient><linearGradient id="paint14_linear" x1="270.471" y1="187.318" x2="266.163" y2="226.729" gradientUnits="userSpaceOnUse"><stop stop-color="#fff"/><stop offset="1" stop-color="#E1F4FD"/></linearGradient><linearGradient id="paint17_linear" x1="326.96" y1="185.681" x2="326.09" y2="193.166" gradientUnits="userSpaceOnUse"><stop stop-color="#EFF9FE"/><stop offset=".2" stop-color="#fff"/><stop offset=".404" stop-color="#fff"/><stop offset=".607" stop-color="#fff"/><stop offset=".807" stop-color="#EEF8FE"/><stop offset="1" stop-color="#EEF9FE"/></linearGradient><linearGradient id="paint18_linear" x1="254.3" y1="177.013" x2="253.43" y2="184.498" gradientUnits="userSpaceOnUse"><stop stop-color="#EFF9FE"/><stop offset=".2" stop-color="#fff"/><stop offset=".404" stop-color="#fff"/><stop offset=".607" stop-color="#fff"/><stop offset=".807" stop-color="#EEF8FE"/><stop offset="1" stop-color="#EEF9FE"/></linearGradient><linearGradient id="paint19_linear" x1="300.564" y1="159.009" x2="298.88" y2="174.725" gradientUnits="userSpaceOnUse"><stop stop-color="#EFF9FE"/><stop offset="1" stop-color="#E1F4FD"/></linearGradient><linearGradient id="paint20_linear" x1="300.573" y1="159.003" x2="298.905" y2="174.743" gradientUnits="userSpaceOnUse"><stop stop-color="#EFF9FE"/><stop offset="1" stop-color="#E1F4FD"/></linearGradient><linearGradient id="paint22_linear" x1="286.461" y1="157.514" x2="284.793" y2="173.255" gradientUnits="userSpaceOnUse"><stop stop-color="#EFF9FE"/><stop offset="1" stop-color="#E1F4FD"/></linearGradient><linearGradient id="paint26_linear" x1="293.867" y1="154.765" x2="291.785" y2="173.03" gradientUnits="userSpaceOnUse"><stop stop-color="#EFF9FE"/><stop offset=".2" stop-color="#fff"/><stop offset=".404" stop-color="#fff"/><stop offset=".607" stop-color="#fff"/><stop offset=".807" stop-color="#EEF8FE"/><stop offset="1" stop-color="#EEF9FE"/></linearGradient><linearGradient id="paint29_linear" x1="281.724" y1="230.581" x2="286.211" y2="233.623" gradientUnits="userSpaceOnUse"><stop stop-color="#828C93"/><stop offset=".083" stop-color="#89939A"/><stop offset=".222" stop-color="#9DA8AE"/><stop offset=".4" stop-color="#BFCAD0"/><stop offset=".511" stop-color="#D8E2E7"/><stop offset=".623" stop-color="#A8B3B9"/><stop offset=".754" stop-color="#798389"/><stop offset=".865" stop-color="#586066"/><stop offset=".95" stop-color="#41474C"/><stop offset="1" stop-color="#373D42"/></linearGradient><radialGradient id="paint2_radial" cx="0" cy="0" r="1" gradientUnits="userSpaceOnUse" gradientTransform="rotate(97.367 60.062 237.262) scale(.73164 2.73107)"><stop stop-color="#7CAEBE"/><stop offset="1" stop-color="#EAF7FE"/></radialGradient><radialGradient id="paint4_radial" cx="0" cy="0" r="1" gradientUnits="userSpaceOnUse" gradientTransform="matrix(-.32324 2.4611 -2.79186 -.36669 303.493 206.017)"><stop stop-color="#7CAEBE"/><stop offset="1" stop-color="#EDF8FE"/></radialGradient><radialGradient id="paint7_radial" cx="0" cy="0" r="1" gradientUnits="userSpaceOnUse" gradientTransform="matrix(-.4421 3.37735 -.56828 -.07439 326.105 190.702)"><stop stop-color="#7CAEBE"/><stop offset="1" stop-color="#EAF7FE"/></radialGradient><radialGradient id="paint8_radial" cx="0" cy="0" r="1" gradientUnits="userSpaceOnUse" gradientTransform="rotate(97.437 54.85 230.849) scale(18.6014 2.81732)"><stop stop-color="#7CAEBE"/><stop offset="1" stop-color="#EAF7FE"/></radialGradient><radialGradient id="paint10_radial" cx="0" cy="0" r="1" gradientUnits="userSpaceOnUse" gradientTransform="matrix(-.09381 .7256 -2.7085 -.35018 272.031 204.555)"><stop stop-color="#7CAEBE"/><stop offset="1" stop-color="#EAF7FE"/></radialGradient><radialGradient id="paint12_radial" cx="0" cy="0" r="1" gradientUnits="userSpaceOnUse" gradientTransform="matrix(-.32324 2.4611 -2.79186 -.36669 272.132 202.422)"><stop stop-color="#7CAEBE"/><stop offset="1" stop-color="#EDF8FE"/></radialGradient><radialGradient id="paint15_radial" cx="0" cy="0" r="1" gradientUnits="userSpaceOnUse" gradientTransform="matrix(-2.40779 18.4449 -2.7936 -.36468 284.318 205.778)"><stop stop-color="#7CAEBE"/><stop offset="1" stop-color="#EAF7FE"/></radialGradient><radialGradient id="paint16_radial" cx="0" cy="0" r="1" gradientUnits="userSpaceOnUse" gradientTransform="rotate(97.458 47.044 202.457) scale(3.40617 .57312)"><stop stop-color="#7CAEBE"/><stop offset="1" stop-color="#EAF7FE"/></radialGradient><radialGradient id="paint21_radial" cx="0" cy="0" r="1" gradientUnits="userSpaceOnUse" gradientTransform="matrix(-.64607 4.7529 -1.30124 -.17688 295.95 162.963)"><stop stop-color="#7CAEBE"/><stop offset="1" stop-color="#EAF7FE"/></radialGradient><radialGradient id="paint23_radial" cx="0" cy="0" r="1" gradientUnits="userSpaceOnUse" gradientTransform="matrix(-.64602 4.75265 -1.30123 -.17688 289.956 162.6)"><stop stop-color="#7CAEBE"/><stop offset="1" stop-color="#EAF7FE"/></radialGradient><radialGradient id="paint24_radial" cx="0" cy="0" r="1" gradientUnits="userSpaceOnUse" gradientTransform="rotate(97.391 65.616 218.145) scale(60.7325 3.80362)"><stop stop-color="#fff"/><stop offset="1" stop-color="#E1F4FD"/></radialGradient><radialGradient id="paint25_radial" cx="0" cy="0" r="1" gradientUnits="userSpaceOnUse" gradientTransform="rotate(97.5 72.695 211.887) scale(11.6754 1.51376)"><stop stop-color="#7CAEBE"/><stop offset="1" stop-color="#EAF7FE"/></radialGradient><radialGradient id="paint27_radial" cx="0" cy="0" r="1" gradientUnits="userSpaceOnUse" gradientTransform="rotate(97.418 39.723 241.437) scale(1.02727 1.95266)"><stop stop-color="#fff"/><stop offset=".12" stop-color="#FBFBFB"/><stop offset=".245" stop-color="#EEE"/><stop offset=".372" stop-color="#DADADA"/><stop offset=".501" stop-color="#BCBCBC"/><stop offset=".63" stop-color="#979797"/><stop offset=".761" stop-color="#696969"/><stop offset=".89" stop-color="#343434"/><stop offset="1"/></radialGradient><radialGradient id="paint28_radial" cx="0" cy="0" r="1" gradientUnits="userSpaceOnUse" gradientTransform="rotate(97.751 40.252 240.77) scale(1.01888 1.97425)"><stop stop-color="#7CAEBE"/><stop offset="1" stop-color="#EAF7FE"/></radialGradient><filter id="filter0_dd" x="248.287" y="147.707" width="93.692" height="105.329" filterUnits="userSpaceOnUse" color-interpolation-filters="sRGB"><feFlood flood-opacity="0" result="BackgroundImageFix"/><feColorMatrix in="SourceAlpha" values="0 0 0 0 0 0 0 0 0 0 0 0 0 0 0 0 0 0 127 0" result="hardAlpha"/><feOffset dx="3"/><feGaussianBlur stdDeviation="1.5"/><feColorMatrix values="0 0 0 0 0.555208 0 0 0 0 0.752283 0 0 0 0 0.8125 0 0 0 0.4 0"/><feBlend in2="BackgroundImageFix" result="effect1_dropShadow"/><feColorMatrix in="SourceAlpha" values="0 0 0 0 0 0 0 0 0 0 0 0 0 0 0 0 0 0 127 0" result="hardAlpha"/><feOffset dx="5" dy="4"/><feGaussianBlur stdDeviation="5"/><feColorMatrix values="0 0 0 0 0.556863 0 0 0 0 0.752941 0 0 0 0 0.811765 0 0 0 0.5 0"/><feBlend in2="effect1_dropShadow" result="effect2_dropShadow"/><feBlend in="SourceGraphic" in2="effect2_dropShadow" result="shape"/></filter></defs></svg>