<svg width="160" height="185" fill="none" xmlns="http://www.w3.org/2000/svg"><g filter="url(#filter0_d)"><path d="M135.809 47.867c-.18-3.972-.18-7.764-.18-11.556 0-3.07-2.346-5.417-5.413-5.417-22.557 0-39.7-6.5-53.955-20.404a5.565 5.565 0 00-7.579 0C54.427 24.393 37.284 30.894 14.728 30.894c-3.068 0-5.414 2.347-5.414 5.417 0 3.792 0 7.584-.18 11.556-.722 37.92-1.805 89.923 61.533 111.772l1.805.361 1.804-.361c63.158-21.849 62.255-73.672 61.533-111.772z" fill="url(#paint0_linear)"/></g><path d="M68.14 100.413c-1.082.902-2.345 1.444-3.789 1.444h-.18c-1.444 0-2.887-.722-3.79-1.805L43.6 81.453l8.12-7.223 13.173 14.626L94.126 61.05l7.398 7.945-33.383 31.419z" fill="#CAEAF4"/><defs><linearGradient id="paint0_linear" x1="33.05" y1="84.49" x2="160.057" y2="84.49" gradientUnits="userSpaceOnUse"><stop stop-color="#fff"/><stop offset="1" stop-color="#E1F4FD"/></linearGradient><filter id="filter0_d" x=".961" y=".992" width="159.032" height="183.032" filterUnits="userSpaceOnUse" color-interpolation-filters="sRGB"><feFlood flood-opacity="0" result="BackgroundImageFix"/><feColorMatrix in="SourceAlpha" values="0 0 0 0 0 0 0 0 0 0 0 0 0 0 0 0 0 0 127 0" result="hardAlpha"/><feOffset dx="8.008" dy="8.008"/><feGaussianBlur stdDeviation="8.008"/><feColorMatrix values="0 0 0 0 0.555208 0 0 0 0 0.752283 0 0 0 0 0.8125 0 0 0 0.5 0"/><feBlend in2="BackgroundImageFix" result="effect1_dropShadow"/><feBlend in="SourceGraphic" in2="effect1_dropShadow" result="shape"/></filter></defs></svg>