<svg width="178" height="179" fill="none" xmlns="http://www.w3.org/2000/svg"><g filter="url(#filter0_d)"><circle cx="81.469" cy="81.5" r="72.5" fill="url(#paint0_linear)"/></g><path d="M54.206 57.253c8.324 0 15.079 6.755 15.079 15.079 0 2.473-2.05 4.524-4.524 4.524-2.473 0-4.523-2.051-4.523-4.524 0-3.317-2.715-6.032-6.032-6.032s-6.032 2.715-6.032 6.032c0 2.473-2.05 4.524-4.523 4.524s-4.524-2.051-4.524-4.524c0-8.324 6.755-15.08 15.079-15.08zm-7.72 45.901a4.625 4.625 0 010-6.454c1.749-1.75 4.644-1.75 6.393 0 1.146 1.146 2.413 2.292 3.68 3.257 7.056 5.609 15.681 8.565 24.79 8.565 9.107 0 17.732-2.956 24.789-8.565 1.267-.965 2.533-2.111 3.679-3.257 1.75-1.75 4.645-1.75 6.394 0a4.626 4.626 0 010 6.454c-9.289 9.288-21.714 14.415-34.863 14.415-13.149 0-25.574-5.127-34.862-14.415zm72.56-26.298c-2.473 0-4.524-2.051-4.524-4.524 0-3.317-2.714-6.032-6.031-6.032-3.318 0-6.032 2.715-6.032 6.032 0 2.473-2.051 4.524-4.524 4.524s-4.523-2.051-4.523-4.524c0-8.324 6.755-15.08 15.079-15.08 8.323 0 15.079 6.756 15.079 15.08 0 2.473-2.051 4.524-4.524 4.524z" fill="#4CD964"/><defs><linearGradient id="paint0_linear" x1="36.463" y1="81.49" x2="181.471" y2="81.49" gradientUnits="userSpaceOnUse"><stop stop-color="#fff"/><stop offset="1" stop-color="#E1F4FD"/></linearGradient><filter id="filter0_d" x=".961" y=".992" width="177.032" height="177.032" filterUnits="userSpaceOnUse" color-interpolation-filters="sRGB"><feFlood flood-opacity="0" result="BackgroundImageFix"/><feColorMatrix in="SourceAlpha" values="0 0 0 0 0 0 0 0 0 0 0 0 0 0 0 0 0 0 127 0" result="hardAlpha"/><feOffset dx="8.008" dy="8.008"/><feGaussianBlur stdDeviation="8.008"/><feColorMatrix values="0 0 0 0 0.466667 0 0 0 0 0.756863 0 0 0 0 0.498039 0 0 0 0.5 0"/><feBlend in2="BackgroundImageFix" result="effect1_dropShadow"/><feBlend in="SourceGraphic" in2="effect1_dropShadow" result="shape"/></filter></defs></svg>