<?xml version="1.0" encoding="utf-8"?><svg viewBox="0 0 512 284" xmlns="http://www.w3.org/2000/svg" xmlns:xlink="http://www.w3.org/1999/xlink"><style>:root>svg{display:none}:root>svg:target{display:block}</style><svg fill="none" viewBox="0 0 16 10" id="arr-down" xmlns="http://www.w3.org/2000/svg"><path fill-rule="evenodd" clip-rule="evenodd" d="M8 9.524l8-8L14.476 0 8 6.476 1.524 0 0 1.524l8 8z" fill="#000"/></svg><svg fill="none" viewBox="0 0 22 22" id="calendar" xmlns="http://www.w3.org/2000/svg"><path fill-rule="evenodd" clip-rule="evenodd" d="M0 2a2 2 0 012-2h18a2 2 0 012 2v17.5a2 2 0 01-2 2H2a2 2 0 01-2-2V2zm1 4a1 1 0 011-1h18a1 1 0 011 1v13.5a1 1 0 01-1 1H2a1 1 0 01-1-1V6zm18 2.25a.75.75 0 11-1.5 0 .75.75 0 011.5 0zM11.25 9a.75.75 0 100-1.5.75.75 0 000 1.5zm.75 3.75a.75.75 0 11-1.5 0 .75.75 0 011.5 0zm-4.25.75a.75.75 0 100-1.5.75.75 0 000 1.5zM5 12.75a.75.75 0 11-1.5 0 .75.75 0 011.5 0zm13.25.75a.75.75 0 100-1.5.75.75 0 000 1.5zm-2.75 3.75a.75.75 0 11-1.5 0 .75.75 0 011.5 0zM7.75 18a.75.75 0 100-1.5.75.75 0 000 1.5zm4.25-.75a.75.75 0 11-1.5 0 .75.75 0 011.5 0zM4.25 18a.75.75 0 100-1.5.75.75 0 000 1.5zm12.25-5.25a1.75 1.75 0 11-3.5 0 1.75 1.75 0 013.5 0zM14.75 9a.75.75 0 100-1.5.75.75 0 000 1.5zM8.5 8.25a.75.75 0 11-1.5 0 .75.75 0 011.5 0z" fill="#858E98"/></svg><svg fill="none" viewBox="0 0 32 32" id="call-me" xmlns="http://www.w3.org/2000/svg"><path d="M16 0C7.164 0 0 7.164 0 16s7.164 16 16 16 16-7.164 16-16S24.836 0 16 0z" fill="#007AFF"/><path d="M22.38 21.181c-.182.4-.592.747-1.23 1.042-.638.295-1.204.443-1.7.443-.138 0-.286-.01-.442-.032a7.098 7.098 0 01-.397-.066 7.005 7.005 0 01-.814-.247 48.676 48.676 0 00-.82-.306c-1.423-.52-2.815-1.46-4.173-2.819-1.359-1.359-2.298-2.75-2.82-4.173a42.79 42.79 0 00-.306-.82 7.425 7.425 0 01-.246-.814 6.855 6.855 0 01-.066-.397 3.227 3.227 0 01-.032-.443c0-.494.148-1.06.443-1.699.295-.638.642-1.048 1.042-1.23a3.43 3.43 0 011.315-.287c.095 0 .165.009.208.026.043.018.115.096.215.235.1.139.208.314.325.527.117.213.233.419.345.619a27.39 27.39 0 01.521.963c.026.044.083.126.17.248.086.121.152.23.195.325a.663.663 0 01.065.274c0 .13-.09.288-.267.475a4.447 4.447 0 01-.586.514 5.075 5.075 0 00-.586.502c-.178.177-.267.323-.267.436 0 .06.015.132.046.214a2.003 2.003 0 00.208.424c.056.095.093.156.11.182.478.86 1.027 1.6 1.648 2.22.62.621 1.36 1.17 2.22 1.648.026.017.087.054.183.11a1.978 1.978 0 00.423.208.64.64 0 00.215.046c.138 0 .33-.143.573-.43.243-.286.49-.57.742-.853.252-.282.455-.423.612-.423.087 0 .178.022.273.065a2 2 0 01.326.196c.122.087.204.143.247.17l.69.377c.46.243.844.457 1.152.644.309.187.476.315.502.384a.609.609 0 01.026.209c0 .416-.096.854-.287 1.313z" fill="#fff"/></svg><svg fill="none" viewBox="0 0 30 30" id="call-me-footer" xmlns="http://www.w3.org/2000/svg"><path clip-rule="evenodd" d="M15 29c7.732 0 14-6.268 14-14S22.732 1 15 1 1 7.268 1 15s6.268 14 14 14z" stroke="#fff"/><path fill-rule="evenodd" clip-rule="evenodd" d="M12.539 17.366s4.821 4.461 7.538 3.055c0 0 .751-.624.824-1.237.073-.612-.551-1.023-.792-1.163-.577-.336-1.171-.649-1.76-.967-.186-.101-.388-.215-.608-.16a2.071 2.071 0 00-.375.125c-.414.198-.754.384-1.203.57 0 0-.459-.136-2.17-1.715-1.817-1.678-1.571-2.302-1.571-2.302.236-.305.451-.625.63-.963.078-.145.184-.285.228-.444.046-.159-.048-.272-.126-.412-.175-.312-.36-.619-.554-.922-.333-.523-.673-1.069-1.098-1.536-.045-.049-.149-.195-.235-.19-.944.059-1.875.92-1.875.92-1.462 2.438 3.147 7.34 3.147 7.34z" fill="#fff"/></svg><svg fill="none" viewBox="0 0 37 37" id="call-me-menu" xmlns="http://www.w3.org/2000/svg"><path clip-rule="evenodd" d="M18.5 36C28.165 36 36 28.165 36 18.5S28.165 1 18.5 1 1 8.835 1 18.5 8.835 36 18.5 36z" stroke="#000"/><path fill-rule="evenodd" clip-rule="evenodd" d="M15.424 21.457s6.026 5.577 9.423 3.819c0 0 .938-.78 1.03-1.546.09-.765-.69-1.28-.99-1.454-.723-.42-1.465-.81-2.2-1.209-.234-.126-.486-.268-.76-.199a2.578 2.578 0 00-.469.156c-.518.247-.943.48-1.505.712 0 0-.573-.17-2.711-2.144-2.272-2.097-1.965-2.877-1.965-2.877a8.48 8.48 0 00.789-1.204c.096-.181.228-.357.284-.554.057-.2-.06-.341-.158-.516-.218-.39-.45-.773-.692-1.152-.416-.654-.841-1.336-1.372-1.92-.056-.062-.187-.244-.294-.237-1.18.072-2.344 1.15-2.344 1.15-1.828 3.046 3.934 9.175 3.934 9.175z" fill="#000"/></svg><svg fill="none" viewBox="0 0 80 81" id="check-icon" xmlns="http://www.w3.org/2000/svg"><g filter="url(#ffilter0_d)"><path d="M35 10.765c-13.806 0-25 11.194-25 25 0 13.807 11.194 25 25 25s25-11.193 25-25c0-13.806-11.194-25-25-25z" fill="url(#fpaint0_linear)"/></g><path d="M33.135 42.493L27 36.357 29.357 34l3.777 3.78 8.014-8.015 2.357 2.357-10.37 10.37z" fill="#2BB943"/><defs><linearGradient id="fpaint0_linear" x1="19.481" y1="35.762" x2="69.483" y2="35.762" gradientUnits="userSpaceOnUse"><stop stop-color="#fff"/><stop offset="1" stop-color="#E1F4FD"/></linearGradient><filter id="ffilter0_d" x="0" y=".766" width="80" height="80" filterUnits="userSpaceOnUse" color-interpolation-filters="sRGB"><feFlood flood-opacity="0" result="BackgroundImageFix"/><feColorMatrix in="SourceAlpha" values="0 0 0 0 0 0 0 0 0 0 0 0 0 0 0 0 0 0 127 0" result="hardAlpha"/><feOffset dx="5" dy="5"/><feGaussianBlur stdDeviation="7.5"/><feColorMatrix values="0 0 0 0 0.555208 0 0 0 0 0.752283 0 0 0 0 0.8125 0 0 0 0.2 0"/><feBlend in2="BackgroundImageFix" result="effect1_dropShadow"/><feBlend in="SourceGraphic" in2="effect1_dropShadow" result="shape"/></filter></defs></svg><svg fill="none" viewBox="0 0 80 81" id="check-icon-green" xmlns="http://www.w3.org/2000/svg"><g filter="url(#gfilter0_d)"><path d="M35 10.999c-13.806 0-25 11.193-25 25 0 13.806 11.194 25 25 25s25-11.194 25-25c0-13.807-11.194-25-25-25z" fill="#4CD964"/></g><path d="M33.135 42.726L27 36.59l2.357-2.356 3.777 3.779 8.014-8.014 2.357 2.356-10.37 10.371z" fill="#fff"/><defs><filter id="gfilter0_d" x="0" y=".999" width="80" height="80" filterUnits="userSpaceOnUse" color-interpolation-filters="sRGB"><feFlood flood-opacity="0" result="BackgroundImageFix"/><feColorMatrix in="SourceAlpha" values="0 0 0 0 0 0 0 0 0 0 0 0 0 0 0 0 0 0 127 0" result="hardAlpha"/><feOffset dx="5" dy="5"/><feGaussianBlur stdDeviation="7.5"/><feColorMatrix values="0 0 0 0 0.555208 0 0 0 0 0.752283 0 0 0 0 0.8125 0 0 0 0.2 0"/><feBlend in2="BackgroundImageFix" result="effect1_dropShadow"/><feBlend in="SourceGraphic" in2="effect1_dropShadow" result="shape"/></filter></defs></svg><svg fill="none" viewBox="0 0 32 32" id="complete" xmlns="http://www.w3.org/2000/svg"><path d="M16 0C7.164 0 0 7.164 0 16s7.164 16 16 16 16-7.164 16-16S24.836 0 16 0zm-2.48 23.383L6.158 16.02l2.828-2.828 4.533 4.535 9.617-9.617 2.828 2.828L13.52 23.383z" fill="#fff"/></svg><svg fill="none" viewBox="0 0 28 28" id="facebook" xmlns="http://www.w3.org/2000/svg"><path fill-rule="evenodd" clip-rule="evenodd" d="M14 28c7.732 0 14-6.268 14-14S21.732 0 14 0 0 6.268 0 14s6.268 14 14 14z" fill="#3A5898"/><path d="M16.754 14.625l.383-2.516h-2.434v-1.64c0-.711.328-1.367 1.422-1.367h1.121v-2.16s-1.012-.192-1.969-.192c-1.996 0-3.308 1.23-3.308 3.418v1.941H9.727v2.516h2.242v6.125h2.734v-6.125h2.05z" fill="#fff"/></svg><svg fill="none" viewBox="0 0 512 284" id="favicon" xmlns="http://www.w3.org/2000/svg"><ellipse cx="369.778" cy="141.86" rx="142.222" ry="141.86" fill="#4CD964"/><ellipse cx="142.222" cy="141.86" rx="142.222" ry="141.86" fill="#007AFF"/><path d="M205.006 84.913c-6.095-6.08-21.333 0-30.476 9.12l-15.238 15.199-63.333-15.105c-.953-.284-2.095.096-2.857.76l-12.19 12.16c-.667.665-.953 1.71-.858 2.565.19.95.762 1.805 1.62 2.28l48.38 26.503-24.667 24.604-18.476-5.035c-.19-.095-.476-.095-.762-.095-.761 0-1.619.285-2.19.855l-9.143 9.215c-.571.665-.952 1.52-.857 2.375.095.855.476 1.71 1.238 2.185l24 17.954 18 23.939c.571.76 1.333 1.14 2.286 1.235h.19c.762 0 1.619-.285 2.191-.855l9.143-9.12c.761-.855 1.047-1.9.761-2.945l-5.047-18.429 24.666-24.604 26.572 48.258c.381.855 1.143 1.33 2 1.52.286.095.476.095.667.095.666 0 1.333-.19 1.809-.57l12.191-9.12c.952-.759 1.428-1.994 1.142-3.134l-15.238-66.117 15.334-15.294c9.143-9.12 15.238-24.32 9.142-30.399zM362.551 215.627c-1.138 0-2.162-.397-3.072-1.192-.796-.794-1.195-1.815-1.195-3.064v-11.916c-8.533-1.021-15.815-3.121-21.845-6.299-5.916-3.291-10.411-7.32-13.483-12.086-2.958-4.767-4.551-9.817-4.778-15.151 0-1.021.341-1.872 1.024-2.553.796-.681 1.706-1.022 2.73-1.022h22.699c1.479 0 2.617.227 3.413.681.797.454 1.707 1.249 2.731 2.384 3.527 6.241 10.012 9.362 19.456 9.362 6.144 0 10.866-.908 14.165-2.723 3.414-1.93 5.12-4.54 5.12-7.831 0-2.383-.91-4.313-2.73-5.788-1.707-1.589-4.438-2.951-8.192-4.086-3.641-1.248-9.046-2.61-16.214-4.085-13.767-2.724-24.064-6.866-30.89-12.427-6.827-5.561-10.24-13.505-10.24-23.832 0-9.193 3.299-16.967 9.898-23.322 6.599-6.469 15.645-10.498 27.136-12.087V66.674c0-1.248.399-2.27 1.195-3.064.91-.794 1.934-1.192 3.072-1.192h14.848c1.252 0 2.276.398 3.072 1.192.796.794 1.195 1.816 1.195 3.064v12.257c7.509 1.362 13.994 3.802 19.456 7.32 5.461 3.404 9.614 7.376 12.458 11.916 2.959 4.426 4.551 8.739 4.779 12.938 0 1.021-.341 1.929-1.024 2.723-.683.681-1.536 1.022-2.56 1.022h-23.893c-2.617 0-4.551-1.022-5.803-3.064-.683-2.384-2.503-4.37-5.461-5.959-2.845-1.702-6.315-2.553-10.411-2.553-4.779 0-8.476.851-11.093 2.553-2.617 1.703-3.926 4.199-3.926 7.491 0 3.291 1.707 5.901 5.12 7.83 3.414 1.816 9.728 3.689 18.944 5.618 10.695 1.929 19.229 4.369 25.6 7.32 6.372 2.837 11.037 6.582 13.995 11.235 2.958 4.54 4.437 10.328 4.437 17.364 0 9.987-3.697 18.215-11.093 24.683-7.282 6.469-17.124 10.498-29.525 12.087v11.916c0 1.249-.399 2.27-1.195 3.064-.796.795-1.82 1.192-3.072 1.192h-14.848z" fill="#fff"/></svg><svg fill="none" viewBox="0 0 28 28" id="instagram" xmlns="http://www.w3.org/2000/svg"><path fill-rule="evenodd" clip-rule="evenodd" d="M14 28c7.732 0 14-6.268 14-14S21.732 0 14 0 0 6.268 0 14s6.268 14 14 14z" fill="url(#kpaint0_linear)"/><path d="M14 10.406c-2 0-3.594 1.625-3.594 3.594 0 2 1.594 3.594 3.594 3.594A3.594 3.594 0 0017.594 14c0-1.969-1.625-3.594-3.594-3.594zm0 5.938A2.34 2.34 0 0111.656 14c0-1.281 1.031-2.313 2.344-2.313A2.307 2.307 0 0116.313 14c0 1.313-1.032 2.344-2.313 2.344zm4.563-6.063a.84.84 0 00-.844-.844.84.84 0 00-.844.844.84.84 0 00.844.844.84.84 0 00.843-.844zm2.375.844C20.875 10 20.625 9 19.813 8.187 19 7.375 18 7.125 16.875 7.063 15.719 7 12.25 7 11.094 7.063 9.969 7.125 9 7.375 8.156 8.188 7.344 9 7.094 10 7.031 11.124c-.062 1.156-.062 4.625 0 5.781.063 1.125.313 2.094 1.125 2.938.844.812 1.813 1.062 2.938 1.125 1.156.062 4.625.062 5.781 0 1.125-.063 2.125-.313 2.938-1.125.812-.844 1.062-1.813 1.125-2.938.062-1.156.062-4.625 0-5.781zm-1.5 7c-.22.625-.72 1.094-1.313 1.344-.938.375-3.125.281-4.125.281-1.031 0-3.219.094-4.125-.281a2.37 2.37 0 01-1.344-1.344c-.375-.906-.281-3.094-.281-4.125 0-1-.094-3.188.281-4.125a2.41 2.41 0 011.344-1.313c.906-.374 3.094-.28 4.125-.28 1 0 3.188-.095 4.125.28.594.22 1.063.72 1.313 1.313.375.938.28 3.125.28 4.125 0 1.031.095 3.219-.28 4.125z" fill="#fff"/><defs><linearGradient id="kpaint0_linear" x1="14" y1="0" x2="14" y2="28" gradientUnits="userSpaceOnUse"><stop stop-color="#A036B5"/><stop offset="1" stop-color="#F55F36"/></linearGradient></defs></svg><svg fill="none" viewBox="0 0 45 25" id="logo" xmlns="http://www.w3.org/2000/svg"><circle cx="32.5" cy="12.5" r="12.5" fill="#4CD964"/><circle cx="12.5" cy="12.5" fill="#007AFF" r="12.5"/><path d="M18.018 7.482c-.536-.536-1.875 0-2.678.804L14 9.625l-5.566-1.33c-.084-.026-.184.007-.251.066L7.11 9.432a.288.288 0 00-.075.226.294.294 0 00.142.201l4.253 2.336-2.168 2.168-1.624-.444c-.017-.008-.042-.008-.067-.008a.28.28 0 00-.193.075l-.803.812a.282.282 0 00-.076.21c.009.075.042.15.11.192l2.109 1.582 1.582 2.11c.05.066.117.1.2.108h.017a.28.28 0 00.193-.075l.803-.804c.067-.075.092-.167.067-.26l-.443-1.623 2.168-2.168 2.335 4.252a.24.24 0 00.176.134.257.257 0 00.218-.042l1.07-.803a.275.275 0 00.101-.277l-1.34-5.826 1.349-1.347c.803-.804 1.339-2.143.803-2.679zM31.865 19a.4.4 0 01-.27-.105.365.365 0 01-.105-.27v-1.05c-.75-.09-1.39-.275-1.92-.555-.52-.29-.915-.645-1.185-1.065-.26-.42-.4-.865-.42-1.335 0-.09.03-.165.09-.225.07-.06.15-.09.24-.09h1.995c.13 0 .23.02.3.06.07.04.15.11.24.21.31.55.88.825 1.71.825.54 0 .955-.08 1.245-.24.3-.17.45-.4.45-.69 0-.21-.08-.38-.24-.51-.15-.14-.39-.26-.72-.36-.32-.11-.795-.23-1.425-.36-1.21-.24-2.115-.605-2.715-1.095-.6-.49-.9-1.19-.9-2.1 0-.81.29-1.495.87-2.055.58-.57 1.375-.925 2.385-1.065v-1.05c0-.11.035-.2.105-.27a.4.4 0 01.27-.105h1.305c.11 0 .2.035.27.105.07.07.105.16.105.27v1.08c.66.12 1.23.335 1.71.645.48.3.845.65 1.095 1.05.26.39.4.77.42 1.14 0 .09-.03.17-.09.24a.305.305 0 01-.225.09h-2.1c-.23 0-.4-.09-.51-.27-.06-.21-.22-.385-.48-.525-.25-.15-.555-.225-.915-.225-.42 0-.745.075-.975.225-.23.15-.345.37-.345.66 0 .29.15.52.45.69.3.16.855.325 1.665.495.94.17 1.69.385 2.25.645.56.25.97.58 1.23.99.26.4.39.91.39 1.53 0 .88-.325 1.605-.975 2.175-.64.57-1.505.925-2.595 1.065v1.05c0 .11-.035.2-.105.27a.365.365 0 01-.27.105h-1.305z" fill="#fff"/></svg><svg fill="none" viewBox="0 0 50 11" id="logo-creator" xmlns="http://www.w3.org/2000/svg"><path d="M4.063 0h2.4l3.994 10.457H7.872L7.087 8.31H3.393l-.808 2.147H0l1.593-4.201h4.87L4.064 0zM13.943 0h2.401l2.84 6.487L22.045 0h2.378v10.457h-2.332v-5.24l-2.331 5.24h-1.132l-2.331-5.24v5.263h-2.355V0zM28.394 4.201h8.148V6.28h-8.148V4.2zm0-1.962V0h8.148v2.24h-8.148zm8.125 6.002v2.24h-8.125V8.24M40.697 0h2.678l3.924 6.233V0H50v10.457h-2.654l-3.948-6.233v6.233h-2.7V0z" fill="#fff"/></svg><svg fill="none" viewBox="0 0 156 30" id="logo-footer" xmlns="http://www.w3.org/2000/svg"><path d="M62.038 23V10.174h-4.533V7.499h12.321v2.675h-4.544V23h-3.244zm12.644.204c-1.798 0-3.22-.544-4.265-1.633-1.046-1.088-1.568-2.585-1.568-4.49 0-1.883.526-3.377 1.579-4.48 1.053-1.088 2.47-1.632 4.254-1.632 1.79 0 3.208.544 4.254 1.633 1.052 1.095 1.579 2.588 1.579 4.48 0 1.911-.523 3.412-1.569 4.5-1.038 1.081-2.46 1.622-4.264 1.622zm0-2.417c.83 0 1.478-.322 1.944-.967.465-.651.698-1.564.698-2.739 0-1.16-.236-2.07-.709-2.729-.465-.651-1.11-.977-1.933-.977-.831 0-1.48.326-1.945.977-.472.66-.709 1.569-.709 2.73 0 1.174.237 2.087.71 2.738.465.645 1.113.967 1.944.967zm12.912 2.417c-1.798 0-3.22-.544-4.265-1.633-1.045-1.088-1.568-2.585-1.568-4.49 0-1.883.526-3.377 1.579-4.48 1.053-1.088 2.47-1.632 4.254-1.632 1.79 0 3.208.544 4.254 1.633 1.052 1.095 1.579 2.588 1.579 4.48 0 1.911-.523 3.412-1.569 4.5-1.038 1.081-2.46 1.622-4.264 1.622zm0-2.417c.83 0 1.479-.322 1.944-.967.466-.651.698-1.564.698-2.739 0-1.16-.236-2.07-.709-2.729-.465-.651-1.11-.977-1.933-.977-.831 0-1.48.326-1.945.977-.472.66-.709 1.569-.709 2.73 0 1.174.237 2.087.71 2.738.465.645 1.113.967 1.944.967zm14.878-9.614h3.566l-4.555 5.08 4.77 6.747h-3.609l-3.46-4.855-.848.913V23h-3.137V6.758h3.137v9.195h.043l4.093-4.78zM110.808 23V10.174h-4.534V7.499h12.322v2.675h-4.544V23h-3.244zm12.643.204c-1.797 0-3.219-.544-4.264-1.633-1.046-1.088-1.569-2.585-1.569-4.49 0-1.883.527-3.377 1.579-4.48 1.053-1.088 2.471-1.632 4.254-1.632 1.791 0 3.209.544 4.254 1.633 1.053 1.095 1.579 2.588 1.579 4.48 0 1.911-.523 3.412-1.568 4.5-1.039 1.081-2.46 1.622-4.265 1.622zm0-2.417c.831 0 1.479-.322 1.945-.967.465-.651.698-1.564.698-2.739 0-1.16-.237-2.07-.709-2.729-.466-.651-1.11-.977-1.934-.977-.831 0-1.479.326-1.944.977-.473.66-.709 1.569-.709 2.73 0 1.174.236 2.087.709 2.738.465.645 1.113.967 1.944.967zm12.912 2.417c-1.797 0-3.219-.544-4.264-1.633-1.046-1.088-1.569-2.585-1.569-4.49 0-1.883.527-3.377 1.579-4.48 1.053-1.088 2.471-1.632 4.254-1.632 1.791 0 3.209.544 4.254 1.633 1.053 1.095 1.579 2.588 1.579 4.48 0 1.911-.522 3.412-1.568 4.5-1.038 1.081-2.46 1.622-4.265 1.622zm0-2.417c.831 0 1.479-.322 1.945-.967.465-.651.698-1.564.698-2.739 0-1.16-.236-2.07-.709-2.729-.466-.651-1.11-.977-1.934-.977-.83 0-1.479.326-1.944.977-.473.66-.709 1.569-.709 2.73 0 1.174.236 2.087.709 2.738.465.645 1.114.967 1.944.967zm14.878-9.614h3.567l-4.555 5.08L155.022 23h-3.609l-3.459-4.855-.849.913V23h-3.136V6.758h3.136v9.195h.043l4.093-4.78z" fill="#fff"/><circle r="12.5" transform="matrix(-1 0 0 1 12.5 15.5)" fill="#fff"/><circle transform="matrix(-1 0 0 1 32.5 15.5)" fill="#000" r="12.5"/><path d="M20 15.5C20 22.404 25.596 28 32.5 28S45 22.404 45 15.5 39.404 3 32.5 3 20 8.596 20 15.5zm22.502 0c0 5.524-4.478 10.002-10.002 10.002-5.524 0-10.002-4.478-10.002-10.002 0-5.524 4.478-10.002 10.002-10.002 5.524 0 10.002 4.478 10.002 10.002z" fill="#fff"/><path d="M18.018 10.482c-.536-.535-1.875 0-2.678.804L14 12.626l-5.566-1.332c-.084-.025-.184.009-.251.067L7.11 12.433a.288.288 0 00-.075.226.294.294 0 00.142.2l4.253 2.336-2.168 2.168-1.624-.444c-.017-.008-.042-.008-.067-.008a.28.28 0 00-.193.075l-.803.812a.283.283 0 00-.076.21c.009.075.042.15.11.192l2.109 1.582 1.582 2.11c.05.066.117.1.2.108h.017a.28.28 0 00.193-.075l.803-.804a.274.274 0 00.067-.26l-.443-1.623 2.168-2.168 2.335 4.252a.24.24 0 00.176.134.258.258 0 00.218-.042l1.07-.803a.275.275 0 00.101-.277l-1.34-5.825 1.349-1.348c.803-.804 1.339-2.143.803-2.679z" fill="#000"/><path d="M31.865 22a.4.4 0 01-.27-.105.365.365 0 01-.105-.27v-1.05c-.75-.09-1.39-.275-1.92-.555-.52-.29-.915-.645-1.185-1.065-.26-.42-.4-.865-.42-1.335 0-.09.03-.165.09-.225.07-.06.15-.09.24-.09h1.995c.13 0 .23.02.3.06.07.04.15.11.24.21.31.55.88.825 1.71.825.54 0 .955-.08 1.245-.24.3-.17.45-.4.45-.69 0-.21-.08-.38-.24-.51-.15-.14-.39-.26-.72-.36-.32-.11-.795-.23-1.425-.36-1.21-.24-2.115-.605-2.715-1.095-.6-.49-.9-1.19-.9-2.1 0-.81.29-1.495.87-2.055.58-.57 1.375-.925 2.385-1.065v-1.05c0-.11.035-.2.105-.27a.4.4 0 01.27-.105h1.305c.11 0 .2.035.27.105.07.07.105.16.105.27v1.08c.66.12 1.23.335 1.71.645.48.3.845.65 1.095 1.05.26.39.4.77.42 1.14 0 .09-.03.17-.09.24a.305.305 0 01-.225.09h-2.1c-.23 0-.4-.09-.51-.27-.06-.21-.22-.385-.48-.525-.25-.15-.555-.225-.915-.225-.42 0-.745.075-.975.225-.23.15-.345.37-.345.66 0 .29.15.52.45.69.3.16.855.325 1.665.495.94.17 1.69.385 2.25.645.56.25.97.58 1.23.99.26.4.39.91.39 1.53 0 .88-.325 1.605-.975 2.175-.64.57-1.505.925-2.595 1.065v1.05c0 .11-.035.2-.105.27a.365.365 0 01-.27.105h-1.305z" fill="#fff"/></svg><svg fill="none" viewBox="0 0 30 30" id="mail" xmlns="http://www.w3.org/2000/svg"><path clip-rule="evenodd" d="M15 29c7.732 0 14-6.268 14-14S22.732 1 15 1 1 7.268 1 15s6.268 14 14 14z" stroke="#fff"/><path fill-rule="evenodd" clip-rule="evenodd" d="M20.353 11.315L15.13 16.67a.19.19 0 01-.261.002c-2.365-2.431-4.221-4.38-5.106-5.356h10.589zm-11.248 6.94v-6.513c.525.606 1.465 1.603 3.119 3.315l-3.119 3.198zm8.677-3.192l3.113 3.192v-6.384l-3.113 3.192zm-2.781 2.448a.934.934 0 00.672-.286l1.567-1.606 3.349 3.434H9.412l3.351-3.438 1.564 1.61c.18.184.419.286.674.286z" fill="#fff"/></svg><svg fill="none" viewBox="0 0 37 37" id="mail-menu" xmlns="http://www.w3.org/2000/svg"><path clip-rule="evenodd" d="M18.5 36C28.165 36 36 28.165 36 18.5S28.165 1 18.5 1 1 8.835 1 18.5 8.835 36 18.5 36z" stroke="#000"/><path fill-rule="evenodd" clip-rule="evenodd" d="M25.191 13.894l-6.526 6.693a.236.236 0 01-.327.002c-2.956-3.04-5.277-5.475-6.382-6.695H25.19zm-14.06 8.675v-8.141c.657.757 1.832 2.004 3.899 4.143l-3.898 3.998zm10.847-3.99l3.89 3.99v-7.98l-3.89 3.99zm-3.477 3.06c.318 0 .616-.127.841-.357l1.958-2.008 4.187 4.292H11.515l4.19-4.297c.587.606 1.236 1.274 1.955 2.013.224.23.523.357.841.357z" fill="#000"/></svg><svg fill="none" viewBox="0 0 31 31" id="telegram" xmlns="http://www.w3.org/2000/svg"><path d="M15.5 31C24.06 31 31 24.06 31 15.5 31 6.94 24.06 0 15.5 0 6.94 0 0 6.94 0 15.5 0 24.06 6.94 31 15.5 31z" fill="#039BE5"/><path d="M7.092 15.164l14.945-5.762c.694-.25 1.3.17 1.075 1.218v-.001l-2.544 11.988c-.188.85-.693 1.056-1.4.656l-3.875-2.856-1.869 1.8c-.207.207-.381.382-.781.382l.275-3.944 7.181-6.488c.313-.275-.07-.43-.481-.156l-8.875 5.588-3.826-1.194c-.83-.263-.849-.83.175-1.23z" fill="#fff"/></svg><svg fill="none" viewBox="0 0 80 80" id="transp-check-icon" xmlns="http://www.w3.org/2000/svg"><g filter="url(#rfilter0_d)"><path d="M35 9.999c-13.806 0-25 11.194-25 25s11.194 25 25 25 25-11.194 25-25-11.194-25-25-25z" fill="url(#rpaint0_radial)"/></g><circle r="10" transform="matrix(-1 0 0 1 35 34.999)" fill="#CAEAF4"/><defs><radialGradient id="rpaint0_radial" cx="0" cy="0" r="1" gradientUnits="userSpaceOnUse" gradientTransform="matrix(50 0 0 71.4286 10 33.392)"><stop stop-color="#F1FDFE"/><stop offset=".118" stop-color="#EFFCFE"/><stop offset=".418" stop-color="#EBFAFE"/><stop offset=".714" stop-color="#EBFAFE"/><stop offset="1" stop-color="#F1FDFE"/></radialGradient><filter id="rfilter0_d" x="0" y="-.001" width="80" height="80" filterUnits="userSpaceOnUse" color-interpolation-filters="sRGB"><feFlood flood-opacity="0" result="BackgroundImageFix"/><feColorMatrix in="SourceAlpha" values="0 0 0 0 0 0 0 0 0 0 0 0 0 0 0 0 0 0 127 0" result="hardAlpha"/><feOffset dx="5" dy="5"/><feGaussianBlur stdDeviation="7.5"/><feColorMatrix values="0 0 0 0 0.555208 0 0 0 0 0.752283 0 0 0 0 0.8125 0 0 0 0.2 0"/><feBlend in2="BackgroundImageFix" result="effect1_dropShadow"/><feBlend in="SourceGraphic" in2="effect1_dropShadow" result="shape"/></filter></defs></svg><svg fill="none" viewBox="0 0 30 31" id="viber" xmlns="http://www.w3.org/2000/svg"><path d="M28.909 17.945c.924-7.785-.445-12.7-2.915-14.922l.002-.002C22.01-.775 8.548-1.337 3.779 3.191 1.638 5.408.883 8.659.801 12.684.718 16.709.62 24.25 7.648 26.297h.006l-.006 3.125s-.048 1.265.76 1.52c.925.3 1.344-.288 4.22-3.724 4.81.417 8.505-.539 8.924-.678.972-.326 6.468-1.053 7.357-8.595zM13.101 25.02s-3.044 3.796-3.99 4.781c-.31.32-.65.291-.645-.345 0-.417.023-5.187.023-5.187-5.959-1.707-5.607-8.13-5.543-11.49.065-3.36.68-6.113 2.493-7.966C9.624.89 21.426 1.767 24.433 4.593c3.676 3.26 2.367 12.466 2.375 12.78-.755 6.296-5.209 6.695-6.028 6.967-.35.116-3.599.952-7.678.68z" fill="#7D3DAF"/><path d="M28.909 17.945c.924-7.785-.445-12.7-2.915-14.922l.002-.002C22.01-.775 8.548-1.337 3.779 3.191 1.638 5.408.883 8.659.801 12.684.718 16.709.62 24.25 7.648 26.297h.006l-.006 3.125s-.048 1.265.76 1.52c.925.3 1.344-.288 4.22-3.724 4.81.417 8.505-.539 8.924-.678.972-.326 6.468-1.053 7.357-8.595z" fill="#7D3DAF"/><path d="M14.787 5.55c-.497 0-.497.775 0 .782 3.858.03 7.036 2.719 7.07 7.652 0 .52.763.514.756-.007h-.001c-.041-5.315-3.51-8.397-7.825-8.427z" fill="#fff"/><path d="M19.862 13.166c-.012.514.75.539.756.018.063-2.93-1.744-5.345-5.14-5.6-.497-.035-.549.746-.053.782 2.945.224 4.497 2.233 4.437 4.8zM19.048 16.5c-.638-.37-1.288-.14-1.557.223l-.562.727c-.285.37-.819.32-.819.32-3.893-1.029-4.934-5.103-4.934-5.103s-.047-.551.309-.847l.703-.581c.351-.28.573-.95.215-1.61-.956-1.728-1.597-2.323-1.924-2.78-.344-.43-.86-.528-1.398-.237H9.07c-1.118.654-2.34 1.877-1.95 3.136.668 1.328 1.895 5.56 5.807 8.759 1.838 1.512 4.746 3.063 5.981 3.42l.012.018c1.217.406 2.4-.865 3.031-2.016v-.009c.28-.557.188-1.084-.222-1.429-.726-.707-1.821-1.489-2.681-1.991z" fill="#fff"/><path d="M16.01 10.468c1.241.072 1.843.72 1.908 2.052.023.52.779.485.756-.036-.083-1.739-.99-2.707-2.622-2.798-.498-.03-.544.752-.042.782z" fill="#fff"/></svg><svg fill="none" viewBox="0 0 28 28" id="vk" xmlns="http://www.w3.org/2000/svg"><path fill-rule="evenodd" clip-rule="evenodd" d="M14 28c7.732 0 14-6.268 14-14S21.732 0 14 0 0 6.268 0 14s6.268 14 14 14z" fill="#5181B8"/><path d="M20.902 10.977c.082-.329 0-.602-.492-.602h-1.613c-.41 0-.602.219-.711.465 0 0-.82 1.996-1.969 3.308-.383.356-.547.493-.765.493-.082 0-.247-.137-.247-.465v-3.2c0-.41-.109-.601-.464-.601h-2.516c-.273 0-.41.191-.41.383 0 .383.574.465.629 1.558v2.38c0 .519-.082.628-.301.628-.547 0-1.86-2.023-2.652-4.32-.164-.438-.329-.629-.739-.629H7.04c-.437 0-.547.219-.547.465 0 .437.547 2.543 2.543 5.36 1.34 1.913 3.227 2.925 4.922 2.925 1.012 0 1.148-.219 1.148-.602 0-1.832-.082-2.023.41-2.023.247 0 .657.137 1.614 1.066 1.094 1.094 1.285 1.559 1.887 1.559h1.613c.465 0 .683-.219.547-.684-.301-.93-2.352-2.898-2.461-3.035-.246-.3-.164-.437 0-.71 0 0 1.969-2.79 2.187-3.72z" fill="#fff"/></svg><svg fill="none" viewBox="0 0 30 30" id="whatsapp" xmlns="http://www.w3.org/2000/svg"><g clip-path="url(#uclip0)"><path d="M25.65 4.311C22.8 1.556 19.05 0 15.056 0 3.594 0-3.604 12.419 2.12 22.297L0 30l7.919-2.065c3.45 1.864 6.276 1.699 7.145 1.809 13.291 0 19.907-16.08 10.567-25.384l.019-.049z" fill="#4CAF50"/><path d="M15.083 27.189l-.007-.002h-.02c-3.978 0-6.519-1.883-6.769-1.992L3.6 26.414l1.256-4.556-.299-.47a12.336 12.336 0 01-1.895-6.574c0-10.992 13.431-16.488 21.204-8.719 7.754 7.688 2.31 21.094-8.783 21.094z" fill="#4CAF50"/><path d="M21.884 17.884l-.011.093c-.377-.187-2.21-1.083-2.55-1.207-.767-.284-.55-.045-2.022 1.64-.218.244-.436.262-.807.094-.375-.188-1.579-.582-3.004-1.857-1.11-.993-1.855-2.212-2.075-2.587-.366-.633.4-.723 1.098-2.043.125-.262.06-.468-.032-.654-.093-.188-.84-2.025-1.152-2.758-.3-.73-.609-.638-.84-.638-.72-.062-1.246-.052-1.71.43-2.018 2.218-1.509 4.505.217 6.938 3.393 4.44 5.2 5.258 8.505 6.392.893.284 1.707.244 2.35.152.718-.114 2.21-.902 2.52-1.783.32-.881.32-1.612.225-1.781-.092-.169-.337-.263-.712-.431z" fill="#FAFAFA"/></g><defs><clipPath id="uclip0"><path fill="#fff" d="M0 0h30v30H0z"/></clipPath></defs></svg></svg>