<svg width="1578" height="1896" fill="none" xmlns="http://www.w3.org/2000/svg"><path d="M962 321c-45 109-250.5 264.999-343.5 84.999-93-180-320.452-48.832-196.499 115.999 117.876 104 265.747-23.997 223.498 183.999-9.727 47.887-17.501 204 97.499 203s64-173-47-123C412 913.924 415.998 1083 557.998 1113c80.735 17.06 91.136-34.97 136.001-48 34.046-9.88 108.722-.36 129 96.5 47 224.5-308 211.5-265 79.5s274.999 84.5-36 184.5c-208 66.88-92.5 232.5 30.501 151 123-81.5 194-43 252.499 1 22.738 17.1 52.231 43.5 65.501 66" stroke="url(#paint0_linear)" stroke-width="2" stroke-miterlimit="10" stroke-dasharray="8.16 8.16"/><circle r="5" transform="matrix(-1 0 0 1 962 321)" fill="#CAEAF4"/><circle r="5" transform="matrix(-1 0 0 1 645.999 706)" fill="#CAEAF4"/><path d="M645.998 691.001c-8.283 0-14.999 6.716-14.999 14.999 0 8.283 6.716 14.999 14.999 14.999 8.284 0 15-6.716 15-14.999 0-8.283-6.716-14.999-15-14.999z" fill="#CAEAF4"/><circle transform="matrix(-1 0 0 1 645.998 706)" fill="#fff" r="7.5"/><circle r="5" transform="matrix(-1 0 0 1 809 851)" fill="#CAEAF4"/><path d="M808.999 836.001c-8.283 0-14.999 6.716-14.999 14.999 0 8.283 6.716 14.999 14.999 14.999 8.284 0 15-6.716 15-14.999 0-8.283-6.716-14.999-15-14.999z" fill="#CAEAF4"/><circle transform="matrix(-1 0 0 1 808.999 851)" fill="#fff" r="7.5"/><circle r="5" transform="matrix(-1 0 0 1 467.999 986)" fill="#CAEAF4"/><path d="M467.998 971.001c-8.283 0-14.999 6.716-14.999 14.999 0 8.283 6.716 15 14.999 15 8.284 0 15-6.717 15-15 0-8.283-6.716-14.999-15-14.999z" fill="#CAEAF4"/><circle transform="matrix(-1 0 0 1 467.998 986)" fill="#fff" r="7.5"/><circle r="5" transform="matrix(-1 0 0 1 812.999 1129)" fill="#CAEAF4"/><path d="M812.998 1114c-8.283 0-14.999 6.72-14.999 15 0 8.28 6.716 15 14.999 15 8.284 0 15-6.72 15-15 0-8.28-6.716-15-15-15z" fill="#CAEAF4"/><circle transform="matrix(-1 0 0 1 812.998 1129)" fill="#fff" r="7.5"/><circle r="5" transform="matrix(-1 0 0 1 554.999 1274)" fill="#CAEAF4"/><path d="M554.998 1259c-8.283 0-14.999 6.72-14.999 15 0 8.28 6.716 15 14.999 15 8.284 0 15-6.72 15-15 0-8.28-6.716-15-15-15z" fill="#CAEAF4"/><circle transform="matrix(-1 0 0 1 554.998 1274)" fill="#fff" r="7.5"/><circle r="5" transform="matrix(-1 0 0 1 553 1414)" fill="#CAEAF4"/><path d="M552.999 1399c-8.283 0-14.999 6.72-14.999 15 0 8.28 6.716 15 14.999 15 8.284 0 15-6.72 15-15 0-8.28-6.716-15-15-15z" fill="#CAEAF4"/><circle transform="matrix(-1 0 0 1 552.999 1414)" fill="#fff" r="7.5"/><circle r="5" transform="matrix(-1 0 0 1 580 1559)" fill="#CAEAF4"/><path d="M579.999 1544c-8.283 0-14.999 6.72-14.999 15 0 8.28 6.716 15 14.999 15 8.284 0 15-6.72 15-15 0-8.28-6.716-15-15-15z" fill="#CAEAF4"/><circle transform="matrix(-1 0 0 1 579.999 1559)" fill="#fff" r="7.5"/><circle r="5" transform="matrix(-1 0 0 1 870.999 1644)" fill="#CAEAF4"/><g filter="url(#filter0_dd)"><path d="M718.508 1082.83a.758.758 0 00-.188.03l-.919-5.44c.073-.01.139-.02.18-.03.711-.11 2.169.26 2.282.93.112.66.409 2.41.496 2.93.087.52-.91 1.43-1.851 1.58z" fill="#fff"/><path d="M718.452 1082.79c-.049.01-.115.02-.188.03l-.92-5.43c.074-.01.139-.02.18-.03.712-.11 2.17.26 2.282.92l.497 2.94c.095.51-.91 1.42-1.851 1.57z" fill="url(#paint1_linear)"/><path opacity=".2" d="M717.186 1077.39c.377-.06.888 1.1 1.141 2.6s.152 2.77-.226 2.83c-.378.06-.889-1.11-1.142-2.61-.252-1.5-.151-2.76.227-2.82z" fill="url(#paint2_radial)"/><path d="M713.476 1083.69c-.05.01-.091.01-.133.02-3.89.62-7.246-.11-7.502-1.62-.257-1.52 2.692-3.24 6.574-3.86.049-.01.091-.02.132-.02 0 0 3.742-.6 4.816-.77l.928 5.48c-1.206.19-4.815.77-4.815.77z" fill="#fff"/><path d="M713.465 1083.62c-.05.01-.091.02-.132.02-3.891.62-7.247-.11-7.502-1.62-.257-1.51 2.691-3.24 6.573-3.86.05-.01.091-.01.132-.02 0 0 3.742-.6 4.816-.77l.929 5.48c-1.206.2-4.816.77-4.816.77z" fill="url(#paint3_linear)"/><path opacity=".2" d="M716.226 1081.02c1.023-1.73 1.555-3.33 1.187-3.56-.367-.22-1.493 1.01-2.516 2.75s-1.555 3.33-1.187 3.56c.367.22 1.493-1.01 2.516-2.75z" fill="url(#paint4_radial)"/><path d="M701.764 1069.32c8.412-1.34 12.804-2.04 28.277-4.51-11.289 4.14-26.203 38.92-26.203 38.92l-6.5 1.08c-.01-.01 14.123-37.04 4.426-35.49z" fill="#fff"/><path d="M701.725 1069.08c8.412-1.34 12.804-2.04 28.277-4.51-11.288 4.14-26.202 38.91-26.202 38.91l-6.392 1.13s14.015-37.08 4.317-35.53z" fill="url(#paint5_linear)"/><mask id="a" maskUnits="userSpaceOnUse" x="697" y="1064" width="33" height="41"><path d="M701.656 1068.88c8.354-1.28 12.716-1.95 28.083-4.31-11.191 4.08-25.722 38.96-25.722 38.96l-6.347 1.08s13.617-37.21 3.986-35.73z" fill="url(#paint6_linear)"/></mask><g mask="url(#a)"><path opacity=".2" d="M701.081 1103.21c1.843-.29 3.386-.24 3.445.1.06.35-1.386.86-3.23 1.15-1.843.29-3.386.24-3.446-.1-.059-.34 1.387-.86 3.231-1.15z" fill="url(#paint7_radial)"/><path opacity=".2" d="M714.838 1064.89c10.074-1.58 18.478-1.48 18.771.22.293 1.71-7.636 4.37-17.71 5.95-10.073 1.58-18.478 1.48-18.771-.22-.293-1.7 7.636-4.37 17.71-5.95z" fill="url(#paint8_radial)"/></g><path d="M712.729 1046.39c-.049.01-.114.02-.188.03l.92 5.43c.074-.01.139-.02.18-.03.712-.11 1.97-.92 1.858-1.58l-.497-2.94c-.079-.51-1.332-1.06-2.273-.91z" fill="#fff"/><path d="M712.686 1046.44c-.049.01-.114.02-.188.03l.92 5.43c.074-.01.139-.02.18-.03.712-.11 1.97-.92 1.858-1.58l-.497-2.94c-.079-.51-1.332-1.06-2.273-.91z" fill="url(#paint9_linear)"/><path opacity=".2" d="M712.35 1046.53c.377-.06.889 1.1 1.141 2.6.253 1.5.152 2.76-.226 2.82-.378.07-.889-1.1-1.142-2.6-.252-1.5-.151-2.76.227-2.82z" fill="url(#paint10_radial)"/><path d="M707.696 1047.2c-.049.01-.09.01-.132.02-3.89.62-6.83 2.35-6.573 3.87.257 1.51 3.62 2.23 7.502 1.61.049 0 .091-.01.132-.02 0 0 3.742-.59 4.816-.77l-.929-5.48c-1.206.19-4.816.77-4.816.77z" fill="#fff"/><path d="M707.707 1047.27a.603.603 0 00-.132.02c-3.891.62-6.829 2.35-6.573 3.86.257 1.52 3.619 2.24 7.502 1.62.049-.01.09-.01.132-.02 0 0 3.742-.6 4.815-.77l-.928-5.48c-1.206.19-4.816.77-4.816.77z" fill="url(#paint11_linear)"/><path opacity=".2" d="M711.176 1048.84c1.543 1.32 2.575 2.67 2.301 3-.274.33-1.748-.49-3.291-1.82-1.544-1.33-2.576-2.68-2.301-3 .274-.33 1.747.49 3.291 1.82z" fill="url(#paint12_radial)"/><path d="M701.38 1064.43c8.412-1.34 12.803-2.04 28.277-4.5-12.062-.42-37.685-28.74-37.685-28.74l-6.518.99c.002 0 25.623 30.71 15.926 32.25z" fill="#fff"/><path d="M701.418 1064.66c8.412-1.34 12.804-2.04 28.277-4.5-12.062-.42-37.684-28.74-37.684-28.74l-6.429.91c.002.01 25.534 30.79 15.836 32.33z" fill="url(#paint13_linear)"/><mask id="b" maskUnits="userSpaceOnUse" x="685" y="1031" width="45" height="34"><path d="M701.612 1064.73c8.355-1.28 12.716-1.95 28.083-4.31-11.999-.51-37.727-29.21-37.727-29.21l-6.385.86c.001.01 25.66 31.18 16.029 32.66z" fill="url(#paint14_linear)"/></mask><g mask="url(#b)"><path opacity=".2" d="M714.006 1058.38c10.073-1.58 18.478-1.48 18.771.22.293 1.71-7.636 4.37-17.71 5.95-10.073 1.58-18.478 1.48-18.771-.22-.293-1.7 7.636-4.37 17.71-5.95z" fill="url(#paint15_radial)"/><path opacity=".2" d="M689.508 1031.42c1.843-.29 3.386-.25 3.445.1.06.34-1.387.86-3.23 1.15-1.844.28-3.386.24-3.446-.11-.059-.34 1.387-.85 3.231-1.14z" fill="url(#paint16_radial)"/></g><path d="M703.709 1103.66c-.023-.14-1.658.01-2.006.06-.347.06-5.505 1.01-5.481 1.16.023.13 5.211-.59 5.567-.65.348-.05 1.944-.42 1.92-.57z" fill="#fff"/><path d="M703.634 1103.67c-.022-.14-1.639.01-1.987.07-.348.06-5.456 1-5.433 1.14.022.13 5.168-.59 5.515-.64.348-.06 1.928-.43 1.905-.57z" fill="url(#paint17_linear)"/><path d="M692.054 1031.42c.022.14-1.573.52-1.92.57-.348.06-5.543.79-5.567.64-.023-.13 5.125-1.09 5.481-1.15.356-.06 1.983-.2 2.006-.06z" fill="#fff"/><path d="M691.988 1031.43c.023.14-1.557.51-1.905.56-.348.06-5.493.78-5.516.64-.023-.13 5.086-1.08 5.433-1.13.348-.06 1.965-.21 1.988-.07z" fill="url(#paint18_linear)"/><path d="M667.595 1072.35c1.115 1.28-.592 10.42-.692 14.98l2.612-.41s8.051-15.83 10.152-16.46c-12.072 1.89-.008 0-12.072 1.89z" fill="#fff"/><path d="M667.541 1072.23c1.114 1.27-.527 10.4-.635 14.96l2.546-.4s8.051-15.82 10.152-16.45l-12.063 1.89z" fill="url(#paint19_linear)"/><mask id="c" maskUnits="userSpaceOnUse" x="667" y="1070" width="13" height="18"><path d="M667.521 1072.16c1.118 1.29-.445 10.45-.517 15.03l2.529-.38s7.889-15.86 9.974-16.48l-11.986 1.83z" fill="url(#paint20_linear)"/></mask><g mask="url(#c)"><path opacity=".2" d="M672.283 1076.11c2.648-.01 4.773-.58 4.744-1.28-.029-.69-2.193-1.25-4.841-1.24-2.648.01-4.773.58-4.744 1.27.021.7 2.193 1.26 4.841 1.25z" fill="url(#paint21_radial)"/></g><path d="M667.985 1072.53c.627-1.55-4.055-9.69-5.68-13.98l2.611-.41s12.939 12.54 15.141 12.49c-12.072 1.9-.008.01-12.072 1.9z" fill="#fff"/><mask id="d" maskUnits="userSpaceOnUse" x="662" y="1058" width="19" height="15"><path d="M668.062 1072.55c.612-1.56-4.108-9.76-5.757-14.09l2.595-.39s12.967 12.68 15.157 12.65c-11.995 1.83-.008.01-11.995 1.83z" fill="#fff"/></mask><g mask="url(#d)"><path d="M668.043 1072.68c.612-1.55-4.043-9.76-5.7-14.09l2.53-.38s12.966 12.68 15.156 12.65l-11.986 1.82z" fill="url(#paint22_linear)"/><path opacity=".2" d="M671.239 1067.66c2.511-.78 4.721-.87 4.932-.21.21.67-1.648 1.85-4.16 2.63-2.512.79-4.722.88-4.932.21-.21-.66 1.648-1.84 4.16-2.63z" fill="url(#paint23_radial)"/></g><path d="M736.708 1065.47s-32.168 5.17-52.383 8.41c-20.214 3.25-19.133-.93-19.133-.93s-2.395-3.63 17.819-6.88c20.215-3.24 52.383-8.41 52.383-8.41s11.716-1.01 12.229 2.04c.513 3.05-10.915 5.77-10.915 5.77z" fill="#fff"/><path d="M736.67 1065.24s-32.168 5.16-52.383 8.41c-20.214 3.25-19.133-.93-19.133-.93s-2.395-3.63 17.819-6.88l52.383-8.42s11.716-1 12.229 2.05c.513 3.05-10.915 5.77-10.915 5.77z" fill="url(#paint24_radial)"/><path opacity=".2" d="M676.305 1069.31c6.329-1.01 11.585-1.09 11.741-.17.156.92-4.848 2.49-11.177 3.5-6.329 1.01-11.585 1.08-11.741.16-.155-.92 4.849-2.48 11.177-3.49z" fill="url(#paint25_radial)"/><path d="M682.25 1070.09c-.066-.39-4.051-.07-4.912.07-.861.14-13.426 2.48-13.361 2.87.065.39 12.736-1.33 13.597-1.47.861-.14 4.741-1.08 4.676-1.47z" fill="#fff"/><path d="M682.064 1070.1c-.064-.38-4.014-.05-4.859.08-.852.14-13.287 2.45-13.223 2.84.064.38 12.609-1.33 13.453-1.47.843-.14 4.692-1.08 4.629-1.45z" fill="url(#paint26_linear)"/><mask id="e" maskUnits="userSpaceOnUse" x="740" y="1058" width="4" height="5"><path d="M743.043 1060.07c-.214-1.26-1.336-1.78-1.886-1.69-.549.09-.176.9.008 1.99.186 1.1.128 2.05.678 1.96.549-.08 1.419-.91 1.2-2.26z" fill="url(#paint27_radial)" opacity=".5"/></mask><g mask="url(#e)"><path opacity=".5" d="M743.036 1060.07c-.217-1.26-1.335-1.78-1.881-1.69-.546.08-.172.89.015 1.99.189 1.09.136 2.05.682 1.97.546-.09 1.408-.92 1.184-2.27z" fill="url(#paint28_radial)"/><path opacity=".5" d="M740.918 1062.61l.956-.15s1.917-2.27-.729-4.25l-.956.15s1.721 2.15.729 4.25z" fill="#fff"/><path opacity=".5" d="M740.918 1062.61l.956-.15s1.917-2.27-.729-4.25l-.956.15s1.723 2.16.729 4.25z" fill="url(#paint29_linear)"/></g></g><defs><linearGradient id="paint0_linear" x1="-11.115" y1="919.786" x2="1341.16" y2="1035.41" gradientUnits="userSpaceOnUse"><stop stop-color="#CBEAF4"/><stop offset="1" stop-color="#B0E2F2"/></linearGradient><linearGradient id="paint1_linear" x1="717.805" y1="1080.1" x2="720.055" y2="1079.72" gradientUnits="userSpaceOnUse"><stop stop-color="#EDF8FE"/><stop offset="1" stop-color="#fff"/></linearGradient><linearGradient id="paint3_linear" x1="705.827" y1="1082.02" x2="717.796" y2="1079.99" gradientUnits="userSpaceOnUse"><stop stop-color="#fff"/><stop offset="1" stop-color="#EAF7FE"/></linearGradient><linearGradient id="paint5_linear" x1="701.801" y1="1086.49" x2="740.09" y2="1079.99" gradientUnits="userSpaceOnUse"><stop stop-color="#EFF9FE"/><stop offset="1" stop-color="#E1F4FD"/></linearGradient><linearGradient id="paint6_linear" x1="701.882" y1="1086.41" x2="739.828" y2="1079.73" gradientUnits="userSpaceOnUse"><stop stop-color="#fff"/><stop offset="1" stop-color="#E1F4FD"/></linearGradient><linearGradient id="paint9_linear" x1="712.959" y1="1049.18" x2="715.209" y2="1048.8" gradientUnits="userSpaceOnUse"><stop stop-color="#EDF8FE"/><stop offset="1" stop-color="#fff"/></linearGradient><linearGradient id="paint11_linear" x1="700.998" y1="1051.15" x2="712.967" y2="1049.12" gradientUnits="userSpaceOnUse"><stop stop-color="#fff"/><stop offset="1" stop-color="#EAF7FE"/></linearGradient><linearGradient id="paint13_linear" x1="695.737" y1="1048.15" x2="734.026" y2="1041.65" gradientUnits="userSpaceOnUse"><stop stop-color="#EFF9FE"/><stop offset="1" stop-color="#E1F4FD"/></linearGradient><linearGradient id="paint14_linear" x1="695.819" y1="1048.07" x2="733.765" y2="1041.38" gradientUnits="userSpaceOnUse"><stop stop-color="#fff"/><stop offset="1" stop-color="#E1F4FD"/></linearGradient><linearGradient id="paint17_linear" x1="696.21" y1="1104.88" x2="703.629" y2="1103.64" gradientUnits="userSpaceOnUse"><stop stop-color="#EFF9FE"/><stop offset=".2" stop-color="#fff"/><stop offset=".404" stop-color="#fff"/><stop offset=".607" stop-color="#fff"/><stop offset=".807" stop-color="#EEF8FE"/><stop offset="1" stop-color="#EEF9FE"/></linearGradient><linearGradient id="paint18_linear" x1="684.564" y1="1032.63" x2="691.982" y2="1031.4" gradientUnits="userSpaceOnUse"><stop stop-color="#EFF9FE"/><stop offset=".2" stop-color="#fff"/><stop offset=".404" stop-color="#fff"/><stop offset=".607" stop-color="#fff"/><stop offset=".807" stop-color="#EEF8FE"/><stop offset="1" stop-color="#EEF9FE"/></linearGradient><linearGradient id="paint19_linear" x1="668.588" y1="1079.5" x2="683.739" y2="1076.89" gradientUnits="userSpaceOnUse"><stop stop-color="#EFF9FE"/><stop offset="1" stop-color="#E1F4FD"/></linearGradient><linearGradient id="paint20_linear" x1="668.618" y1="1079.47" x2="683.643" y2="1076.79" gradientUnits="userSpaceOnUse"><stop stop-color="#EFF9FE"/><stop offset="1" stop-color="#E1F4FD"/></linearGradient><linearGradient id="paint22_linear" x1="666.55" y1="1065.43" x2="681.575" y2="1062.76" gradientUnits="userSpaceOnUse"><stop stop-color="#EFF9FE"/><stop offset="1" stop-color="#E1F4FD"/></linearGradient><linearGradient id="paint26_linear" x1="663.973" y1="1073.01" x2="682.043" y2="1069.98" gradientUnits="userSpaceOnUse"><stop stop-color="#EFF9FE"/><stop offset=".2" stop-color="#fff"/><stop offset=".404" stop-color="#fff"/><stop offset=".607" stop-color="#fff"/><stop offset=".807" stop-color="#EEF8FE"/><stop offset="1" stop-color="#EEF9FE"/></linearGradient><linearGradient id="paint29_linear" x1="739.233" y1="1057.77" x2="742.589" y2="1062.15" gradientUnits="userSpaceOnUse"><stop stop-color="#828C93"/><stop offset=".083" stop-color="#89939A"/><stop offset=".222" stop-color="#9DA8AE"/><stop offset=".4" stop-color="#BFCAD0"/><stop offset=".511" stop-color="#D8E2E7"/><stop offset=".623" stop-color="#A8B3B9"/><stop offset=".754" stop-color="#798389"/><stop offset=".865" stop-color="#586066"/><stop offset=".95" stop-color="#41474C"/><stop offset="1" stop-color="#373D42"/></linearGradient><radialGradient id="paint2_radial" cx="0" cy="0" r="1" gradientUnits="userSpaceOnUse" gradientTransform="matrix(.68396 -.10966 .43517 2.71429 717.643 1080.1)"><stop stop-color="#7CAEBE"/><stop offset="1" stop-color="#EAF7FE"/></radialGradient><radialGradient id="paint4_radial" cx="0" cy="0" r="1" gradientUnits="userSpaceOnUse" gradientTransform="matrix(2.39613 -.38159 .45036 2.82797 715.561 1080.62)"><stop stop-color="#7CAEBE"/><stop offset="1" stop-color="#EDF8FE"/></radialGradient><radialGradient id="paint7_radial" cx="0" cy="0" r="1" gradientUnits="userSpaceOnUse" gradientTransform="matrix(3.33843 -.52304 .09787 .62468 701.188 1103.84)"><stop stop-color="#7CAEBE"/><stop offset="1" stop-color="#EAF7FE"/></radialGradient><radialGradient id="paint8_radial" cx="0" cy="0" r="1" gradientUnits="userSpaceOnUse" gradientTransform="rotate(-8.923 7201.26 -4050.056) scale(18.4658 3.12499)"><stop stop-color="#7CAEBE"/><stop offset="1" stop-color="#EAF7FE"/></radialGradient><radialGradient id="paint10_radial" cx="0" cy="0" r="1" gradientUnits="userSpaceOnUse" gradientTransform="matrix(.68398 -.10966 .43515 2.71429 712.807 1049.24)"><stop stop-color="#7CAEBE"/><stop offset="1" stop-color="#EAF7FE"/></radialGradient><radialGradient id="paint12_radial" cx="0" cy="0" r="1" gradientUnits="userSpaceOnUse" gradientTransform="matrix(2.39613 -.38159 .45036 2.82797 710.68 1049.43)"><stop stop-color="#7CAEBE"/><stop offset="1" stop-color="#EDF8FE"/></radialGradient><radialGradient id="paint15_radial" cx="0" cy="0" r="1" gradientUnits="userSpaceOnUse" gradientTransform="matrix(18.2423 -2.86431 .48474 3.08724 714.534 1061.47)"><stop stop-color="#7CAEBE"/><stop offset="1" stop-color="#EAF7FE"/></radialGradient><radialGradient id="paint16_radial" cx="0" cy="0" r="1" gradientUnits="userSpaceOnUse" gradientTransform="matrix(3.33843 -.52304 .09787 .62468 689.615 1032.04)"><stop stop-color="#7CAEBE"/><stop offset="1" stop-color="#EAF7FE"/></radialGradient><radialGradient id="paint21_radial" cx="0" cy="0" r="1" gradientUnits="userSpaceOnUse" gradientTransform="matrix(4.67297 -.71873 .21895 1.42357 672.234 1074.85)"><stop stop-color="#7CAEBE"/><stop offset="1" stop-color="#EAF7FE"/></radialGradient><radialGradient id="paint23_radial" cx="0" cy="0" r="1" gradientUnits="userSpaceOnUse" gradientTransform="matrix(4.67272 -.7187 .21896 1.42359 671.624 1068.87)"><stop stop-color="#7CAEBE"/><stop offset="1" stop-color="#EAF7FE"/></radialGradient><radialGradient id="paint24_radial" cx="0" cy="0" r="1" gradientUnits="userSpaceOnUse" gradientTransform="rotate(-9.129 7036.252 -3788.68) scale(60.4788 4.33153)"><stop stop-color="#fff"/><stop offset="1" stop-color="#E1F4FD"/></radialGradient><radialGradient id="paint25_radial" cx="0" cy="0" r="1" gradientUnits="userSpaceOnUse" gradientTransform="matrix(11.46014 -1.8298 .26584 1.665 676.586 1070.97)"><stop stop-color="#7CAEBE"/><stop offset="1" stop-color="#EAF7FE"/></radialGradient><radialGradient id="paint27_radial" cx="0" cy="0" r="1" gradientUnits="userSpaceOnUse" gradientTransform="matrix(.98152 -.15691 .31142 1.94803 741.951 1060.29)"><stop stop-color="#fff"/><stop offset=".12" stop-color="#FBFBFB"/><stop offset=".245" stop-color="#EEE"/><stop offset=".372" stop-color="#DADADA"/><stop offset=".501" stop-color="#BCBCBC"/><stop offset=".63" stop-color="#979797"/><stop offset=".761" stop-color="#696969"/><stop offset=".89" stop-color="#343434"/><stop offset="1"/></radialGradient><radialGradient id="paint28_radial" cx="0" cy="0" r="1" gradientUnits="userSpaceOnUse" gradientTransform="matrix(.95668 -.1505 .31202 1.98342 742.087 1060.26)"><stop stop-color="#7CAEBE"/><stop offset="1" stop-color="#EAF7FE"/></radialGradient><filter id="filter0_dd" x="657.305" y="1025.19" width="105.336" height="93.704" filterUnits="userSpaceOnUse" color-interpolation-filters="sRGB"><feFlood flood-opacity="0" result="BackgroundImageFix"/><feColorMatrix in="SourceAlpha" values="0 0 0 0 0 0 0 0 0 0 0 0 0 0 0 0 0 0 127 0" result="hardAlpha"/><feOffset dx="3"/><feGaussianBlur stdDeviation="1.5"/><feColorMatrix values="0 0 0 0 0.555208 0 0 0 0 0.752283 0 0 0 0 0.8125 0 0 0 0.4 0"/><feBlend in2="BackgroundImageFix" result="effect1_dropShadow"/><feColorMatrix in="SourceAlpha" values="0 0 0 0 0 0 0 0 0 0 0 0 0 0 0 0 0 0 127 0" result="hardAlpha"/><feOffset dx="5" dy="4"/><feGaussianBlur stdDeviation="5"/><feColorMatrix values="0 0 0 0 0.556863 0 0 0 0 0.752941 0 0 0 0 0.811765 0 0 0 0.5 0"/><feBlend in2="effect1_dropShadow" result="effect2_dropShadow"/><feBlend in="SourceGraphic" in2="effect2_dropShadow" result="shape"/></filter></defs></svg>