<svg width="361" height="1557" fill="none" xmlns="http://www.w3.org/2000/svg"><g filter="url(#filter0_d)"><path d="M306.935 56.314V654.71c0 8.172-6.61 14.79-14.771 14.79H42.271c-8.16 0-14.771-6.618-14.771-14.79V56.29c0-8.172 6.61-14.79 14.771-14.79h249.915c8.139.022 14.749 6.64 14.749 14.814z" fill="url(#paint0_linear)" stroke="#D3F0F9"/><path d="M74.347 41.023H42.271C33.834 41.023 27 47.866 27 56.313V654.71c0 8.448 6.834 15.29 15.271 15.29h32.076V41.023z" fill="#D7EEF5"/><path d="M41.806 208.077v2.164h3.719v-2.164h-3.72zM35.136 208.077v2.164h3.719v-2.164h-3.72zM28.487 208.077v2.164h3.72v-2.164h-3.72zM61.842 208.077v2.164h3.719v-2.164h-3.72zM55.17 208.077v2.164h3.72v-2.164h-3.72zM48.523 208.077v2.164h3.72v-2.164h-3.72zM81.879 208.077v2.164h3.719v-2.164h-3.72zM75.208 208.077v2.164h3.719v-2.164h-3.719zM68.56 208.077v2.164h3.72v-2.164h-3.72zM101.915 208.077v2.164h3.719v-2.164h-3.719zM95.243 208.077v2.164h3.72v-2.164h-3.72zM88.596 208.077v2.164h3.719v-2.164h-3.72zM121.95 208.077v2.164h3.719v-2.164h-3.719zM115.279 208.077v2.164h3.719v-2.164h-3.719zM108.632 208.077v2.164h3.719v-2.164h-3.719zM141.964 208.077v2.164h3.719v-2.164h-3.719zM135.315 208.077v2.164h3.719v-2.164h-3.719zM128.668 208.077v2.164h3.719v-2.164h-3.719zM161.999 208.077v2.164h3.719v-2.164h-3.719zM155.328 208.077v2.164h3.719v-2.164h-3.719zM148.681 208.077v2.164h3.719v-2.164h-3.719zM182.035 208.077v2.164h3.719v-2.164h-3.719zM175.364 208.077v2.164h3.719v-2.164h-3.719zM168.717 208.077v2.164h3.719v-2.164h-3.719zM202.071 208.077v2.164h3.719v-2.164h-3.719zM195.4 208.077v2.164h3.719v-2.164H195.4zM188.753 208.077v2.164h3.719v-2.164h-3.719zM222.107 208.077v2.164h3.719v-2.164h-3.719zM215.437 208.077l.001 2.164h3.718v-2.164h-3.719zM208.789 208.077v2.164h3.719v-2.164h-3.719zM242.144 208.077v2.164h3.719v-2.164h-3.719zM235.473 208.077v2.164h3.719v-2.164h-3.719zM228.825 208.077v2.164h3.719v-2.164h-3.719zM262.156 208.077v2.164h3.719v-2.164h-3.719zM255.485 208.077v2.164h3.719v-2.164h-3.719zM248.838 208.077v2.164h3.719v-2.164h-3.719zM282.192 208.077v2.164h3.719v-2.164h-3.719zM275.521 208.077v2.164h3.719v-2.164h-3.719zM268.874 208.077v2.164h3.719v-2.164h-3.719zM302.229 208.077v2.164h3.719v-2.164h-3.719zM295.558 208.077v2.164h3.719v-2.164h-3.719zM288.91 208.077v2.164h3.719v-2.164h-3.719z" fill="#D7EEF5"/><path d="M65.446 626.805v-2.932l-3.859-2.514v-2.118a.283.283 0 00-.279-.279h-1.092a.283.283 0 00-.28.279v1.048l-.86-.559v-1.606a.283.283 0 00-.278-.279h-1.093a.283.283 0 00-.278.279v.559l-4.208-2.746v-7.727l-2.719-3.724-2.417 3.724v7.727l-4.207 2.746v-.559a.283.283 0 00-.28-.279h-1.092a.283.283 0 00-.279.279v1.606l-.86.559v-1.048a.283.283 0 00-.279-.279h-1.092a.283.283 0 00-.28.279v2.118l-3.858 2.514v2.932l12.203-5.26.79 10.59-4.416 1.768v3.003l6.183-2.514 6.183 2.514v-3.003l-4.416-1.768.79-10.31 12.273 4.98z" fill="#fff"/><path d="M36.856 628.504l-.465 16.524-.488-16.524h.953zM65.445 628.504l-.488 16.524-.465-16.524h.953zM56.869 640.28l-.465 16.501-.488-16.501h.953zM45.456 640.28l-.488 16.501-.489-16.501h.977z" fill="#E1F3F7"/><path d="M189.868 582.411c6.891 0 11.778 1.602 14.663 4.807 2.884 3.125 4.326 8.333 4.326 15.624v23.557h-84.13v-22.114c0-7.212 1.482-12.66 4.447-16.346 2.884-3.686 7.652-5.528 14.302-5.528h46.392zm-47.474 10.456c-2.644 0-4.727.801-6.25 2.404-1.602 1.602-2.403 3.725-2.403 6.369v14.303h66.102v-14.182c0-3.045-.681-5.289-2.043-6.731-1.442-1.442-3.685-2.163-6.73-2.163h-48.676zm66.463-48.776l-32.21 13.701 32.21 14.422v11.298L165.35 563.08l-40.623 18.629v-11.418l28.965-12.619-28.965-12.98v-11.178l40.503 18.99 43.627-20.192v11.779zm-18.989-57.461c6.891 0 11.778 1.603 14.663 4.808 2.884 3.125 4.326 8.333 4.326 15.624v22.835h-84.13v-21.393c0-7.131 1.442-12.339 4.326-15.624 2.885-3.365 7.692-5.048 14.423-5.048h6.851c6.169 0 10.816 2.204 13.941 6.61 2.885-5.208 7.812-7.812 14.783-7.812h10.817zm-47.474 11.658c-3.045 0-5.248.721-6.61 2.164-1.362 1.362-2.043 3.565-2.043 6.61v12.379h26.561v-12.379c0-2.484-.801-4.567-2.404-6.25-1.602-1.682-3.726-2.524-6.37-2.524h-9.134zm35.575-1.202c-2.644 0-4.727.802-6.249 2.404-1.603 1.603-2.404 3.726-2.404 6.37v13.581h30.527V505.98c0-3.044-.681-5.288-2.043-6.73-1.442-1.442-3.685-2.164-6.73-2.164h-13.101zM206.187 339.139l-38.219 18.749 7.211 4.327h31.008v10.456h-84.13v-10.456h36.296l-36.296-22.234v-11.418l36.777 22.835 47.353-24.037v11.778zm-18.989-56.871c6.891 0 11.778 1.603 14.663 4.808 2.884 3.125 4.326 8.333 4.326 15.624v22.836h-84.13v-21.394c0-7.131 1.442-12.339 4.327-15.624 2.884-3.365 7.692-5.048 14.422-5.048h6.851c6.169 0 10.816 2.204 13.941 6.611 2.885-5.209 7.812-7.813 14.783-7.813h10.817zm-47.474 11.659c-3.044 0-5.248.721-6.61 2.163-1.362 1.362-2.043 3.565-2.043 6.61v12.379h26.561V302.7c0-2.484-.801-4.567-2.404-6.25-1.602-1.682-3.725-2.523-6.37-2.523h-9.134zm35.576-1.202c-2.645 0-4.728.801-6.25 2.403-1.603 1.603-2.404 3.726-2.404 6.37v13.581h30.527v-13.461c0-3.044-.681-5.288-2.043-6.73-1.442-1.442-3.685-2.163-6.73-2.163h-13.1zm-20.793-59.797c6.49 0 11.298 1.723 14.423 5.168 3.044 3.445 4.567 8.533 4.567 15.264v11.297h32.69v10.457h-84.13V253.6c0-6.81 1.522-11.938 4.567-15.384 2.965-3.525 7.692-5.288 14.182-5.288h13.701zm-14.783 10.456c-3.044 0-5.248.721-6.61 2.164-1.362 1.362-2.043 3.565-2.043 6.61v12.499h33.412v-12.499c0-3.045-.681-5.248-2.043-6.61-1.443-1.443-3.686-2.164-6.731-2.164h-15.985z" fill="#D7EEF5"/><path d="M186.042 432.966v-3.604l-4.752-3.107v-2.609a.326.326 0 00-.327-.328h-1.37a.327.327 0 00-.327.328v1.286l-1.054-.679v-1.991a.326.326 0 00-.328-.327h-1.357a.325.325 0 00-.327.327v.68l-5.2-3.386v-9.539l-3.345-4.599-2.994 4.599v9.539l-5.2 3.386v-.68a.325.325 0 00-.327-.327h-1.358a.326.326 0 00-.327.327v1.991l-1.054.679v-1.286a.327.327 0 00-.328-.328h-1.357a.326.326 0 00-.327.328v2.609l-4.764 3.107v3.604l15.054-6.505.982 13.059-5.455 2.184v3.714l7.636-3.107 7.636 3.107v-3.714l-5.454-2.184.982-12.707 15.042 6.153z" fill="#ADD7E5"/><path d="M203.467 441.54v-6.912l-9.112-5.958v-5.004a.625.625 0 00-.628-.628h-2.626a.625.625 0 00-.628.628v2.467l-2.022-1.303v-3.817a.626.626 0 00-.627-.629h-2.604a.626.626 0 00-.627.629v1.303l-9.972-6.493V397.53l-6.415-8.82-5.741 8.82v18.293l-9.972 6.493v-1.303a.626.626 0 00-.628-.629h-2.603a.626.626 0 00-.627.629v3.817l-2.023 1.303v-2.467a.625.625 0 00-.627-.628h-2.603a.625.625 0 00-.628.628v5.004l-9.135 5.958v6.912l28.869-12.475 1.883 25.042-10.46 4.189v7.122l14.643-5.958 14.644 5.958v-7.122l-10.46-4.189 1.883-24.367 28.846 11.8z" fill="#D7EEF5"/><path d="M55.125 512.674l4.486 1.816v3.886l-17.875-7.377v-4.771l17.875-7.727v4.073l-4.486 1.908v8.192zm-3.069-7.121c-4.37 1.838-6.53 2.723-7.856 3.142v.023c1.279.396 4.114 1.42 7.856 2.932v-6.097zM41.736 492.217h17.875v3.77H41.736v-3.77zM52.452 483.606h7.159v3.724H41.736v-9.356c0-3.98 1.93-6.377 5.021-6.377 2.255 0 3.672 1.257 4.23 3.165.302-.884 1.07-2.699 4.254-2.699h.86c1.278 0 2.696.023 3.51-.21v3.864c-.79.279-1.93.302-3.72.302h-.58c-2.069 0-2.86.791-2.86 3.561v4.026zm-2.86 0v-4.771c0-2.327-.836-3.398-2.533-3.398-1.58 0-2.44 1.071-2.44 3.328v4.841h4.974zM44.758 456.284v6.47h-3.022v-16.687h3.045v6.447h14.853v3.77H44.758zM41.736 439.481h17.875v3.77H41.736v-3.77zM54.079 417.464c3.114.885 5.927 3.305 5.927 8.751 0 6.26-4.347 9.379-9.298 9.379-4.95 0-9.344-3.468-9.344-9.588 0-5.377 2.952-8.03 5.927-8.611v3.816c-1.301.489-2.975 1.629-2.975 4.818 0 3.584 2.697 5.585 6.253 5.585 3.533 0 6.485-1.862 6.485-5.608 0-2.817-1.14-4.003-2.975-4.795v-3.747zM41.736 414.229v-3.77h8.136c-2.371-2.63-5.068-5.725-8.136-9.123v-4.655l7.694 8.634 10.204-9.123v4.725l-8.135 7.121 1.999 2.444h6.136v3.747H41.736zM51.824 380.321v10.24h4.765v-11.357l3.045.442v14.662H41.736v-14.546h3.045v10.776h3.998v-10.241h3.045v.024zM44.758 371.035v6.469h-3.022v-16.686h3.045v6.446h14.853v3.771H44.758z" fill="#fff"/><path d="M265.248 134.255v1.35h28.009v-1.35h-28.009zM265.248 129.368v2.304h28.009v-2.304h-28.009zM265.248 126.203v.581h28.009v-.581h-28.009zM265.248 122.293v1.35h28.009v-1.35h-28.009zM265.248 117.405v2.304h28.009v-2.304h-28.009zM265.248 114.24v.582h28.009v-.582h-28.009zM265.248 109.376v2.304h28.009v-2.304h-28.009zM265.248 91.107v.582h28.009v-.582h-28.009zM265.248 87.197v1.35h28.009v-1.35h-28.009zM265.248 84.032v.582h28.009v-.582h-28.009zM265.248 80.099v1.35h28.009v-1.35h-28.009zM265.248 76.934v.582h28.009v-.582h-28.009zM265.248 94.272v2.304h28.009v-2.304h-28.009zM265.248 106.211v.582h28.009v-.582h-28.009zM265.248 102.301v1.35h28.009v-1.35h-28.009zM265.248 99.136v.582h28.009v-.582h-28.009zM265.248 65.763v.581h28.009v-.581h-28.009zM265.248 61.853v1.35h28.009v-1.35h-28.009zM265.248 58.688v.581h28.009v-.581h-28.009zM265.248 54.754v1.35h28.009v-1.35h-28.009zM265.248 68.927v2.305h28.009v-2.305h-28.009zM265.248 73.792v.582h28.009v-.582h-28.009zM265.248 195.486v1.35h28.009v-1.35h-28.009zM265.248 190.599v2.304h28.009v-2.304h-28.009zM265.248 187.434v.582h28.009v-.582h-28.009zM265.248 183.524v1.35h28.009v-1.35h-28.009zM265.248 178.636v2.305h28.009v-2.305h-28.009zM265.248 175.472v.581h28.009v-.581h-28.009zM265.248 170.607v2.304h28.009v-2.304h-28.009zM265.248 152.338v.582h28.009v-.582h-28.009zM265.248 148.428v1.35h28.009v-1.35h-28.009zM265.248 145.263v.582h28.009v-.582h-28.009zM265.248 141.33v1.35h28.009v-1.35h-28.009zM265.248 138.165v.582h28.009v-.582h-28.009zM265.248 155.504v2.303h28.009v-2.304l-28.009.001zM265.248 167.442v.582h28.009v-.582h-28.009zM265.248 163.533v1.35h28.009v-1.35h-28.009zM265.248 160.368v.582h28.009v-.582h-28.009zM250.557 633.508v-3.468c0-2.071 1.278-3.514 3.672-3.514 2.348 0 3.789 1.303 3.789 3.724v1.652h5.578v1.606h-13.039zm6.136-1.606v-1.49c0-1.512-.79-2.28-2.464-2.28-1.418 0-2.324.744-2.324 2.118v1.652h4.788zM259.623 624.199l3.974.884v1.606l-13.039-3.118v-2.072l13.039-3.211v1.699l-3.974.907v3.305zm-1.395-3.002c-3.068.698-5.067 1.187-6.136 1.35v.046c1.139.186 3.417.675 6.136 1.303v-2.699zM260.135 615.634c1.301-.116 2.347-.721 2.347-2.094 0-1.327-.744-1.955-2.138-1.955-1.325 0-2.022.558-2.859 2.304-1 2.071-1.906 2.979-3.812 2.979-1.836 0-3.277-1.187-3.277-3.352 0-2.606 1.836-3.281 3.393-3.328v1.583c-.651.07-2.092.256-2.092 1.792 0 1.187.814 1.699 1.813 1.699 1.186 0 1.743-.535 2.51-2.141 1.093-2.304 2.162-3.165 4.161-3.165 2.069 0 3.603 1.187 3.603 3.654 0 2.699-1.743 3.56-3.649 3.653v-1.629zM260.135 607.046c1.301-.116 2.347-.721 2.347-2.094 0-1.327-.744-1.955-2.138-1.955-1.325 0-2.022.558-2.859 2.304-1 2.071-1.906 2.979-3.812 2.979-1.836 0-3.277-1.187-3.277-3.351 0-2.607 1.836-3.282 3.393-3.328v1.582c-.651.07-2.092.256-2.092 1.792 0 1.187.814 1.699 1.813 1.699 1.186 0 1.743-.535 2.51-2.141 1.093-2.304 2.162-3.165 4.161-3.165 2.069 0 3.603 1.187 3.603 3.654 0 2.699-1.743 3.56-3.649 3.654v-1.63zM257.438 593.595v4.329h4.765v-4.818l1.394.209v6.191h-13.039v-6.121h1.417v4.539h4.022v-4.329h1.441zM263.597 591.546h-13.039v-1.931c8.693-3.445 9.948-3.957 10.506-4.12v-.023c-1.72.093-3.673.116-5.788.117h-4.718v-1.49h13.039v1.862c-9.134 3.561-10.366 4.026-10.901 4.189v.023c1.627-.093 3.719-.116 6.067-.116h4.834v1.489zM263.598 574.511v1.257c-.372.046-.744.093-1.348.093.929.465 1.557 1.163 1.557 2.606 0 2.816-2.813 3.608-6.694 3.608-4.533 0-6.741-1.42-6.741-4.096 0-3.212 2.813-3.421 3.603-3.445v1.606c-.465.047-2.208.14-2.208 1.885 0 1.792 2.138 2.397 5.323 2.397 3.23 0 5.322-.465 5.322-2.234 0-1.652-1.371-2.048-3.951-2.048h-.651v2.164h-1.395v-3.746h7.183v-.047zM257.438 566.319v4.328h4.765v-4.817l1.394.209v6.191h-13.039v-6.121h1.417v4.538h4.022v-4.328h1.441zM257.694 562.665h5.927v1.606h-13.04v-3.514c0-2.235 1.232-3.422 3.394-3.422 1.929 0 2.766.978 3.045 1.746.441-1.164 1.464-1.559 3.3-1.559h.512c1.255 0 2.068-.047 2.766-.187v1.583c-.605.186-1.721.209-2.813.209h-.442c-1.836 0-2.673.373-2.673 2.095v1.443h.024zm-1.349 0v-1.559c0-1.56-.836-2.141-2.324-2.141-1.278 0-2.115.581-2.115 2.001v1.722h4.439v-.023z" fill="#C6E1E8"/><path d="M282.907 633.05v1.907l-11.217 2.195v-1.41l9.807-1.762-9.807-1.907v-1.379l11.217 2.356zm0-2.831h-1.17v-1.122h-8.877v1.122h-1.17v-3.637h1.17v1.121h8.877v-1.121h1.17v3.637zm-9.999-7.666h9.999v1.394h-9.999v2.468h-1.218v-6.33h1.218v2.468zm9.999-7.291l-2.836.609v3.125l2.836.625v1.426l-11.217-2.708v-1.843l11.217-2.66v1.426zm-10.16 2.179l6.122 1.298v-2.612l-6.122 1.314zm10.16-4.567H271.69v-1.394h9.999v-3.574h1.218v4.968zm0-5.13h-1.17v-1.122h-8.877v1.122h-1.17v-3.638h1.17v1.122h8.877v-1.122h1.17v3.638zm0-4.285h-1.17v-1.122h-8.877v1.122h-1.17v-3.638h1.17v1.122h8.877v-1.122h1.17v3.638zm-6.89-13.912c.865 0 1.506.23 1.923.689.405.459.608 1.138.608 2.035v1.506h4.359v1.395H271.69v-2.869c0-.908.203-1.592.609-2.051.395-.47 1.025-.705 1.891-.705h1.827zm-1.972 1.394c-.406 0-.699.096-.881.289-.182.181-.272.475-.272.881v1.666h4.455v-1.666c0-.406-.091-.7-.273-.881-.192-.193-.491-.289-.897-.289h-2.132zm3.654-5.874h5.208v1.442h-5.208l-6.009 2.869v-1.539l4.663-2.115-4.663-2.115v-1.459l6.009 2.917zm2.484-8.358c.908 0 1.592.251 2.051.753.449.492.673 1.202.673 2.131v2.116h-1.218v-2.276c0-.395-.117-.716-.352-.961a1.133 1.133 0 00-.85-.369h-1.666c-.321 0-.577.086-.769.257-.203.16-.305.406-.305.737v.32c0 .791-.229 1.416-.689 1.875-.47.459-1.148.689-2.035.689h-.609c-.908 0-1.586-.246-2.035-.737-.46-.502-.689-1.218-.689-2.147v-2.132h1.218v2.292c0 .395.117.716.352.961.235.246.518.369.85.369h1.217c.332 0 .609-.107.834-.32.213-.214.32-.492.32-.834v-.32c0-.759.219-1.346.657-1.763.438-.427 1.101-.641 1.987-.641h1.058zm2.724-6.145h-5.16v3.301h5.16v1.394H271.69v-1.394h4.871v-3.301h-4.871v-1.394h11.217v1.394zm0-7.785l-5.096 2.5.962.577h4.134v1.394H271.69v-1.394h4.839l-4.839-2.965v-1.522l4.903 3.045 6.314-3.205v1.57zm-2.724-8.455c.908 0 1.592.251 2.051.753.449.491.673 1.202.673 2.131v.545c0 .929-.224 1.645-.673 2.147-.459.492-1.143.737-2.051.737h-5.769c-.908 0-1.586-.245-2.035-.737-.46-.502-.689-1.218-.689-2.147v-.545c0-.929.229-1.64.689-2.131.449-.502 1.127-.753 2.035-.753h5.769zm-6.073 1.394c-.332 0-.615.123-.85.368-.235.246-.352.567-.352.962v.865c0 .395.117.716.352.962.235.245.518.368.85.368h6.377c.332 0 .615-.123.85-.368.235-.246.352-.567.352-.962v-.865c0-.395-.117-.716-.352-.962a1.135 1.135 0 00-.85-.368h-6.377z" fill="#D7EEF5"/><path d="M262.11 518.12v1.257c-.371.046-.743.093-1.348.093.93.465 1.558 1.164 1.558 2.607 0 2.816-2.813 3.584-6.695 3.584-4.532 0-6.74-1.42-6.74-4.096 0-3.212 2.812-3.422 3.603-3.445v1.606c-.465.047-2.209.14-2.209 1.885 0 1.792 2.139 2.397 5.323 2.397 3.231 0 5.323-.465 5.323-2.234 0-1.652-1.371-2.048-3.951-2.048h-.651v2.164h-1.395v-3.747h7.182v-.023zM258.136 514.21l3.975.885v1.605l-13.04-3.118v-2.095l13.04-3.211v1.699l-3.975.907v3.328zm-1.418-3.002c-3.068.698-5.067 1.187-6.136 1.35v.046c1.139.187 3.417.675 6.136 1.304v-2.7zM250.488 506.251v2.886h-1.418v-7.378h1.418v2.886h11.622v1.606h-11.622zM255.928 494.475v4.329h4.765v-4.818l1.395.21v6.19h-13.04v-6.12h1.418v4.538h4.021v-4.329h1.441z" fill="#C6E1E8"/><path d="M281.497 519.641l-3.654-2.404a25.898 25.898 0 00-1.105-.705 2.274 2.274 0 00-.625-.241 4.637 4.637 0 00-.882-.064h-1.121c-.332 0-.615.123-.85.369s-.352.566-.352.961v1.763h-1.218v-1.602c0-.93.229-1.64.689-2.132.449-.502 1.127-.753 2.035-.753h.673c.534 0 .94.027 1.218.08.278.054.539.15.785.289.246.128.663.384 1.25.769l3.349 2.211v-3.669h1.218v5.128h-1.41zm-1.122-11.678c.887 0 1.533.214 1.939.641.396.427.593 1.122.593 2.083v1.891h-1.202v-2.035c0-.406-.09-.705-.272-.897-.192-.193-.491-.289-.897-.289h-1.651c-.353 0-.63.107-.833.321-.214.213-.321.496-.321.849v1.554h-1.202v-1.394c0-.331-.107-.609-.32-.833-.214-.224-.497-.337-.849-.337h-1.315c-.405 0-.699.096-.881.289-.182.181-.272.475-.272.881v1.891h-1.202v-1.699c0-.908.203-1.591.609-2.051.395-.47 1.025-.705 1.891-.705h1.009c.823 0 1.442.294 1.859.882.385-.695 1.042-1.042 1.971-1.042h1.346zm2.532-6.95l-2.836.608v3.125l2.836.625v1.426l-11.217-2.708v-1.843l11.217-2.66v1.427zm-10.16 2.179l6.122 1.298v-2.612l-6.122 1.314z" fill="#D7EEF5"/><path d="M249.072 451.466v-3.002c0-3.072 2.115-4.422 6.183-4.422 4.416 0 6.857 1.234 6.857 4.632v2.792h-13.04zm11.669-1.629v-1.117c0-2.281-1.79-3.002-5.463-3.002-3.37 0-4.858.838-4.858 3.002v1.117h10.321zM255.928 436.083v4.329h4.765v-4.817l1.395.209v6.191h-13.04v-6.121h1.418v4.538h4.021v-4.329h1.441zM249.071 434.035v-3.468c0-2.071 1.279-3.514 3.673-3.514 2.347 0 3.789 1.303 3.789 3.724v1.652h5.578v1.606h-13.04zm6.113-1.606v-1.489c0-1.513-.79-2.281-2.463-2.281-1.418 0-2.325.745-2.325 2.118v1.652h4.788zM258.136 424.726l3.975.884v1.606l-13.04-3.119v-2.094l13.04-3.212v1.699l-3.975.908v3.328zm-1.418-3.002c-3.068.698-5.067 1.187-6.136 1.349v.047c1.139.186 3.417.675 6.136 1.303v-2.699zM256.184 415.835h5.927v1.606h-13.04v-3.514c0-2.234 1.232-3.421 3.394-3.421 1.929 0 2.766.977 3.045 1.745.441-1.163 1.464-1.559 3.3-1.559h.512c1.255 0 2.068-.047 2.766-.186v1.582c-.605.187-1.72.21-2.813.21h-.441c-1.837 0-2.673.372-2.673 2.094v1.443h.023zm-1.348 0v-1.559c0-1.559-.837-2.141-2.325-2.141-1.278 0-2.115.582-2.115 2.001v1.723h4.44v-.024zM250.489 406.666v2.886h-1.418v-7.378h1.418v2.886h11.622v1.606h-11.622zM249.071 399.312h9.112c1.371 0 2.766-.396 2.766-2.048 0-1.676-1.162-2.071-2.766-2.071h-9.112v-1.606h9.135c2.371 0 4.114.861 4.114 3.7 0 2.746-1.627 3.631-4.044 3.631h-9.205v-1.606zM256.184 389.607h5.927v1.606h-13.04v-3.515c0-2.234 1.232-3.421 3.394-3.421 1.929 0 2.766.978 3.045 1.746.441-1.164 1.464-1.559 3.3-1.559h.512c1.255 0 2.068-.047 2.766-.187v1.583c-.605.186-1.72.209-2.813.209h-.441c-1.837 0-2.673.373-2.673 2.095v1.443h.023zm-1.348 0v-1.559c0-1.56-.837-2.142-2.325-2.142-1.278 0-2.115.582-2.115 2.002v1.722h4.44v-.023zM255.928 376.341v4.329h4.765v-4.818l1.395.21v6.19h-13.04v-6.12h1.418v4.538h4.021v-4.329h1.441z" fill="#C6E1E8"/><path d="M280.137 450.282c.887 0 1.565.246 2.035.738.46.48.689 1.132.689 1.955v.16c0 .822-.229 1.479-.689 1.971-.47.481-1.148.721-2.035.721h-5.769c-.897 0-1.576-.24-2.035-.721-.459-.481-.689-1.138-.689-1.971v-.16c0-.834.23-1.491.689-1.972.459-.48 1.138-.721 2.035-.721h5.769zm-6.073 1.362c-.332 0-.615.129-.85.385-.245.246-.368.561-.368.946v.16c0 .384.123.705.368.961.235.246.518.369.85.369h6.378c.331 0 .619-.123.865-.369.235-.256.352-.577.352-.961v-.16c0-.385-.117-.7-.352-.946a1.163 1.163 0 00-.865-.385h-6.378zm6.073-8.04c.876 0 1.549.241 2.019.721.47.481.705 1.085.705 1.811v.401c0 .726-.235 1.33-.705 1.811-.47.48-1.143.721-2.019.721h-5.769c-.908 0-1.586-.241-2.035-.721-.459-.492-.689-1.202-.689-2.132v-1.842h1.218v2.003c0 .395.117.715.352.961s.518.369.85.369h1.746v-1.41c0-.919.203-1.598.609-2.036.406-.438 1.058-.657 1.955-.657h1.763zm.305 4.103c.341 0 .63-.112.865-.337.235-.224.352-.529.352-.913v-.241c0-.384-.117-.689-.352-.913a1.208 1.208 0 00-.865-.337h-2.372c-.331 0-.588.102-.769.305-.193.192-.289.481-.289.865v1.571h3.43zm-3.991-5.38h-1.602v-1.603h1.602v1.603zm6.41 0h-1.602v-1.603h1.602v1.603zm-2.532-7.844c.887 0 1.533.214 1.939.641.396.427.593 1.122.593 2.083v1.939h-1.202v-2.083c0-.406-.09-.705-.272-.897-.192-.193-.491-.289-.897-.289h-2.036c-.352 0-.63.107-.833.321-.213.213-.32.497-.32.849v1.939h-5.657v-4.263h1.202v2.901h3.253v-.497c0-.822.203-1.469.609-1.939.406-.47 1.036-.705 1.891-.705h1.73zm0-6.726c.887 0 1.533.214 1.939.641.396.427.593 1.122.593 2.083v1.939h-1.202v-2.083c0-.406-.09-.705-.272-.897-.192-.193-.491-.289-.897-.289h-2.036c-.352 0-.63.107-.833.321-.213.213-.32.496-.32.849v1.939h-5.657v-4.263h1.202v2.901h3.253v-.497c0-.822.203-1.469.609-1.939.406-.47 1.036-.705 1.891-.705h1.73zm2.532-5.569h-1.202v-1.939h-8.749l.833 2.1h-1.298l-.801-1.939v-1.523h10.015v-1.586h1.202v4.887zm-1.41-6.261l-3.654-2.404a28.176 28.176 0 00-1.105-.705 2.302 2.302 0 00-.625-.24c-.203-.043-.497-.064-.882-.064h-1.121c-.332 0-.615.123-.85.368-.235.246-.352.567-.352.962v1.763h-1.218v-1.603c0-.929.23-1.64.689-2.131.449-.502 1.127-.753 2.035-.753h.673c.534 0 .94.026 1.218.08.278.053.54.149.785.288.246.128.663.385 1.25.769l3.349 2.212v-3.67h1.218v5.128h-1.41zm-1.122-16.305c.919 0 1.571.214 1.955.641.385.417.577 1.111.577 2.083v3.141h-11.217v-2.949c0-.961.198-1.687.593-2.179.384-.491 1.02-.737 1.907-.737h6.185zM274 401.016c-.353 0-.631.107-.834.321-.213.213-.32.496-.32.849v1.907h8.813v-1.891c0-.406-.09-.705-.272-.897-.192-.193-.491-.289-.897-.289H274zm8.861-3.163h-11.217v-5.256h1.17v3.862h3.669v-3.461h1.17v3.461h4.039v-3.862h1.169v5.256zm0-9.497c0 .93-.224 1.645-.673 2.147-.459.492-1.143.738-2.051.738h-5.769c-.908 0-1.586-.246-2.035-.738-.459-.502-.689-1.217-.689-2.147v-1.955h1.218v2.115c0 .396.117.716.352.962s.518.368.85.368h6.378c.331 0 .614-.122.849-.368s.352-.566.352-.962v-2.115h1.218v1.955zm-1.41-6.166l-3.654-2.403a25.898 25.898 0 00-1.105-.705 2.274 2.274 0 00-.625-.241c-.203-.043-.497-.064-.882-.064h-1.121c-.332 0-.615.123-.85.369-.235.245-.352.566-.352.961v1.763h-1.218v-1.603c0-.929.23-1.639.689-2.131.449-.502 1.127-.753 2.035-.753h.673c.534 0 .94.027 1.218.08.278.053.54.15.785.288.246.129.663.385 1.25.77l3.349 2.211v-3.67h1.218v5.128h-1.41zm-1.314-12.254c.887 0 1.565.245 2.035.737.46.481.689 1.132.689 1.955v.16c0 .823-.229 1.48-.689 1.971-.47.481-1.148.721-2.035.721h-5.769c-.897 0-1.576-.24-2.035-.721-.459-.481-.689-1.138-.689-1.971v-.16c0-.833.23-1.49.689-1.971.459-.481 1.138-.721 2.035-.721h5.769zm-6.073 1.362c-.332 0-.615.128-.85.384-.245.246-.368.561-.368.946v.16c0 .385.123.705.368.962.235.245.518.368.85.368h6.378c.331 0 .619-.123.865-.368.235-.257.352-.577.352-.962v-.16c0-.385-.117-.7-.352-.946a1.162 1.162 0 00-.865-.384h-6.378zm7.387-2.56l-3.654-2.403a27.368 27.368 0 00-1.105-.706 2.302 2.302 0 00-.625-.24c-.203-.043-.497-.064-.882-.064h-1.121c-.332 0-.615.123-.85.369-.235.245-.352.566-.352.961v1.763h-1.218v-1.603c0-.929.23-1.64.689-2.131.449-.502 1.127-.753 2.035-.753h.673c.534 0 .94.026 1.218.08.278.053.54.149.785.288.246.129.663.385 1.25.77l3.349 2.211v-3.67h1.218v5.128h-1.41zm-1.314-12.254c.887 0 1.565.245 2.035.737.46.48.689 1.132.689 1.955v.16c0 .823-.229 1.48-.689 1.971-.47.481-1.148.721-2.035.721h-5.769c-.897 0-1.576-.24-2.035-.721-.459-.481-.689-1.138-.689-1.971v-.16c0-.834.23-1.491.689-1.971.459-.481 1.138-.721 2.035-.721h5.769zm-6.073 1.362c-.332 0-.615.128-.85.384-.245.246-.368.561-.368.946v.16c0 .385.123.705.368.962.235.245.518.368.85.368h6.378c.331 0 .619-.123.865-.368.235-.257.352-.577.352-.962v-.16c0-.385-.117-.7-.352-.946a1.162 1.162 0 00-.865-.384h-6.378z" fill="#D7EEF5"/><path d="M250.07 286.926v.954h34.099v-.954H250.07zM250.07 283.528v1.606h34.099v-1.606H250.07zM250.07 281.317v.396h34.099v-.396H250.07zM250.07 278.547v.955h34.099v-.955H250.07zM250.07 275.149v1.606h34.099v-1.606H250.07zM250.07 272.962v.396h34.099v-.396H250.07zM250.07 269.541v1.606h34.099v-1.606H250.07zM250.07 256.764v.395h34.099v-.395H250.07zM250.07 253.995v.954h34.099v-.954H250.07zM250.07 251.807v.396h34.099v-.396H250.07zM250.07 249.061v.954h34.099v-.954H250.07zM250.07 246.873v.396h34.099v-.396H250.07zM250.07 258.975v1.606h34.099v-1.606H250.07zM250.07 267.33v.396h34.099v-.396H250.07zM250.07 264.584v.954h34.099v-.954H250.07zM250.07 262.373v.395h34.099v-.395H250.07zM250.07 239.053v.396h34.099v-.396H250.07zM250.07 236.284v.954h34.099v-.954H250.07zM250.07 234.096v.395h34.099v-.395H250.07zM250.07 231.326v.955h34.099v-.955H250.07zM250.07 241.241v1.606h34.099v-1.606H250.07zM250.07 244.662v.396h34.099v-.396H250.07zM250.07 329.748v.954h34.099v-.954H250.07zM250.07 326.35v1.606h34.099v-1.606H250.07zM250.07 324.139v.396h34.099v-.396H250.07zM250.07 321.37v.954h34.099v-.954H250.07zM250.07 317.972v1.606h34.099v-1.606H250.07zM250.07 315.784v.396h34.099v-.396H250.07zM250.07 312.363v1.606h34.099v-1.606H250.07zM250.07 299.586v.396h34.099v-.396H250.07zM250.07 296.817v.954h34.099v-.954H250.07zM250.07 294.629v.396h34.099v-.396H250.07zM250.07 291.883v.954h34.099v-.954H250.07zM250.07 289.695v.396h34.099v-.396H250.07zM250.07 301.798v1.605h34.099v-1.605H250.07zM250.07 310.152v.396h34.099v-.396H250.07zM250.07 307.406v.954h34.099v-.954H250.07zM250.07 305.195v.396h34.099v-.396H250.07zM239.75 178.614h-3.464c-2.069 0-3.51-1.28-3.51-3.678 0-2.35 1.302-3.793 3.719-3.793h1.651v-5.586h1.604v13.057zm-1.604-6.121h-1.488c-1.511 0-2.278.791-2.278 2.467 0 1.419.744 2.327 2.115 2.327h1.651v-4.794zM230.452 169.537l.883-3.98h1.604l-3.115 13.057h-2.069l-3.207-13.057h1.697l.906 3.98h3.301zm-2.999 1.42c.698 3.072 1.186 5.073 1.348 6.144h.047c.186-1.14.674-3.421 1.302-6.144h-2.697zM221.899 169.048c-.116-1.303-.721-2.35-2.092-2.35-1.325 0-1.952.744-1.952 2.141 0 1.326.557 2.024 2.301 2.862 2.068 1.001 2.975 1.909 2.975 3.817 0 1.839-1.186 3.282-3.347 3.282-2.603 0-3.278-1.839-3.324-3.398h1.581c.069.651.255 2.094 1.789 2.094 1.186 0 1.697-.814 1.697-1.815 0-1.187-.534-1.745-2.138-2.513-2.301-1.094-3.161-2.165-3.161-4.166 0-2.072 1.185-3.608 3.649-3.608 2.696 0 3.556 1.746 3.649 3.654h-1.627zM213.322 169.048c-.116-1.303-.721-2.35-2.092-2.35-1.325 0-1.953.744-1.953 2.141 0 1.326.558 2.024 2.302 2.862 2.068 1.001 2.975 1.909 2.975 3.817 0 1.839-1.186 3.282-3.347 3.282-2.604 0-3.278-1.839-3.324-3.398h1.58c.07.651.256 2.094 1.79 2.094 1.186 0 1.697-.814 1.697-1.815 0-1.187-.535-1.745-2.138-2.513-2.302-1.094-3.162-2.165-3.162-4.166 0-2.072 1.186-3.608 3.65-3.608 2.696 0 3.556 1.746 3.649 3.654h-1.627zM199.887 171.748h4.323v-4.771h-4.812l.21-1.397h6.182v13.057h-6.113v-1.42h4.533v-4.026h-4.323v-1.443zM197.841 165.557v13.057h-1.929c-3.44-8.704-3.951-9.961-4.114-10.52h-.023c.093 1.722.116 3.677.116 5.795v4.725h-1.488v-13.057h1.86c3.556 9.147 4.021 10.38 4.184 10.915h.023c-.093-1.629-.116-3.723-.116-6.074v-4.841h1.487zM180.827 165.557h1.255c.047.373.093.745.093 1.35.465-.931 1.162-1.559 2.604-1.559 2.812 0 3.602 2.816 3.602 6.702 0 4.539-1.418 6.75-4.091 6.75-3.207 0-3.416-2.816-3.44-3.608h1.604c.047.466.14 2.211 1.883 2.211 1.79 0 2.394-2.141 2.394-5.329 0-3.235-.465-5.33-2.231-5.33-1.651 0-2.046 1.373-2.046 3.957v.651h2.162v1.397h-3.742v-7.192h-.047zM172.645 171.748h4.324v-4.771h-4.812l.209-1.397h6.183v13.057h-6.113v-1.42h4.533v-4.026h-4.324v-1.443zM168.996 171.494v-5.935h1.603v13.056h-3.509c-2.232 0-3.417-1.233-3.417-3.398 0-1.931.976-2.769 1.743-3.049-1.162-.442-1.557-1.466-1.557-3.304v-.512c0-1.257-.047-2.072-.186-2.77h1.58c.186.605.21 1.722.21 2.816v.442c0 1.839.372 2.677 2.092 2.677h1.441v-.023zm0 1.349h-1.558c-1.557 0-2.138.838-2.138 2.328 0 1.28.581 2.118 1.999 2.118h1.72v-4.446h-.023zM124.507 167.07h1.255c.046.372.093.745.093 1.35.465-.931 1.162-1.56 2.603-1.56 2.813 0 3.58 2.816 3.58 6.703 0 4.538-1.418 6.749-4.091 6.749-3.208 0-3.417-2.816-3.44-3.607h1.604c.046.465.139 2.211 1.882 2.211 1.79 0 2.394-2.141 2.394-5.33 0-3.235-.464-5.329-2.231-5.329-1.65 0-2.045 1.373-2.045 3.956v.652h2.161v1.396h-3.742v-7.191h-.023zM120.602 171.05l.883-3.98h1.604l-3.115 13.056h-2.092l-3.207-13.056h1.697l.906 3.98h3.324zm-2.998 1.419c.697 3.072 1.185 5.074 1.348 6.144h.046c.186-1.14.674-3.421 1.302-6.144h-2.696zM112.653 178.706h2.882v1.42h-7.368v-1.42h2.882V167.07h1.604v11.636zM100.891 173.261h4.324v-4.771h-4.812l.21-1.397h6.182v13.056h-6.113v-1.419h4.533v-4.026h-4.324v-1.443z" fill="#C6E1E8"/><path d="M239.462 145.558h1.907l2.196 11.217h-1.411l-1.762-9.807-1.907 9.807h-1.378l2.355-11.217zm-2.831 0v1.17h-1.121v8.877h1.121v1.17h-3.637v-1.17h1.121v-8.877h-1.121v-1.17h3.637zm-7.666 9.999v-9.999h1.394v9.999h2.468v1.218h-6.33v-1.218h2.468zm-7.291-9.999l.609 2.836h3.125l.625-2.836h1.426l-2.708 11.217h-1.843l-2.66-11.217h1.426zm2.179 10.16l1.298-6.122h-2.612l1.314 6.122zm-4.567-10.16v11.217h-1.394v-9.999h-3.573v-1.218h4.967zm-5.13 0v1.17h-1.122v8.877h1.122v1.17h-3.638v-1.17h1.122v-8.877h-1.122v-1.17h3.638zm-4.285 0v1.17h-1.122v8.877h1.122v1.17h-3.638v-1.17h1.122v-8.877h-1.122v-1.17h3.638zm-13.912 6.89c0-.865.23-1.506.689-1.923.459-.406 1.138-.608 2.035-.608h1.507v-4.359h1.394v11.217h-2.869c-.908 0-1.592-.203-2.051-.609-.47-.395-.705-1.025-.705-1.891v-1.827zm1.394 1.972c0 .405.096.699.289.881.181.181.475.272.881.272h1.667v-4.455h-1.667c-.406 0-.7.091-.881.273-.193.192-.289.491-.289.897v2.132zm-5.874-3.654v-5.208h1.442v5.208l2.869 6.009h-1.539l-2.115-4.663-2.115 4.663h-1.458l2.916-6.009zm-8.358-2.484c0-.908.251-1.592.753-2.051.492-.449 1.202-.673 2.132-.673h2.115v1.218h-2.276c-.395 0-.715.117-.961.352a1.133 1.133 0 00-.369.85v1.666c0 .321.086.577.257.769.16.203.406.305.737.305h.32c.791 0 1.416.229 1.875.689.46.47.689 1.148.689 2.035v.609c0 .908-.245 1.586-.737 2.035-.502.459-1.218.689-2.147.689h-2.132v-1.218h2.292c.395 0 .716-.117.962-.352.245-.235.368-.518.368-.85v-1.217c0-.332-.107-.609-.32-.834-.214-.213-.492-.32-.834-.32h-.32c-.759 0-1.346-.219-1.763-.657-.427-.438-.641-1.101-.641-1.987v-1.058zm-6.145-2.724v5.16h3.301v-5.16h1.395v11.217h-1.395v-4.871h-3.301v4.871h-1.394v-11.217h1.394zm-7.785 0l2.5 5.096.577-.962v-4.134h1.394v11.217h-1.394v-4.839l-2.965 4.839h-1.522l3.045-4.903-3.205-6.314h1.57zm-8.455 2.724c0-.908.251-1.592.753-2.051.491-.449 1.202-.673 2.131-.673h.545c.929 0 1.645.224 2.147.673.492.459.738 1.143.738 2.051v5.769c0 .908-.246 1.586-.738 2.035-.502.459-1.218.689-2.147.689h-.545c-.929 0-1.64-.23-2.131-.689-.502-.449-.753-1.127-.753-2.035v-5.769zm1.394 6.073c0 .332.123.615.368.85.246.235.567.352.962.352h.865c.396 0 .716-.117.962-.352.245-.235.368-.518.368-.85v-6.377c0-.332-.123-.615-.368-.85-.246-.235-.566-.352-.962-.352h-.865c-.395 0-.716.117-.962.352a1.135 1.135 0 00-.368.85v6.377zM125.543 146.968l-2.404 3.654c-.352.534-.587.902-.705 1.105a2.302 2.302 0 00-.24.625c-.043.203-.064.497-.064.882v1.121c0 .332.123.615.368.85.246.235.567.352.962.352h1.763v1.218h-1.603c-.929 0-1.64-.23-2.131-.689-.502-.449-.753-1.127-.753-2.035v-.673c0-.534.026-.94.08-1.218.053-.278.149-.54.288-.785.128-.246.385-.663.769-1.25l2.212-3.349h-3.67v-1.218h5.128v1.41zm-11.678 1.122c0-.887.214-1.533.641-1.939.428-.396 1.122-.593 2.084-.593h1.89v1.202h-2.035c-.406 0-.705.09-.897.272-.192.192-.289.491-.289.897v1.651c0 .353.107.63.321.833.214.214.497.321.849.321h1.555v1.202h-1.394c-.332 0-.609.106-.834.32-.224.214-.336.497-.336.849v1.315c0 .405.096.699.288.881.182.181.476.272.882.272h1.89v1.202h-1.698c-.908 0-1.592-.203-2.051-.609-.47-.395-.705-1.025-.705-1.891v-1.009c0-.823.293-1.443.881-1.859-.695-.385-1.042-1.042-1.042-1.971v-1.346zm-6.95-2.532l.609 2.836h3.125l.625-2.836h1.426l-2.708 11.217h-1.843l-2.66-11.217h1.426zm2.179 10.16l1.298-6.122h-2.612l1.314 6.122zM216.753 80.176c0-.886.246-1.565.737-2.035.481-.46 1.132-.689 1.955-.689h.16c.823 0 1.48.23 1.971.69.481.47.721 1.148.721 2.034v5.77c0 .897-.24 1.575-.721 2.035-.48.459-1.137.689-1.971.689h-.16c-.833 0-1.49-.23-1.971-.69-.481-.459-.721-1.137-.721-2.035v-5.769zm1.362 6.074c0 .331.128.614.385.85.245.245.56.368.945.368h.16c.385 0 .705-.123.962-.369.245-.235.368-.518.368-.85v-6.377c0-.331-.123-.62-.368-.865-.257-.236-.577-.353-.962-.353h-.16c-.385 0-.7.118-.945.353a1.16 1.16 0 00-.385.865v6.378zm-8.04-6.074c0-.876.24-1.549.721-2.019.481-.47 1.084-.705 1.811-.705h.4c.727 0 1.33.235 1.811.705.481.47.721 1.143.721 2.02v5.768c0 .908-.24 1.587-.721 2.036-.491.459-1.202.689-2.131.689h-1.843v-1.218h2.003c.395 0 .716-.118.962-.353.245-.235.368-.518.368-.85v-1.746h-1.41c-.919 0-1.597-.203-2.035-.609-.438-.406-.657-1.058-.657-1.955v-1.763zm4.102-.304c0-.342-.112-.63-.336-.865-.225-.236-.529-.353-.914-.353h-.24c-.385 0-.689.118-.914.353a1.207 1.207 0 00-.336.865v2.372c0 .33.101.587.304.769.193.192.481.288.866.288h1.57v-3.43zm-5.38 3.99v1.603h-1.602v-1.603h1.602zm0-6.41v1.603h-1.602v-1.603h1.602zm-7.843 2.532c0-.887.213-1.533.641-1.939.427-.395 1.121-.593 2.083-.593h1.939v1.202h-2.083c-.406 0-.706.09-.898.272-.192.193-.288.492-.288.898v2.035c0 .353.107.63.32.833.214.214.497.32.85.32h1.939v5.658h-4.263v-1.202h2.9v-3.253h-.496c-.823 0-1.469-.203-1.939-.61-.47-.405-.705-1.036-.705-1.89v-1.73zm-6.727 0c0-.887.214-1.533.641-1.939.428-.395 1.122-.593 2.084-.593h1.939v1.202h-2.084c-.405 0-.705.09-.897.272-.192.193-.288.492-.288.898v2.035c0 .353.106.63.32.833.214.214.497.32.849.32h1.939v5.658h-4.262v-1.202h2.9v-3.253h-.496c-.823 0-1.469-.203-1.939-.61-.47-.405-.706-1.036-.706-1.89v-1.73zm-5.568-2.532v1.202h-1.939v8.75l2.099-.834v1.298l-1.939.802h-1.522V78.654h-1.587v-1.202h4.888zm-6.261 1.41l-2.404 3.654c-.353.534-.588.903-.705 1.106a2.27 2.27 0 00-.241.625 4.632 4.632 0 00-.064.881v1.122c0 .331.123.614.369.85.246.234.566.352.961.352h1.763v1.218h-1.602c-.93 0-1.64-.23-2.132-.69-.502-.448-.753-1.127-.753-2.035v-.673c0-.534.027-.94.08-1.218.054-.277.15-.54.289-.785.128-.246.384-.662.769-1.25l2.211-3.349h-3.669v-1.218h5.128v1.41zm-16.306 1.122c0-.919.214-1.57.641-1.955.417-.385 1.111-.577 2.084-.577h3.141V88.67h-2.949c-.962 0-1.688-.198-2.179-.593-.492-.385-.738-1.02-.738-1.907v-6.186zm1.395 6.33c0 .353.106.63.32.833.214.214.497.32.849.32h1.907v-8.813h-1.891c-.406 0-.705.09-.897.272-.192.193-.288.492-.288.898v6.49zm-3.163-8.862V88.67h-5.256V87.5h3.862v-3.67h-3.462v-1.17h3.462v-4.038h-3.862v-1.17h5.256zm-9.497 0c.929 0 1.645.225 2.147.673.491.46.737 1.143.737 2.051v5.77c0 .907-.246 1.586-.737 2.035-.502.459-1.218.689-2.147.689h-1.955v-1.218h2.115c.395 0 .716-.118.961-.353.246-.235.369-.518.369-.85v-6.377c0-.331-.123-.614-.369-.85-.245-.234-.566-.352-.961-.352h-2.115v-1.218h1.955zm-6.166 1.41l-2.404 3.654c-.352.534-.587.903-.705 1.106a2.235 2.235 0 00-.24.625c-.043.203-.064.496-.064.881v1.122c0 .331.122.614.368.85.246.234.566.352.962.352h1.762v1.218h-1.602c-.93 0-1.64-.23-2.131-.69-.503-.448-.754-1.127-.754-2.035v-.673c0-.534.027-.94.08-1.218.054-.277.15-.54.289-.785.128-.246.385-.662.769-1.25l2.212-3.349h-3.67v-1.218h5.128v1.41zm-12.255 1.314c0-.886.246-1.565.737-2.035.481-.46 1.133-.689 1.955-.689h.161c.822 0 1.479.23 1.971.69.48.47.721 1.148.721 2.034v5.77c0 .897-.241 1.575-.721 2.035-.481.459-1.138.689-1.971.689h-.161c-.833 0-1.49-.23-1.971-.69-.48-.459-.721-1.137-.721-2.035v-5.769zm1.362 6.074c0 .331.128.614.385.85.246.245.561.368.945.368h.161c.384 0 .705-.123.961-.369.246-.235.369-.518.369-.85v-6.377c0-.331-.123-.62-.369-.865-.256-.236-.577-.353-.961-.353h-.161c-.384 0-.699.118-.945.353a1.16 1.16 0 00-.385.865v6.378zm-2.559-7.388l-2.404 3.654c-.353.534-.588.903-.705 1.106a2.27 2.27 0 00-.241.625 4.632 4.632 0 00-.064.881v1.122c0 .331.123.614.369.85.246.234.566.352.961.352h1.763v1.218h-1.602c-.93 0-1.64-.23-2.132-.69-.502-.448-.753-1.127-.753-2.035v-.673c0-.534.027-.94.08-1.218.054-.277.15-.54.289-.785.128-.246.384-.662.769-1.25l2.211-3.349h-3.669v-1.218h5.128v1.41zm-12.255 1.314c0-.886.246-1.565.737-2.035.481-.46 1.133-.689 1.955-.689h.16c.823 0 1.48.23 1.972.69.48.47.721 1.148.721 2.034v5.77c0 .897-.241 1.575-.721 2.035-.481.459-1.138.689-1.972.689h-.16c-.833 0-1.49-.23-1.971-.69-.481-.459-.721-1.137-.721-2.035v-5.769zm1.362 6.074c0 .331.128.614.385.85.245.245.561.368.945.368h.16c.385 0 .706-.123.962-.369.246-.235.369-.518.369-.85v-6.377c0-.331-.123-.62-.369-.865-.256-.236-.577-.353-.962-.353h-.16c-.384 0-.7.118-.945.353a1.16 1.16 0 00-.385.865v6.378z" fill="#D7EEF5"/><path d="M209.696 112.495h-2.998c-3.069 0-4.417-2.118-4.417-6.191 0-4.422 1.232-6.866 4.626-6.866h2.789v13.057zm-1.627-11.707h-1.116c-2.278 0-2.998 1.792-2.998 5.469 0 3.375.837 4.865 2.998 4.865h1.139v-10.334h-.023zM194.332 105.606h4.323v-4.771h-4.811l.209-1.397h6.183v13.057h-6.113v-1.42h4.532v-4.026h-4.323v-1.443zM192.286 112.495h-3.464c-2.068 0-3.51-1.28-3.51-3.678 0-2.35 1.302-3.793 3.719-3.793h1.651v-5.586h1.604v13.057zm-1.604-6.144h-1.488c-1.511 0-2.278.791-2.278 2.466 0 1.42.744 2.328 2.115 2.328h1.651v-4.794zM182.989 103.418l.883-3.98h1.604l-3.115 13.057h-2.092l-3.207-13.057h1.696l.907 3.98h3.324zm-2.999 1.42c.698 3.072 1.186 5.073 1.348 6.144h.047c.186-1.14.674-3.421 1.301-6.144h-2.696zM174.086 105.35v-5.934h1.604v13.056h-3.51c-2.231 0-3.416-1.234-3.416-3.398 0-1.932.976-2.77 1.743-3.049-1.162-.442-1.557-1.466-1.557-3.305v-.512c0-1.256-.047-2.071-.186-2.77h1.58c.186.606.209 1.723.209 2.817v.442c0 1.839.372 2.676 2.092 2.676h1.441v-.023zm0 1.35h-1.557c-1.557 0-2.138.838-2.138 2.327 0 1.28.581 2.118 1.999 2.118h1.72V106.7h-.024zM164.952 111.052h2.882v1.42h-7.368v-1.42h2.882V99.415h1.604v11.637zM157.607 112.495v-9.123c0-1.374-.396-2.77-2.046-2.77-1.673 0-2.069 1.164-2.069 2.77v9.123h-1.603v-9.147c0-2.374.86-4.119 3.695-4.119 2.743 0 3.626 1.629 3.626 4.049v9.217h-1.603zM147.914 105.35v-5.934h1.603v13.056h-3.509c-2.232 0-3.417-1.234-3.417-3.398 0-1.932.976-2.77 1.743-3.049-1.162-.442-1.557-1.466-1.557-3.305v-.512c0-1.256-.047-2.071-.186-2.77h1.58c.186.606.21 1.723.21 2.817v.442c0 1.839.371 2.676 2.092 2.676h1.441v-.023zm0 1.35h-1.558c-1.557 0-2.138.838-2.138 2.327 0 1.28.581 2.118 1.999 2.118h1.72V106.7h-.023zM134.665 105.606h4.323v-4.771h-4.811l.209-1.397h6.183v13.057h-6.113v-1.42h4.532v-4.026h-4.323v-1.443z" fill="#C6E1E8"/></g><defs><linearGradient id="paint0_linear" x1="167.199" y1="550.732" x2="167.199" y2="-303.5" gradientUnits="userSpaceOnUse"><stop stop-color="#fff"/><stop offset="1" stop-color="#E1F4FD"/></linearGradient><filter id="filter0_d" x=".292" y=".938" width="360.56" height="709.124" filterUnits="userSpaceOnUse" color-interpolation-filters="sRGB"><feFlood flood-opacity="0" result="BackgroundImageFix"/><feColorMatrix in="SourceAlpha" values="0 0 0 0 0 0 0 0 0 0 0 0 0 0 0 0 0 0 127 0" result="hardAlpha"/><feOffset dx="13.354"/><feGaussianBlur stdDeviation="20.031"/><feColorMatrix values="0 0 0 0 0.555208 0 0 0 0 0.752283 0 0 0 0 0.8125 0 0 0 0.2 0"/><feBlend in2="BackgroundImageFix" result="effect1_dropShadow"/><feBlend in="SourceGraphic" in2="effect1_dropShadow" result="shape"/></filter></defs></svg>