<svg width="30" height="31" fill="none" xmlns="http://www.w3.org/2000/svg"><path d="M28.909 17.945c.924-7.785-.445-12.7-2.915-14.922l.002-.002C22.01-.775 8.548-1.337 3.779 3.191 1.638 5.408.883 8.659.801 12.684.718 16.709.62 24.25 7.648 26.297h.006l-.006 3.125s-.048 1.265.76 1.52c.925.3 1.344-.288 4.22-3.724 4.81.417 8.505-.539 8.924-.678.972-.326 6.468-1.053 7.357-8.595zM13.101 25.02s-3.044 3.796-3.99 4.781c-.31.32-.65.291-.645-.345 0-.417.023-5.187.023-5.187-5.959-1.707-5.607-8.13-5.543-11.49.065-3.36.68-6.113 2.493-7.966C9.624.89 21.426 1.767 24.433 4.593c3.676 3.26 2.367 12.466 2.375 12.78-.755 6.296-5.209 6.695-6.028 6.967-.35.116-3.599.952-7.678.68z" fill="#7D3DAF"/><path d="M28.909 17.945c.924-7.785-.445-12.7-2.915-14.922l.002-.002C22.01-.775 8.548-1.337 3.779 3.191 1.638 5.408.883 8.659.801 12.684.718 16.709.62 24.25 7.648 26.297h.006l-.006 3.125s-.048 1.265.76 1.52c.925.3 1.344-.288 4.22-3.724 4.81.417 8.505-.539 8.924-.678.972-.326 6.468-1.053 7.357-8.595z" fill="#7D3DAF"/><path d="M14.787 5.55c-.497 0-.497.775 0 .782 3.858.03 7.036 2.719 7.07 7.652 0 .52.763.514.756-.007h-.001c-.041-5.315-3.51-8.397-7.825-8.427z" fill="#fff"/><path d="M19.862 13.166c-.012.514.75.539.756.018.063-2.93-1.744-5.345-5.14-5.6-.497-.035-.549.746-.053.782 2.945.224 4.497 2.233 4.437 4.8zM19.048 16.5c-.638-.37-1.288-.14-1.557.223l-.562.727c-.285.37-.819.32-.819.32-3.893-1.029-4.934-5.103-4.934-5.103s-.047-.551.309-.847l.703-.581c.351-.28.573-.95.215-1.61-.956-1.728-1.597-2.323-1.924-2.78-.344-.43-.86-.528-1.398-.237H9.07c-1.118.654-2.34 1.877-1.95 3.136.668 1.328 1.895 5.56 5.807 8.759 1.838 1.512 4.746 3.063 5.981 3.42l.012.018c1.217.406 2.4-.865 3.031-2.016v-.009c.28-.557.188-1.084-.222-1.429-.726-.707-1.821-1.489-2.681-1.991z" fill="#fff"/><path d="M16.01 10.468c1.241.072 1.843.72 1.908 2.052.023.52.779.485.756-.036-.083-1.739-.99-2.707-2.622-2.798-.498-.03-.544.752-.042.782z" fill="#fff"/></svg>