<svg width="30" height="30" fill="none" xmlns="http://www.w3.org/2000/svg"><g clip-path="url(#clip0)"><path d="M25.65 4.311C22.8 1.556 19.05 0 15.056 0 3.594 0-3.604 12.419 2.12 22.297L0 30l7.919-2.065c3.45 1.864 6.276 1.699 7.145 1.809 13.291 0 19.907-16.08 10.567-25.384l.019-.049z" fill="#4CAF50"/><path d="M15.083 27.189l-.007-.002h-.02c-3.978 0-6.519-1.883-6.769-1.992L3.6 26.414l1.256-4.556-.299-.47a12.336 12.336 0 01-1.895-6.574c0-10.992 13.431-16.488 21.204-8.719 7.754 7.688 2.31 21.094-8.783 21.094z" fill="#4CAF50"/><path d="M21.884 17.884l-.011.093c-.377-.187-2.21-1.083-2.55-1.207-.767-.284-.55-.045-2.022 1.64-.218.244-.436.262-.807.094-.375-.188-1.579-.582-3.004-1.857-1.11-.993-1.855-2.212-2.075-2.587-.366-.633.4-.723 1.098-2.043.125-.262.06-.468-.032-.654-.093-.188-.84-2.025-1.152-2.758-.3-.73-.609-.638-.84-.638-.72-.062-1.246-.052-1.71.43-2.018 2.218-1.509 4.505.217 6.938 3.393 4.44 5.2 5.258 8.505 6.392.893.284 1.707.244 2.35.152.718-.114 2.21-.902 2.52-1.783.32-.881.32-1.612.225-1.781-.092-.169-.337-.263-.712-.431z" fill="#FAFAFA"/></g><defs><clipPath id="clip0"><path fill="#fff" d="M0 0h30v30H0z"/></clipPath></defs></svg>